<?xml version="1.0" encoding="UTF-8" standalone="no"?><svg xmlns="http://www.w3.org/2000/svg" xmlns:xlink="http://www.w3.org/1999/xlink" contentScriptType="application/ecmascript" contentStyleType="text/css" height="555px" preserveAspectRatio="none" style="width:939px;height:555px;background:#FFFFFF;" version="1.1" viewBox="0 0 939 555" width="939px" zoomAndPan="magnify"><defs><filter height="300%" id="f21lxvo15e2wm" width="300%" x="-1" y="-1"><feGaussianBlur result="blurOut" stdDeviation="2.0"/><feColorMatrix in="blurOut" result="blurOut2" type="matrix" values="0 0 0 0 0 0 0 0 0 0 0 0 0 0 0 0 0 0 .4 0"/><feOffset dx="4.0" dy="4.0" in="blurOut2" result="blurOut3"/><feBlend in="SourceGraphic" in2="blurOut3" mode="normal"/></filter></defs><g><!--MD5=[6f4d1d1935cf0396bf559c82395eb7e5]
cluster bankingDatabase--><path d="M158,299.5 C158,289.5 488,289.5 488,289.5 C488,289.5 818,289.5 818,299.5 L818,538.5 C818,548.5 488,548.5 488,548.5 C488,548.5 158,548.5 158,538.5 L158,299.5 " fill="#FFFFFF" filter="url(#f21lxvo15e2wm)" style="stroke:#000000;stroke-width:1.5;"/><path d="M158,299.5 C158,309.5 488,309.5 488,309.5 C488,309.5 818,309.5 818,299.5 " fill="none" style="stroke:#000000;stroke-width:1.5;"/><text fill="#000000" font-family="sans-serif" font-size="14" font-weight="bold" lengthAdjust="spacing" textLength="57" x="459.5" y="325.4999">Banking</text><text fill="#000000" font-family="sans-serif" font-size="14" font-weight="bold" lengthAdjust="spacing" textLength="64" x="456" y="342.2999">Database</text><!--MD5=[b3fd6fb7b9b741dbdd0527d84f5ad0f5]
cluster UKBankScope--><polygon fill="#FFFFFF" filter="url(#f21lxvo15e2wm)" points="182,374.5,192,364.5,478,364.5,478,514.5,468,524.5,182,524.5,182,374.5" style="stroke:#000000;stroke-width:1.5;"/><line style="stroke:#000000;stroke-width:1.5;" x1="468" x2="478" y1="374.5" y2="364.5"/><line style="stroke:#000000;stroke-width:1.5;" x1="182" x2="468" y1="374.5" y2="374.5"/><line style="stroke:#000000;stroke-width:1.5;" x1="468" x2="468" y1="374.5" y2="524.5"/><text fill="#000000" font-family="sans-serif" font-size="14" font-weight="bold" lengthAdjust="spacing" textLength="107" x="272.5" y="391.4999">UK Bank Scope</text><!--MD5=[fe51a546aa010b798cc28398debc467b]
cluster UKLibrary--><rect fill="#FFFFFF" filter="url(#f21lxvo15e2wm)" height="88" style="stroke:#000000;stroke-width:1.5;" width="248" x="206" y="412.5"/><path d="M298,412.5 L298,422.2999 L288,432.2999 L206,432.2999 " fill="none" style="stroke:#000000;stroke-width:1.5;"/><text fill="#000000" font-family="sans-serif" font-size="14" font-weight="bold" lengthAdjust="spacing" textLength="82" x="209" y="427.4999">bank-library</text><!--MD5=[a117013f52fb389ac5a5357f4b77ca48]
cluster USBankScope--><polygon fill="#FFFFFF" filter="url(#f21lxvo15e2wm)" points="502,374.5,512,364.5,794,364.5,794,514.5,784,524.5,502,524.5,502,374.5" style="stroke:#000000;stroke-width:1.5;"/><line style="stroke:#000000;stroke-width:1.5;" x1="784" x2="794" y1="374.5" y2="364.5"/><line style="stroke:#000000;stroke-width:1.5;" x1="502" x2="784" y1="374.5" y2="374.5"/><line style="stroke:#000000;stroke-width:1.5;" x1="784" x2="784" y1="374.5" y2="524.5"/><text fill="#000000" font-family="sans-serif" font-size="14" font-weight="bold" lengthAdjust="spacing" textLength="107" x="590.5" y="391.4999">US Bank Scope</text><!--MD5=[10f51f40b5b1b3d5f6e4b464a5ece81d]
cluster USLibrary--><rect fill="#FFFFFF" filter="url(#f21lxvo15e2wm)" height="88" style="stroke:#000000;stroke-width:1.5;" width="244" x="526" y="412.5"/><path d="M618,412.5 L618,422.2999 L608,432.2999 L526,432.2999 " fill="none" style="stroke:#000000;stroke-width:1.5;"/><text fill="#000000" font-family="sans-serif" font-size="14" font-weight="bold" lengthAdjust="spacing" textLength="82" x="529" y="427.4999">bank-library</text><!--MD5=[5b96dd3703d4d6ea90928245edd1d885]
entity interestInSterling--><polygon fill="#FEFECE" filter="url(#f21lxvo15e2wm)" points="222,447.5,222,484.2999,438,484.2999,438,457.5,428,447.5,222,447.5" style="stroke:#000000;stroke-width:1.5;"/><path d="M428,447.5 L428,457.5 L438,457.5 " fill="#FEFECE" style="stroke:#000000;stroke-width:1.5;"/><text fill="#000000" font-family="sans-serif" font-size="14" lengthAdjust="spacing" textLength="196" x="232" y="471.4999">getInterestInSterling(days, rate)</text><!--MD5=[a740c7eca41eac03786950ed9cb28d54]
entity interestInDollars--><polygon fill="#FEFECE" filter="url(#f21lxvo15e2wm)" points="542,447.5,542,484.2999,754,484.2999,754,457.5,744,447.5,542,447.5" style="stroke:#000000;stroke-width:1.5;"/><path d="M744,447.5 L744,457.5 L754,457.5 " fill="#FEFECE" style="stroke:#000000;stroke-width:1.5;"/><text fill="#000000" font-family="sans-serif" font-size="14" lengthAdjust="spacing" textLength="192" x="552" y="471.4999">getInterestInDollars(days, rate)</text><!--MD5=[2d88589ee9bd26c8663151c069df9991]
entity USUser--><ellipse cx="670" cy="22" fill="#FEFECE" filter="url(#f21lxvo15e2wm)" rx="16" ry="16" style="stroke:#A80036;stroke-width:1.5;"/><path d="M670,42 C674,42 677,42 681,38 C689,38 697,46 697,54 L697,58 C697,62 693,66 689,66 L651,66 C647,66 643,62 643,58 L643,54 C643,46 651,38 659,38 C663,42 666,42 670,42 " fill="#FEFECE" filter="url(#f21lxvo15e2wm)" style="stroke:#A80036;stroke-width:1.5;"/><text fill="#000000" font-family="sans-serif" font-size="14" lengthAdjust="spacing" textLength="19" x="655.5" y="81.4999">US</text><text fill="#000000" font-family="sans-serif" font-size="14" lengthAdjust="spacing" textLength="29" x="655.5" y="98.2999">User</text><!--MD5=[d13b0c56a08fdee0630cf736cf8f110a]
entity UKUser--><ellipse cx="266" cy="22" fill="#FEFECE" filter="url(#f21lxvo15e2wm)" rx="16" ry="16" style="stroke:#A80036;stroke-width:1.5;"/><path d="M266,42 C270,42 273,42 277,38 C285,38 293,46 293,54 L293,58 C293,62 289,66 285,66 L247,66 C243,66 239,62 239,58 L239,54 C239,46 247,38 255,38 C259,42 262,42 266,42 " fill="#FEFECE" filter="url(#f21lxvo15e2wm)" style="stroke:#A80036;stroke-width:1.5;"/><text fill="#000000" font-family="sans-serif" font-size="14" lengthAdjust="spacing" textLength="19" x="251.5" y="81.4999">UK</text><text fill="#000000" font-family="sans-serif" font-size="14" lengthAdjust="spacing" textLength="29" x="251.5" y="98.2999">User</text><!--MD5=[952b37a1e8ae5aaf15816d02d019fcfa]
entity UKReferenceFunction--><rect fill="#FEFECE" filter="url(#f21lxvo15e2wm)" height="63.5999" style="stroke:#A80036;stroke-width:1.5;" width="176" x="242" y="162.5"/><rect fill="#FEFECE" height="10" style="stroke:#A80036;stroke-width:1.5;" width="15" x="398" y="167.5"/><rect fill="#FEFECE" height="2" style="stroke:#A80036;stroke-width:1.5;" width="4" x="396" y="169.5"/><rect fill="#FEFECE" height="2" style="stroke:#A80036;stroke-width:1.5;" width="4" x="396" y="173.5"/><text fill="#000000" font-family="sans-serif" font-size="14" font-style="italic" lengthAdjust="spacing" textLength="136" x="257" y="196.4999">«Reference Function»</text><text fill="#000000" font-family="sans-serif" font-size="14" lengthAdjust="spacing" textLength="90" x="280" y="213.2999">GetInterest(...)</text><!--MD5=[f1aaa8d17d0b2eeceb33ca11a6af1711]
entity USReferenceFunction--><rect fill="#FEFECE" filter="url(#f21lxvo15e2wm)" height="63.5999" style="stroke:#A80036;stroke-width:1.5;" width="176" x="560" y="162.5"/><rect fill="#FEFECE" height="10" style="stroke:#A80036;stroke-width:1.5;" width="15" x="716" y="167.5"/><rect fill="#FEFECE" height="2" style="stroke:#A80036;stroke-width:1.5;" width="4" x="714" y="169.5"/><rect fill="#FEFECE" height="2" style="stroke:#A80036;stroke-width:1.5;" width="4" x="714" y="173.5"/><text fill="#000000" font-family="sans-serif" font-size="14" font-style="italic" lengthAdjust="spacing" textLength="136" x="575" y="196.4999">«Reference Function»</text><text fill="#000000" font-family="sans-serif" font-size="14" lengthAdjust="spacing" textLength="90" x="598" y="213.2999">GetInterest(...)</text><path d="M6,24.5 L6,81.3 A0,0 0 0 0 6,81.3 L202,81.3 A0,0 0 0 0 202,81.3 L202,57 L237.04,53 L202,49 L202,34.5 L192,24.5 L6,24.5 A0,0 0 0 0 6,24.5 " fill="#FFFFF0" filter="url(#f21lxvo15e2wm)" style="stroke:#A80036;stroke-width:1.0;"/><path d="M192,24.5 L192,34.5 L202,34.5 L192,24.5 " fill="#FFFFF0" style="stroke:#A80036;stroke-width:1.0;"/><text fill="#000000" font-family="sans-serif" font-size="13" font-weight="bold" lengthAdjust="spacing" textLength="19" x="12" y="42.5">UK</text><text fill="#000000" font-family="sans-serif" font-size="13" lengthAdjust="spacing" textLength="122" x="34" y="42.5">User is logged on with</text><text fill="#000000" font-family="sans-serif" font-size="13" lengthAdjust="spacing" textLength="125" x="12" y="58.1">the BankingDatabase.</text><text fill="#000000" font-family="sans-serif" font-size="13" font-weight="bold" lengthAdjust="spacing" textLength="50" x="137" y="58.1">UKBank</text><text fill="#000000" font-family="sans-serif" font-size="13" lengthAdjust="spacing" textLength="79" x="12" y="73.7">context scope</text><path d="M734,24.5 L734,49 L698.79,53 L734,57 L734,81.3 A0,0 0 0 0 734,81.3 L930,81.3 A0,0 0 0 0 930,81.3 L930,34.5 L920,24.5 L734,24.5 A0,0 0 0 0 734,24.5 " fill="#FFFFF0" filter="url(#f21lxvo15e2wm)" style="stroke:#A80036;stroke-width:1.0;"/><path d="M920,24.5 L920,34.5 L930,34.5 L920,24.5 " fill="#FFFFF0" style="stroke:#A80036;stroke-width:1.0;"/><text fill="#000000" font-family="sans-serif" font-size="13" font-weight="bold" lengthAdjust="spacing" textLength="19" x="740" y="42.5">US</text><text fill="#000000" font-family="sans-serif" font-size="13" lengthAdjust="spacing" textLength="122" x="762" y="42.5">User is logged on with</text><text fill="#000000" font-family="sans-serif" font-size="13" lengthAdjust="spacing" textLength="125" x="740" y="58.1">the BankingDatabase.</text><text fill="#000000" font-family="sans-serif" font-size="13" font-weight="bold" lengthAdjust="spacing" textLength="50" x="865" y="58.1">USBank</text><text fill="#000000" font-family="sans-serif" font-size="13" lengthAdjust="spacing" textLength="79" x="740" y="73.7">context scope</text><path d="M329.5,24.5 L329.5,81.3 L606.5,81.3 L606.5,34.5 L596.5,24.5 L329.5,24.5 " fill="#FFFFF0" filter="url(#f21lxvo15e2wm)" style="stroke:#A80036;stroke-width:1.0;"/><path d="M596.5,24.5 L596.5,34.5 L606.5,34.5 L596.5,24.5 " fill="#FFFFF0" style="stroke:#A80036;stroke-width:1.0;"/><text fill="#000000" font-family="sans-serif" font-size="13" lengthAdjust="spacing" textLength="256" x="335.5" y="42.5">Two reference functions with the same name,</text><text fill="#000000" font-family="sans-serif" font-size="13" lengthAdjust="spacing" textLength="249" x="335.5" y="58.1">but pointing at different JavaScript functions</text><text fill="#000000" font-family="sans-serif" font-size="13" lengthAdjust="spacing" textLength="216" x="335.5" y="73.7">in different libraries in different scopes.</text><!--MD5=[946d117a86605d8f0062ec277b8a9f36]
link UKReferenceFunction to interestInSterling--><path codeLine="32" d="M330,226.68 C330,281.51 330,393.96 330,442.2 " fill="none" id="UKReferenceFunction-to-interestInSterling" style="stroke:#A80036;stroke-width:1.0;"/><polygon fill="#A80036" points="330,447.48,334,438.48,330,442.48,326,438.48,330,447.48" style="stroke:#A80036;stroke-width:1.0;"/><text fill="#000000" font-family="sans-serif" font-size="13" lengthAdjust="spacing" textLength="60" x="331" y="270.5">references</text><!--MD5=[a364775b4a7ea3385bd76268be7ab985]
link UKUser to UKReferenceFunction--><path codeLine="33" d="M287.85,101.62 C296.25,119.94 305.7,140.54 313.52,157.58 " fill="none" id="UKUser-to-UKReferenceFunction" style="stroke:#A80036;stroke-width:1.0;"/><polygon fill="#A80036" points="315.68,162.29,315.56,152.4419,313.5938,157.746,308.2896,155.7798,315.68,162.29" style="stroke:#A80036;stroke-width:1.0;"/><!--MD5=[b329e125937b2b06b80a4fa2a7f84553]
link USReferenceFunction to interestInDollars--><path codeLine="35" d="M648,226.68 C648,281.51 648,393.96 648,442.2 " fill="none" id="USReferenceFunction-to-interestInDollars" style="stroke:#A80036;stroke-width:1.0;"/><polygon fill="#A80036" points="648,447.48,652,438.48,648,442.48,644,438.48,648,447.48" style="stroke:#A80036;stroke-width:1.0;"/><text fill="#000000" font-family="sans-serif" font-size="13" lengthAdjust="spacing" textLength="60" x="649" y="270.5">references</text><!--MD5=[50a0915538bad117882b8e119c146f6d]
link USUser to USReferenceFunction--><path codeLine="36" d="M662.49,101.62 C659.63,119.79 656.41,140.19 653.73,157.15 " fill="none" id="USUser-to-USReferenceFunction" style="stroke:#A80036;stroke-width:1.0;"/><polygon fill="#A80036" points="652.92,162.29,658.2833,154.0296,653.7049,157.352,650.3825,152.7736,652.92,162.29" style="stroke:#A80036;stroke-width:1.0;"/><!--MD5=[2a4a117292b6aeb685f7d36f733d695d]
link referenceFunctionNote to UKReferenceFunction--><path codeLine="56" d="M440.74,81.56 C417.8,104.75 385.01,137.89 361.06,162.1 " fill="none" id="referenceFunctionNote-UKReferenceFunction" style="stroke:#A80036;stroke-width:1.0;stroke-dasharray:7.0,7.0;"/><!--MD5=[6340b573eda691aa35bbe54c80af8bd2]
link referenceFunctionNote to USReferenceFunction--><path codeLine="57" d="M503.56,81.56 C533.58,104.83 576.54,138.12 607.81,162.35 " fill="none" id="referenceFunctionNote-USReferenceFunction" style="stroke:#A80036;stroke-width:1.0;stroke-dasharray:7.0,7.0;"/><!--MD5=[42d5b78f0364e96477cf7cdf51d02850]
@startuml
allow_mixing
skinparam actorStyle Awesome


actor "US\nUser" as USUser
actor "UK\nUser" as UKUser


database "Banking\nDatabase" as bankingDatabase {

    node "UK Bank Scope" as UKBankScope {

      frame "bank-library" as UKLibrary {
        file "getInterestInSterling(days, rate)" as interestInSterling
      }
    }

    node "US Bank Scope" as USBankScope {

    frame "bank-library" as USLibrary {
      file "getInterestInDollars(days, rate)" as interestInDollars
      }
    }

}


component "GetInterest(...)" <<Reference Function>> as UKReferenceFunction
component "GetInterest(...)" <<Reference Function>> as USReferenceFunction


UKReferenceFunction - -> interestInSterling : references
UKUser - -> UKReferenceFunction

USReferenceFunction - -> interestInDollars : references
USUser - -> USReferenceFunction

note left of UKUser #Ivory
  **UK** User is logged on with
  the BankingDatabase.**UKBank**
  context scope
end note

note right of USUser #Ivory
  **US** User is logged on with
  the BankingDatabase.**USBank**
  context scope
end note

note as referenceFunctionNote #Ivory
  Two reference functions with the same name,
  but pointing at different JavaScript functions
  in different libraries in different scopes.
end note

referenceFunctionNote .. UKReferenceFunction
referenceFunctionNote .. USReferenceFunction
@enduml

PlantUML version 1.2021.16(Wed Dec 08 17:25:22 GMT 2021)
(GPL source distribution)
Java Runtime: OpenJDK Runtime Environment
JVM: OpenJDK 64-Bit Server VM
Default Encoding: UTF-8
Language: en
Country: US
--></g></svg>