<?xml version="1.0" encoding="UTF-8" standalone="no"?><svg xmlns="http://www.w3.org/2000/svg" xmlns:xlink="http://www.w3.org/1999/xlink" contentScriptType="application/ecmascript" contentStyleType="text/css" height="555px" preserveAspectRatio="none" style="width:939px;height:555px;background:#FFFFFF;" version="1.1" viewBox="0 0 939 555" width="939px" zoomAndPan="magnify"><defs><filter height="300%" id="f1bgiacvnevb6y" width="300%" x="-1" y="-1"><feGaussianBlur result="blurOut" stdDeviation="2.0"/><feColorMatrix in="blurOut" result="blurOut2" type="matrix" values="0 0 0 0 0 0 0 0 0 0 0 0 0 0 0 0 0 0 .4 0"/><feOffset dx="4.0" dy="4.0" in="blurOut2" result="blurOut3"/><feBlend in="SourceGraphic" in2="blurOut3" mode="normal"/></filter></defs><g><!--MD5=[6f4d1d1935cf0396bf559c82395eb7e5]
cluster bankingDatabase--><path d="M101,299.5 C101,289.5 477,289.5 477,289.5 C477,289.5 853,289.5 853,299.5 L853,538.5 C853,548.5 477,548.5 477,548.5 C477,548.5 101,548.5 101,538.5 L101,299.5 " fill="#FFFFFF" filter="url(#f1bgiacvnevb6y)" style="stroke:#000000;stroke-width:1.5;"/><path d="M101,299.5 C101,309.5 477,309.5 477,309.5 C477,309.5 853,309.5 853,299.5 " fill="none" style="stroke:#000000;stroke-width:1.5;"/><text fill="#000000" font-family="sans-serif" font-size="14" font-weight="bold" lengthAdjust="spacing" textLength="57" x="448.5" y="325.4999">Banking</text><text fill="#000000" font-family="sans-serif" font-size="14" font-weight="bold" lengthAdjust="spacing" textLength="64" x="445" y="342.2999">Database</text><!--MD5=[b3fd6fb7b9b741dbdd0527d84f5ad0f5]
cluster UKBankScope--><polygon fill="#FFFFFF" filter="url(#f1bgiacvnevb6y)" points="125,374.5,135,364.5,467,364.5,467,514.5,457,524.5,125,524.5,125,374.5" style="stroke:#000000;stroke-width:1.5;"/><line style="stroke:#000000;stroke-width:1.5;" x1="457" x2="467" y1="374.5" y2="364.5"/><line style="stroke:#000000;stroke-width:1.5;" x1="125" x2="457" y1="374.5" y2="374.5"/><line style="stroke:#000000;stroke-width:1.5;" x1="457" x2="457" y1="374.5" y2="524.5"/><text fill="#000000" font-family="sans-serif" font-size="14" font-weight="bold" lengthAdjust="spacing" textLength="107" x="238.5" y="391.4999">UK Bank Scope</text><!--MD5=[fe51a546aa010b798cc28398debc467b]
cluster UKLibrary--><rect fill="#FFFFFF" filter="url(#f1bgiacvnevb6y)" height="88" style="stroke:#000000;stroke-width:1.5;" width="294" x="149" y="412.5"/><path d="M241,412.5 L241,422.2999 L231,432.2999 L149,432.2999 " fill="none" style="stroke:#000000;stroke-width:1.5;"/><text fill="#000000" font-family="sans-serif" font-size="14" font-weight="bold" lengthAdjust="spacing" textLength="82" x="152" y="427.4999">bank-library</text><!--MD5=[a117013f52fb389ac5a5357f4b77ca48]
cluster USBankScope--><polygon fill="#FFFFFF" filter="url(#f1bgiacvnevb6y)" points="491,374.5,501,364.5,829,364.5,829,514.5,819,524.5,491,524.5,491,374.5" style="stroke:#000000;stroke-width:1.5;"/><line style="stroke:#000000;stroke-width:1.5;" x1="819" x2="829" y1="374.5" y2="364.5"/><line style="stroke:#000000;stroke-width:1.5;" x1="491" x2="819" y1="374.5" y2="374.5"/><line style="stroke:#000000;stroke-width:1.5;" x1="819" x2="819" y1="374.5" y2="524.5"/><text fill="#000000" font-family="sans-serif" font-size="14" font-weight="bold" lengthAdjust="spacing" textLength="107" x="602.5" y="391.4999">US Bank Scope</text><!--MD5=[10f51f40b5b1b3d5f6e4b464a5ece81d]
cluster USLibrary--><rect fill="#FFFFFF" filter="url(#f1bgiacvnevb6y)" height="88" style="stroke:#000000;stroke-width:1.5;" width="290" x="515" y="412.5"/><path d="M607,412.5 L607,422.2999 L597,432.2999 L515,432.2999 " fill="none" style="stroke:#000000;stroke-width:1.5;"/><text fill="#000000" font-family="sans-serif" font-size="14" font-weight="bold" lengthAdjust="spacing" textLength="82" x="518" y="427.4999">bank-library</text><!--MD5=[5b96dd3703d4d6ea90928245edd1d885]
entity interestInSterling--><polygon fill="#FEFECE" filter="url(#f1bgiacvnevb6y)" points="165.5,447.5,165.5,484.2999,426.5,484.2999,426.5,457.5,416.5,447.5,165.5,447.5" style="stroke:#000000;stroke-width:1.5;"/><path d="M416.5,447.5 L416.5,457.5 L426.5,457.5 " fill="#FEFECE" style="stroke:#000000;stroke-width:1.5;"/><text fill="#000000" font-family="sans-serif" font-size="14" lengthAdjust="spacing" textLength="241" x="175.5" y="471.4999">getInterestInSterling(termInYears, rate)</text><!--MD5=[a740c7eca41eac03786950ed9cb28d54]
entity interestInDollars--><polygon fill="#FEFECE" filter="url(#f1bgiacvnevb6y)" points="531.5,447.5,531.5,484.2999,788.5,484.2999,788.5,457.5,778.5,447.5,531.5,447.5" style="stroke:#000000;stroke-width:1.5;"/><path d="M778.5,447.5 L778.5,457.5 L788.5,457.5 " fill="#FEFECE" style="stroke:#000000;stroke-width:1.5;"/><text fill="#000000" font-family="sans-serif" font-size="14" lengthAdjust="spacing" textLength="237" x="541.5" y="471.4999">getInterestInDollars(termInYears, rate)</text><!--MD5=[2d88589ee9bd26c8663151c069df9991]
entity USUser--><ellipse cx="670" cy="22" fill="#FEFECE" filter="url(#f1bgiacvnevb6y)" rx="16" ry="16" style="stroke:#A80036;stroke-width:1.5;"/><path d="M670,42 C674,42 677,42 681,38 C689,38 697,46 697,54 L697,58 C697,62 693,66 689,66 L651,66 C647,66 643,62 643,58 L643,54 C643,46 651,38 659,38 C663,42 666,42 670,42 " fill="#FEFECE" filter="url(#f1bgiacvnevb6y)" style="stroke:#A80036;stroke-width:1.5;"/><text fill="#000000" font-family="sans-serif" font-size="14" lengthAdjust="spacing" textLength="19" x="655.5" y="81.4999">US</text><text fill="#000000" font-family="sans-serif" font-size="14" lengthAdjust="spacing" textLength="29" x="655.5" y="98.2999">User</text><!--MD5=[d13b0c56a08fdee0630cf736cf8f110a]
entity UKUser--><ellipse cx="266" cy="22" fill="#FEFECE" filter="url(#f1bgiacvnevb6y)" rx="16" ry="16" style="stroke:#A80036;stroke-width:1.5;"/><path d="M266,42 C270,42 273,42 277,38 C285,38 293,46 293,54 L293,58 C293,62 289,66 285,66 L247,66 C243,66 239,62 239,58 L239,54 C239,46 247,38 255,38 C259,42 262,42 266,42 " fill="#FEFECE" filter="url(#f1bgiacvnevb6y)" style="stroke:#A80036;stroke-width:1.5;"/><text fill="#000000" font-family="sans-serif" font-size="14" lengthAdjust="spacing" textLength="19" x="251.5" y="81.4999">UK</text><text fill="#000000" font-family="sans-serif" font-size="14" lengthAdjust="spacing" textLength="29" x="251.5" y="98.2999">User</text><!--MD5=[952b37a1e8ae5aaf15816d02d019fcfa]
entity UKReferenceFunction--><rect fill="#FEFECE" filter="url(#f1bgiacvnevb6y)" height="63.5999" style="stroke:#A80036;stroke-width:1.5;" width="176" x="208" y="162.5"/><rect fill="#FEFECE" height="10" style="stroke:#A80036;stroke-width:1.5;" width="15" x="364" y="167.5"/><rect fill="#FEFECE" height="2" style="stroke:#A80036;stroke-width:1.5;" width="4" x="362" y="169.5"/><rect fill="#FEFECE" height="2" style="stroke:#A80036;stroke-width:1.5;" width="4" x="362" y="173.5"/><text fill="#000000" font-family="sans-serif" font-size="14" font-style="italic" lengthAdjust="spacing" textLength="136" x="223" y="196.4999">«Reference Function»</text><text fill="#000000" font-family="sans-serif" font-size="14" lengthAdjust="spacing" textLength="90" x="246" y="213.2999">GetInterest(...)</text><!--MD5=[f1aaa8d17d0b2eeceb33ca11a6af1711]
entity USReferenceFunction--><rect fill="#FEFECE" filter="url(#f1bgiacvnevb6y)" height="63.5999" style="stroke:#A80036;stroke-width:1.5;" width="176" x="572" y="162.5"/><rect fill="#FEFECE" height="10" style="stroke:#A80036;stroke-width:1.5;" width="15" x="728" y="167.5"/><rect fill="#FEFECE" height="2" style="stroke:#A80036;stroke-width:1.5;" width="4" x="726" y="169.5"/><rect fill="#FEFECE" height="2" style="stroke:#A80036;stroke-width:1.5;" width="4" x="726" y="173.5"/><text fill="#000000" font-family="sans-serif" font-size="14" font-style="italic" lengthAdjust="spacing" textLength="136" x="587" y="196.4999">«Reference Function»</text><text fill="#000000" font-family="sans-serif" font-size="14" lengthAdjust="spacing" textLength="90" x="610" y="213.2999">GetInterest(...)</text><path d="M6,24.5 L6,81.3 A0,0 0 0 0 6,81.3 L202,81.3 A0,0 0 0 0 202,81.3 L202,57 L237.04,53 L202,49 L202,34.5 L192,24.5 L6,24.5 A0,0 0 0 0 6,24.5 " fill="#FFFFF0" filter="url(#f1bgiacvnevb6y)" style="stroke:#A80036;stroke-width:1.0;"/><path d="M192,24.5 L192,34.5 L202,34.5 L192,24.5 " fill="#FFFFF0" style="stroke:#A80036;stroke-width:1.0;"/><text fill="#000000" font-family="sans-serif" font-size="13" font-weight="bold" lengthAdjust="spacing" textLength="19" x="12" y="42.5">UK</text><text fill="#000000" font-family="sans-serif" font-size="13" lengthAdjust="spacing" textLength="122" x="34" y="42.5">User is logged on with</text><text fill="#000000" font-family="sans-serif" font-size="13" lengthAdjust="spacing" textLength="125" x="12" y="58.1">the BankingDatabase.</text><text fill="#000000" font-family="sans-serif" font-size="13" font-weight="bold" lengthAdjust="spacing" textLength="50" x="137" y="58.1">UKBank</text><text fill="#000000" font-family="sans-serif" font-size="13" lengthAdjust="spacing" textLength="79" x="12" y="73.7">context scope</text><path d="M734,24.5 L734,49 L698.79,53 L734,57 L734,81.3 A0,0 0 0 0 734,81.3 L930,81.3 A0,0 0 0 0 930,81.3 L930,34.5 L920,24.5 L734,24.5 A0,0 0 0 0 734,24.5 " fill="#FFFFF0" filter="url(#f1bgiacvnevb6y)" style="stroke:#A80036;stroke-width:1.0;"/><path d="M920,24.5 L920,34.5 L930,34.5 L920,24.5 " fill="#FFFFF0" style="stroke:#A80036;stroke-width:1.0;"/><text fill="#000000" font-family="sans-serif" font-size="13" font-weight="bold" lengthAdjust="spacing" textLength="19" x="740" y="42.5">US</text><text fill="#000000" font-family="sans-serif" font-size="13" lengthAdjust="spacing" textLength="122" x="762" y="42.5">User is logged on with</text><text fill="#000000" font-family="sans-serif" font-size="13" lengthAdjust="spacing" textLength="125" x="740" y="58.1">the BankingDatabase.</text><text fill="#000000" font-family="sans-serif" font-size="13" font-weight="bold" lengthAdjust="spacing" textLength="50" x="865" y="58.1">USBank</text><text fill="#000000" font-family="sans-serif" font-size="13" lengthAdjust="spacing" textLength="79" x="740" y="73.7">context scope</text><path d="M329.5,24.5 L329.5,81.3 L606.5,81.3 L606.5,34.5 L596.5,24.5 L329.5,24.5 " fill="#FFFFF0" filter="url(#f1bgiacvnevb6y)" style="stroke:#A80036;stroke-width:1.0;"/><path d="M596.5,24.5 L596.5,34.5 L606.5,34.5 L596.5,24.5 " fill="#FFFFF0" style="stroke:#A80036;stroke-width:1.0;"/><text fill="#000000" font-family="sans-serif" font-size="13" lengthAdjust="spacing" textLength="256" x="335.5" y="42.5">Two reference functions with the same name,</text><text fill="#000000" font-family="sans-serif" font-size="13" lengthAdjust="spacing" textLength="249" x="335.5" y="58.1">but pointing at different JavaScript functions</text><text fill="#000000" font-family="sans-serif" font-size="13" lengthAdjust="spacing" textLength="216" x="335.5" y="73.7">in different libraries in different scopes.</text><!--MD5=[946d117a86605d8f0062ec277b8a9f36]
link UKReferenceFunction to interestInSterling--><path codeLine="32" d="M296,226.68 C296,281.51 296,393.96 296,442.2 " fill="none" id="UKReferenceFunction-to-interestInSterling" style="stroke:#A80036;stroke-width:1.0;"/><polygon fill="#A80036" points="296,447.48,300,438.48,296,442.48,292,438.48,296,447.48" style="stroke:#A80036;stroke-width:1.0;"/><text fill="#000000" font-family="sans-serif" font-size="13" lengthAdjust="spacing" textLength="60" x="297" y="270.5">references</text><!--MD5=[a364775b4a7ea3385bd76268be7ab985]
link UKUser to UKReferenceFunction--><path codeLine="33" d="M276.24,101.62 C280.15,119.79 284.54,140.19 288.18,157.15 " fill="none" id="UKUser-to-UKReferenceFunction" style="stroke:#A80036;stroke-width:1.0;"/><polygon fill="#A80036" points="289.29,162.29,291.3231,152.6533,288.2463,157.4002,283.4994,154.3233,289.29,162.29" style="stroke:#A80036;stroke-width:1.0;"/><!--MD5=[b329e125937b2b06b80a4fa2a7f84553]
link USReferenceFunction to interestInDollars--><path codeLine="35" d="M660,226.68 C660,281.51 660,393.96 660,442.2 " fill="none" id="USReferenceFunction-to-interestInDollars" style="stroke:#A80036;stroke-width:1.0;"/><polygon fill="#A80036" points="660,447.48,664,438.48,660,442.48,656,438.48,660,447.48" style="stroke:#A80036;stroke-width:1.0;"/><text fill="#000000" font-family="sans-serif" font-size="13" lengthAdjust="spacing" textLength="60" x="661" y="270.5">references</text><!--MD5=[50a0915538bad117882b8e119c146f6d]
link USUser to USReferenceFunction--><path codeLine="36" d="M666.59,101.62 C665.28,119.79 663.82,140.19 662.61,157.15 " fill="none" id="USUser-to-USReferenceFunction" style="stroke:#A80036;stroke-width:1.0;"/><polygon fill="#A80036" points="662.24,162.29,666.8728,153.5988,662.5973,157.3028,658.8933,153.0272,662.24,162.29" style="stroke:#A80036;stroke-width:1.0;"/><!--MD5=[2a4a117292b6aeb685f7d36f733d695d]
link referenceFunctionNote to UKReferenceFunction--><path codeLine="56" d="M434.02,81.56 C405.33,104.83 364.28,138.12 334.41,162.35 " fill="none" id="referenceFunctionNote-UKReferenceFunction" style="stroke:#A80036;stroke-width:1.0;stroke-dasharray:7.0,7.0;"/><!--MD5=[6340b573eda691aa35bbe54c80af8bd2]
link referenceFunctionNote to USReferenceFunction--><path codeLine="57" d="M505.93,81.56 C537.95,104.83 583.78,138.12 617.13,162.35 " fill="none" id="referenceFunctionNote-USReferenceFunction" style="stroke:#A80036;stroke-width:1.0;stroke-dasharray:7.0,7.0;"/><!--MD5=[a98803039844328b7ecc6f09a1ab9235]
@startuml
allow_mixing
skinparam actorStyle Awesome


actor "US\nUser" as USUser
actor "UK\nUser" as UKUser


database "Banking\nDatabase" as bankingDatabase {

    node "UK Bank Scope" as UKBankScope {

      frame "bank-library" as UKLibrary {
        file "getInterestInSterling(termInYears, rate)" as interestInSterling
      }
    }

    node "US Bank Scope" as USBankScope {

    frame "bank-library" as USLibrary {
      file "getInterestInDollars(termInYears, rate)" as interestInDollars
      }
    }

}


component "GetInterest(...)" <<Reference Function>> as UKReferenceFunction
component "GetInterest(...)" <<Reference Function>> as USReferenceFunction


UKReferenceFunction - -> interestInSterling : references
UKUser - -> UKReferenceFunction

USReferenceFunction - -> interestInDollars : references
USUser - -> USReferenceFunction

note left of UKUser #Ivory
  **UK** User is logged on with
  the BankingDatabase.**UKBank**
  context scope
end note

note right of USUser #Ivory
  **US** User is logged on with
  the BankingDatabase.**USBank**
  context scope
end note

note as referenceFunctionNote #Ivory
  Two reference functions with the same name,
  but pointing at different JavaScript functions
  in different libraries in different scopes.
end note

referenceFunctionNote .. UKReferenceFunction
referenceFunctionNote .. USReferenceFunction
@enduml

PlantUML version 1.2021.16(Wed Dec 08 17:25:22 GMT 2021)
(GPL source distribution)
Java Runtime: OpenJDK Runtime Environment
JVM: OpenJDK 64-Bit Server VM
Default Encoding: UTF-8
Language: en
Country: US
--></g></svg>