<?xml version="1.0" encoding="UTF-8" standalone="no"?><svg xmlns="http://www.w3.org/2000/svg" xmlns:xlink="http://www.w3.org/1999/xlink" contentStyleType="text/css" height="371px" preserveAspectRatio="none" style="width:822px;height:371px;background:#FFFFFF;" version="1.1" viewBox="0 0 822 371" width="822px" zoomAndPan="magnify"><defs><filter height="300%" id="fcsxua5i6of0" width="300%" x="-1" y="-1"><feGaussianBlur result="blurOut" stdDeviation="2.0"/><feColorMatrix in="blurOut" result="blurOut2" type="matrix" values="0 0 0 0 0 0 0 0 0 0 0 0 0 0 0 0 0 0 .4 0"/><feOffset dx="4.0" dy="4.0" in="blurOut2" result="blurOut3"/><feBlend in="SourceGraphic" in2="blurOut3" mode="normal"/></filter></defs><g><!--MD5=[62809005bfbcca8197a527c005e3b7f6]
cluster bucket--><g id="cluster_bucket"><path d="M247,16 C247,6 526,6 526,6 C526,6 805,6 805,16 L805,344 C805,354 526,354 526,354 C526,354 247,354 247,344 L247,16 " filter="url(#fcsxua5i6of0)" style="stroke:#A80036;stroke-width:1.0;fill:none;"/><path d="M247,16 C247,26 526,26 526,26 C526,26 805,26 805,16 " fill="none" style="stroke:#A80036;stroke-width:1.0;"/><text fill="#000000" font-family="sans-serif" font-size="14" font-weight="bold" lengthAdjust="spacing" textLength="144" x="452" y="41.9999">travel-sample bucket</text></g><!--MD5=[fa37c4557afe6e3f3f0128b74a415332]
cluster scope--><g id="cluster_scope"><polygon filter="url(#fcsxua5i6of0)" points="271,74,281,64,781,64,781,320,771,330,271,330,271,74" style="stroke:#A80036;stroke-width:1.0;fill:none;"/><line style="stroke:#A80036;stroke-width:1.0;fill:none;" x1="771" x2="781" y1="74" y2="64"/><line style="stroke:#A80036;stroke-width:1.0;fill:none;" x1="271" x2="771" y1="74" y2="74"/><line style="stroke:#A80036;stroke-width:1.0;fill:none;" x1="771" x2="771" y1="74" y2="330"/><text fill="#000000" font-family="sans-serif" font-size="14" font-weight="bold" lengthAdjust="spacing" textLength="111" x="466.5" y="90.9999">inventory scope</text></g><!--MD5=[cd2d2a69136bcb457c777d7f0a388268]
cluster MyLibrary--><g id="cluster_MyLibrary"><rect filter="url(#fcsxua5i6of0)" height="194" style="stroke:#A80036;stroke-width:1.0;fill:none;" width="184" x="573" y="112"/><path d="M652,112 L652,121.7999 L642,131.7999 L573,131.7999 " fill="none" style="stroke:#A80036;stroke-width:1.0;"/><text fill="#000000" font-family="sans-serif" font-size="14" font-weight="bold" lengthAdjust="spacing" textLength="69" x="576" y="126.9999">my-library</text></g><!--MD5=[eab255bddd4f61ecc66b41e43c5da549]
entity sqlppToMetersFunction--><g id="elem_sqlppToMetersFunction"><rect fill="#FEFECE" filter="url(#fcsxua5i6of0)" height="63.5999" style="stroke:#A80036;stroke-width:1.0;" width="242" x="287" y="137"/><rect fill="#FEFECE" height="10" style="stroke:#A80036;stroke-width:1.0;" width="15" x="509" y="142"/><rect fill="#FEFECE" height="2" style="stroke:#A80036;stroke-width:1.0;" width="4" x="507" y="144"/><rect fill="#FEFECE" height="2" style="stroke:#A80036;stroke-width:1.0;" width="4" x="507" y="148"/><text fill="#000000" font-family="sans-serif" font-size="14" font-style="italic" lengthAdjust="spacing" textLength="202" x="302" y="170.9999">«SQL++ User-Defined Function»</text><text fill="#000000" font-family="sans-serif" font-size="14" lengthAdjust="spacing" textLength="82" x="362" y="187.7999">to_meters(...)</text></g><!--MD5=[367e9df810b35ae73db5603c11652b24]
entity sqlppToFeetFunction--><g id="elem_sqlppToFeetFunction"><rect fill="#FEFECE" filter="url(#fcsxua5i6of0)" height="63.5999" style="stroke:#A80036;stroke-width:1.0;" width="242" x="287" y="236"/><rect fill="#FEFECE" height="10" style="stroke:#A80036;stroke-width:1.0;" width="15" x="509" y="241"/><rect fill="#FEFECE" height="2" style="stroke:#A80036;stroke-width:1.0;" width="4" x="507" y="243"/><rect fill="#FEFECE" height="2" style="stroke:#A80036;stroke-width:1.0;" width="4" x="507" y="247"/><text fill="#000000" font-family="sans-serif" font-size="14" font-style="italic" lengthAdjust="spacing" textLength="202" x="302" y="269.9999">«SQL++ User-Defined Function»</text><text fill="#000000" font-family="sans-serif" font-size="14" lengthAdjust="spacing" textLength="63" x="371.5" y="286.7999">to_feet(...)</text></g><!--MD5=[0bddf32a91fb5627538ca90064358083]
entity to_meters--><g id="elem_to_meters"><polygon fill="#FEFECE" filter="url(#fcsxua5i6of0)" points="589,147,589,200.5999,741,200.5999,741,157,731,147,589,147" style="stroke:#A80036;stroke-width:1.0;"/><path d="M731,147 L731,157 L741,157 " fill="#FEFECE" style="stroke:#A80036;stroke-width:1.0;"/><text fill="#000000" font-family="sans-serif" font-size="14" font-style="italic" lengthAdjust="spacing" textLength="132" x="599" y="170.9999">«JavaScript function»</text><text fill="#000000" font-family="sans-serif" font-size="14" lengthAdjust="spacing" textLength="92" x="619" y="187.7999">to_meters(feet)</text></g><!--MD5=[5ab65eb74b06d259a4e44f278d3a8f36]
entity to_feet--><g id="elem_to_feet"><polygon fill="#FEFECE" filter="url(#fcsxua5i6of0)" points="589,236,589,289.5999,741,289.5999,741,246,731,236,589,236" style="stroke:#A80036;stroke-width:1.0;"/><path d="M731,236 L731,246 L741,246 " fill="#FEFECE" style="stroke:#A80036;stroke-width:1.0;"/><text fill="#000000" font-family="sans-serif" font-size="14" font-style="italic" lengthAdjust="spacing" textLength="132" x="599" y="259.9999">«JavaScript function»</text><text fill="#000000" font-family="sans-serif" font-size="14" lengthAdjust="spacing" textLength="92" x="619" y="276.7999">to_feet(meters)</text></g><!--MD5=[8fc3522a43f8c7199df5e09e5bb0188e]
entity user--><g id="elem_user"><ellipse cx="116.5" cy="196.5" fill="#FEFECE" filter="url(#fcsxua5i6of0)" rx="16" ry="16" style="stroke:#A80036;stroke-width:1.5;"/><path d="M116.5,216.5 C120.5,216.5 123.5,216.5 127.5,212.5 C135.5,212.5 143.5,220.5 143.5,228.5 L143.5,232.5 C143.5,236.5 139.5,240.5 135.5,240.5 L97.5,240.5 C93.5,240.5 89.5,236.5 89.5,232.5 L89.5,228.5 C89.5,220.5 97.5,212.5 105.5,212.5 C109.5,216.5 112.5,216.5 116.5,216.5 " fill="#FEFECE" filter="url(#fcsxua5i6of0)" style="stroke:#A80036;stroke-width:1.5;"/><text fill="#000000" font-family="sans-serif" font-size="14" lengthAdjust="spacing" textLength="27" x="103" y="255.9999">user</text></g><g id="elem_GMN1442"><path d="M6,86.5 L6,143.3 L227,143.3 L227,96.5 L217,86.5 L6,86.5 " fill="#FFFFF0" filter="url(#fcsxua5i6of0)" style="stroke:#A80036;stroke-width:1.0;"/><path d="M217,86.5 L217,96.5 L227,96.5 L217,86.5 " fill="#FFFFF0" style="stroke:#A80036;stroke-width:1.0;"/><text fill="#000000" font-family="sans-serif" font-size="13" lengthAdjust="spacing" textLength="85" x="12" y="104.5">can access the</text><text fill="#000000" font-family="sans-serif" font-size="13" font-weight="bold" lengthAdjust="spacing" textLength="63" x="100" y="104.5">to_meters</text><text fill="#000000" font-family="sans-serif" font-size="13" lengthAdjust="spacing" textLength="46" x="166" y="104.5">function</text><text fill="#000000" font-family="sans-serif" font-size="13" lengthAdjust="spacing" textLength="142" x="12" y="120.1">as long as s/he is working</text><text fill="#000000" font-family="sans-serif" font-size="13" lengthAdjust="spacing" textLength="61" x="12" y="135.7">inside the "</text><text fill="#000000" font-family="sans-serif" font-size="13" font-weight="bold" lengthAdjust="spacing" textLength="83" x="73" y="135.7">bucket.scope</text><text fill="#000000" font-family="sans-serif" font-size="13" lengthAdjust="spacing" textLength="49" x="156" y="135.7">" context</text></g><!--MD5=[a54ea347c8db1a96265cac5de7e0019a]
link sqlppToMetersFunction to to_meters--><g id="link_sqlppToMetersFunction_to_meters"><path codeLine="28" d="M529.03,171.35 C547.53,171.72 566.24,172.08 583.59,172.42 " fill="none" id="sqlppToMetersFunction-to-to_meters" style="stroke:#A80036;stroke-width:1.0;"/><polygon fill="#A80036" points="588.93,172.53,580.0118,168.3508,583.931,172.43,579.8518,176.3492,588.93,172.53" style="stroke:#A80036;stroke-width:1.0;"/></g><!--MD5=[6320db84c0934d6f9486d8f3bc32a845]
link sqlppToFeetFunction to to_feet--><g id="link_sqlppToFeetFunction_to_feet"><path codeLine="29" d="M529.03,265.65 C547.53,265.28 566.24,264.92 583.59,264.58 " fill="none" id="sqlppToFeetFunction-to-to_feet" style="stroke:#A80036;stroke-width:1.0;"/><polygon fill="#A80036" points="588.93,264.47,579.8518,260.6508,583.931,264.57,580.0118,268.6492,588.93,264.47" style="stroke:#A80036;stroke-width:1.0;"/></g><!--MD5=[518b218995b4d22bd9989ae47c58c664]
link user to sqlppToMetersFunction--><g id="link_user_sqlppToMetersFunction"><path codeLine="33" d="M145.26,214.21 C176.93,208.74 230.93,199.41 281.68,190.64 " fill="none" id="user-to-sqlppToMetersFunction" style="stroke:#A80036;stroke-width:1.0;"/><polygon fill="#A80036" points="286.9,189.74,277.3477,187.3412,281.9739,190.5967,278.7185,195.2229,286.9,189.74" style="stroke:#A80036;stroke-width:1.0;"/></g><!--MD5=[5fcae2502580e2f8eb410f5e1660311b]
link user to sqlppToFeetFunction--><g id="link_user_sqlppToFeetFunction"><path codeLine="34" d="M145.26,223.7 C176.93,229.06 230.93,238.2 281.68,246.79 " fill="none" id="user-to-sqlppToFeetFunction" style="stroke:#A80036;stroke-width:1.0;"/><polygon fill="#A80036" points="286.9,247.67,278.6877,242.2333,281.9692,246.8411,277.3614,250.1225,286.9,247.67" style="stroke:#A80036;stroke-width:1.0;"/></g><!--MD5=[ae2b1635f90be30936091067e797f4d7]
link GMN1442 to user--><g id="link_GMN1442_user"><path d="M116.5,143.63 C116.5,147.22 116.5,149.67 116.5,149.67 C116.5,149.67 116.5,169.17 116.5,178.92 " fill="none" id="GMN1442-user" style="stroke:#A80036;stroke-width:1.0;stroke-dasharray:7.0,7.0;"/></g><!--MD5=[e5b3b344c85656691dc93cb5063b022d]
@startuml
allow_mixing
skin rose
left to right direction
skinparam actorStyle Awesome
skinparam linetype polyline

database "travel-sample bucket " as bucket {

  node "inventory scope" as scope {

      frame "my-library" as MyLibrary {

       file "to_meters(feet)" <<JavaScript function>> as to_meters
       file "to_feet(meters)" <<JavaScript function>> as to_feet
      }

      component "to_meters(...)" <<SQL++ User-Defined Function>> as sqlppToMetersFunction

      component "to_feet(...)" <<SQL++ User-Defined Function>> as sqlppToFeetFunction
  }
}






sqlppToMetersFunction - -> to_meters
sqlppToFeetFunction - -> to_feet
actor "user" as user


user - -> sqlppToMetersFunction
user - -> sqlppToFeetFunction

note top of user #Ivory
  can access the **to_meters** function
  as long as s/he is working
  inside the "**bucket.scope**" context
end note
@enduml

PlantUML version 1.2022.5(Sat Apr 30 10:55:52 GMT 2022)
(GPL source distribution)
Java Runtime: OpenJDK Runtime Environment
JVM: OpenJDK 64-Bit Server VM
Default Encoding: UTF-8
Language: en
Country: US
--></g></svg>