<?xml version="1.0" encoding="UTF-8" standalone="no"?><svg xmlns="http://www.w3.org/2000/svg" xmlns:xlink="http://www.w3.org/1999/xlink" contentScriptType="application/ecmascript" contentStyleType="text/css" height="361px" preserveAspectRatio="none" style="width:917px;height:361px;background:#FFFFFF;" version="1.1" viewBox="0 0 917 361" width="917px" zoomAndPan="magnify"><defs><filter height="300%" id="f1a39h1ey06k1r" width="300%" x="-1" y="-1"><feGaussianBlur result="blurOut" stdDeviation="2.0"/><feColorMatrix in="blurOut" result="blurOut2" type="matrix" values="0 0 0 0 0 0 0 0 0 0 0 0 0 0 0 0 0 0 .4 0"/><feOffset dx="4.0" dy="4.0" in="blurOut2" result="blurOut3"/><feBlend in="SourceGraphic" in2="blurOut3" mode="normal"/></filter></defs><g><!--MD5=[cd2d2a69136bcb457c777d7f0a388268]
cluster MyLibrary--><rect fill="#FFFFFF" filter="url(#f1a39h1ey06k1r)" height="140" style="stroke:#000000;stroke-width:1.5;" width="245" x="660" y="68.5"/><path d="M739,68.5 L739,78.2999 L729,88.2999 L660,88.2999 " fill="none" style="stroke:#000000;stroke-width:1.5;"/><text fill="#000000" font-family="sans-serif" font-size="14" font-weight="bold" lengthAdjust="spacing" textLength="69" x="663" y="83.4999">my-library</text><!--MD5=[62809005bfbcca8197a527c005e3b7f6]
cluster bucket--><path d="M725.5,250.5 C725.5,240.5 782.5,240.5 782.5,240.5 C782.5,240.5 839.5,240.5 839.5,250.5 L839.5,344.5 C839.5,354.5 782.5,354.5 782.5,354.5 C782.5,354.5 725.5,354.5 725.5,344.5 L725.5,250.5 " fill="#FFFFFF" filter="url(#f1a39h1ey06k1r)" style="stroke:#000000;stroke-width:1.5;"/><path d="M725.5,250.5 C725.5,260.5 782.5,260.5 782.5,260.5 C782.5,260.5 839.5,260.5 839.5,250.5 " fill="none" style="stroke:#000000;stroke-width:1.5;"/><text fill="#000000" font-family="sans-serif" font-size="14" font-weight="bold" lengthAdjust="spacing" textLength="47" x="759" y="276.4999">bucket</text><!--MD5=[63955b8f5af8bd25e363284f268579d0]
entity getBusinessDays--><polygon fill="#FEFECE" filter="url(#f1a39h1ey06k1r)" points="684,111.5,684,165.0999,881,165.0999,881,121.5,871,111.5,684,111.5" style="stroke:#000000;stroke-width:1.5;"/><path d="M871,111.5 L871,121.5 L881,121.5 " fill="#FEFECE" style="stroke:#000000;stroke-width:1.5;"/><text fill="#000000" font-family="sans-serif" font-size="14" lengthAdjust="spacing" textLength="173" x="694" y="135.4999">getBusinessDays(startDate,</text><text fill="#000000" font-family="sans-serif" font-size="14" lengthAdjust="spacing" textLength="57" x="694" y="152.2999">endDate)</text><!--MD5=[c8a1f054d404df0a65fc25cf7fbed36b]
entity scope--><polygon fill="#FEFECE" filter="url(#f1a39h1ey06k1r)" points="741.5,301,751.5,291,823.5,291,823.5,327.7999,813.5,337.7999,741.5,337.7999,741.5,301" style="stroke:#000000;stroke-width:1.5;"/><line style="stroke:#000000;stroke-width:1.5;" x1="813.5" x2="823.5" y1="301" y2="291"/><line style="stroke:#000000;stroke-width:1.5;" x1="741.5" x2="813.5" y1="301" y2="301"/><line style="stroke:#000000;stroke-width:1.5;" x1="813.5" x2="813.5" y1="301" y2="337.7999"/><text fill="#000000" font-family="sans-serif" font-size="14" font-weight="bold" lengthAdjust="spacing" textLength="42" x="756.5" y="324.9999">scope</text><!--MD5=[d2ef3ebb0f476a9001ba6a631a066203]
entity n1qlUDFunction--><rect fill="#FEFECE" filter="url(#f1a39h1ey06k1r)" height="63.5999" style="stroke:#A80036;stroke-width:1.5;" width="242" x="321" y="106.5"/><rect fill="#FEFECE" height="10" style="stroke:#A80036;stroke-width:1.5;" width="15" x="543" y="111.5"/><rect fill="#FEFECE" height="2" style="stroke:#A80036;stroke-width:1.5;" width="4" x="541" y="113.5"/><rect fill="#FEFECE" height="2" style="stroke:#A80036;stroke-width:1.5;" width="4" x="541" y="117.5"/><text fill="#000000" font-family="sans-serif" font-size="14" font-style="italic" lengthAdjust="spacing" textLength="202" x="336" y="140.4999">«SQL++ User-Defined Function»</text><text fill="#000000" font-family="sans-serif" font-size="14" lengthAdjust="spacing" textLength="129" x="372.5" y="157.2999">getBusinessDays(...)</text><!--MD5=[8fc3522a43f8c7199df5e09e5bb0188e]
entity user--><ellipse cx="133.5" cy="116" fill="#FEFECE" filter="url(#f1a39h1ey06k1r)" rx="16" ry="16" style="stroke:#A80036;stroke-width:1.5;"/><path d="M133.5,136 C137.5,136 140.5,136 144.5,132 C152.5,132 160.5,140 160.5,148 L160.5,152 C160.5,156 156.5,160 152.5,160 L114.5,160 C110.5,160 106.5,156 106.5,152 L106.5,148 C106.5,140 114.5,132 122.5,132 C126.5,136 129.5,136 133.5,136 " fill="#FEFECE" filter="url(#f1a39h1ey06k1r)" style="stroke:#A80036;stroke-width:1.5;"/><text fill="#000000" font-family="sans-serif" font-size="14" lengthAdjust="spacing" textLength="27" x="120" y="175.4999">user</text><path d="M6,6 L6,62.8 A0,0 0 0 0 6,62.8 L130,62.8 L134,98.22 L138,62.8 L261,62.8 A0,0 0 0 0 261,62.8 L261,16 L251,6 L6,6 A0,0 0 0 0 6,6 " fill="#FFFFF0" filter="url(#f1a39h1ey06k1r)" style="stroke:#A80036;stroke-width:1.0;"/><path d="M251,6 L251,16 L261,16 L251,6 " fill="#FFFFF0" style="stroke:#A80036;stroke-width:1.0;"/><text fill="#000000" font-family="sans-serif" font-size="13" lengthAdjust="spacing" textLength="234" x="12" y="24">can access the getBusinessDays function</text><text fill="#000000" font-family="sans-serif" font-size="13" lengthAdjust="spacing" textLength="142" x="12" y="39.6">as long as s/he is working</text><text fill="#000000" font-family="sans-serif" font-size="13" lengthAdjust="spacing" textLength="61" x="12" y="55.2">inside the "</text><text fill="#000000" font-family="sans-serif" font-size="13" font-weight="bold" lengthAdjust="spacing" textLength="83" x="73" y="55.2">bucket.scope</text><text fill="#000000" font-family="sans-serif" font-size="13" lengthAdjust="spacing" textLength="49" x="156" y="55.2">" context</text><!--MD5=[f99f17aee1b83d3c2ab474d1f7da2a89]
link n1qlUDFunction to getBusinessDays--><path codeLine="18" d="M563.01,138.5 C563.01,138.5 678.75,138.5 678.75,138.5 " fill="none" id="n1qlUDFunction-to-getBusinessDays" style="stroke:#A80036;stroke-width:1.0;"/><polygon fill="#A80036" points="683.75,138.5,674.75,134.5,678.75,138.5,674.75,142.5,683.75,138.5" style="stroke:#A80036;stroke-width:1.0;"/><!--MD5=[eae8df7cf474f7b3224e735e08fb50ba]
reverse link scope to MyLibrary--><path codeLine="28" d="M783,285.88 C783,285.88 783,264.575 783,243.27 C783,232.6175 783,221.965 783,213.9756 C783,211.9783 783,210.1474 783,208.5245 " fill="none" id="scope-backto-MyLibrary" style="stroke:#A80036;stroke-width:1.0;stroke-dasharray:7.0,7.0;"/><polygon fill="#A80036" points="783,290.88,787,281.88,783,285.88,779,281.88,783,290.88" style="stroke:#A80036;stroke-width:1.0;"/><!--MD5=[226fddc1abbda551b24789e9440fd7ef]
link user to n1qlUDFunction--><path codeLine="32" d="M162.25,138.5 C162.25,138.5 315.86,138.5 315.86,138.5 " fill="none" id="user-to-n1qlUDFunction" style="stroke:#A80036;stroke-width:1.0;"/><polygon fill="#A80036" points="320.86,138.5,311.86,134.5,315.86,138.5,311.86,142.5,320.86,138.5" style="stroke:#A80036;stroke-width:1.0;"/><!--MD5=[77d08d3b3bc4b24991d1f9fdc1aa4206]
@startuml
allow_mixing

left to right direction
skinparam actorStyle Awesome
skinparam linetype polyline
skinparam linetype ortho

component "getBusinessDays(...)" <<SQL++ User-Defined Function>> as n1qlUDFunction

  frame "my-library" as MyLibrary {
  
   file "getBusinessDays(startDate, \nendDate)" as getBusinessDays

  }



n1qlUDFunction - - -> getBusinessDays 
actor "user" as user



database "bucket" as bucket {
  node "**scope**" as scope
}


scope <...r.... MyLibrary



user - -> n1qlUDFunction

note top of user #Ivory
  can access the getBusinessDays function
  as long as s/he is working 
  inside the "**bucket.scope**" context
end note
@enduml

PlantUML version 1.2021.16(Wed Dec 08 17:25:22 GMT 2021)
(GPL source distribution)
Java Runtime: OpenJDK Runtime Environment
JVM: OpenJDK 64-Bit Server VM
Default Encoding: UTF-8
Language: en
Country: US
--></g></svg>