<?xml version="1.0" encoding="us-ascii" standalone="no"?><svg xmlns="http://www.w3.org/2000/svg" xmlns:xlink="http://www.w3.org/1999/xlink" contentStyleType="text/css" height="172px" preserveAspectRatio="none" style="width:371px;height:172px;background:#FFFFFF;" version="1.1" viewBox="0 0 371 172" width="371px" zoomAndPan="magnify"><defs/><g><g id="elem_Start"><ellipse cx="185.9184" cy="30.7211" fill="#F1F1F1" rx="70.3084" ry="24.7211" style="stroke:#181818;stroke-width:0.5;"/><text fill="#000000" font-family="sans-serif" font-size="14" font-style="italic" lengthAdjust="spacing" textLength="101" x="135.4184" y="29.1577">&#171;Input Token&#187;</text><text fill="#000000" font-family="sans-serif" font-size="14" lengthAdjust="spacing" textLength="40" x="165.9184" y="45.4545">beers</text></g><g id="elem_beer"><ellipse cx="53.9232" cy="141.0951" fill="#F1F1F1" rx="47.9232" ry="25.1851" style="stroke:#181818;stroke-width:0.5;"/><text fill="#000000" font-family="sans-serif" font-size="14" font-style="italic" lengthAdjust="spacing" textLength="66" x="20.9232" y="138.8391">&#171;Output&#187;</text><text fill="#000000" font-family="sans-serif" font-size="14" lengthAdjust="spacing" textLength="32" x="37.9232" y="155.1359">beer</text></g><g id="elem_beers"><ellipse cx="185.9196" cy="141.1024" fill="#F1F1F1" rx="48.8696" ry="25.6524" style="stroke:#181818;stroke-width:0.5;"/><text fill="#000000" font-family="sans-serif" font-size="14" font-style="italic" lengthAdjust="spacing" textLength="66" x="152.9196" y="138.1658">&#171;Output&#187;</text><text fill="#000000" font-family="sans-serif" font-size="14" lengthAdjust="spacing" textLength="40" x="165.9196" y="154.4626">beers</text></g><g id="elem_eers"><ellipse cx="317.9174" cy="141.1028" fill="#F1F1F1" rx="47.8174" ry="25.1328" style="stroke:#181818;stroke-width:0.5;"/><text fill="#000000" font-family="sans-serif" font-size="14" font-style="italic" lengthAdjust="spacing" textLength="66" x="284.9174" y="138.9239">&#171;Output&#187;</text><text fill="#000000" font-family="sans-serif" font-size="14" lengthAdjust="spacing" textLength="31" x="302.4174" y="155.2208">eers</text></g><!--link Start to beer--><g id="link_Start_beer"><path d="M158.89,53.92 C135.51,73.11 106.5977,96.8532 83.7677,115.5932 " fill="none" id="Start-to-beer" style="stroke:#181818;stroke-width:1.0;"/><polygon fill="#181818" points="79.13,119.4,88.6244,116.7815,82.9947,116.2276,83.5486,110.598,79.13,119.4" style="stroke:#181818;stroke-width:1.0;"/></g><!--link Start to beers--><g id="link_Start_beers"><path d="M185.92,55.78 C185.92,73.36 185.92,91.15 185.92,108.98 " fill="none" id="Start-to-beers" style="stroke:#181818;stroke-width:1.0;"/><polygon fill="#181818" points="185.92,114.98,189.92,105.98,185.92,109.98,181.92,105.98,185.92,114.98" style="stroke:#181818;stroke-width:1.0;"/></g><!--link Start to eers--><g id="link_Start_eers"><path d="M212.95,53.92 C236.34,73.11 265.2415,96.8542 288.0815,115.5942 " fill="none" id="Start-to-eers" style="stroke:#181818;stroke-width:1.0;"/><polygon fill="#181818" points="292.72,119.4,288.2995,110.5989,288.8546,116.2285,283.225,116.7836,292.72,119.4" style="stroke:#181818;stroke-width:1.0;"/></g><!--SRC=[qqXAJIqgrbH8B5O8BaaiAb6miV7CAoWjKGZ9pqxDixFZqW0fq0GA-vUM0CLX8iMeGXWYN13JT7Nj520ce0iKeuY01G00]--></g></svg>