<?xml version="1.0" encoding="UTF-8" standalone="no"?><svg xmlns="http://www.w3.org/2000/svg" xmlns:xlink="http://www.w3.org/1999/xlink" contentStyleType="text/css" height="167px" preserveAspectRatio="none" style="width:643px;height:167px;background:#FFFFFF;" version="1.1" viewBox="0 0 643 167" width="643px" zoomAndPan="magnify"><defs/><g><!--cluster Scope 1--><g id="cluster_Scope 1"><rect fill="none" height="154" rx="35" ry="35" style="stroke:#181818;stroke-width:1.0;" width="630" x="7" y="7"/><text fill="#000000" font-family="sans-serif" font-size="14" font-weight="bold" lengthAdjust="spacing" textLength="64" x="290" y="26.9951">Scope 1</text></g><!--cluster Collection B--><g id="cluster_Collection B"><path d="M336.5,50 L430.5,50 A3.75,3.75 0 0 1 433,52.5 L440,72.2969 L610.5,72.2969 A2.5,2.5 0 0 1 613,74.7969 L613,134.5 A2.5,2.5 0 0 1 610.5,137 L336.5,137 A2.5,2.5 0 0 1 334,134.5 L334,52.5 A2.5,2.5 0 0 1 336.5,50 " fill="none" style="stroke:#000000;stroke-width:1.5;"/><line style="stroke:#000000;stroke-width:1.5;" x1="334" x2="440" y1="72.2969" y2="72.2969"/><text fill="#000000" font-family="sans-serif" font-size="14" font-weight="bold" lengthAdjust="spacing" textLength="93" x="338" y="64.9951">Collection B</text></g><!--cluster Collection A--><g id="cluster_Collection A"><path d="M33.5,50 L128.5,50 A3.75,3.75 0 0 1 131,52.5 L138,72.2969 L307.5,72.2969 A2.5,2.5 0 0 1 310,74.7969 L310,134.5 A2.5,2.5 0 0 1 307.5,137 L33.5,137 A2.5,2.5 0 0 1 31,134.5 L31,52.5 A2.5,2.5 0 0 1 33.5,50 " fill="none" style="stroke:#000000;stroke-width:1.5;"/><line style="stroke:#000000;stroke-width:1.5;" x1="31" x2="138" y1="72.2969" y2="72.2969"/><text fill="#000000" font-family="sans-serif" font-size="14" font-weight="bold" lengthAdjust="spacing" textLength="94" x="35" y="64.9951">Collection A</text></g><!--entity Document 4--><g id="elem_Document 4"><path d="M491,87.5 L491,118.7969 A2.5,2.5 0 0 0 493.5,121.2969 L594.5,121.2969 A2.5,2.5 0 0 0 597,118.7969 L597,95 L587,85 L493.5,85 A2.5,2.5 0 0 0 491,87.5 " fill="#F1F1F1" style="stroke:#181818;stroke-width:0.5;"/><path d="M587,85 L587,92.5 A2.5,2.5 0 0 0 589.5,95 L597,95 " fill="#F1F1F1" style="stroke:#181818;stroke-width:0.5;"/><text fill="#000000" font-family="sans-serif" font-size="14" lengthAdjust="spacing" textLength="86" x="501" y="107.9951">Document 4</text></g><!--entity Document 3--><g id="elem_Document 3"><path d="M350,87.5 L350,118.7969 A2.5,2.5 0 0 0 352.5,121.2969 L453.5,121.2969 A2.5,2.5 0 0 0 456,118.7969 L456,95 L446,85 L352.5,85 A2.5,2.5 0 0 0 350,87.5 " fill="#F1F1F1" style="stroke:#181818;stroke-width:0.5;"/><path d="M446,85 L446,92.5 A2.5,2.5 0 0 0 448.5,95 L456,95 " fill="#F1F1F1" style="stroke:#181818;stroke-width:0.5;"/><text fill="#000000" font-family="sans-serif" font-size="14" lengthAdjust="spacing" textLength="86" x="360" y="107.9951">Document 3</text></g><!--entity Document 2--><g id="elem_Document 2"><path d="M188,87.5 L188,118.7969 A2.5,2.5 0 0 0 190.5,121.2969 L291.5,121.2969 A2.5,2.5 0 0 0 294,118.7969 L294,95 L284,85 L190.5,85 A2.5,2.5 0 0 0 188,87.5 " fill="#F1F1F1" style="stroke:#181818;stroke-width:0.5;"/><path d="M284,85 L284,92.5 A2.5,2.5 0 0 0 286.5,95 L294,95 " fill="#F1F1F1" style="stroke:#181818;stroke-width:0.5;"/><text fill="#000000" font-family="sans-serif" font-size="14" lengthAdjust="spacing" textLength="86" x="198" y="107.9951">Document 2</text></g><!--entity Document 1--><g id="elem_Document 1"><path d="M47,87.5 L47,118.7969 A2.5,2.5 0 0 0 49.5,121.2969 L150.5,121.2969 A2.5,2.5 0 0 0 153,118.7969 L153,95 L143,85 L49.5,85 A2.5,2.5 0 0 0 47,87.5 " fill="#F1F1F1" style="stroke:#181818;stroke-width:0.5;"/><path d="M143,85 L143,92.5 A2.5,2.5 0 0 0 145.5,95 L153,95 " fill="#F1F1F1" style="stroke:#181818;stroke-width:0.5;"/><text fill="#000000" font-family="sans-serif" font-size="14" lengthAdjust="spacing" textLength="86" x="57" y="107.9951">Document 1</text></g><!--SRC=[Aox9BqfCJrLG2axEBqXLC5HIgEPIW8A2nEHii9npVavEQd99PdwUWXEo0X18oym1gd39JoxDJSqhKJ1HmYThZ92jnMkDen9UMupmscA8Raij0000]--></g></svg>