<?xml version="1.0" encoding="UTF-8" standalone="no"?><svg xmlns="http://www.w3.org/2000/svg" xmlns:xlink="http://www.w3.org/1999/xlink" contentStyleType="text/css" height="170px" preserveAspectRatio="none" style="width:807px;height:170px;background:#FFFFFF;" version="1.1" viewBox="0 0 807 170" width="807px" zoomAndPan="magnify"><defs/><g><!--cluster Bucket 1--><g id="cluster_Bucket 1"><rect fill="none" height="157" rx="35" ry="35" style="stroke:#181818;stroke-width:1.0;" width="384" x="7" y="7"/><text fill="#000000" font-family="sans-serif" font-size="14" font-weight="bold" lengthAdjust="spacing" textLength="69" x="164.5" y="26.9951">Bucket 1</text></g><!--cluster Scope 2--><g id="cluster_Scope 2"><path d="M213.5,50 L278.5,50 A3.75,3.75 0 0 1 281,52.5 L288,72.2969 L364.5,72.2969 A2.5,2.5 0 0 1 367,74.7969 L367,137.5 A2.5,2.5 0 0 1 364.5,140 L213.5,140 A2.5,2.5 0 0 1 211,137.5 L211,52.5 A2.5,2.5 0 0 1 213.5,50 " fill="none" style="stroke:#000000;stroke-width:1.5;"/><line style="stroke:#000000;stroke-width:1.5;" x1="211" x2="288" y1="72.2969" y2="72.2969"/><text fill="#000000" font-family="sans-serif" font-size="14" font-weight="bold" lengthAdjust="spacing" textLength="64" x="215" y="64.9951">Scope 2</text></g><!--cluster Scope 1--><g id="cluster_Scope 1"><path d="M33.5,50 L98.5,50 A3.75,3.75 0 0 1 101,52.5 L108,72.2969 L184.5,72.2969 A2.5,2.5 0 0 1 187,74.7969 L187,137.5 A2.5,2.5 0 0 1 184.5,140 L33.5,140 A2.5,2.5 0 0 1 31,137.5 L31,52.5 A2.5,2.5 0 0 1 33.5,50 " fill="none" style="stroke:#000000;stroke-width:1.5;"/><line style="stroke:#000000;stroke-width:1.5;" x1="31" x2="108" y1="72.2969" y2="72.2969"/><text fill="#000000" font-family="sans-serif" font-size="14" font-weight="bold" lengthAdjust="spacing" textLength="64" x="35" y="64.9951">Scope 1</text></g><!--cluster Bucket 2--><g id="cluster_Bucket 2"><rect fill="none" height="157" rx="35" ry="35" style="stroke:#181818;stroke-width:1.0;" width="386" x="415" y="7"/><text fill="#000000" font-family="sans-serif" font-size="14" font-weight="bold" lengthAdjust="spacing" textLength="69" x="573.5" y="26.9951">Bucket 2</text></g><!--cluster Scope 4--><g id="cluster_Scope 4"><path d="M621.5,50 L686.5,50 A3.75,3.75 0 0 1 689,52.5 L696,72.2969 L774.5,72.2969 A2.5,2.5 0 0 1 777,74.7969 L777,137.5 A2.5,2.5 0 0 1 774.5,140 L621.5,140 A2.5,2.5 0 0 1 619,137.5 L619,52.5 A2.5,2.5 0 0 1 621.5,50 " fill="none" style="stroke:#000000;stroke-width:1.5;"/><line style="stroke:#000000;stroke-width:1.5;" x1="619" x2="696" y1="72.2969" y2="72.2969"/><text fill="#000000" font-family="sans-serif" font-size="14" font-weight="bold" lengthAdjust="spacing" textLength="64" x="623" y="64.9951">Scope 4</text></g><!--cluster Scope 3--><g id="cluster_Scope 3"><path d="M441.5,50 L506.5,50 A3.75,3.75 0 0 1 509,52.5 L516,72.2969 L592.5,72.2969 A2.5,2.5 0 0 1 595,74.7969 L595,137.5 A2.5,2.5 0 0 1 592.5,140 L441.5,140 A2.5,2.5 0 0 1 439,137.5 L439,52.5 A2.5,2.5 0 0 1 441.5,50 " fill="none" style="stroke:#000000;stroke-width:1.5;"/><line style="stroke:#000000;stroke-width:1.5;" x1="439" x2="516" y1="72.2969" y2="72.2969"/><text fill="#000000" font-family="sans-serif" font-size="14" font-weight="bold" lengthAdjust="spacing" textLength="64" x="443" y="64.9951">Scope 3</text></g><!--entity Collection B--><g id="elem_Collection B"><path d="M229.5,85 L324.5,85 A3.75,3.75 0 0 1 327,87.5 L334,107.2969 L348.5,107.2969 A2.5,2.5 0 0 1 351,109.7969 L351,121.7969 A2.5,2.5 0 0 1 348.5,124.2969 L229.5,124.2969 A2.5,2.5 0 0 1 227,121.7969 L227,87.5 A2.5,2.5 0 0 1 229.5,85 " fill="#F1F1F1" style="stroke:#181818;stroke-width:0.5;"/><line style="stroke:#181818;stroke-width:0.5;" x1="227" x2="334" y1="107.2969" y2="107.2969"/><text fill="#000000" font-family="sans-serif" font-size="14" lengthAdjust="spacing" textLength="82" x="237" y="100.9951">Collection B</text></g><!--entity Collection A--><g id="elem_Collection A"><path d="M50,85 L144,85 A3.75,3.75 0 0 1 146.5,87.5 L153.5,107.2969 L168,107.2969 A2.5,2.5 0 0 1 170.5,109.7969 L170.5,121.7969 A2.5,2.5 0 0 1 168,124.2969 L50,124.2969 A2.5,2.5 0 0 1 47.5,121.7969 L47.5,87.5 A2.5,2.5 0 0 1 50,85 " fill="#F1F1F1" style="stroke:#181818;stroke-width:0.5;"/><line style="stroke:#181818;stroke-width:0.5;" x1="47.5" x2="153.5" y1="107.2969" y2="107.2969"/><text fill="#000000" font-family="sans-serif" font-size="14" lengthAdjust="spacing" textLength="81" x="57.5" y="100.9951">Collection A</text></g><!--entity Collection D--><g id="elem_Collection D"><path d="M638,85 L734,85 A3.75,3.75 0 0 1 736.5,87.5 L743.5,107.2969 L758,107.2969 A2.5,2.5 0 0 1 760.5,109.7969 L760.5,121.7969 A2.5,2.5 0 0 1 758,124.2969 L638,124.2969 A2.5,2.5 0 0 1 635.5,121.7969 L635.5,87.5 A2.5,2.5 0 0 1 638,85 " fill="#F1F1F1" style="stroke:#181818;stroke-width:0.5;"/><line style="stroke:#181818;stroke-width:0.5;" x1="635.5" x2="743.5" y1="107.2969" y2="107.2969"/><text fill="#000000" font-family="sans-serif" font-size="14" lengthAdjust="spacing" textLength="83" x="645.5" y="100.9951">Collection D</text></g><!--entity Collection C--><g id="elem_Collection C"><path d="M457.5,85 L552.5,85 A3.75,3.75 0 0 1 555,87.5 L562,107.2969 L576.5,107.2969 A2.5,2.5 0 0 1 579,109.7969 L579,121.7969 A2.5,2.5 0 0 1 576.5,124.2969 L457.5,124.2969 A2.5,2.5 0 0 1 455,121.7969 L455,87.5 A2.5,2.5 0 0 1 457.5,85 " fill="#F1F1F1" style="stroke:#181818;stroke-width:0.5;"/><line style="stroke:#181818;stroke-width:0.5;" x1="455" x2="562" y1="107.2969" y2="107.2969"/><text fill="#000000" font-family="sans-serif" font-size="14" lengthAdjust="spacing" textLength="82" x="465" y="100.9951">Collection C</text></g><!--SRC=[Aox9BqfCJrLGSYfDpaujKJ1KKgZcKe22jFoSbDGY1QNWvFo2L0KZP2aGA4XCpWRhTSxFoKbDBidCprDmKe8hgSLXZY4nvZYYcmCXYz6SQuJRkIR4MED2sBd6n9ZZZE5S0000]--></g></svg>