<?xml version="1.0" encoding="us-ascii" standalone="no"?><svg xmlns="http://www.w3.org/2000/svg" xmlns:xlink="http://www.w3.org/1999/xlink" contentStyleType="text/css" height="232px" preserveAspectRatio="none" style="width:688px;height:232px;background:#FFFFFF;" version="1.1" viewBox="0 0 688 232" width="688px" zoomAndPan="magnify"><defs/><g><!--cluster Index\nService--><g id="cluster_Index\nService"><rect fill="none" height="103.3" rx="2.5" ry="2.5" style="stroke:#181818;stroke-width:1.0;" width="490" x="42" y="7"/><text fill="#000000" font-family="sans-serif" font-size="14" font-weight="bold" lengthAdjust="spacing" textLength="43" x="265.5" y="21.9951">Index</text><text fill="#000000" font-family="sans-serif" font-size="14" font-weight="bold" lengthAdjust="spacing" textLength="59" x="257.5" y="38.292">Service</text></g><!--cluster Query\nService--><g id="cluster_Query\nService"><rect fill="none" height="103.3" rx="2.5" ry="2.5" style="stroke:#181818;stroke-width:1.0;" width="90" x="556" y="7"/><text fill="#000000" font-family="sans-serif" font-size="14" font-weight="bold" lengthAdjust="spacing" textLength="48" x="577" y="21.9951">Query</text><text fill="#000000" font-family="sans-serif" font-size="14" font-weight="bold" lengthAdjust="spacing" textLength="59" x="571.5" y="38.292">Service</text></g><!--entity IndexScan--><g id="elem_IndexScan"><rect fill="#F1F1F1" height="36.2969" rx="2.5" ry="2.5" style="stroke:#181818;stroke-width:0.5;" width="95" x="57.5" y="58"/><text fill="#000000" font-family="sans-serif" font-size="14" lengthAdjust="spacing" textLength="75" x="67.5" y="80.9951">Index Scan</text></g><!--entity Filter--><g id="elem_Filter"><rect fill="#F1F1F1" height="36.2969" rx="2.5" ry="2.5" style="stroke:#181818;stroke-width:0.5;" width="53" x="187.5" y="58"/><text fill="#000000" font-family="sans-serif" font-size="14" lengthAdjust="spacing" textLength="33" x="197.5" y="80.9951">Filter</text></g><!--entity Order--><g id="elem_Order"><rect fill="#F1F1F1" height="36.2969" rx="2.5" ry="2.5" style="stroke:#181818;stroke-width:0.5;" width="59" x="275.5" y="58"/><text fill="#000000" font-family="sans-serif" font-size="14" lengthAdjust="spacing" textLength="39" x="285.5" y="80.9951">Order</text></g><!--entity Offset--><g id="elem_Offset"><rect fill="#F1F1F1" height="36.2969" rx="2.5" ry="2.5" style="stroke:#181818;stroke-width:0.5;" width="61" x="369.5" y="58"/><text fill="#000000" font-family="sans-serif" font-size="14" lengthAdjust="spacing" textLength="41" x="379.5" y="80.9951">Offset</text></g><!--entity Limit--><g id="elem_Limit"><rect fill="#F1F1F1" height="36.2969" rx="2.5" ry="2.5" style="stroke:#181818;stroke-width:0.5;" width="51" x="465.5" y="58"/><text fill="#000000" font-family="sans-serif" font-size="14" lengthAdjust="spacing" textLength="31" x="475.5" y="80.9951">Limit</text></g><!--entity Fetch--><g id="elem_Fetch"><rect fill="#F1F1F1" height="36.2969" rx="2.5" ry="2.5" style="stroke:#181818;stroke-width:0.5;" width="59" x="571.5" y="58"/><text fill="#000000" font-family="sans-serif" font-size="14" lengthAdjust="spacing" textLength="39" x="581.5" y="80.9951">Fetch</text></g><!--entity start--><g id="elem_start"><ellipse cx="14" cy="76.15" fill="#F1F1F1" rx="8" ry="8" style="stroke:#181818;stroke-width:0.5;"/></g><!--entity end--><g id="elem_end"><ellipse cx="674" cy="76.15" fill="#F1F1F1" rx="8" ry="8" style="stroke:#181818;stroke-width:0.5;"/></g><g id="elem_GMN10"><path d="M96,164.96 L96,205.2256 A0,0 0 0 0 96,205.2256 L332,205.2256 A0,0 0 0 0 332,205.2256 L332,174.96 L322,164.96 L218,164.96 L214,94.63 L210,164.96 L96,164.96 A0,0 0 0 0 96,164.96 " fill="#FEFFDD" style="stroke:#181818;stroke-width:0.5;"/><path d="M322,164.96 L322,174.96 L332,174.96 L322,164.96 " fill="#FEFFDD" style="stroke:#181818;stroke-width:0.5;"/><text fill="#000000" font-family="sans-serif" font-size="13" lengthAdjust="spacing" textLength="183" x="118" y="182.0269">Filters, order, and pagination</text><text fill="#000000" font-family="sans-serif" font-size="13" lengthAdjust="spacing" textLength="215" x="102" y="197.1597">pushed down to the Index Service</text></g><!--entity Data--><g id="elem_Data"><path d="M566,164.3 C566,154.3 601,154.3 601,154.3 C601,154.3 636,154.3 636,164.3 L636,205.8937 C636,215.8937 601,215.8937 601,215.8937 C601,215.8937 566,215.8937 566,205.8937 L566,164.3 " fill="#F1F1F1" style="stroke:#181818;stroke-width:0.5;"/><path d="M566,164.3 C566,174.3 601,174.3 601,174.3 C601,174.3 636,174.3 636,164.3 " fill="none" style="stroke:#181818;stroke-width:0.5;"/><text fill="#000000" font-family="sans-serif" font-size="14" lengthAdjust="spacing" textLength="32" x="585" y="191.2951">Data</text><text fill="#000000" font-family="sans-serif" font-size="14" lengthAdjust="spacing" textLength="50" x="576" y="207.592">Service</text></g><!--link start to IndexScan--><g id="link_start_IndexScan"><path d="M23.4,76.89 C31.66,76.89 38.36,76.89 51.3,76.89 " fill="none" id="start-to-IndexScan" style="stroke:#181818;stroke-width:1.0;stroke-dasharray:7.0,7.0;"/><polygon fill="#181818" points="57.3,76.89,48.3,72.89,52.3,76.89,48.3,80.89,57.3,76.89" style="stroke:#181818;stroke-width:1.0;"/></g><!--link IndexScan to Filter--><g id="link_IndexScan_Filter"><path d="M152.81,76.89 C164.59,76.89 170.8,76.89 181.18,76.89 " fill="none" id="IndexScan-to-Filter" style="stroke:#181818;stroke-width:1.0;"/><polygon fill="#181818" points="187.18,76.89,178.18,72.89,182.18,76.89,178.18,80.89,187.18,76.89" style="stroke:#181818;stroke-width:1.0;"/></g><!--link Filter to Order--><g id="link_Filter_Order"><path d="M240.81,76.89 C251.61,76.89 258.11,76.89 269.2,76.89 " fill="none" id="Filter-to-Order" style="stroke:#181818;stroke-width:1.0;"/><polygon fill="#181818" points="275.2,76.89,266.2,72.89,270.2,76.89,266.2,80.89,275.2,76.89" style="stroke:#181818;stroke-width:1.0;"/></g><!--link Order to Offset--><g id="link_Order_Offset"><path d="M334.8,76.89 C345.79,76.89 352.26,76.89 363.33,76.89 " fill="none" id="Order-to-Offset" style="stroke:#181818;stroke-width:1.0;"/><polygon fill="#181818" points="369.33,76.89,360.33,72.89,364.33,76.89,360.33,80.89,369.33,76.89" style="stroke:#181818;stroke-width:1.0;"/></g><!--link Offset to Limit--><g id="link_Offset_Limit"><path d="M430.81,76.89 C441.95,76.89 448.4,76.89 459.08,76.89 " fill="none" id="Offset-to-Limit" style="stroke:#181818;stroke-width:1.0;"/><polygon fill="#181818" points="465.08,76.89,456.08,72.89,460.08,76.89,456.08,80.89,465.08,76.89" style="stroke:#181818;stroke-width:1.0;"/></g><!--link Limit to Fetch--><g id="link_Limit_Fetch"><path d="M516.79,76.89 C533.05,76.89 548.1,76.89 565.09,76.89 " fill="none" id="Limit-to-Fetch" style="stroke:#181818;stroke-width:1.0;"/><polygon fill="#181818" points="571.09,76.89,562.09,72.89,566.09,76.89,562.09,80.89,571.09,76.89" style="stroke:#181818;stroke-width:1.0;"/></g><!--link Fetch to Data--><g id="link_Fetch_Data"><path d="M591.17,94.63 C591.17,110.9 591.17,128.92 591.17,148.12 " fill="none" id="Fetch-to-Data" style="stroke:#181818;stroke-width:1.0;"/><polygon fill="#181818" points="591.17,154.12,595.17,145.12,591.17,149.12,587.17,145.12,591.17,154.12" style="stroke:#181818;stroke-width:1.0;"/></g><!--reverse link Fetch to Data--><g id="link_Fetch_Data"><path d="M610.83,100.63 C610.83,116.9 610.83,134.92 610.83,154.12 " fill="none" id="Fetch-backto-Data" style="stroke:#181818;stroke-width:1.0;"/><polygon fill="#181818" points="610.83,94.63,606.83,103.63,610.83,99.63,614.83,103.63,610.83,94.63" style="stroke:#181818;stroke-width:1.0;"/></g><!--link Fetch to end--><g id="link_Fetch_end"><path d="M630.69,76.89 C642.85,76.89 650.05,76.89 658.64,76.89 " fill="none" id="Fetch-to-end" style="stroke:#181818;stroke-width:1.0;stroke-dasharray:7.0,7.0;"/><polygon fill="#181818" points="664.64,76.89,655.64,72.89,659.64,76.89,655.64,80.89,664.64,76.89" style="stroke:#181818;stroke-width:1.0;"/></g><!--SRC=[TL1TQyCm37pNhn1zsg39BnY5mIWC1cLqZtjHOwKnI-HWArlBs7-VFxesBGo3h3ihojs53oiZUHhGS4jJhszyqCVUxcLWKMnYOG_XFDLROJsEZCvhvm3kxd4H3mKCIbvdcCK0U6wKPDypBfx5yE5Tjkm_RSEBRq2yVSLjGv8_pZ2XgwcrxPEQERNnvfPfsy1wHRtOmIhy08XJnfrJTGEwzhAlD64PNSLrIoGnEDBU2gbrISCuXOuD6lSbg0wrOpmfBdOWkiMq_ShowyJ- -9_bDMlJ9L66b7OKulnJx2xZAOV40EHeiQvzNQzcqPmxh5P_NigLY99ChXcMMCgLY19AhbZvj24BoXMhYFE_2toegZayAOcUVm40]--></g></svg>