<?xml version="1.0" encoding="UTF-8" standalone="no"?><svg xmlns="http://www.w3.org/2000/svg" xmlns:xlink="http://www.w3.org/1999/xlink" contentStyleType="text/css" height="234px" preserveAspectRatio="none" style="width:1188px;height:234px;background:#FFFFFF;" version="1.1" viewBox="0 0 1188 234" width="1188px" zoomAndPan="magnify"><defs/><g><!--cluster Travel Data (Bucket)--><g id="cluster_Travel Data (Bucket)"><rect fill="none" height="221" rx="35" ry="35" style="stroke:#181818;stroke-width:1.0;" width="1175" x="7" y="7"/><text fill="#000000" font-family="sans-serif" font-size="14" font-weight="bold" lengthAdjust="spacing" textLength="160" x="514.5" y="26.9951">Travel Data (Bucket)</text></g><!--cluster Inventory (Scope)--><g id="cluster_Inventory (Scope)"><path d="M33.5,50 L175.5,50 A3.75,3.75 0 0 1 178,52.5 L185,72.2969 L621.5,72.2969 A2.5,2.5 0 0 1 624,74.7969 L624,201.5 A2.5,2.5 0 0 1 621.5,204 L33.5,204 A2.5,2.5 0 0 1 31,201.5 L31,52.5 A2.5,2.5 0 0 1 33.5,50 " fill="none" style="stroke:#000000;stroke-width:1.5;"/><line style="stroke:#000000;stroke-width:1.5;" x1="31" x2="185" y1="72.2969" y2="72.2969"/><text fill="#000000" font-family="sans-serif" font-size="14" font-weight="bold" lengthAdjust="spacing" textLength="141" x="35" y="64.9951">Inventory (Scope)</text></g><!--cluster Airlines (Collection)--><g id="cluster_Airlines (Collection)"><path d="M242.5,93 L397.5,93 A3.75,3.75 0 0 1 400,95.5 L407,115.2969 L407.5,115.2969 A2.5,2.5 0 0 1 410,117.7969 L410,177.5 A2.5,2.5 0 0 1 407.5,180 L242.5,180 A2.5,2.5 0 0 1 240,177.5 L240,95.5 A2.5,2.5 0 0 1 242.5,93 " fill="none" style="stroke:#000000;stroke-width:1.5;"/><line style="stroke:#000000;stroke-width:1.5;" x1="240" x2="407" y1="115.2969" y2="115.2969"/><text fill="#000000" font-family="sans-serif" font-size="14" font-weight="bold" lengthAdjust="spacing" textLength="154" x="244" y="107.9951">Airlines (Collection)</text></g><!--cluster Hotels (Collection)--><g id="cluster_Hotels (Collection)"><path d="M57.5,93 L203.5,93 A3.75,3.75 0 0 1 206,95.5 L213,115.2969 L213.5,115.2969 A2.5,2.5 0 0 1 216,117.7969 L216,177.5 A2.5,2.5 0 0 1 213.5,180 L57.5,180 A2.5,2.5 0 0 1 55,177.5 L55,95.5 A2.5,2.5 0 0 1 57.5,93 " fill="none" style="stroke:#000000;stroke-width:1.5;"/><line style="stroke:#000000;stroke-width:1.5;" x1="55" x2="213" y1="115.2969" y2="115.2969"/><text fill="#000000" font-family="sans-serif" font-size="14" font-weight="bold" lengthAdjust="spacing" textLength="145" x="59" y="107.9951">Hotels (Collection)</text></g><!--cluster Routes (Collection)--><g id="cluster_Routes (Collection)"><path d="M436.5,93 L587.5,93 A3.75,3.75 0 0 1 590,95.5 L597,115.2969 L597.5,115.2969 A2.5,2.5 0 0 1 600,117.7969 L600,177.5 A2.5,2.5 0 0 1 597.5,180 L436.5,180 A2.5,2.5 0 0 1 434,177.5 L434,95.5 A2.5,2.5 0 0 1 436.5,93 " fill="none" style="stroke:#000000;stroke-width:1.5;"/><line style="stroke:#000000;stroke-width:1.5;" x1="434" x2="597" y1="115.2969" y2="115.2969"/><text fill="#000000" font-family="sans-serif" font-size="14" font-weight="bold" lengthAdjust="spacing" textLength="150" x="438" y="107.9951">Routes (Collection)</text></g><!--cluster User Bookings (Scope)--><g id="cluster_User Bookings (Scope)"><path d="M650.5,50 L831.5,50 A3.75,3.75 0 0 1 834,52.5 L841,72.2969 L1155.5,72.2969 A2.5,2.5 0 0 1 1158,74.7969 L1158,201.5 A2.5,2.5 0 0 1 1155.5,204 L650.5,204 A2.5,2.5 0 0 1 648,201.5 L648,52.5 A2.5,2.5 0 0 1 650.5,50 " fill="none" style="stroke:#000000;stroke-width:1.5;"/><line style="stroke:#000000;stroke-width:1.5;" x1="648" x2="841" y1="72.2969" y2="72.2969"/><text fill="#000000" font-family="sans-serif" font-size="14" font-weight="bold" lengthAdjust="spacing" textLength="180" x="652" y="64.9951">User Bookings (Scope)</text></g><!--cluster Flights (Collection)--><g id="cluster_Flights (Collection)"><path d="M944.5,93 L1092.5,93 A3.75,3.75 0 0 1 1095,95.5 L1102,115.2969 L1131.5,115.2969 A2.5,2.5 0 0 1 1134,117.7969 L1134,177.5 A2.5,2.5 0 0 1 1131.5,180 L944.5,180 A2.5,2.5 0 0 1 942,177.5 L942,95.5 A2.5,2.5 0 0 1 944.5,93 " fill="none" style="stroke:#000000;stroke-width:1.5;"/><line style="stroke:#000000;stroke-width:1.5;" x1="942" x2="1102" y1="115.2969" y2="115.2969"/><text fill="#000000" font-family="sans-serif" font-size="14" font-weight="bold" lengthAdjust="spacing" textLength="147" x="946" y="107.9951">Flights (Collection)</text></g><!--cluster Accommodations (Collection)--><g id="cluster_Accommodations (Collection)"><path d="M674.5,93 L905.5,93 A3.75,3.75 0 0 1 908,95.5 L915,115.2969 L915.5,115.2969 A2.5,2.5 0 0 1 918,117.7969 L918,177.5 A2.5,2.5 0 0 1 915.5,180 L674.5,180 A2.5,2.5 0 0 1 672,177.5 L672,95.5 A2.5,2.5 0 0 1 674.5,93 " fill="none" style="stroke:#000000;stroke-width:1.5;"/><line style="stroke:#000000;stroke-width:1.5;" x1="672" x2="915" y1="115.2969" y2="115.2969"/><text fill="#000000" font-family="sans-serif" font-size="14" font-weight="bold" lengthAdjust="spacing" textLength="230" x="676" y="107.9951">Accommodations (Collection)</text></g><!--entity Best Air--><g id="elem_Best Air"><path d="M288.5,130.5 L288.5,161.7969 A2.5,2.5 0 0 0 291,164.2969 L359,164.2969 A2.5,2.5 0 0 0 361.5,161.7969 L361.5,138 L351.5,128 L291,128 A2.5,2.5 0 0 0 288.5,130.5 " fill="#F1F1F1" style="stroke:#181818;stroke-width:0.5;"/><path d="M351.5,128 L351.5,135.5 A2.5,2.5 0 0 0 354,138 L361.5,138 " fill="#F1F1F1" style="stroke:#181818;stroke-width:0.5;"/><text fill="#000000" font-family="sans-serif" font-size="14" lengthAdjust="spacing" textLength="53" x="298.5" y="150.9951">Best Air</text></g><!--entity Caesar's Palace--><g id="elem_Caesar's Palace"><path d="M71,130.5 L71,161.7969 A2.5,2.5 0 0 0 73.5,164.2969 L196.5,164.2969 A2.5,2.5 0 0 0 199,161.7969 L199,138 L189,128 L73.5,128 A2.5,2.5 0 0 0 71,130.5 " fill="#F1F1F1" style="stroke:#181818;stroke-width:0.5;"/><path d="M189,128 L189,135.5 A2.5,2.5 0 0 0 191.5,138 L199,138 " fill="#F1F1F1" style="stroke:#181818;stroke-width:0.5;"/><text fill="#000000" font-family="sans-serif" font-size="14" lengthAdjust="spacing" textLength="108" x="81" y="150.9951">Caesar's Palace</text></g><!--entity CVG -> BWI--><g id="elem_CVG -&gt; BWI"><path d="M466.5,130.5 L466.5,161.7969 A2.5,2.5 0 0 0 469,164.2969 L565,164.2969 A2.5,2.5 0 0 0 567.5,161.7969 L567.5,138 L557.5,128 L469,128 A2.5,2.5 0 0 0 466.5,130.5 " fill="#F1F1F1" style="stroke:#181818;stroke-width:0.5;"/><path d="M557.5,128 L557.5,135.5 A2.5,2.5 0 0 0 560,138 L567.5,138 " fill="#F1F1F1" style="stroke:#181818;stroke-width:0.5;"/><text fill="#000000" font-family="sans-serif" font-size="14" lengthAdjust="spacing" textLength="81" x="476.5" y="150.9951">CVG -&gt; BWI</text></g><!--entity Baltimore to Cancun--><g id="elem_Baltimore to Cancun"><path d="M958,130.5 L958,161.7969 A2.5,2.5 0 0 0 960.5,164.2969 L1115.5,164.2969 A2.5,2.5 0 0 0 1118,161.7969 L1118,138 L1108,128 L960.5,128 A2.5,2.5 0 0 0 958,130.5 " fill="#F1F1F1" style="stroke:#181818;stroke-width:0.5;"/><path d="M1108,128 L1108,135.5 A2.5,2.5 0 0 0 1110.5,138 L1118,138 " fill="#F1F1F1" style="stroke:#181818;stroke-width:0.5;"/><text fill="#000000" font-family="sans-serif" font-size="14" lengthAdjust="spacing" textLength="140" x="968" y="150.9951">Baltimore to Cancun</text></g><!--entity Stay at Hilton--><g id="elem_Stay at Hilton"><path d="M740.5,130.5 L740.5,161.7969 A2.5,2.5 0 0 0 743,164.2969 L847,164.2969 A2.5,2.5 0 0 0 849.5,161.7969 L849.5,138 L839.5,128 L743,128 A2.5,2.5 0 0 0 740.5,130.5 " fill="#F1F1F1" style="stroke:#181818;stroke-width:0.5;"/><path d="M839.5,128 L839.5,135.5 A2.5,2.5 0 0 0 842,138 L849.5,138 " fill="#F1F1F1" style="stroke:#181818;stroke-width:0.5;"/><text fill="#000000" font-family="sans-serif" font-size="14" lengthAdjust="spacing" textLength="89" x="750.5" y="150.9951">Stay at Hilton</text></g><!--SRC=[bP3B2i9034NtVaNenhhm5mHRyR4JwsCTnbY7fXEPIGiY_NUhAq55vowooiqX9wXuB0cIhSUM66Qe26dMc8fqbC1j02yv2H_9Gx9oBRc-U8MqC7AXjyL7BcYgv-MfzMmT1KXpOIQZLjp7nXDXkQza51JwNlAsqttdB4M9OoWvKa0_3B16HaDHi8qq6lLIlb_0U0BPOVMBqtrqlWlzp4Ggwyhmb_Svs_AiKTgHrTRY2LGWHsSQ5oLbQepKjHpnmOe15ufNG8MbPHNtdw3k3W00]--></g></svg>