<?xml version="1.0" encoding="us-ascii" standalone="no"?><svg xmlns="http://www.w3.org/2000/svg" xmlns:xlink="http://www.w3.org/1999/xlink" contentStyleType="text/css" height="376px" preserveAspectRatio="none" style="width:474px;height:376px;background:#FFFFFF;" version="1.1" viewBox="0 0 474 376" width="474px" zoomAndPan="magnify"><defs/><g><!--entity db--><g id="elem_db"><path d="M137.5,21.05 C137.5,11.05 180.5,11.05 180.5,11.05 C180.5,11.05 223.5,11.05 223.5,21.05 L223.5,46.3469 C223.5,56.3469 180.5,56.3469 180.5,56.3469 C180.5,56.3469 137.5,56.3469 137.5,46.3469 L137.5,21.05 " fill="#F1F1F1" style="stroke:#181818;stroke-width:0.5;"/><path d="M137.5,21.05 C137.5,31.05 180.5,31.05 180.5,31.05 C180.5,31.05 223.5,31.05 223.5,21.05 " fill="none" style="stroke:#181818;stroke-width:0.5;"/><text fill="#000000" font-family="sans-serif" font-size="14" lengthAdjust="spacing" textLength="66" x="147.5" y="48.0451">Database</text></g><!--entity scope--><g id="elem_scope"><rect fill="#F1F1F1" height="36.2969" rx="2.5" ry="2.5" style="stroke:#181818;stroke-width:0.5;" width="64" x="148.5" y="121.4"/><text fill="#000000" font-family="sans-serif" font-size="14" lengthAdjust="spacing" textLength="44" x="158.5" y="144.3951">Scope</text></g><!--entity collection--><g id="elem_collection"><path d="M134,218.25 L175,218.25 A3.75,3.75 0 0 1 177.5,220.75 L184.5,239.25 L227,239.25 A2.5,2.5 0 0 1 229.5,241.75 L229.5,270.0469 A2.5,2.5 0 0 1 227,272.5469 L134,272.5469 A2.5,2.5 0 0 1 131.5,270.0469 L131.5,220.75 A2.5,2.5 0 0 1 134,218.25 " fill="#F1F1F1" style="stroke:#181818;stroke-width:0.5;"/><line style="stroke:#181818;stroke-width:0.5;" x1="131.5" x2="184.5" y1="239.25" y2="239.25"/><text fill="#000000" font-family="sans-serif" font-size="14" lengthAdjust="spacing" textLength="68" x="141.5" y="259.2451">Collection</text></g><!--entity document1--><g id="elem_document1"><path d="M6,335.59 L6,366.8869 A2.5,2.5 0 0 0 8.5,369.3869 L96.5,369.3869 A2.5,2.5 0 0 0 99,366.8869 L99,343.09 L89,333.09 L8.5,333.09 A2.5,2.5 0 0 0 6,335.59 " fill="#F1F1F1" style="stroke:#181818;stroke-width:0.5;"/><path d="M89,333.09 L89,340.59 A2.5,2.5 0 0 0 91.5,343.09 L99,343.09 " fill="#F1F1F1" style="stroke:#181818;stroke-width:0.5;"/><text fill="#000000" font-family="sans-serif" font-size="14" lengthAdjust="spacing" textLength="73" x="16" y="356.0851">Document</text></g><!--entity document2--><g id="elem_document2"><path d="M134,335.59 L134,366.8869 A2.5,2.5 0 0 0 136.5,369.3869 L224.5,369.3869 A2.5,2.5 0 0 0 227,366.8869 L227,343.09 L217,333.09 L136.5,333.09 A2.5,2.5 0 0 0 134,335.59 " fill="#F1F1F1" style="stroke:#181818;stroke-width:0.5;"/><path d="M217,333.09 L217,340.59 A2.5,2.5 0 0 0 219.5,343.09 L227,343.09 " fill="#F1F1F1" style="stroke:#181818;stroke-width:0.5;"/><text fill="#000000" font-family="sans-serif" font-size="14" lengthAdjust="spacing" textLength="73" x="144" y="356.0851">Document</text></g><!--entity document3--><g id="elem_document3"><path d="M262,335.59 L262,366.8869 A2.5,2.5 0 0 0 264.5,369.3869 L352.5,369.3869 A2.5,2.5 0 0 0 355,366.8869 L355,343.09 L345,333.09 L264.5,333.09 A2.5,2.5 0 0 0 262,335.59 " fill="#F1F1F1" style="stroke:#181818;stroke-width:0.5;"/><path d="M345,333.09 L345,340.59 A2.5,2.5 0 0 0 347.5,343.09 L355,343.09 " fill="#F1F1F1" style="stroke:#181818;stroke-width:0.5;"/><text fill="#000000" font-family="sans-serif" font-size="14" lengthAdjust="spacing" textLength="73" x="272" y="356.0851">Document</text></g><g id="elem_GMN13"><path d="M264,217.69 L264,241.39 L229.64,245.39 L264,249.39 L264,273.0884 A0,0 0 0 0 264,273.0884 L467,273.0884 A0,0 0 0 0 467,273.0884 L467,227.69 L457,217.69 L264,217.69 A0,0 0 0 0 264,217.69 " fill="#FEFFDD" style="stroke:#181818;stroke-width:0.5;"/><path d="M457,217.69 L457,227.69 L467,227.69 L457,217.69 " fill="#FEFFDD" style="stroke:#181818;stroke-width:0.5;"/><text fill="#000000" font-family="sans-serif" font-size="13" lengthAdjust="spacing" textLength="4" x="270" y="234.7569">&#160;</text><text fill="#000000" font-family="sans-serif" font-size="13" lengthAdjust="spacing" textLength="182" x="270" y="249.8897">Maximum of 1000 per scope</text><text fill="#000000" font-family="sans-serif" font-size="13" lengthAdjust="spacing" textLength="4" x="270" y="265.0225">&#160;</text></g><g id="elem_GMN16"><path d="M258,6 L258,29.7 L223.87,33.7 L258,37.7 L258,61.3984 A0,0 0 0 0 258,61.3984 L467,61.3984 A0,0 0 0 0 467,61.3984 L467,16 L457,6 L258,6 A0,0 0 0 0 258,6 " fill="#FEFFDD" style="stroke:#181818;stroke-width:0.5;"/><path d="M457,6 L457,16 L467,16 L457,6 " fill="#FEFFDD" style="stroke:#181818;stroke-width:0.5;"/><text fill="#000000" font-family="sans-serif" font-size="13" lengthAdjust="spacing" textLength="4" x="264" y="23.0669">&#160;</text><text fill="#000000" font-family="sans-serif" font-size="13" lengthAdjust="spacing" textLength="188" x="264" y="38.1997">One database per application</text><text fill="#000000" font-family="sans-serif" font-size="13" lengthAdjust="spacing" textLength="4" x="264" y="53.3325">&#160;</text></g><!--link db to scope--><g id="link_db_scope"><path d="M180.5,56.72 C180.5,75.89 180.5,97.31 180.5,115.03 " fill="none" id="db-to-scope" style="stroke:#181818;stroke-width:1.0;"/><polygon fill="#181818" points="180.5,121.03,184.5,112.03,180.5,116.03,176.5,112.03,180.5,121.03" style="stroke:#181818;stroke-width:1.0;"/></g><!--link scope to collection--><g id="link_scope_collection"><path d="M180.5,158.16 C180.5,174.6 180.5,199.33 180.5,218.1 " fill="none" id="scope-to-collection" style="stroke:#181818;stroke-width:1.0;"/><polygon fill="#181818" points="180.5,224.1,184.5,215.1,180.5,219.1,176.5,215.1,180.5,224.1" style="stroke:#181818;stroke-width:1.0;"/></g><!--link collection to document1--><g id="link_collection_document1"><path d="M147.87,272.87 C124.76,291.62 99.0594,312.4698 78.8694,328.8498 " fill="none" id="collection-to-document1" style="stroke:#181818;stroke-width:1.0;"/><polygon fill="#181818" points="74.21,332.63,83.7193,330.066,78.0929,329.4799,78.679,323.8535,74.21,332.63" style="stroke:#181818;stroke-width:1.0;"/></g><!--link collection to document2--><g id="link_collection_document2"><path d="M180.5,272.87 C180.5,291.62 180.5,310.25 180.5,326.63 " fill="none" id="collection-to-document2" style="stroke:#181818;stroke-width:1.0;"/><polygon fill="#181818" points="180.5,332.63,184.5,323.63,180.5,327.63,176.5,323.63,180.5,332.63" style="stroke:#181818;stroke-width:1.0;"/></g><!--link collection to document3--><g id="link_collection_document3"><path d="M213.13,272.87 C236.24,291.62 261.9406,312.4698 282.1306,328.8498 " fill="none" id="collection-to-document3" style="stroke:#181818;stroke-width:1.0;"/><polygon fill="#181818" points="286.79,332.63,282.321,323.8535,282.9071,329.4799,277.2807,330.066,286.79,332.63" style="stroke:#181818;stroke-width:1.0;"/></g><!--SRC=[VP3B3eCW44NtynKJzoO-zjtKRTD5ls1uQ4aGY6BIpoyWrhQ9iY0pETmxp1NaYT4iiUXoLI3DA1Z09BadC-Z07jow5Son0kYj5dB2ucgr3i-KDOdoJmlXz2fgEykNKHg_-kQcFeFD6Mm11CEolEIlf3lrNyFtCf5zwW5eZa0Rzm1ZlSH93K-FjlzP4l56BpKkOmHrLLNeGYmv96a4Hkc_GGmNyMuaYYtzg2BdjEAq6c_QDm00]--></g></svg>