<?xml version="1.0" encoding="us-ascii" standalone="no"?><svg xmlns="http://www.w3.org/2000/svg" xmlns:xlink="http://www.w3.org/1999/xlink" contentStyleType="text/css" height="170px" preserveAspectRatio="none" style="width:853px;height:170px;background:#FFFFFF;" version="1.1" viewBox="0 0 853 170" width="853px" zoomAndPan="magnify"><defs/><g><!--cluster Bucket 1--><g id="cluster_Bucket 1"><rect fill="none" height="157.3" rx="35" ry="35" style="stroke:#181818;stroke-width:1.0;" width="408" x="7" y="7"/><text fill="#000000" font-family="sans-serif" font-size="14" font-weight="bold" lengthAdjust="spacing" textLength="69" x="176.5" y="26.9951">Bucket 1</text></g><!--cluster Scope 2--><g id="cluster_Scope 2"><path d="M225.5,50 L290.5,50 A3.75,3.75 0 0 1 293,52.5 L300,72.2969 L388.5,72.2969 A2.5,2.5 0 0 1 391,74.7969 L391,137.8 A2.5,2.5 0 0 1 388.5,140.3 L225.5,140.3 A2.5,2.5 0 0 1 223,137.8 L223,52.5 A2.5,2.5 0 0 1 225.5,50 " fill="none" style="stroke:#000000;stroke-width:1.5;"/><line style="stroke:#000000;stroke-width:1.5;" x1="223" x2="300" y1="72.2969" y2="72.2969"/><text fill="#000000" font-family="sans-serif" font-size="14" font-weight="bold" lengthAdjust="spacing" textLength="64" x="227" y="64.9951">Scope 2</text></g><!--cluster Scope 1--><g id="cluster_Scope 1"><path d="M33.5,50 L98.5,50 A3.75,3.75 0 0 1 101,52.5 L108,72.2969 L196.5,72.2969 A2.5,2.5 0 0 1 199,74.7969 L199,137.8 A2.5,2.5 0 0 1 196.5,140.3 L33.5,140.3 A2.5,2.5 0 0 1 31,137.8 L31,52.5 A2.5,2.5 0 0 1 33.5,50 " fill="none" style="stroke:#000000;stroke-width:1.5;"/><line style="stroke:#000000;stroke-width:1.5;" x1="31" x2="108" y1="72.2969" y2="72.2969"/><text fill="#000000" font-family="sans-serif" font-size="14" font-weight="bold" lengthAdjust="spacing" textLength="64" x="35" y="64.9951">Scope 1</text></g><!--cluster Bucket 2--><g id="cluster_Bucket 2"><rect fill="none" height="157.3" rx="35" ry="35" style="stroke:#181818;stroke-width:1.0;" width="408" x="439" y="7"/><text fill="#000000" font-family="sans-serif" font-size="14" font-weight="bold" lengthAdjust="spacing" textLength="69" x="608.5" y="26.9951">Bucket 2</text></g><!--cluster Scope 4--><g id="cluster_Scope 4"><path d="M657.5,50 L722.5,50 A3.75,3.75 0 0 1 725,52.5 L732,72.2969 L820.5,72.2969 A2.5,2.5 0 0 1 823,74.7969 L823,137.8 A2.5,2.5 0 0 1 820.5,140.3 L657.5,140.3 A2.5,2.5 0 0 1 655,137.8 L655,52.5 A2.5,2.5 0 0 1 657.5,50 " fill="none" style="stroke:#000000;stroke-width:1.5;"/><line style="stroke:#000000;stroke-width:1.5;" x1="655" x2="732" y1="72.2969" y2="72.2969"/><text fill="#000000" font-family="sans-serif" font-size="14" font-weight="bold" lengthAdjust="spacing" textLength="64" x="659" y="64.9951">Scope 4</text></g><!--cluster Scope 3--><g id="cluster_Scope 3"><path d="M465.5,50 L530.5,50 A3.75,3.75 0 0 1 533,52.5 L540,72.2969 L628.5,72.2969 A2.5,2.5 0 0 1 631,74.7969 L631,137.8 A2.5,2.5 0 0 1 628.5,140.3 L465.5,140.3 A2.5,2.5 0 0 1 463,137.8 L463,52.5 A2.5,2.5 0 0 1 465.5,50 " fill="none" style="stroke:#000000;stroke-width:1.5;"/><line style="stroke:#000000;stroke-width:1.5;" x1="463" x2="540" y1="72.2969" y2="72.2969"/><text fill="#000000" font-family="sans-serif" font-size="14" font-weight="bold" lengthAdjust="spacing" textLength="64" x="467" y="64.9951">Scope 3</text></g><!--entity Collection B--><g id="elem_Collection B"><path d="M242,85 L348,85 A3.75,3.75 0 0 1 350.5,87.5 L357.5,107.2969 L372,107.2969 A2.5,2.5 0 0 1 374.5,109.7969 L374.5,121.7969 A2.5,2.5 0 0 1 372,124.2969 L242,124.2969 A2.5,2.5 0 0 1 239.5,121.7969 L239.5,87.5 A2.5,2.5 0 0 1 242,85 " fill="#F1F1F1" style="stroke:#181818;stroke-width:0.5;"/><line style="stroke:#181818;stroke-width:0.5;" x1="239.5" x2="357.5" y1="107.2969" y2="107.2969"/><text fill="#000000" font-family="sans-serif" font-size="14" font-weight="bold" lengthAdjust="spacing" textLength="93" x="249.5" y="100.9951">Collection B</text></g><!--entity Collection A--><g id="elem_Collection A"><path d="M49.5,85 L156.5,85 A3.75,3.75 0 0 1 159,87.5 L166,107.2969 L180.5,107.2969 A2.5,2.5 0 0 1 183,109.7969 L183,121.7969 A2.5,2.5 0 0 1 180.5,124.2969 L49.5,124.2969 A2.5,2.5 0 0 1 47,121.7969 L47,87.5 A2.5,2.5 0 0 1 49.5,85 " fill="#F1F1F1" style="stroke:#181818;stroke-width:0.5;"/><line style="stroke:#181818;stroke-width:0.5;" x1="47" x2="166" y1="107.2969" y2="107.2969"/><text fill="#000000" font-family="sans-serif" font-size="14" font-weight="bold" lengthAdjust="spacing" textLength="94" x="57" y="100.9951">Collection A</text></g><!--entity Collection D--><g id="elem_Collection D"><path d="M673.5,85 L780.5,85 A3.75,3.75 0 0 1 783,87.5 L790,107.2969 L804.5,107.2969 A2.5,2.5 0 0 1 807,109.7969 L807,121.7969 A2.5,2.5 0 0 1 804.5,124.2969 L673.5,124.2969 A2.5,2.5 0 0 1 671,121.7969 L671,87.5 A2.5,2.5 0 0 1 673.5,85 " fill="#F1F1F1" style="stroke:#181818;stroke-width:0.5;"/><line style="stroke:#181818;stroke-width:0.5;" x1="671" x2="790" y1="107.2969" y2="107.2969"/><text fill="#000000" font-family="sans-serif" font-size="14" font-weight="bold" lengthAdjust="spacing" textLength="94" x="681" y="100.9951">Collection D</text></g><!--entity Collection C--><g id="elem_Collection C"><path d="M481.5,85 L588.5,85 A3.75,3.75 0 0 1 591,87.5 L598,107.2969 L612.5,107.2969 A2.5,2.5 0 0 1 615,109.7969 L615,121.7969 A2.5,2.5 0 0 1 612.5,124.2969 L481.5,124.2969 A2.5,2.5 0 0 1 479,121.7969 L479,87.5 A2.5,2.5 0 0 1 481.5,85 " fill="#F1F1F1" style="stroke:#181818;stroke-width:0.5;"/><line style="stroke:#181818;stroke-width:0.5;" x1="479" x2="598" y1="107.2969" y2="107.2969"/><text fill="#000000" font-family="sans-serif" font-size="14" font-weight="bold" lengthAdjust="spacing" textLength="94" x="489" y="100.9951">Collection C</text></g><!--SRC=[Aox9BqfCJrLGSYfDpaujKJ1KKgZcKe22jFoSbDGY1QNWvFo2L0KZP2aGA4XCpWRhTSxFoKbDBidCprDmKe8hgSLXZY4nvZYYcmCXYz6SQuJRkIR4MED2sBd6n9ZZZE5S0000]--></g></svg>