<?xml version="1.0" encoding="UTF-8"?><svg xmlns="http://www.w3.org/2000/svg" width="600" height="336" version="1.0" shape-rendering="geometricPrecision"><defs><filter id="shadowBlur" x="0" y="0" width="200%" height="200%"><feOffset in="SourceGraphic" dx="3.0003002" dy="3.0003002" result="offOut"></feOffset><feGaussianBlur in="offOut" stdDeviation="3"></feGaussianBlur></filter></defs><g stroke-width="1" stroke-linecap="square" stroke-linejoin="round"><rect x="0" y="0" width="600" height="336" style="fill: #ffffff"></rect><path stroke="#969696" fill="#969696" filter="url(#shadowBlur)" d="M255.0 56.0 Q255.0 49.0 260.0 49.0 L570.0 49.0 Q575.0 49.0 575.0 56.0 L575.0 98.0 L575.0 98.0 Q575.0 103.0 570.0 103.0 L260.0 103.0 L260.0 103.0 Q255.0 103.0 255.0 98.0 L255.0 56.0 z"></path><path stroke="#969696" fill="#969696" filter="url(#shadowBlur)" d="M255.0 168.0 Q255.0 163.0 260.0 163.0 L420.0 163.0 Q425.0 163.0 425.0 168.0 L425.0 210.0 L425.0 210.0 Q425.0 217.0 420.0 217.0 L260.0 217.0 L260.0 217.0 Q255.0 217.0 255.0 210.0 L255.0 168.0 z"></path><path stroke="#969696" fill="#969696" filter="url(#shadowBlur)" d="M255.0 112.0 Q255.0 107.0 260.0 107.0 L420.0 107.0 Q425.0 107.0 425.0 112.0 L425.0 154.0 L425.0 154.0 Q425.0 159.0 420.0 159.0 L260.0 159.0 L260.0 159.0 Q255.0 159.0 255.0 154.0 L255.0 112.0 z"></path><path stroke="#969696" fill="#969696" filter="url(#shadowBlur)" d="M255.0 252.0 Q255.0 245.0 260.0 245.0 L330.0 245.0 Q333.0 245.0 333.0 252.0 L333.0 294.0 L333.0 294.0 Q333.0 301.0 330.0 301.0 L260.0 301.0 L260.0 301.0 Q255.0 301.0 255.0 294.0 L255.0 252.0 z"></path><path stroke="#969696" fill="#969696" filter="url(#shadowBlur)" d="M497.0 252.0 Q497.0 245.0 500.0 245.0 L570.0 245.0 Q575.0 245.0 575.0 252.0 L575.0 294.0 L575.0 294.0 Q575.0 301.0 570.0 301.0 L500.0 301.0 L500.0 301.0 Q497.0 301.0 497.0 294.0 L497.0 252.0 z"></path><path stroke="#969696" fill="#969696" filter="url(#shadowBlur)" d="M337.0 252.0 Q337.0 245.0 340.0 245.0 L410.0 245.0 Q413.0 245.0 413.0 252.0 L413.0 294.0 L413.0 294.0 Q413.0 301.0 410.0 301.0 L340.0 301.0 L340.0 301.0 Q337.0 301.0 337.0 294.0 L337.0 252.0 z"></path><path stroke="#969696" fill="#969696" filter="url(#shadowBlur)" d="M417.0 252.0 Q417.0 245.0 420.0 245.0 L490.0 245.0 Q493.0 245.0 493.0 252.0 L493.0 294.0 L493.0 294.0 Q493.0 301.0 490.0 301.0 L420.0 301.0 L420.0 301.0 Q417.0 301.0 417.0 294.0 L417.0 252.0 z"></path><path stroke="#000000" stroke-width="1.0" stroke-linecap="round" stroke-linejoin="round" fill="#ffeebb" d="M255.0 56.0 Q255.0 49.0 260.0 49.0 L570.0 49.0 Q575.0 49.0 575.0 56.0 L575.0 98.0 L575.0 98.0 Q575.0 103.0 570.0 103.0 L260.0 103.0 L260.0 103.0 Q255.0 103.0 255.0 98.0 L255.0 56.0 z"></path><path stroke="#000000" stroke-width="1.0" stroke-linecap="round" stroke-linejoin="round" fill="#ffeebb" d="M255.0 168.0 Q255.0 163.0 260.0 163.0 L420.0 163.0 Q425.0 163.0 425.0 168.0 L425.0 210.0 L425.0 210.0 Q425.0 217.0 420.0 217.0 L260.0 217.0 L260.0 217.0 Q255.0 217.0 255.0 210.0 L255.0 168.0 z"></path><path stroke="#000000" stroke-width="1.0" stroke-linecap="round" stroke-linejoin="round" fill="#ffeebb" d="M255.0 112.0 Q255.0 107.0 260.0 107.0 L420.0 107.0 Q425.0 107.0 425.0 112.0 L425.0 154.0 L425.0 154.0 Q425.0 159.0 420.0 159.0 L260.0 159.0 L260.0 159.0 Q255.0 159.0 255.0 154.0 L255.0 112.0 z"></path><path stroke="#000000" stroke-width="1.0" stroke-linecap="round" stroke-linejoin="round" fill="#ddeeff" d="M255.0 252.0 Q255.0 245.0 260.0 245.0 L330.0 245.0 Q333.0 245.0 333.0 252.0 L333.0 294.0 L333.0 294.0 Q333.0 301.0 330.0 301.0 L260.0 301.0 L260.0 301.0 Q255.0 301.0 255.0 294.0 L255.0 252.0 z"></path><path stroke="#000000" stroke-width="1.0" stroke-linecap="round" stroke-linejoin="round" fill="#ddeeff" d="M497.0 252.0 Q497.0 245.0 500.0 245.0 L570.0 245.0 Q575.0 245.0 575.0 252.0 L575.0 294.0 L575.0 294.0 Q575.0 301.0 570.0 301.0 L500.0 301.0 L500.0 301.0 Q497.0 301.0 497.0 294.0 L497.0 252.0 z"></path><path stroke="#000000" stroke-width="1.0" stroke-linecap="round" stroke-linejoin="round" fill="#ddeeff" d="M337.0 252.0 Q337.0 245.0 340.0 245.0 L410.0 245.0 Q413.0 245.0 413.0 252.0 L413.0 294.0 L413.0 294.0 Q413.0 301.0 410.0 301.0 L340.0 301.0 L340.0 301.0 Q337.0 301.0 337.0 294.0 L337.0 252.0 z"></path><path stroke="#000000" stroke-width="1.0" stroke-linecap="round" stroke-linejoin="round" fill="#ddeeff" d="M417.0 252.0 Q417.0 245.0 420.0 245.0 L490.0 245.0 Q493.0 245.0 493.0 252.0 L493.0 294.0 L493.0 294.0 Q493.0 301.0 490.0 301.0 L420.0 301.0 L420.0 301.0 Q417.0 301.0 417.0 294.0 L417.0 252.0 z"></path><text x="402" y="82" font-family="sans-serif" font-size="15" stroke="none" fill="#000000"><![CDATA[1.3x]]></text><text x="60" y="110" font-family="sans-serif" font-size="15" stroke="none" fill="#000000"><![CDATA[Backup]]></text><text x="60" y="124" font-family="sans-serif" font-size="15" stroke="none" fill="#000000"><![CDATA[Version]]></text><text x="332" y="138" font-family="sans-serif" font-size="15" stroke="none" fill="#000000"><![CDATA[1.2x]]></text><text x="324" y="194" font-family="sans-serif" font-size="15" stroke="none" fill="#000000"><![CDATA[1.1.1]]></text><text x="70" y="264" font-family="sans-serif" font-size="15" stroke="none" fill="#000000"><![CDATA[Couchbase Server]]></text><text x="70" y="278" font-family="sans-serif" font-size="15" stroke="none" fill="#000000"><![CDATA[Version]]></text><text x="282" y="278" font-family="sans-serif" font-size="15" stroke="none" fill="#000000"><![CDATA[7.0]]></text><text x="362" y="278" font-family="sans-serif" font-size="15" stroke="none" fill="#000000"><![CDATA[7.1]]></text><text x="442" y="278" font-family="sans-serif" font-size="15" stroke="none" fill="#000000"><![CDATA[7.2]]></text><text x="522" y="278" font-family="sans-serif" font-size="15" stroke="none" fill="#000000"><![CDATA[7.6]]></text></g></svg>