<?xml version="1.0" encoding="UTF-8" standalone="no"?><svg xmlns="http://www.w3.org/2000/svg" xmlns:xlink="http://www.w3.org/1999/xlink" contentStyleType="text/css" height="400px" preserveAspectRatio="none" style="width:536px;height:400px;background:#FFFFFF;" version="1.1" viewBox="0 0 536 400" width="536px" zoomAndPan="magnify"><defs/><g><!--MD5=[7468467f3b6b392f1d176d828c753b77]
entity db--><g id="elem_db"><path d="M228,21.5 C228,11.5 268,11.5 268,11.5 C268,11.5 308,11.5 308,21.5 L308,47.2999 C308,57.2999 268,57.2999 268,57.2999 C268,57.2999 228,57.2999 228,47.2999 L228,21.5 " fill="#F1F1F1" style="stroke:#181818;stroke-width:0.5;"/><path d="M228,21.5 C228,31.5 268,31.5 268,31.5 C268,31.5 308,31.5 308,21.5 " fill="none" style="stroke:#181818;stroke-width:0.5;"/><text fill="#000000" font-family="sans-serif" font-size="14" lengthAdjust="spacing" textLength="60" x="238" y="49.4999">Database</text></g><!--MD5=[c8a1f054d404df0a65fc25cf7fbed36b]
entity scope--><g id="elem_scope"><rect fill="#F1F1F1" height="36.7999" rx="2.5" ry="2.5" style="stroke:#181818;stroke-width:0.5;" width="58" x="239" y="133"/><text fill="#000000" font-family="sans-serif" font-size="14" lengthAdjust="spacing" textLength="38" x="249" y="156.9999">Scope</text></g><!--MD5=[e8144009250fefa8de7ab17e8fe20380]
entity collection--><g id="elem_collection"><path d="M226,241 L267,241 A3.75,3.75 0 0 1 269.5,243.5 L276.5,262 L310,262 A2.5,2.5 0 0 1 312.5,264.5 L312.5,293.2999 A2.5,2.5 0 0 1 310,295.7999 L226,295.7999 A2.5,2.5 0 0 1 223.5,293.2999 L223.5,243.5 A2.5,2.5 0 0 1 226,241 " fill="#F1F1F1" style="stroke:#181818;stroke-width:0.5;"/><line style="stroke:#181818;stroke-width:0.5;" x1="223.5" x2="276.5" y1="262" y2="262"/><text fill="#000000" font-family="sans-serif" font-size="14" lengthAdjust="spacing" textLength="59" x="233.5" y="282.9999">Collection</text></g><!--MD5=[ab1e5baf85ed143b76d3e76a48078bed]
entity document1--><g id="elem_document1"><path d="M110,359.5 L110,391.2999 A2.5,2.5 0 0 0 112.5,393.7999 L189.5,393.7999 A2.5,2.5 0 0 0 192,391.2999 L192,367 L182,357 L112.5,357 A2.5,2.5 0 0 0 110,359.5 " fill="#F1F1F1" style="stroke:#181818;stroke-width:0.5;"/><path d="M182,357 L182,364.5 A2.5,2.5 0 0 0 184.5,367 L192,367 " fill="#F1F1F1" style="stroke:#181818;stroke-width:0.5;"/><text fill="#000000" font-family="sans-serif" font-size="14" lengthAdjust="spacing" textLength="62" x="120" y="380.9999">Document</text></g><!--MD5=[dd1bebfa84e2488b3127885c5b41e328]
entity document2--><g id="elem_document2"><path d="M227,359.5 L227,391.2999 A2.5,2.5 0 0 0 229.5,393.7999 L306.5,393.7999 A2.5,2.5 0 0 0 309,391.2999 L309,367 L299,357 L229.5,357 A2.5,2.5 0 0 0 227,359.5 " fill="#F1F1F1" style="stroke:#181818;stroke-width:0.5;"/><path d="M299,357 L299,364.5 A2.5,2.5 0 0 0 301.5,367 L309,367 " fill="#F1F1F1" style="stroke:#181818;stroke-width:0.5;"/><text fill="#000000" font-family="sans-serif" font-size="14" lengthAdjust="spacing" textLength="62" x="237" y="380.9999">Document</text></g><!--MD5=[a05b76816b6fc3abd39e436261e75b4c]
entity document3--><g id="elem_document3"><path d="M344,359.5 L344,391.2999 A2.5,2.5 0 0 0 346.5,393.7999 L423.5,393.7999 A2.5,2.5 0 0 0 426,391.2999 L426,367 L416,357 L346.5,357 A2.5,2.5 0 0 0 344,359.5 " fill="#F1F1F1" style="stroke:#181818;stroke-width:0.5;"/><path d="M416,357 L416,364.5 A2.5,2.5 0 0 0 418.5,367 L426,367 " fill="#F1F1F1" style="stroke:#181818;stroke-width:0.5;"/><text fill="#000000" font-family="sans-serif" font-size="14" lengthAdjust="spacing" textLength="62" x="354" y="380.9999">Document</text></g><g id="elem_GMN224"><path d="M6,123 L6,179.8 A0,0 0 0 0 6,179.8 L204,179.8 A0,0 0 0 0 204,179.8 L204,155.5 L238.5,151.5 L204,147.5 L204,133 L194,123 L6,123 A0,0 0 0 0 6,123 " fill="#FEFFDD" style="stroke:#181818;stroke-width:0.5;"/><path d="M194,123 L194,133 L204,133 L194,123 " fill="#FEFFDD" style="stroke:#181818;stroke-width:0.5;"/><text fill="#000000" font-family="sans-serif" font-size="13" lengthAdjust="spacing" textLength="4" x="12" y="141"> </text><text fill="#000000" font-family="sans-serif" font-size="13" lengthAdjust="spacing" textLength="177" x="12" y="156.6">Maximum of 1000 per database</text><text fill="#000000" font-family="sans-serif" font-size="13" lengthAdjust="spacing" textLength="4" x="12" y="172.2"> </text></g><g id="elem_GMN227"><path d="M348,240 L348,264.5 L312.82,268.5 L348,272.5 L348,296.8 A0,0 0 0 0 348,296.8 L528,296.8 A0,0 0 0 0 528,296.8 L528,250 L518,240 L348,240 A0,0 0 0 0 348,240 " fill="#FEFFDD" style="stroke:#181818;stroke-width:0.5;"/><path d="M518,240 L518,250 L528,250 L518,240 " fill="#FEFFDD" style="stroke:#181818;stroke-width:0.5;"/><text fill="#000000" font-family="sans-serif" font-size="13" lengthAdjust="spacing" textLength="4" x="354" y="258"> </text><text fill="#000000" font-family="sans-serif" font-size="13" lengthAdjust="spacing" textLength="159" x="354" y="273.6">Maximum of 1000 per scope</text><text fill="#000000" font-family="sans-serif" font-size="13" lengthAdjust="spacing" textLength="4" x="354" y="289.2"> </text></g><g id="elem_GMN230"><path d="M343,6 L343,30.5 L308.03,34.5 L343,38.5 L343,62.8 A0,0 0 0 0 343,62.8 L529,62.8 A0,0 0 0 0 529,62.8 L529,16 L519,6 L343,6 A0,0 0 0 0 343,6 " fill="#FEFFDD" style="stroke:#181818;stroke-width:0.5;"/><path d="M519,6 L519,16 L529,16 L519,6 " fill="#FEFFDD" style="stroke:#181818;stroke-width:0.5;"/><text fill="#000000" font-family="sans-serif" font-size="13" lengthAdjust="spacing" textLength="4" x="349" y="24"> </text><text fill="#000000" font-family="sans-serif" font-size="13" lengthAdjust="spacing" textLength="165" x="349" y="39.6">One database per application</text><text fill="#000000" font-family="sans-serif" font-size="13" lengthAdjust="spacing" textLength="4" x="349" y="55.2"> </text></g><!--MD5=[e293808c0784fccce01dd238b6671f62]
link db to scope--><g id="link_db_scope"><path d="M268,57.67 C268,77.8 268,107.37 268,127.69 " fill="none" id="db-to-scope" style="stroke:#181818;stroke-width:1.0;"/><polygon fill="#181818" points="268,132.91,272,123.91,268,127.91,264,123.91,268,132.91" style="stroke:#181818;stroke-width:1.0;"/></g><!--MD5=[bd95b2d60b83b38d7618f2ab0aa9393c]
link scope to collection--><g id="link_scope_collection"><path d="M268,170.47 C268,187.82 268,214.49 268,235.48 " fill="none" id="scope-to-collection" style="stroke:#181818;stroke-width:1.0;"/><polygon fill="#181818" points="268,240.68,272,231.68,268,235.68,264,231.68,268,240.68" style="stroke:#181818;stroke-width:1.0;"/></g><!--MD5=[ab43a1f600bfb89b9c5121b3602da514]
link collection to document1--><g id="link_collection_document1"><path d="M238.17,296.27 C218.53,313.89 193.17,336.66 174.87,353.08 " fill="none" id="collection-to-document1" style="stroke:#181818;stroke-width:1.0;"/><polygon fill="#181818" points="170.84,356.69,180.212,353.6624,174.5636,353.3531,174.8729,347.7047,170.84,356.69" style="stroke:#181818;stroke-width:1.0;"/></g><!--MD5=[93f8c9cb5046ebd87d3059498af61558]
link collection to document2--><g id="link_collection_document2"><path d="M268,296.27 C268,313.3 268,335.13 268,351.4 " fill="none" id="collection-to-document2" style="stroke:#181818;stroke-width:1.0;"/><polygon fill="#181818" points="268,356.69,272,347.69,268,351.69,264,347.69,268,356.69" style="stroke:#181818;stroke-width:1.0;"/></g><!--MD5=[fb180569bd3efdcd43513d540660e130]
link collection to document3--><g id="link_collection_document3"><path d="M297.83,296.27 C317.47,313.89 342.83,336.66 361.13,353.08 " fill="none" id="collection-to-document3" style="stroke:#181818;stroke-width:1.0;"/><polygon fill="#181818" points="365.16,356.69,361.1271,347.7047,361.4364,353.3531,355.788,353.6624,365.16,356.69" style="stroke:#181818;stroke-width:1.0;"/></g><!--MD5=[32dce3e09ceefd284ccdb14b3a196a7e]
@startuml
database "Database" as db

rectangle "Scope" as scope

folder "Collection" as collection



file "Document" as document1
file "Document" as document2
file "Document" as document3

db - -> scope
scope - -> collection
collection - -> document1
collection - -> document2
collection - -> document3


note left of scope

  Maximum of 1000 per database

end note

note right of collection

  Maximum of 1000 per scope

end note

note right of db

  One database per application

end note
@enduml

PlantUML version 1.2022.5(Sat Apr 30 10:55:52 GMT 2022)
(GPL source distribution)
Java Runtime: OpenJDK Runtime Environment
JVM: OpenJDK 64-Bit Server VM
Default Encoding: UTF-8
Language: en
Country: US
--></g></svg>