<?xml version="1.0" encoding="UTF-8" standalone="no"?><svg xmlns="http://www.w3.org/2000/svg" xmlns:xlink="http://www.w3.org/1999/xlink" contentStyleType="text/css" height="331px" preserveAspectRatio="none" style="width:657px;height:331px;background:#FFFFFF;" version="1.1" viewBox="0 0 657 331" width="657px" zoomAndPan="magnify"><defs/><g><!--MD5=[5221ba25a3dc59a7507dde998bd6bfc2]
cluster db1--><g id="cluster_db1"><path d="M6,16 C6,6 119,6 119,6 C119,6 232,6 232,16 L232,189 C232,199 119,199 119,199 C119,199 6,199 6,189 L6,16 " style="stroke:#181818;stroke-width:1.0;fill:none;"/><path d="M6,16 C6,26 119,26 119,26 C119,26 232,26 232,16 " fill="none" style="stroke:#181818;stroke-width:1.0;"/><text fill="#000000" font-family="sans-serif" font-size="14" font-weight="bold" lengthAdjust="spacing" textLength="174" x="32" y="41.9999">Couchbase Lite database</text></g><!--MD5=[f43fca00aa43789a98b7c21452a09aa9]
cluster dfs1--><g id="cluster_dfs1"><polygon points="30,74,40,64,208,64,208,165,198,175,30,175,30,74" style="stroke:#181818;stroke-width:1.0;fill:none;"/><line style="stroke:#181818;stroke-width:1.0;fill:none;" x1="198" x2="208" y1="74" y2="64"/><line style="stroke:#181818;stroke-width:1.0;fill:none;" x1="30" x2="198" y1="74" y2="74"/><line style="stroke:#181818;stroke-width:1.0;fill:none;" x1="198" x2="198" y1="74" y2="175"/><text fill="#000000" font-family="sans-serif" font-size="14" font-weight="bold" lengthAdjust="spacing" textLength="102" x="64" y="90.9999">_default scope</text></g><!--MD5=[282a3878cc296f19e6c6417b026e89f6]
cluster db2--><g id="cluster_db2"><path d="M256,16 C256,6 448,6 448,6 C448,6 640,6 640,16 L640,304 C640,314 448,314 448,314 C448,314 256,314 256,304 L256,16 " style="stroke:#181818;stroke-width:1.0;fill:none;"/><path d="M256,16 C256,26 448,26 448,26 C448,26 640,26 640,16 " fill="none" style="stroke:#181818;stroke-width:1.0;"/><text fill="#000000" font-family="sans-serif" font-size="14" font-weight="bold" lengthAdjust="spacing" textLength="174" x="361" y="41.9999">Couchbase Lite database</text></g><!--MD5=[8870a6bfd5a2c941426e7d041021a96b]
cluster dfs2--><g id="cluster_dfs2"><polygon points="438,74,448,64,616,64,616,280,606,290,438,290,438,74" style="stroke:#181818;stroke-width:1.0;fill:none;"/><line style="stroke:#181818;stroke-width:1.0;fill:none;" x1="606" x2="616" y1="74" y2="64"/><line style="stroke:#181818;stroke-width:1.0;fill:none;" x1="438" x2="606" y1="74" y2="74"/><line style="stroke:#181818;stroke-width:1.0;fill:none;" x1="606" x2="606" y1="74" y2="290"/><text fill="#000000" font-family="sans-serif" font-size="14" font-weight="bold" lengthAdjust="spacing" textLength="102" x="472" y="90.9999">_default scope</text></g><!--MD5=[9c3b55bfdb31ed7903f5c88713059761]
cluster scopeA--><g id="cluster_scopeA"><polygon points="280,74,290,64,414,64,414,280,404,290,280,290,280,74" style="stroke:#181818;stroke-width:1.0;fill:none;"/><line style="stroke:#181818;stroke-width:1.0;fill:none;" x1="404" x2="414" y1="74" y2="64"/><line style="stroke:#181818;stroke-width:1.0;fill:none;" x1="280" x2="404" y1="74" y2="74"/><line style="stroke:#181818;stroke-width:1.0;fill:none;" x1="404" x2="404" y1="74" y2="290"/><text fill="#000000" font-family="sans-serif" font-size="14" font-weight="bold" lengthAdjust="spacing" textLength="58" x="314" y="90.9999">Scope A</text></g><!--MD5=[ae1d9982ce549b41eff4dd492d093032]
entity dfc1--><g id="elem_dfc1"><path d="M51.5,104 L92.5,104 A3.75,3.75 0 0 1 95,106.5 L102,125 L186.5,125 A2.5,2.5 0 0 1 189,127.5 L189,156.2999 A2.5,2.5 0 0 1 186.5,158.7999 L51.5,158.7999 A2.5,2.5 0 0 1 49,156.2999 L49,106.5 A2.5,2.5 0 0 1 51.5,104 " fill="#F1F1F1" style="stroke:#181818;stroke-width:0.5;"/><line style="stroke:#181818;stroke-width:0.5;" x1="49" x2="102" y1="125" y2="125"/><text fill="#000000" font-family="sans-serif" font-size="14" lengthAdjust="spacing" textLength="110" x="59" y="145.9999">_default collection</text></g><!--MD5=[9c2bbdf706430c89be3cfdb45039fd9f]
entity dfc2--><g id="elem_dfc2"><path d="M459.5,219 L500.5,219 A3.75,3.75 0 0 1 503,221.5 L510,240 L594.5,240 A2.5,2.5 0 0 1 597,242.5 L597,271.2999 A2.5,2.5 0 0 1 594.5,273.7999 L459.5,273.7999 A2.5,2.5 0 0 1 457,271.2999 L457,221.5 A2.5,2.5 0 0 1 459.5,219 " fill="#F1F1F1" style="stroke:#181818;stroke-width:0.5;"/><line style="stroke:#181818;stroke-width:0.5;" x1="457" x2="510" y1="240" y2="240"/><text fill="#000000" font-family="sans-serif" font-size="14" lengthAdjust="spacing" textLength="110" x="467" y="260.9999">_default collection</text></g><!--MD5=[c7d8ae8e2320b9756a276bd1a777d39a]
entity collectionA--><g id="elem_collectionA"><path d="M478.5,104 L519.5,104 A3.75,3.75 0 0 1 522,106.5 L529,125 L575.5,125 A2.5,2.5 0 0 1 578,127.5 L578,156.2999 A2.5,2.5 0 0 1 575.5,158.7999 L478.5,158.7999 A2.5,2.5 0 0 1 476,156.2999 L476,106.5 A2.5,2.5 0 0 1 478.5,104 " fill="#F1F1F1" style="stroke:#181818;stroke-width:0.5;"/><line style="stroke:#181818;stroke-width:0.5;" x1="476" x2="529" y1="125" y2="125"/><text fill="#000000" font-family="sans-serif" font-size="14" lengthAdjust="spacing" textLength="72" x="486" y="145.9999">Collection A</text></g><!--MD5=[79a0558e6fc6031c711661e098accf9f]
entity collectionA2--><g id="elem_collectionA2"><path d="M298.5,104 L339.5,104 A3.75,3.75 0 0 1 342,106.5 L349,125 L395.5,125 A2.5,2.5 0 0 1 398,127.5 L398,156.2999 A2.5,2.5 0 0 1 395.5,158.7999 L298.5,158.7999 A2.5,2.5 0 0 1 296,156.2999 L296,106.5 A2.5,2.5 0 0 1 298.5,104 " fill="#F1F1F1" style="stroke:#181818;stroke-width:0.5;"/><line style="stroke:#181818;stroke-width:0.5;" x1="296" x2="349" y1="125" y2="125"/><text fill="#000000" font-family="sans-serif" font-size="14" lengthAdjust="spacing" textLength="72" x="306" y="145.9999">Collection A</text></g><!--MD5=[e0072e533ab2e9383d94f483950e3248]
entity collectionB--><g id="elem_collectionB"><path d="M298.5,219 L339.5,219 A3.75,3.75 0 0 1 342,221.5 L349,240 L395.5,240 A2.5,2.5 0 0 1 398,242.5 L398,271.2999 A2.5,2.5 0 0 1 395.5,273.7999 L298.5,273.7999 A2.5,2.5 0 0 1 296,271.2999 L296,221.5 A2.5,2.5 0 0 1 298.5,219 " fill="#F1F1F1" style="stroke:#181818;stroke-width:0.5;"/><line style="stroke:#181818;stroke-width:0.5;" x1="296" x2="349" y1="240" y2="240"/><text fill="#000000" font-family="sans-serif" font-size="14" lengthAdjust="spacing" textLength="72" x="306" y="260.9999">Collection B</text></g><!--MD5=[04e979ca06f3f6fab9d0cf0901510e68]
link collectionA2 to collectionB--><!--MD5=[7f036a2de6a4c12f67d09e6277df9e37]
link collectionA to dfc2--><!--MD5=[54105756fdace565211c56f8108cd16c]
@startuml
database "Couchbase Lite database" as db1 {

      node "_default scope" as dfs1 {

        folder "_default collection" as dfc1 {

        }
      }

}

database "Couchbase Lite database" as db2 {


    node "_default scope" as dfs2 {

      folder "_default collection" as dfc2 {

      }

        folder "Collection A" as collectionA {

        }
    }

    node "Scope A" as scopeA {

      folder "Collection A" as collectionA2 {

      }

        folder "Collection B" as collectionB {

        }
    }

}

collectionA2 -D[hidden]-> collectionB
collectionA -D[hidden]-> dfc2
@enduml

PlantUML version 1.2022.5(Sat Apr 30 10:55:52 GMT 2022)
(GPL source distribution)
Java Runtime: OpenJDK Runtime Environment
JVM: OpenJDK 64-Bit Server VM
Default Encoding: UTF-8
Language: en
Country: US
--></g></svg>