<?xml version="1.0" encoding="UTF-8" standalone="no"?><svg xmlns="http://www.w3.org/2000/svg" xmlns:xlink="http://www.w3.org/1999/xlink" contentScriptType="application/ecmascript" contentStyleType="text/css" height="285px" preserveAspectRatio="none" style="width:1118px;height:285px;background:#FFFFFF;" version="1.1" viewBox="0 0 1118 285" width="1118px" zoomAndPan="magnify"><defs><filter height="300%" id="fsenqcy7lp48z" width="300%" x="-1" y="-1"><feGaussianBlur result="blurOut" stdDeviation="2.0"/><feColorMatrix in="blurOut" result="blurOut2" type="matrix" values="0 0 0 0 0 0 0 0 0 0 0 0 0 0 0 0 0 0 .4 0"/><feOffset dx="4.0" dy="4.0" in="blurOut2" result="blurOut3"/><feBlend in="SourceGraphic" in2="blurOut3" mode="normal"/></filter></defs><g><!--MD5=[1a08f5c2f344d2fdeaebc4983dabfe2b]
cluster cAndA--><rect fill="#FFFFFF" filter="url(#fsenqcy7lp48z)" height="124" style="stroke:#000000;stroke-width:1.5;" width="469" x="157.5" y="71.5"/><path d="M411.5,71.5 L411.5,81.2999 L401.5,91.2999 L157.5,91.2999 " fill="none" style="stroke:#000000;stroke-width:1.5;"/><text fill="#000000" font-family="sans-serif" font-size="14" font-weight="bold" lengthAdjust="spacing" textLength="244" x="160.5" y="86.4999">Create library and add first function</text><!--MD5=[0f2a0e8935951e68ef9fa7129ab6f208]
entity Create library--><rect fill="#FEFECE" filter="url(#fsenqcy7lp48z)" height="36.7999" style="stroke:#000000;stroke-width:1.5;" width="104" x="181.5" y="115"/><text fill="#000000" font-family="sans-serif" font-size="14" lengthAdjust="spacing" textLength="84" x="191.5" y="138.9999">Create library</text><!--MD5=[a38410d92f6ab6886f510fd778c63bee]
entity Add function--><rect fill="#FEFECE" filter="url(#fsenqcy7lp48z)" height="36.7999" style="stroke:#000000;stroke-width:1.5;" width="98" x="504.5" y="115"/><text fill="#000000" font-family="sans-serif" font-size="14" lengthAdjust="spacing" textLength="78" x="514.5" y="138.9999">Add function</text><!--MD5=[8fc3522a43f8c7199df5e09e5bb0188e]
entity user--><ellipse cx="35.5" cy="111" fill="#FEFECE" filter="url(#fsenqcy7lp48z)" rx="16" ry="16" style="stroke:#A80036;stroke-width:1.5;"/><path d="M35.5,131 C39.5,131 42.5,131 46.5,127 C54.5,127 62.5,135 62.5,143 L62.5,147 C62.5,151 58.5,155 54.5,155 L16.5,155 C12.5,155 8.5,151 8.5,147 L8.5,143 C8.5,135 16.5,127 24.5,127 C28.5,131 31.5,131 35.5,131 " fill="#FEFECE" filter="url(#fsenqcy7lp48z)" style="stroke:#A80036;stroke-width:1.5;"/><text fill="#000000" font-family="sans-serif" font-size="14" lengthAdjust="spacing" textLength="59" x="6" y="170.4999">developer</text><path d="M125,223 L125,264.2 L342,264.2 L342,233 L332,223 L125,223 " fill="#FFFFF0" filter="url(#fsenqcy7lp48z)" style="stroke:#A80036;stroke-width:1.0;"/><path d="M332,223 L332,233 L342,233 L332,223 " fill="#FFFFF0" style="stroke:#A80036;stroke-width:1.0;"/><text fill="#000000" font-family="sans-serif" font-size="13" lengthAdjust="spacing" textLength="177" x="131" y="241">The library and the first function</text><text fill="#000000" font-family="sans-serif" font-size="13" lengthAdjust="spacing" textLength="196" x="131" y="256.6">are usually added in the same step.</text><path d="M402,220 L402,276.8 L705,276.8 L705,230 L695,220 L402,220 " fill="#FFFFF0" filter="url(#fsenqcy7lp48z)" style="stroke:#A80036;stroke-width:1.0;"/><path d="M695,220 L695,230 L705,230 L695,220 " fill="#FFFFF0" style="stroke:#A80036;stroke-width:1.0;"/><text fill="#000000" font-family="sans-serif" font-size="13" lengthAdjust="spacing" textLength="271" x="408" y="238">The library can be created as globally accessible</text><text fill="#000000" font-family="sans-serif" font-size="13" lengthAdjust="spacing" textLength="282" x="408" y="253.6">across the cluster, or it can be set to be accessible</text><text fill="#000000" font-family="sans-serif" font-size="13" lengthAdjust="spacing" textLength="222" x="408" y="269.2">by users with access to a bucket/scope.</text><!--MD5=[1f7b391271e2dba7df9eed5278a7b9a2]
entity Create N1QL User-Defined Function--><rect fill="#FEFECE" filter="url(#fsenqcy7lp48z)" height="36.7999" style="stroke:#000000;stroke-width:1.5;" width="244" x="765" y="115"/><text fill="#000000" font-family="sans-serif" font-size="14" lengthAdjust="spacing" textLength="224" x="775" y="138.9999">Create N1QL User-Defined Function</text><!--MD5=[22efa60cf2b4332bf8574b0c93969d71]
entity end--><ellipse cx="1096" cy="133.5" fill="#FEFECE" filter="url(#fsenqcy7lp48z)" rx="8" ry="8" style="stroke:#A80036;stroke-width:1.5;"/><text fill="#000000" font-family="sans-serif" font-size="14" lengthAdjust="spacing" textLength="23" x="1084.5" y="164.4999">end</text><path d="M444,6 L444,47.2 A0,0 0 0 0 444,47.2 L549.5,47.2 L553.5,114.69 L557.5,47.2 L663,47.2 A0,0 0 0 0 663,47.2 L663,16 L653,6 L444,6 A0,0 0 0 0 444,6 " fill="#FFFFF0" filter="url(#fsenqcy7lp48z)" style="stroke:#A80036;stroke-width:1.0;"/><path d="M653,6 L653,16 L663,16 L653,6 " fill="#FFFFF0" style="stroke:#A80036;stroke-width:1.0;"/><text fill="#000000" font-family="sans-serif" font-size="13" lengthAdjust="spacing" textLength="198" x="450" y="24">The developer can add one or more</text><text fill="#000000" font-family="sans-serif" font-size="13" lengthAdjust="spacing" textLength="124" x="450" y="39.6">functions to the library</text><!--MD5=[b140c6909901b71a6c5abbe392708fde]
link GMN23068 to cAndA--><path d="M233.5,222.94 C233.5,217.125 233.5,211.31 233.5,205.495 C233.5,202.5875 233.5,199.68 233.5,196.7725 C233.5,196.4091 233.5,196.0456 233.5,195.6822 C233.5,195.6368 233.5,195.5913 233.5,195.5459 " fill="none" id="GMN23068-cAndA" style="stroke:#A80036;stroke-width:1.0;stroke-dasharray:7.0,7.0;"/><!--MD5=[aca0ec348b605bea6b962c254cc5fc55]
link cAndA to GMN23071--><path d="M284.6617,195.5206 C285.0166,195.5793 285.3724,195.6382 285.729,195.6973 C286.4424,195.8154 287.1595,195.9343 287.8799,196.054 C293.6436,197.0116 299.6248,198.0174 305.6892,199.0539 C317.8181,201.1269 330.28,203.3225 342,205.5 C366.11,209.98 391.72,215 416.47,219.98 " fill="none" id="cAndA-GMN23071" style="stroke:#A80036;stroke-width:1.0;stroke-dasharray:7.0,7.0;"/><!--MD5=[91ae43954c7544a53814c7568e35d1ec]
link Create library to Add function--><path d="M285.59,133.5 C344.13,133.5 439.63,133.5 499.11,133.5 " fill="none" id="Create library-to-Add function" style="stroke:#A80036;stroke-width:1.0;"/><polygon fill="#A80036" points="504.4,133.5,495.4,129.5,499.4,133.5,495.4,137.5,504.4,133.5" style="stroke:#A80036;stroke-width:1.0;"/><!--MD5=[9ca69fef26c7686df7418a8c7ed008e0]
link user to Create library--><path d="M65,133.5 C93.94,133.5 139.55,133.5 175.87,133.5 " fill="none" id="user-to-Create library" style="stroke:#A80036;stroke-width:1.0;"/><polygon fill="#A80036" points="181.15,133.5,172.15,129.5,176.15,133.5,172.15,137.5,181.15,133.5" style="stroke:#A80036;stroke-width:1.0;"/><!--MD5=[0390d6e28711602502ca01aae0a126aa]
link Add function to Create N1QL User-Defined Function--><path d="M602.7,133.5 C643.76,133.5 704.63,133.5 759.45,133.5 " fill="none" id="Add function-to-Create N1QL User-Defined Function" style="stroke:#A80036;stroke-width:1.0;"/><polygon fill="#A80036" points="764.73,133.5,755.73,129.5,759.73,133.5,755.73,137.5,764.73,133.5" style="stroke:#A80036;stroke-width:1.0;"/><!--MD5=[1f9bd0aee4870c5bd7d8766b1e8072c2]
link Create N1QL User-Defined Function to end--><path d="M1009.01,133.5 C1038.32,133.5 1065.71,133.5 1081.38,133.5 " fill="none" id="Create N1QL User-Defined Function-to-end" style="stroke:#A80036;stroke-width:1.0;"/><polygon fill="#A80036" points="1086.61,133.5,1077.61,129.5,1081.61,133.5,1077.61,137.5,1086.61,133.5" style="stroke:#A80036;stroke-width:1.0;"/><!--MD5=[05ae0af6940074a0c79203fd87de0750]
@startuml
skinparam ComponentStyle rectangle
skinparam ActorStyle awesome

left to right direction

actor "developer" as user

note top of cAndA #Ivory
  The library and the first function
  are usually added in the same step.
end note

note right of cAndA #Ivory
  The library can be created as globally accessible
  across the cluster, or it can be set to be accessible
  by users with access to a bucket/scope.
end note

frame "Create library and add first function" as cAndA {
  [Create library]  - -> [Add function]
}

user - -> [Create library]
[Add function] - -> [Create N1QL User-Defined Function]
[Create N1QL User-Defined Function] - ->() end

note top of [Add function] #Ivory
  The developer can add one or more
  functions to the library
end note
@enduml

PlantUML version 1.2021.16(Wed Dec 08 17:25:22 GMT 2021)
(GPL source distribution)
Java Runtime: OpenJDK Runtime Environment
JVM: OpenJDK 64-Bit Server VM
Default Encoding: UTF-8
Language: en
Country: US
--></g></svg>