<?xml version="1.0" encoding="UTF-8" standalone="no"?><svg xmlns="http://www.w3.org/2000/svg" xmlns:xlink="http://www.w3.org/1999/xlink" contentScriptType="application/ecmascript" contentStyleType="text/css" height="388px" preserveAspectRatio="none" style="width:394px;height:388px;background:#FFFFFF;" version="1.1" viewBox="0 0 394 388" width="394px" zoomAndPan="magnify"><defs><filter height="300%" id="f1uukixdv5519h" width="300%" x="-1" y="-1"><feGaussianBlur result="blurOut" stdDeviation="2.0"/><feColorMatrix in="blurOut" result="blurOut2" type="matrix" values="0 0 0 0 0 0 0 0 0 0 0 0 0 0 0 0 0 0 .4 0"/><feOffset dx="4.0" dy="4.0" in="blurOut2" result="blurOut3"/><feBlend in="SourceGraphic" in2="blurOut3" mode="normal"/></filter></defs><g><ellipse cx="109" cy="20" fill="#000000" filter="url(#f1uukixdv5519h)" rx="10" ry="10" style="stroke:none;stroke-width:1.0;"/><path d="M180.5,46.6 L180.5,63.2001 L160.5,67.2001 L180.5,71.2001 L180.5,87.8001 A0,0 0 0 0 180.5,87.8001 L382.5,87.8001 A0,0 0 0 0 382.5,87.8001 L382.5,56.6 L372.5,46.6 L180.5,46.6 A0,0 0 0 0 180.5,46.6 " fill="#FBFB77" filter="url(#f1uukixdv5519h)" style="stroke:#A80036;stroke-width:1.0;"/><path d="M372.5,46.6 L372.5,56.6 L382.5,56.6 L372.5,46.6 " fill="#FBFB77" style="stroke:#A80036;stroke-width:1.0;"/><text fill="#000000" font-family="sans-serif" font-size="13" lengthAdjust="spacing" textLength="181" x="186.5" y="64.6">Transaction started before initial</text><text fill="#000000" font-family="sans-serif" font-size="13" lengthAdjust="spacing" textLength="151" x="186.5" y="80.2001">SQL++ statement is called</text><rect fill="#FEFECE" filter="url(#f1uukixdv5519h)" height="34.4001" rx="12.5" ry="12.5" style="stroke:#A80036;stroke-width:1.5;" width="103" x="57.5" y="50"/><text fill="#000000" font-family="sans-serif" font-size="12" lengthAdjust="spacing" textLength="83" x="67.5" y="72.0001">start transaction</text><rect fill="#FEFECE" filter="url(#f1uukixdv5519h)" height="34.4001" rx="12.5" ry="12.5" style="stroke:#A80036;stroke-width:1.5;" width="196" x="11" y="107.8001"/><text fill="#000000" font-family="sans-serif" font-size="12" lengthAdjust="spacing" textLength="173" x="24" y="129.8001">var q = execute SQL++ statement</text><rect fill="#FEFECE" filter="url(#f1uukixdv5519h)" height="34.4001" rx="12.5" ry="12.5" style="stroke:#A80036;stroke-width:1.5;" width="74" x="72" y="218.7001"/><text fill="#000000" font-family="sans-serif" font-size="12" lengthAdjust="spacing" textLength="51" x="85" y="240.7002">process q</text><polygon fill="#FEFECE" filter="url(#f1uukixdv5519h)" points="91.5,162.2002,126.5,162.2002,138.5,174.2002,126.5,186.2002,91.5,186.2002,79.5,174.2002,91.5,162.2002" style="stroke:#A80036;stroke-width:1.5;"/><text fill="#000000" font-family="sans-serif" font-size="11" lengthAdjust="spacing" textLength="16" x="113" y="197.2001">yes</text><text fill="#000000" font-family="sans-serif" font-size="11" lengthAdjust="spacing" textLength="35" x="91.5" y="178.6001">next q?</text><text fill="#000000" font-family="sans-serif" font-size="11" lengthAdjust="spacing" textLength="12" x="67.5" y="172.0002">no</text><rect fill="#FEFECE" filter="url(#f1uukixdv5519h)" height="34.4001" rx="12.5" ry="12.5" style="stroke:#A80036;stroke-width:1.5;" width="116" x="51" y="295.1002"/><text fill="#000000" font-family="sans-serif" font-size="12" lengthAdjust="spacing" textLength="96" x="61" y="317.1003">commit or rollback</text><ellipse cx="109" cy="360.5003" fill="#FFFFFF" filter="url(#f1uukixdv5519h)" rx="11" ry="11" style="stroke:#000000;stroke-width:1.0;"/><ellipse cx="109" cy="360.5003" fill="#000000" rx="6" ry="6" style="stroke:#7F7F7F;stroke-width:1.0;"/><line style="stroke:#A80036;stroke-width:1.5;" x1="109" x2="109" y1="30" y2="50"/><polygon fill="#A80036" points="105,40,109,50,113,40,109,44" style="stroke:#A80036;stroke-width:1.0;"/><line style="stroke:#A80036;stroke-width:1.5;" x1="109" x2="109" y1="84.4001" y2="107.8001"/><polygon fill="#A80036" points="105,97.8001,109,107.8001,113,97.8001,109,101.8001" style="stroke:#A80036;stroke-width:1.0;"/><line style="stroke:#A80036;stroke-width:1.5;" x1="109" x2="109" y1="186.2002" y2="218.7001"/><polygon fill="#A80036" points="105,208.7001,109,218.7001,113,208.7001,109,212.7001" style="stroke:#A80036;stroke-width:1.0;"/><line style="stroke:#A80036;stroke-width:1.5;" x1="109" x2="109" y1="253.1002" y2="263.1002"/><line style="stroke:#A80036;stroke-width:1.5;" x1="109" x2="158" y1="263.1002" y2="263.1002"/><polygon fill="#A80036" points="154,227.3002,158,217.3002,162,227.3002,158,223.3002" style="stroke:#A80036;stroke-width:1.5;"/><line style="stroke:#A80036;stroke-width:1.5;" x1="158" x2="158" y1="174.2002" y2="263.1002"/><line style="stroke:#A80036;stroke-width:1.5;" x1="158" x2="138.5" y1="174.2002" y2="174.2002"/><polygon fill="#A80036" points="148.5,170.2002,138.5,174.2002,148.5,178.2002,144.5,174.2002" style="stroke:#A80036;stroke-width:1.0;"/><line style="stroke:#A80036;stroke-width:1.5;" x1="79.5" x2="60" y1="174.2002" y2="174.2002"/><polygon fill="#A80036" points="56,213.3002,60,223.3002,64,213.3002,60,217.3002" style="stroke:#A80036;stroke-width:1.5;"/><line style="stroke:#A80036;stroke-width:1.5;" x1="60" x2="60" y1="174.2002" y2="275.1002"/><line style="stroke:#A80036;stroke-width:1.5;" x1="60" x2="109" y1="275.1002" y2="275.1002"/><line style="stroke:#A80036;stroke-width:1.5;" x1="109" x2="109" y1="275.1002" y2="295.1002"/><polygon fill="#A80036" points="105,285.1002,109,295.1002,113,285.1002,109,289.1002" style="stroke:#A80036;stroke-width:1.0;"/><line style="stroke:#A80036;stroke-width:1.5;" x1="109" x2="109" y1="142.2002" y2="162.2002"/><polygon fill="#A80036" points="105,152.2002,109,162.2002,113,152.2002,109,156.2002" style="stroke:#A80036;stroke-width:1.0;"/><line style="stroke:#A80036;stroke-width:1.5;" x1="109" x2="109" y1="329.5003" y2="349.5003"/><polygon fill="#A80036" points="105,339.5003,109,349.5003,113,339.5003,109,343.5003" style="stroke:#A80036;stroke-width:1.0;"/><!--MD5=[410951455a3335664ca01950fc920d15]
@startuml
start

:start transaction;
note right: Transaction started before initial\nSQL++ statement is called
: var q = execute SQL++ statement;

 while (next q?) is (yes)

   : process q;

 endwhile (no)

:commit or rollback;

stop
@enduml

PlantUML version 1.2021.16(Wed Dec 08 17:25:22 GMT 2021)
(GPL source distribution)
Java Runtime: OpenJDK Runtime Environment
JVM: OpenJDK 64-Bit Server VM
Default Encoding: UTF-8
Language: en
Country: US
--></g></svg>