<?xml version="1.0" encoding="UTF-8" standalone="no"?><svg xmlns="http://www.w3.org/2000/svg" xmlns:xlink="http://www.w3.org/1999/xlink" contentScriptType="application/ecmascript" contentStyleType="text/css" height="578px" preserveAspectRatio="none" style="width:642px;height:578px;background:#FFFFFF;" version="1.1" viewBox="0 0 642 578" width="642px" zoomAndPan="magnify"><defs><filter height="300%" id="fccwoaqp1y977" width="300%" x="-1" y="-1"><feGaussianBlur result="blurOut" stdDeviation="2.0"/><feColorMatrix in="blurOut" result="blurOut2" type="matrix" values="0 0 0 0 0 0 0 0 0 0 0 0 0 0 0 0 0 0 .4 0"/><feOffset dx="4.0" dy="4.0" in="blurOut2" result="blurOut3"/><feBlend in="SourceGraphic" in2="blurOut3" mode="normal"/></filter></defs><g><!--MD5=[cd2d2a69136bcb457c777d7f0a388268]
cluster MyLibrary--><rect fill="#FFFFFF" filter="url(#fccwoaqp1y977)" height="121" style="stroke:#000000;stroke-width:1.5;" width="265" x="181.5" y="445"/><path d="M260.5,445 L260.5,454.7999 L250.5,464.7999 L181.5,464.7999 " fill="none" style="stroke:#000000;stroke-width:1.5;"/><text fill="#000000" font-family="sans-serif" font-size="14" font-weight="bold" lengthAdjust="spacing" textLength="69" x="184.5" y="459.9999">my-library</text><!--MD5=[63955b8f5af8bd25e363284f268579d0]
entity getBusinessDays--><polygon fill="#FEFECE" filter="url(#fccwoaqp1y977)" points="206,488,206,541.5999,403,541.5999,403,498,393,488,206,488" style="stroke:#000000;stroke-width:1.5;"/><path d="M393,488 L393,498 L403,498 " fill="#FEFECE" style="stroke:#000000;stroke-width:1.5;"/><text fill="#000000" font-family="sans-serif" font-size="14" lengthAdjust="spacing" textLength="173" x="216" y="511.9999">getBusinessDays(startDate,</text><text fill="#000000" font-family="sans-serif" font-size="14" lengthAdjust="spacing" textLength="57" x="216" y="528.7999">endDate)</text><!--MD5=[b8b6581e2c9bccc3f2004cae03cd95ad]
entity referenceFunction--><rect fill="#FEFECE" filter="url(#fccwoaqp1y977)" height="63.5999" style="stroke:#A80036;stroke-width:1.5;" width="172" x="197.5" y="240"/><rect fill="#FEFECE" height="10" style="stroke:#A80036;stroke-width:1.5;" width="15" x="349.5" y="245"/><rect fill="#FEFECE" height="2" style="stroke:#A80036;stroke-width:1.5;" width="4" x="347.5" y="247"/><rect fill="#FEFECE" height="2" style="stroke:#A80036;stroke-width:1.5;" width="4" x="347.5" y="251"/><text fill="#000000" font-family="sans-serif" font-size="14" font-style="italic" lengthAdjust="spacing" textLength="132" x="212.5" y="273.9999">«Reference function»</text><text fill="#000000" font-family="sans-serif" font-size="14" lengthAdjust="spacing" textLength="129" x="214" y="290.7999">getBusinessDays(...)</text><!--MD5=[8fc3522a43f8c7199df5e09e5bb0188e]
entity user--><ellipse cx="133.5" cy="249.5" fill="#FEFECE" filter="url(#fccwoaqp1y977)" rx="16" ry="16" style="stroke:#A80036;stroke-width:1.5;"/><path d="M133.5,269.5 C137.5,269.5 140.5,269.5 144.5,265.5 C152.5,265.5 160.5,273.5 160.5,281.5 L160.5,285.5 C160.5,289.5 156.5,293.5 152.5,293.5 L114.5,293.5 C110.5,293.5 106.5,289.5 106.5,285.5 L106.5,281.5 C106.5,273.5 114.5,265.5 122.5,265.5 C126.5,269.5 129.5,269.5 133.5,269.5 " fill="#FEFECE" filter="url(#fccwoaqp1y977)" style="stroke:#A80036;stroke-width:1.5;"/><text fill="#000000" font-family="sans-serif" font-size="14" lengthAdjust="spacing" textLength="27" x="120" y="308.9999">user</text><!--MD5=[2975947dbd53e11d08a72608f6781d9e]
entity cluster--><polygon fill="#FEFECE" filter="url(#fccwoaqp1y977)" points="461,16,471,6,616,6,616,42.7999,606,52.7999,461,52.7999,461,16" style="stroke:#000000;stroke-width:1.5;"/><line style="stroke:#000000;stroke-width:1.5;" x1="606" x2="616" y1="16" y2="6"/><line style="stroke:#000000;stroke-width:1.5;" x1="461" x2="606" y1="16" y2="16"/><line style="stroke:#000000;stroke-width:1.5;" x1="606" x2="606" y1="16" y2="52.7999"/><text fill="#000000" font-family="sans-serif" font-size="14" lengthAdjust="spacing" textLength="115" x="476" y="39.9999">Couchbase cluster</text><!--MD5=[e987a9053741ca611bbb00ccd0372f5a]
entity bucket--><path d="M487,129.5 C487,119.5 538.5,119.5 538.5,119.5 C538.5,119.5 590,119.5 590,129.5 L590,155.2999 C590,165.2999 538.5,165.2999 538.5,165.2999 C538.5,165.2999 487,165.2999 487,155.2999 L487,129.5 " fill="#FEFECE" filter="url(#fccwoaqp1y977)" style="stroke:#000000;stroke-width:1.5;"/><path d="M487,129.5 C487,139.5 538.5,139.5 538.5,139.5 C538.5,139.5 590,139.5 590,129.5 " fill="none" style="stroke:#000000;stroke-width:1.5;"/><text fill="#000000" font-family="sans-serif" font-size="14" lengthAdjust="spacing" textLength="83" x="497" y="157.4999">travel-sample</text><!--MD5=[f8e745406a4437ba9dd668c2fc83629b]
entity inventory--><polygon fill="#FEFECE" filter="url(#fccwoaqp1y977)" points="404.5,250,414.5,240,500.5,240,500.5,293.5999,490.5,303.5999,404.5,303.5999,404.5,250" style="stroke:#000000;stroke-width:1.5;"/><line style="stroke:#000000;stroke-width:1.5;" x1="490.5" x2="500.5" y1="250" y2="240"/><line style="stroke:#000000;stroke-width:1.5;" x1="404.5" x2="490.5" y1="250" y2="250"/><line style="stroke:#000000;stroke-width:1.5;" x1="490.5" x2="490.5" y1="250" y2="303.5999"/><text fill="#000000" font-family="sans-serif" font-size="14" font-style="italic" lengthAdjust="spacing" textLength="50" x="422.5" y="273.9999">«scope»</text><text fill="#000000" font-family="sans-serif" font-size="14" lengthAdjust="spacing" textLength="56" x="419.5" y="290.7999">inventory</text><!--MD5=[8084ad898ab70d49b28a9beceff76d52]
entity tenant--><polygon fill="#FEFECE" filter="url(#fccwoaqp1y977)" points="535.5,250,545.5,240,625.5,240,625.5,293.5999,615.5,303.5999,535.5,303.5999,535.5,250" style="stroke:#000000;stroke-width:1.5;"/><line style="stroke:#000000;stroke-width:1.5;" x1="615.5" x2="625.5" y1="250" y2="240"/><line style="stroke:#000000;stroke-width:1.5;" x1="535.5" x2="615.5" y1="250" y2="250"/><line style="stroke:#000000;stroke-width:1.5;" x1="615.5" x2="615.5" y1="250" y2="303.5999"/><text fill="#000000" font-family="sans-serif" font-size="14" font-style="italic" lengthAdjust="spacing" textLength="50" x="550.5" y="273.9999">«scope»</text><text fill="#000000" font-family="sans-serif" font-size="14" lengthAdjust="spacing" textLength="39" x="556" y="290.7999">tenant</text><path d="M6,114 L6,170.8 A0,0 0 0 0 6,170.8 L129.5,170.8 L133.5,231.78 L137.5,170.8 L261,170.8 A0,0 0 0 0 261,170.8 L261,124 L251,114 L6,114 A0,0 0 0 0 6,114 " fill="#FFFFF0" filter="url(#fccwoaqp1y977)" style="stroke:#A80036;stroke-width:1.0;"/><path d="M251,114 L251,124 L261,124 L251,114 " fill="#FFFFF0" style="stroke:#A80036;stroke-width:1.0;"/><text fill="#000000" font-family="sans-serif" font-size="13" lengthAdjust="spacing" textLength="234" x="12" y="132">can access the getBusinessDays function</text><text fill="#000000" font-family="sans-serif" font-size="13" lengthAdjust="spacing" textLength="142" x="12" y="147.6">as long as s/he is working</text><text fill="#000000" font-family="sans-serif" font-size="13" lengthAdjust="spacing" textLength="205" x="12" y="163.2">inside the '"Inventory Scope" context</text><!--MD5=[de0ceebb9a42e75c32fe2c70bb7294a0]
link referenceFunction to getBusinessDays--><path codeLine="12" d="M286.2,304.01 C290.22,350.16 297.74,436.43 301.78,482.73 " fill="none" id="referenceFunction-to-getBusinessDays" style="stroke:#A80036;stroke-width:1.0;"/><polygon fill="#A80036" points="302.23,487.9,305.4422,478.5897,301.8006,482.9185,297.4718,479.2768,302.23,487.9" style="stroke:#A80036;stroke-width:1.0;"/><!--MD5=[281524e9f32be153eff0ea24a8460cc1]
link cluster to bucket--><path codeLine="22" d="M538.5,53.23 C538.5,72.51 538.5,100.02 538.5,119.18 " fill="none" id="cluster-bucket" style="stroke:#A80036;stroke-width:1.0;"/><!--MD5=[35428efcf9dc7c16942b9d3811a6a060]
link bucket to inventory--><path codeLine="23" d="M523.52,165.71 C509.66,186.26 488.92,217 473.43,239.97 " fill="none" id="bucket-inventory" style="stroke:#A80036;stroke-width:1.0;"/><!--MD5=[49a699f46bf815af491dfd6da0cb6b54]
link bucket to tenant--><path codeLine="24" d="M545.82,165.71 C552.58,186.26 562.71,217 570.28,239.97 " fill="none" id="bucket-tenant" style="stroke:#A80036;stroke-width:1.0;"/><!--MD5=[01098f42ebd4b2f4dbf3213822a94e7a]
link inventory to MyLibrary--><path codeLine="26" d="M450.7,304.01 C448.84,336.05 445.855,387.42 443.3038,431.33 C443.1443,434.0744 442.9865,436.7896 442.8309,439.4692 C442.753,440.8089 442.6757,442.1398 442.5989,443.4609 C442.5797,443.7912 442.5606,444.1209 442.5415,444.4499 " fill="none" id="inventory-MyLibrary" style="stroke:#A80036;stroke-width:1.0;"/><text fill="#000000" font-family="sans-serif" font-size="13" lengthAdjust="spacing" textLength="159" x="447.5" y="387">my-library in inventory scope</text><!--MD5=[a9cb76a4c16039f1fe7ec06fc84ae95f]
link user to referenceFunction--><path codeLine="28" d="M162.21,272 C172.16,272 182.11,272 192.07,272 " fill="none" id="user-to-referenceFunction" style="stroke:#A80036;stroke-width:1.0;"/><polygon fill="#A80036" points="197.27,272,188.27,268,192.27,272,188.27,276,197.27,272" style="stroke:#A80036;stroke-width:1.0;"/><!--MD5=[2179c0175780b03d238cd410dc14b668]
@startuml
allow_mixing

skinparam actorStyle Awesome

component "getBusinessDays(...)" <<Reference function>> as referenceFunction

frame "my-library" as MyLibrary {
   file "getBusinessDays(startDate, \nendDate)" as getBusinessDays

}

referenceFunction - - -> getBusinessDays
actor "user" as user

node "Couchbase cluster" as cluster

database "travel-sample" as bucket

node "inventory" <<scope>> as inventory
node "tenant" <<scope>> as tenant

cluster - - bucket
bucket - - inventory
bucket - - tenant

inventory - - - MyLibrary : my-library in inventory scope

user - - -right- - -> referenceFunction

note top of user #Ivory
  can access the getBusinessDays function
  as long as s/he is working
  inside the '"Inventory Scope" context
end note
@enduml

PlantUML version 1.2021.16(Wed Dec 08 17:25:22 GMT 2021)
(GPL source distribution)
Java Runtime: OpenJDK Runtime Environment
JVM: OpenJDK 64-Bit Server VM
Default Encoding: UTF-8
Language: en
Country: US
--></g></svg>