<?xml version="1.0" encoding="UTF-8" standalone="no"?><svg xmlns="http://www.w3.org/2000/svg" xmlns:xlink="http://www.w3.org/1999/xlink" contentScriptType="application/ecmascript" contentStyleType="text/css" height="273px" preserveAspectRatio="none" style="width:970px;height:273px;background:#FFFFFF;" version="1.1" viewBox="0 0 970 273" width="970px" zoomAndPan="magnify"><defs><filter height="300%" id="f230v8m9tub6m" width="300%" x="-1" y="-1"><feGaussianBlur result="blurOut" stdDeviation="2.0"/><feColorMatrix in="blurOut" result="blurOut2" type="matrix" values="0 0 0 0 0 0 0 0 0 0 0 0 0 0 0 0 0 0 .4 0"/><feOffset dx="4.0" dy="4.0" in="blurOut2" result="blurOut3"/><feBlend in="SourceGraphic" in2="blurOut3" mode="normal"/></filter></defs><g><!--MD5=[1a08f5c2f344d2fdeaebc4983dabfe2b]
cluster cAndA--><rect fill="#FFFFFF" filter="url(#f230v8m9tub6m)" height="124" style="stroke:#000000;stroke-width:1.5;" width="427" x="157.5" y="71.5"/><path d="M411.5,71.5 L411.5,81.2999 L401.5,91.2999 L157.5,91.2999 " fill="none" style="stroke:#000000;stroke-width:1.5;"/><text fill="#000000" font-family="sans-serif" font-size="14" font-weight="bold" lengthAdjust="spacing" textLength="244" x="160.5" y="86.4999">Create library and add first function</text><!--MD5=[0f2a0e8935951e68ef9fa7129ab6f208]
entity Create library--><rect fill="#FEFECE" filter="url(#f230v8m9tub6m)" height="36.7999" style="stroke:#000000;stroke-width:1.5;" width="104" x="181.5" y="115"/><text fill="#000000" font-family="sans-serif" font-size="14" lengthAdjust="spacing" textLength="84" x="191.5" y="138.9999">Create library</text><!--MD5=[a38410d92f6ab6886f510fd778c63bee]
entity Add function--><rect fill="#FEFECE" filter="url(#f230v8m9tub6m)" height="36.7999" style="stroke:#000000;stroke-width:1.5;" width="98" x="462.5" y="115"/><text fill="#000000" font-family="sans-serif" font-size="14" lengthAdjust="spacing" textLength="78" x="472.5" y="138.9999">Add function</text><!--MD5=[8fc3522a43f8c7199df5e09e5bb0188e]
entity user--><ellipse cx="35.5" cy="111" fill="#FEFECE" filter="url(#f230v8m9tub6m)" rx="16" ry="16" style="stroke:#A80036;stroke-width:1.5;"/><path d="M35.5,131 C39.5,131 42.5,131 46.5,127 C54.5,127 62.5,135 62.5,143 L62.5,147 C62.5,151 58.5,155 54.5,155 L16.5,155 C12.5,155 8.5,151 8.5,147 L8.5,143 C8.5,135 16.5,127 24.5,127 C28.5,131 31.5,131 35.5,131 " fill="#FEFECE" filter="url(#f230v8m9tub6m)" style="stroke:#A80036;stroke-width:1.5;"/><text fill="#000000" font-family="sans-serif" font-size="14" lengthAdjust="spacing" textLength="59" x="6" y="170.4999">developer</text><path d="M125,223 L125,264.2 L342,264.2 L342,233 L332,223 L125,223 " fill="#FFFFF0" filter="url(#f230v8m9tub6m)" style="stroke:#A80036;stroke-width:1.0;"/><path d="M332,223 L332,233 L342,233 L332,223 " fill="#FFFFF0" style="stroke:#A80036;stroke-width:1.0;"/><text fill="#000000" font-family="sans-serif" font-size="13" lengthAdjust="spacing" textLength="177" x="131" y="241">The library and the first function</text><text fill="#000000" font-family="sans-serif" font-size="13" lengthAdjust="spacing" textLength="196" x="131" y="256.6">are usually added in the same step.</text><!--MD5=[58c1b96976b869ec1eb748234f2470e9]
entity Create Reference function--><rect fill="#FEFECE" filter="url(#f230v8m9tub6m)" height="36.7999" style="stroke:#000000;stroke-width:1.5;" width="180" x="681" y="115"/><text fill="#000000" font-family="sans-serif" font-size="14" lengthAdjust="spacing" textLength="160" x="691" y="138.9999">Create Reference function</text><!--MD5=[22efa60cf2b4332bf8574b0c93969d71]
entity end--><ellipse cx="948" cy="133.5" fill="#FEFECE" filter="url(#f230v8m9tub6m)" rx="8" ry="8" style="stroke:#A80036;stroke-width:1.5;"/><text fill="#000000" font-family="sans-serif" font-size="14" lengthAdjust="spacing" textLength="23" x="936.5" y="164.4999">end</text><path d="M402,6 L402,47.2 A0,0 0 0 0 402,47.2 L507.5,47.2 L511.5,114.69 L515.5,47.2 L621,47.2 A0,0 0 0 0 621,47.2 L621,16 L611,6 L402,6 A0,0 0 0 0 402,6 " fill="#FFFFF0" filter="url(#f230v8m9tub6m)" style="stroke:#A80036;stroke-width:1.0;"/><path d="M611,6 L611,16 L621,16 L611,6 " fill="#FFFFF0" style="stroke:#A80036;stroke-width:1.0;"/><text fill="#000000" font-family="sans-serif" font-size="13" lengthAdjust="spacing" textLength="198" x="408" y="24">The developer can add one or more</text><text fill="#000000" font-family="sans-serif" font-size="13" lengthAdjust="spacing" textLength="124" x="408" y="39.6">functions to the library</text><!--MD5=[62fe2c6af367bc1240889537712cf645]
link GMN7932 to cAndA--><path d="M233.5,222.94 C233.5,217.125 233.5,211.31 233.5,205.495 C233.5,202.5875 233.5,199.68 233.5,196.7725 C233.5,196.4091 233.5,196.0456 233.5,195.6822 C233.5,195.6368 233.5,195.5913 233.5,195.5459 " fill="none" id="GMN7932-cAndA" style="stroke:#A80036;stroke-width:1.0;stroke-dasharray:7.0,7.0;"/><!--MD5=[91ae43954c7544a53814c7568e35d1ec]
link Create library to Add function--><path d="M285.77,133.5 C334.6,133.5 407.8,133.5 457.27,133.5 " fill="none" id="Create library-to-Add function" style="stroke:#A80036;stroke-width:1.0;"/><polygon fill="#A80036" points="462.28,133.5,453.28,129.5,457.28,133.5,453.28,137.5,462.28,133.5" style="stroke:#A80036;stroke-width:1.0;"/><!--MD5=[9ca69fef26c7686df7418a8c7ed008e0]
link user to Create library--><path d="M65,133.5 C93.94,133.5 139.55,133.5 175.87,133.5 " fill="none" id="user-to-Create library" style="stroke:#A80036;stroke-width:1.0;"/><polygon fill="#A80036" points="181.15,133.5,172.15,129.5,176.15,133.5,172.15,137.5,181.15,133.5" style="stroke:#A80036;stroke-width:1.0;"/><!--MD5=[32fabc1379f6ae3088f22abcfae53e3b]
link Add function to Create Reference function--><path d="M560.63,133.5 C592.95,133.5 636.61,133.5 675.7,133.5 " fill="none" id="Add function-to-Create Reference function" style="stroke:#A80036;stroke-width:1.0;"/><polygon fill="#A80036" points="680.94,133.5,671.94,129.5,675.94,133.5,671.94,137.5,680.94,133.5" style="stroke:#A80036;stroke-width:1.0;"/><!--MD5=[6dc46d6cbd6eae2eef5d5c30101ddcd5]
link Create Reference function to end--><path d="M861.04,133.5 C889.31,133.5 917.37,133.5 933.41,133.5 " fill="none" id="Create Reference function-to-end" style="stroke:#A80036;stroke-width:1.0;"/><polygon fill="#A80036" points="938.75,133.5,929.75,129.5,933.75,133.5,929.75,137.5,938.75,133.5" style="stroke:#A80036;stroke-width:1.0;"/><!--MD5=[61f68b01fb9fb4f3bccbcca84ee0e085]
@startuml
skinparam ComponentStyle rectangle
skinparam ActorStyle awesome

left to right direction

actor "developer" as user

note top of cAndA #Ivory
  The library and the first function
  are usually added in the same step.
end note

frame "Create library and add first function" as cAndA {
  [Create library]  - -> [Add function]
}

user - -> [Create library]
[Add function] - -> [Create Reference function]
[Create Reference function] - ->() end

note top of [Add function] #Ivory
  The developer can add one or more
  functions to the library
end note
@enduml

PlantUML version 1.2021.16(Wed Dec 08 17:25:22 GMT 2021)
(GPL source distribution)
Java Runtime: OpenJDK Runtime Environment
JVM: OpenJDK 64-Bit Server VM
Default Encoding: UTF-8
Language: en
Country: US
--></g></svg>