<?xml version="1.0" encoding="UTF-8" standalone="no"?><svg xmlns="http://www.w3.org/2000/svg" xmlns:xlink="http://www.w3.org/1999/xlink" contentScriptType="application/ecmascript" contentStyleType="text/css" height="394px" preserveAspectRatio="none" style="width:459px;height:394px;background:#FFFFFF;" version="1.1" viewBox="0 0 459 394" width="459px" zoomAndPan="magnify"><defs><filter height="300%" id="f1qg7h6eiuhhz1" width="300%" x="-1" y="-1"><feGaussianBlur result="blurOut" stdDeviation="2.0"/><feColorMatrix in="blurOut" result="blurOut2" type="matrix" values="0 0 0 0 0 0 0 0 0 0 0 0 0 0 0 0 0 0 .4 0"/><feOffset dx="4.0" dy="4.0" in="blurOut2" result="blurOut3"/><feBlend in="SourceGraphic" in2="blurOut3" mode="normal"/></filter></defs><g><rect fill="#DDDDDD" height="382.9999" style="stroke:#A80036;stroke-width:1.0;" width="191" x="262" y="6"/><text fill="#000000" font-family="sans-serif" font-size="13" font-weight="bold" lengthAdjust="spacing" textLength="185" x="265" y="19">Javascript Library: my-Library</text><rect fill="#FFFFFF" filter="url(#f1qg7h6eiuhhz1)" height="172.8" style="stroke:#A80036;stroke-width:1.0;" width="10" x="167.5" y="120.3999"/><rect fill="#FFFFFF" filter="url(#f1qg7h6eiuhhz1)" height="118.2" style="stroke:#A80036;stroke-width:1.0;" width="10" x="352.5" y="175"/><line style="stroke:#A80036;stroke-width:1.0;stroke-dasharray:5.0,5.0;" x1="42" x2="42" y1="88.7999" y2="302.2"/><line style="stroke:#A80036;stroke-width:1.0;stroke-dasharray:5.0,5.0;" x1="172" x2="172" y1="88.7999" y2="302.2"/><line style="stroke:#A80036;stroke-width:1.0;stroke-dasharray:5.0,5.0;" x1="357" x2="357" y1="88.7999" y2="302.2"/><text fill="#000000" font-family="sans-serif" font-size="14" lengthAdjust="spacing" textLength="68" x="5" y="85.9999">UDF Caller</text><ellipse cx="42" cy="15" fill="#FEFECE" filter="url(#f1qg7h6eiuhhz1)" rx="8" ry="8" style="stroke:#A80036;stroke-width:2.0;"/><path d="M42,23 L42,50 M29,31 L55,31 M42,50 L29,65 M42,50 L55,65 " fill="none" filter="url(#f1qg7h6eiuhhz1)" style="stroke:#A80036;stroke-width:2.0;"/><text fill="#000000" font-family="sans-serif" font-size="14" lengthAdjust="spacing" textLength="68" x="5" y="315.1999">UDF Caller</text><ellipse cx="42" cy="327.9999" fill="#FEFECE" filter="url(#f1qg7h6eiuhhz1)" rx="8" ry="8" style="stroke:#A80036;stroke-width:2.0;"/><path d="M42,335.9999 L42,362.9999 M29,343.9999 L55,343.9999 M42,362.9999 L29,377.9999 M42,362.9999 L55,377.9999 " fill="none" filter="url(#f1qg7h6eiuhhz1)" style="stroke:#A80036;stroke-width:2.0;"/><rect fill="#FEFECE" filter="url(#f1qg7h6eiuhhz1)" height="30.7999" style="stroke:#A80036;stroke-width:1.5;" width="163" x="89" y="53"/><text fill="#000000" font-family="sans-serif" font-size="14" lengthAdjust="spacing" textLength="149" x="96" y="73.9999">SQL++ function: MyAdd</text><rect fill="#FEFECE" filter="url(#f1qg7h6eiuhhz1)" height="30.7999" style="stroke:#A80036;stroke-width:1.5;" width="163" x="89" y="301.2"/><text fill="#000000" font-family="sans-serif" font-size="14" lengthAdjust="spacing" textLength="149" x="96" y="322.1999">SQL++ function: MyAdd</text><rect fill="#FEFECE" filter="url(#f1qg7h6eiuhhz1)" height="30.7999" style="stroke:#A80036;stroke-width:1.5;" width="163" x="274" y="53"/><text fill="#000000" font-family="sans-serif" font-size="14" lengthAdjust="spacing" textLength="149" x="281" y="73.9999">Javascript function: add</text><rect fill="#FEFECE" filter="url(#f1qg7h6eiuhhz1)" height="30.7999" style="stroke:#A80036;stroke-width:1.5;" width="163" x="274" y="301.2"/><text fill="#000000" font-family="sans-serif" font-size="14" lengthAdjust="spacing" textLength="149" x="281" y="322.1999">Javascript function: add</text><rect fill="#FFFFFF" filter="url(#f1qg7h6eiuhhz1)" height="172.8" style="stroke:#A80036;stroke-width:1.0;" width="10" x="167.5" y="120.3999"/><rect fill="#FFFFFF" filter="url(#f1qg7h6eiuhhz1)" height="118.2" style="stroke:#A80036;stroke-width:1.0;" width="10" x="352.5" y="175"/><polygon fill="#A80036" points="155.5,116.3999,165.5,120.3999,155.5,124.3999,159.5,120.3999" style="stroke:#A80036;stroke-width:1.0;"/><line style="stroke:#A80036;stroke-width:1.0;" x1="42" x2="161.5" y1="120.3999" y2="120.3999"/><text fill="#000000" font-family="sans-serif" font-size="13" lengthAdjust="spacing" textLength="69" x="49" y="115.7999">MyAdd(2, 2)</text><polygon fill="#A80036" points="340.5,171,350.5,175,340.5,179,344.5,175" style="stroke:#A80036;stroke-width:1.0;"/><line style="stroke:#A80036;stroke-width:1.0;" x1="177.5" x2="346.5" y1="175" y2="175"/><text fill="#000000" font-family="sans-serif" font-size="13" lengthAdjust="spacing" textLength="50" x="184.5" y="170.4">add(2, 2)</text><polygon fill="#A80036" points="188.5,225.6,178.5,229.6,188.5,233.6,184.5,229.6" style="stroke:#A80036;stroke-width:1.0;"/><line style="stroke:#A80036;stroke-width:1.0;stroke-dasharray:2.0,2.0;" x1="182.5" x2="351.5" y1="229.6" y2="229.6"/><text fill="#000000" font-family="sans-serif" font-size="13" lengthAdjust="spacing" textLength="7" x="194.5" y="225">4</text><polygon fill="#A80036" points="53,280.2,43,284.2,53,288.2,49,284.2" style="stroke:#A80036;stroke-width:1.0;"/><line style="stroke:#A80036;stroke-width:1.0;stroke-dasharray:2.0,2.0;" x1="47" x2="166.5" y1="284.2" y2="284.2"/><text fill="#000000" font-family="sans-serif" font-size="13" lengthAdjust="spacing" textLength="7" x="59" y="279.6">4</text><!--MD5=[2c7eaf65d0f5b5793b1a988f4c764060]
@startuml
actor "UDF Caller" as UDF_Caller

participant "SQL++ function: MyAdd" as MyAdd_function

box "Javascript Library: my-Library"
participant "Javascript function: add" as Add_function
endbox

UDF_Caller -> MyAdd_function ++ : MyAdd(2, 2)
|||
MyAdd_function -> Add_function ++ : add(2, 2)
|||
Add_function - -> MyAdd_function : 4
|||
MyAdd_function - -> UDF_Caller: 4
@enduml

PlantUML version 1.2021.16(Wed Dec 08 17:25:22 GMT 2021)
(GPL source distribution)
Java Runtime: OpenJDK Runtime Environment
JVM: OpenJDK 64-Bit Server VM
Default Encoding: UTF-8
Language: en
Country: US
--></g></svg>