<?xml version="1.0" encoding="UTF-8" standalone="no"?><svg xmlns="http://www.w3.org/2000/svg" xmlns:xlink="http://www.w3.org/1999/xlink" contentScriptType="application/ecmascript" contentStyleType="text/css" height="568px" preserveAspectRatio="none" style="width:960px;height:568px;background:#FFFFFF;" version="1.1" viewBox="0 0 960 568" width="960px" zoomAndPan="magnify"><defs><filter height="300%" id="f1tnavfhcrmnpe" width="300%" x="-1" y="-1"><feGaussianBlur result="blurOut" stdDeviation="2.0"/><feColorMatrix in="blurOut" result="blurOut2" type="matrix" values="0 0 0 0 0 0 0 0 0 0 0 0 0 0 0 0 0 0 .4 0"/><feOffset dx="4.0" dy="4.0" in="blurOut2" result="blurOut3"/><feBlend in="SourceGraphic" in2="blurOut3" mode="normal"/></filter></defs><g><!--MD5=[cd2d2a69136bcb457c777d7f0a388268]
cluster MyLibrary--><polygon fill="#FFFFFF" filter="url(#f1tnavfhcrmnpe)" points="302.5,440,376.5,440,383.5,462.7999,567.5,462.7999,567.5,561,302.5,561,302.5,440" style="stroke:#000000;stroke-width:1.5;"/><line style="stroke:#000000;stroke-width:1.5;" x1="302.5" x2="383.5" y1="462.7999" y2="462.7999"/><text fill="#000000" font-family="sans-serif" font-size="14" font-weight="bold" lengthAdjust="spacing" textLength="68" x="306.5" y="455.9999">MyLibrary</text><!--MD5=[63955b8f5af8bd25e363284f268579d0]
entity getBusinessDays--><polygon fill="#F8F8F8" filter="url(#f1tnavfhcrmnpe)" points="346,483,346,536.5999,543,536.5999,543,493,533,483,346,483" style="stroke:#000000;stroke-width:1.5;"/><path d="M533,483 L533,493 L543,493 " fill="#F8F8F8" style="stroke:#000000;stroke-width:1.5;"/><text fill="#000000" font-family="sans-serif" font-size="14" lengthAdjust="spacing" textLength="173" x="356" y="506.9999">getBusinessDays(startDate,</text><text fill="#000000" font-family="sans-serif" font-size="14" lengthAdjust="spacing" textLength="57" x="356" y="523.7999">endDate)</text><!--MD5=[8fc3522a43f8c7199df5e09e5bb0188e]
entity user--><ellipse cx="310.5" cy="228.5" fill="#F8F8F8" filter="url(#f1tnavfhcrmnpe)" rx="8" ry="8" style="stroke:#383838;stroke-width:1.5;"/><path d="M310.5,236.5 L310.5,263.5 M297.5,244.5 L323.5,244.5 M310.5,263.5 L297.5,278.5 M310.5,263.5 L323.5,278.5 " fill="none" filter="url(#f1tnavfhcrmnpe)" style="stroke:#383838;stroke-width:1.5;"/><text fill="#000000" font-family="sans-serif" font-size="14" lengthAdjust="spacing" textLength="27" x="297" y="297.9999">user</text><!--MD5=[2975947dbd53e11d08a72608f6781d9e]
entity cluster--><polygon fill="#F8F8F8" filter="url(#f1tnavfhcrmnpe)" points="486,16,496,6,641,6,641,42.7999,631,52.7999,486,52.7999,486,16" style="stroke:#000000;stroke-width:1.5;"/><line style="stroke:#000000;stroke-width:1.5;" x1="631" x2="641" y1="16" y2="6"/><line style="stroke:#000000;stroke-width:1.5;" x1="486" x2="631" y1="16" y2="16"/><line style="stroke:#000000;stroke-width:1.5;" x1="631" x2="631" y1="16" y2="52.7999"/><text fill="#000000" font-family="sans-serif" font-size="14" lengthAdjust="spacing" textLength="115" x="501" y="39.9999">Couchbase cluster</text><!--MD5=[e987a9053741ca611bbb00ccd0372f5a]
entity bucket--><path d="M532.5,123 C532.5,113 563.5,113 563.5,113 C563.5,113 594.5,113 594.5,123 L594.5,148.7999 C594.5,158.7999 563.5,158.7999 563.5,158.7999 C563.5,158.7999 532.5,158.7999 532.5,148.7999 L532.5,123 " fill="#F8F8F8" filter="url(#f1tnavfhcrmnpe)" style="stroke:#000000;stroke-width:1.5;"/><path d="M532.5,123 C532.5,133 563.5,133 563.5,133 C563.5,133 594.5,133 594.5,123 " fill="none" style="stroke:#000000;stroke-width:1.5;"/><text fill="#000000" font-family="sans-serif" font-size="14" lengthAdjust="spacing" textLength="42" x="542.5" y="150.9999">Bucket</text><!--MD5=[f8e745406a4437ba9dd668c2fc83629b]
entity inventory--><rect fill="#F8F8F8" filter="url(#f1tnavfhcrmnpe)" height="36.7999" style="stroke:#000000;stroke-width:1.5;" width="119" x="430" y="241.5"/><text fill="#000000" font-family="sans-serif" font-size="14" lengthAdjust="spacing" textLength="99" x="440" y="265.4999">Inventory Scope</text><!--MD5=[8084ad898ab70d49b28a9beceff76d52]
entity tenant--><rect fill="#F8F8F8" filter="url(#f1tnavfhcrmnpe)" height="36.7999" style="stroke:#000000;stroke-width:1.5;" width="106" x="584.5" y="241.5"/><text fill="#000000" font-family="sans-serif" font-size="14" lengthAdjust="spacing" textLength="86" x="594.5" y="265.4999">Tenant Scope</text><!--MD5=[e8144009250fefa8de7ab17e8fe20380]
entity collection--><polygon fill="#F8F8F8" filter="url(#f1tnavfhcrmnpe)" points="658,361,704,361,711,382,747,382,747,415.7999,658,415.7999,658,361" style="stroke:#000000;stroke-width:1.5;"/><line style="stroke:#000000;stroke-width:1.5;" x1="658" x2="711" y1="382" y2="382"/><text fill="#000000" font-family="sans-serif" font-size="14" lengthAdjust="spacing" textLength="59" x="668" y="402.9999">Collection</text><!--MD5=[ab1e5baf85ed143b76d3e76a48078bed]
entity document1--><polygon fill="#F8F8F8" filter="url(#f1tnavfhcrmnpe)" points="591.5,491.5,591.5,528.2999,685.5,528.2999,685.5,501.5,675.5,491.5,591.5,491.5" style="stroke:#000000;stroke-width:1.5;"/><path d="M675.5,491.5 L675.5,501.5 L685.5,501.5 " fill="#F8F8F8" style="stroke:#000000;stroke-width:1.5;"/><text fill="#000000" font-family="sans-serif" font-size="14" lengthAdjust="spacing" textLength="74" x="601.5" y="515.4999">Document 1</text><!--MD5=[dd1bebfa84e2488b3127885c5b41e328]
entity document2--><polygon fill="#F8F8F8" filter="url(#f1tnavfhcrmnpe)" points="720.5,491.5,720.5,528.2999,814.5,528.2999,814.5,501.5,804.5,491.5,720.5,491.5" style="stroke:#000000;stroke-width:1.5;"/><path d="M804.5,491.5 L804.5,501.5 L814.5,501.5 " fill="#F8F8F8" style="stroke:#000000;stroke-width:1.5;"/><text fill="#000000" font-family="sans-serif" font-size="14" lengthAdjust="spacing" textLength="74" x="730.5" y="515.4999">Document 2</text><!--MD5=[a05b76816b6fc3abd39e436261e75b4c]
entity document3--><polygon fill="#F8F8F8" filter="url(#f1tnavfhcrmnpe)" points="849.5,491.5,849.5,528.2999,943.5,528.2999,943.5,501.5,933.5,491.5,849.5,491.5" style="stroke:#000000;stroke-width:1.5;"/><path d="M933.5,491.5 L933.5,501.5 L943.5,501.5 " fill="#F8F8F8" style="stroke:#000000;stroke-width:1.5;"/><text fill="#000000" font-family="sans-serif" font-size="14" lengthAdjust="spacing" textLength="74" x="859.5" y="515.4999">Document 3</text><path d="M6,231.5 L6,288.3 A0,0 0 0 0 6,288.3 L261,288.3 A0,0 0 0 0 261,288.3 L261,264 L295.82,260 L261,256 L261,241.5 L251,231.5 L6,231.5 A0,0 0 0 0 6,231.5 " fill="#EBEBEB" filter="url(#f1tnavfhcrmnpe)" style="stroke:#383838;stroke-width:1.0;"/><path d="M251,231.5 L251,241.5 L261,241.5 L251,231.5 " fill="#EBEBEB" style="stroke:#383838;stroke-width:1.0;"/><text fill="#000000" font-family="sans-serif" font-size="13" lengthAdjust="spacing" textLength="234" x="12" y="249.5">can access the getBusinessDays function</text><text fill="#000000" font-family="sans-serif" font-size="13" lengthAdjust="spacing" textLength="142" x="12" y="265.1">as long as s/he is working</text><text fill="#000000" font-family="sans-serif" font-size="13" lengthAdjust="spacing" textLength="205" x="12" y="280.7">inside the '"Inventory Scope" context</text><!--MD5=[281524e9f32be153eff0ea24a8460cc1]
link cluster to bucket--><path codeLine="24" d="M563.5,53.17 C563.5,70.82 563.5,95.18 563.5,112.73 " fill="none" id="cluster-bucket" style="stroke:#383838;stroke-width:1.0;"/><!--MD5=[35428efcf9dc7c16942b9d3811a6a060]
link bucket to inventory--><path codeLine="25" d="M550.1,159.09 C535.77,182.71 513.34,219.69 500.16,241.42 " fill="none" id="bucket-inventory" style="stroke:#383838;stroke-width:1.0;"/><!--MD5=[49a699f46bf815af491dfd6da0cb6b54]
link bucket to tenant--><path codeLine="26" d="M576.9,159.09 C591.23,182.71 613.66,219.69 626.84,241.42 " fill="none" id="bucket-tenant" style="stroke:#383838;stroke-width:1.0;"/><!--MD5=[de740f467c584e4f51814643f6222db6]
link inventory to collection--><path codeLine="27" d="M519.12,278.59 C555.12,299.97 616.24,336.27 657.94,361.03 " fill="none" id="inventory-collection" style="stroke:#383838;stroke-width:1.0;"/><!--MD5=[ab43a1f600bfb89b9c5121b3602da514]
link collection to document1--><path codeLine="28" d="M688.3,416.02 C676,438.99 658.55,471.56 647.91,491.43 " fill="none" id="collection-document1" style="stroke:#383838;stroke-width:1.0;"/><!--MD5=[93f8c9cb5046ebd87d3059498af61558]
link collection to document2--><path codeLine="29" d="M716.93,416.02 C729.42,438.99 747.13,471.56 757.94,491.43 " fill="none" id="collection-document2" style="stroke:#383838;stroke-width:1.0;"/><!--MD5=[fb180569bd3efdcd43513d540660e130]
link collection to document3--><path codeLine="30" d="M747.06,393.93 C773.68,398.29 807.12,406.92 832.5,424 C857.94,441.12 877.3,471.78 887.76,491.22 " fill="none" id="collection-document3" style="stroke:#383838;stroke-width:1.0;"/><!--MD5=[01098f42ebd4b2f4dbf3213822a94e7a]
link inventory to MyLibrary--><path codeLine="32" d="M471.77,278.8 C430.61,320.17 331.9,419.59 329.5,424 C327.2613,428.1188 325.2861,432.4864 323.5435,436.9823 C323.3257,437.5443 323.1115,438.1083 322.9009,438.674 C322.7956,438.9569 322.6912,439.2402 322.5876,439.5239 C322.5359,439.6658 322.4843,439.8078 322.433,439.9498 " fill="none" id="inventory-MyLibrary" style="stroke:#383838;stroke-width:1.0;"/><!--MD5=[3133cdd169f8ee8216b1fd5214703b88]
link user to MyLibrary--><path codeLine="34" d="M310.5,301.12 C310.5,335.665 310.5,386.5625 310.5,429.3475 C310.5,432.0216 310.5,434.6639 310.5,437.2686 C310.5,437.9198 310.5,438.5686 310.5,439.215 " fill="none" id="user-to-MyLibrary" style="stroke:#383838;stroke-width:1.0;"/><polygon fill="#383838" points="310.5,439.215,314.5,430.215,310.5,434.215,306.5,430.215,310.5,439.215" style="stroke:#383838;stroke-width:1.0;"/><!--MD5=[7c15810655cb80871735464f84de78ca]
@startuml
skinparam monochrome true
allow_mixing

package MyLibrary {
   file "getBusinessDays(startDate, \nendDate)" as getBusinessDays
}

actor "user" as user

node "Couchbase cluster" as cluster

database "Bucket" as bucket

rectangle "Inventory Scope" as inventory
rectangle "Tenant Scope" as tenant

folder "Collection" as collection


file "Document 1" as document1
file "Document 2" as document2
file "Document 3" as document3

cluster - - bucket
bucket - - inventory
bucket - - tenant
inventory - - collection
collection - - document1
collection - - document2
collection - - document3

inventory - - - MyLibrary

user - - -> MyLibrary

note left of user
  can access the getBusinessDays function
  as long as s/he is working
  inside the '"Inventory Scope" context
end note
@enduml

PlantUML version 1.2021.16(Wed Dec 08 17:25:22 GMT 2021)
(GPL source distribution)
Java Runtime: OpenJDK Runtime Environment
JVM: OpenJDK 64-Bit Server VM
Default Encoding: UTF-8
Language: en
Country: US
--></g></svg>