<?xml version='1.0' encoding='UTF-8'?>
<!DOCTYPE svg PUBLIC "-//W3C//DTD SVG 1.0//EN" "http://www.w3.org/TR/2001/REC-SVG-20010904/DTD/svg10.dtd">
<svg viewBox="0 0 448 200" xmlns="http://www.w3.org/2000/svg" xmlns:inkspace="http://www.inkscape.org/namespaces/inkscape" xmlns:xlink="http://www.w3.org/1999/xlink" width="448px" height="200px">
  <defs id="defs_block">
    <filter height="1.504" id="filter_blur" inkspace:collect="always" width="1.1575" x="-0.07875" y="-0.252">
      <feGaussianBlur id="feGaussianBlur3780" inkspace:collect="always" stdDeviation="4.2" />
    </filter>
  </defs>
  <title>blockdiag</title>
  <desc>blockdiag {

  jfunction[shape=roundedbox, label="javasrcipt\nadd(2,2)"]
  sqlppfunc1[shape=roundedbox, label="SQL++\nMyAdd(2,2)"]
  sqlppfunc2[shape=roundedbox, label="SQL++\nAnotherAdd(2,2)"]

  sqlppfunc1 &lt;- jfunction
  sqlppfunc2 &lt;- jfunction
}</desc>
  <path d="M 267 46 L 379 46 A8,8 0 0 1 387 54 L 387 78 A8,8 0 0 1 379 86 L 267 86 A8,8 0 0 1 259 78 L 259 54 A8,8 0 0 1 267 46" fill="rgb(0,0,0)" stroke="rgb(0,0,0)" style="filter:url(#filter_blur);opacity:0.7;fill-opacity:1" />
  <path d="M 75 46 L 187 46 A8,8 0 0 1 195 54 L 195 78 A8,8 0 0 1 187 86 L 75 86 A8,8 0 0 1 67 78 L 67 54 A8,8 0 0 1 75 46" fill="rgb(0,0,0)" stroke="rgb(0,0,0)" style="filter:url(#filter_blur);opacity:0.7;fill-opacity:1" />
  <path d="M 75 126 L 187 126 A8,8 0 0 1 195 134 L 195 158 A8,8 0 0 1 187 166 L 75 166 A8,8 0 0 1 67 158 L 67 134 A8,8 0 0 1 75 126" fill="rgb(0,0,0)" stroke="rgb(0,0,0)" style="filter:url(#filter_blur);opacity:0.7;fill-opacity:1" />
  <path d="M 264 40 L 376 40 A8,8 0 0 1 384 48 L 384 72 A8,8 0 0 1 376 80 L 264 80 A8,8 0 0 1 256 72 L 256 48 A8,8 0 0 1 264 40" fill="rgb(255,255,255)" stroke="rgb(0,0,0)" />
  <text fill="rgb(0,0,0)" font-family="sans-serif" font-size="11" font-style="normal" font-weight="normal" text-anchor="middle" textLength="61" x="320.5" y="59">javasrcipt</text>
  <text fill="rgb(0,0,0)" font-family="sans-serif" font-size="11" font-style="normal" font-weight="normal" text-anchor="middle" textLength="49" x="320.5" y="72">add(2,2)</text>
  <path d="M 72 40 L 184 40 A8,8 0 0 1 192 48 L 192 72 A8,8 0 0 1 184 80 L 72 80 A8,8 0 0 1 64 72 L 64 48 A8,8 0 0 1 72 40" fill="rgb(255,255,255)" stroke="rgb(0,0,0)" />
  <text fill="rgb(0,0,0)" font-family="sans-serif" font-size="11" font-style="normal" font-weight="normal" text-anchor="middle" textLength="31" x="128.5" y="59">SQL++</text>
  <text fill="rgb(0,0,0)" font-family="sans-serif" font-size="11" font-style="normal" font-weight="normal" text-anchor="middle" textLength="61" x="128.5" y="72">MyAdd(2,2)</text>
  <path d="M 72 120 L 184 120 A8,8 0 0 1 192 128 L 192 152 A8,8 0 0 1 184 160 L 72 160 A8,8 0 0 1 64 152 L 64 128 A8,8 0 0 1 72 120" fill="rgb(255,255,255)" stroke="rgb(0,0,0)" />
  <text fill="rgb(0,0,0)" font-family="sans-serif" font-size="11" font-style="normal" font-weight="normal" text-anchor="middle" textLength="31" x="128.5" y="139">SQL++</text>
  <text fill="rgb(0,0,0)" font-family="sans-serif" font-size="11" font-style="normal" font-weight="normal" text-anchor="middle" textLength="91" x="128.5" y="152">AnotherAdd(2,2)</text>
  <path d="M 200 60 L 256 60" fill="none" stroke="rgb(0,0,0)" />
  <polygon fill="rgb(0,0,0)" points="193,60 200,56 200,64 193,60" stroke="rgb(0,0,0)" />
  <path d="M 200 140 L 240 140" fill="none" stroke="rgb(0,0,0)" />
  <path d="M 240 140 L 240 60" fill="none" stroke="rgb(0,0,0)" />
  <path d="M 240 60 L 256 60" fill="none" stroke="rgb(0,0,0)" />
  <polygon fill="rgb(0,0,0)" points="193,140 200,136 200,144 193,140" stroke="rgb(0,0,0)" />
</svg>