<?xml version="1.0" encoding="UTF-8" standalone="no"?><svg xmlns="http://www.w3.org/2000/svg" xmlns:xlink="http://www.w3.org/1999/xlink" contentScriptType="application/ecmascript" contentStyleType="text/css" height="495px" preserveAspectRatio="none" style="width:457px;height:495px;background:#FFFFFF;" version="1.1" viewBox="0 0 457 495" width="457px" zoomAndPan="magnify"><defs><filter height="300%" id="fphfqsrtp7j50" width="300%" x="-1" y="-1"><feGaussianBlur result="blurOut" stdDeviation="2.0"/><feColorMatrix in="blurOut" result="blurOut2" type="matrix" values="0 0 0 0 0 0 0 0 0 0 0 0 0 0 0 0 0 0 .4 0"/><feOffset dx="4.0" dy="4.0" in="blurOut2" result="blurOut3"/><feBlend in="SourceGraphic" in2="blurOut3" mode="normal"/></filter></defs><g><!--MD5=[3391d9f1a19c634d68793c5dffd64995]
cluster Bucket--><path d="M6,16 C6,6 228,6 228,6 C228,6 450,6 450,16 L450,478 C450,488 228,488 228,488 C228,488 6,488 6,478 L6,16 " fill="#FFFFFF" filter="url(#fphfqsrtp7j50)" style="stroke:#000000;stroke-width:1.5;"/><path d="M6,16 C6,26 228,26 228,26 C228,26 450,26 450,16 " fill="none" style="stroke:#000000;stroke-width:1.5;"/><text fill="#000000" font-family="sans-serif" font-size="14" font-weight="bold" lengthAdjust="spacing" textLength="48" x="204" y="41.9999">Bucket</text><!--MD5=[ff950ce3b0faff0072a320bae03ca30a]
cluster Scope--><polygon fill="#FFFFFF" filter="url(#fphfqsrtp7j50)" points="30,74,40,64,426,64,426,454,416,464,30,464,30,74" style="stroke:#000000;stroke-width:1.5;"/><line style="stroke:#000000;stroke-width:1.5;" x1="416" x2="426" y1="74" y2="64"/><line style="stroke:#000000;stroke-width:1.5;" x1="30" x2="416" y1="74" y2="74"/><line style="stroke:#000000;stroke-width:1.5;" x1="416" x2="416" y1="74" y2="464"/><text fill="#000000" font-family="sans-serif" font-size="14" font-weight="bold" lengthAdjust="spacing" textLength="44" x="202" y="90.9999">Scope</text><!--MD5=[0e81e07669dd045938252300784af9f1]
cluster my-library--><polygon fill="#FFFFFF" filter="url(#fphfqsrtp7j50)" points="54,112,54,440,402,440,402,122,392,112,54,112" style="stroke:#000000;stroke-width:1.5;"/><path d="M392,112 L392,122 L402,122 " fill="#FFFFFF" style="stroke:#000000;stroke-width:1.5;"/><text fill="#000000" font-family="sans-serif" font-size="14" font-weight="bold" lengthAdjust="spacing" textLength="69" x="193.5" y="127.9999">my-library</text><!--MD5=[08c4886f0cdbbfe5a8548b418b6bf7c5]
entity function1--><rect fill="#FFFFF0" filter="url(#fphfqsrtp7j50)" height="103.9996" style="stroke:#000000;stroke-width:1.5;" width="138" x="159" y="147"/><text fill="#000000" font-family="sans-serif" font-size="14" lengthAdjust="spacing" textLength="0" x="173" y="170.9999"/><text fill="#000000" font-family="sans-serif" font-size="14" lengthAdjust="spacing" textLength="118" x="169" y="187.7999">function add(x, y) {</text><text fill="#000000" font-family="sans-serif" font-size="14" lengthAdjust="spacing" textLength="12" x="185" y="204.5998">...</text><text fill="#000000" font-family="sans-serif" font-size="14" lengthAdjust="spacing" textLength="5" x="169" y="221.3997">}</text><text fill="#000000" font-family="sans-serif" font-size="14" lengthAdjust="spacing" textLength="0" x="173" y="238.1996"/><!--MD5=[f42fa05b098a42482a7afe7367d8740a]
entity function2--><rect fill="#FFFFF0" filter="url(#fphfqsrtp7j50)" height="137.5995" style="stroke:#000000;stroke-width:1.5;" width="316" x="70" y="286"/><text fill="#000000" font-family="sans-serif" font-size="14" lengthAdjust="spacing" textLength="0" x="84" y="309.9999"/><text fill="#000000" font-family="sans-serif" font-size="14" lengthAdjust="spacing" textLength="296" x="80" y="326.7999">function getBusinessDays(startDate, endDate) {</text><text fill="#000000" font-family="sans-serif" font-size="14" lengthAdjust="spacing" textLength="0" x="84" y="343.5998"/><text fill="#000000" font-family="sans-serif" font-size="14" lengthAdjust="spacing" textLength="12" x="88" y="360.3997">...</text><text fill="#000000" font-family="sans-serif" font-size="14" lengthAdjust="spacing" textLength="0" x="84" y="377.1996"/><text fill="#000000" font-family="sans-serif" font-size="14" lengthAdjust="spacing" textLength="5" x="80" y="393.9996">}</text><text fill="#000000" font-family="sans-serif" font-size="14" lengthAdjust="spacing" textLength="0" x="84" y="410.7995"/><!--MD5=[da410a968ba008ee36c0ec4d33d38138]
@startuml
skinparam componentStyle rectangle
left to right direction
database "Bucket" #White {

  node "Scope" #White{

        file "my-library" #White {

           component function1 #Ivory [

function add(x, y) {
    ...
}

           ]

           component function2 #Ivory [

function getBusinessDays(startDate, endDate) {

  ...

}

           ]

        }

}
@enduml

PlantUML version 1.2021.16(Wed Dec 08 17:25:22 GMT 2021)
(GPL source distribution)
Java Runtime: OpenJDK Runtime Environment
JVM: OpenJDK 64-Bit Server VM
Default Encoding: UTF-8
Language: en
Country: US
--></g></svg>