<?xml version="1.0" encoding="UTF-8" standalone="no"?><svg xmlns="http://www.w3.org/2000/svg" xmlns:xlink="http://www.w3.org/1999/xlink" contentScriptType="application/ecmascript" contentStyleType="text/css" height="532px" preserveAspectRatio="none" style="width:555px;height:532px;background:#FFFFFF;" version="1.1" viewBox="0 0 555 532" width="555px" zoomAndPan="magnify"><defs><filter height="300%" id="f4acfosa4dagt" width="300%" x="-1" y="-1"><feGaussianBlur result="blurOut" stdDeviation="2.0"/><feColorMatrix in="blurOut" result="blurOut2" type="matrix" values="0 0 0 0 0 0 0 0 0 0 0 0 0 0 0 0 0 0 .4 0"/><feOffset dx="4.0" dy="4.0" in="blurOut2" result="blurOut3"/><feBlend in="SourceGraphic" in2="blurOut3" mode="normal"/></filter></defs><g><!--MD5=[cd2d2a69136bcb457c777d7f0a388268]
cluster MyLibrary--><polygon fill="#FFFFFF" filter="url(#f4acfosa4dagt)" points="273.5,404,348.5,404,355.5,426.7999,538.5,426.7999,538.5,525,273.5,525,273.5,404" style="stroke:#000000;stroke-width:1.5;"/><line style="stroke:#000000;stroke-width:1.5;" x1="273.5" x2="355.5" y1="426.7999" y2="426.7999"/><text fill="#000000" font-family="sans-serif" font-size="14" font-weight="bold" lengthAdjust="spacing" textLength="69" x="277.5" y="419.9999">my-library</text><!--MD5=[63955b8f5af8bd25e363284f268579d0]
entity getBusinessDays--><polygon fill="#FEFECE" filter="url(#f4acfosa4dagt)" points="317,447,317,500.5999,514,500.5999,514,457,504,447,317,447" style="stroke:#000000;stroke-width:1.5;"/><path d="M504,447 L504,457 L514,457 " fill="#FEFECE" style="stroke:#000000;stroke-width:1.5;"/><text fill="#000000" font-family="sans-serif" font-size="14" lengthAdjust="spacing" textLength="173" x="327" y="470.9999">getBusinessDays(startDate,</text><text fill="#000000" font-family="sans-serif" font-size="14" lengthAdjust="spacing" textLength="57" x="327" y="487.7999">endDate)</text><!--MD5=[8fc3522a43f8c7199df5e09e5bb0188e]
entity user--><ellipse cx="166.5" cy="442.5" fill="#FEFECE" filter="url(#f4acfosa4dagt)" rx="8" ry="8" style="stroke:#A80036;stroke-width:1.5;"/><path d="M166.5,450.5 L166.5,477.5 M153.5,458.5 L179.5,458.5 M166.5,477.5 L153.5,492.5 M166.5,477.5 L179.5,492.5 " fill="none" filter="url(#f4acfosa4dagt)" style="stroke:#A80036;stroke-width:1.5;"/><text fill="#000000" font-family="sans-serif" font-size="14" lengthAdjust="spacing" textLength="27" x="153" y="511.9999">user</text><!--MD5=[2975947dbd53e11d08a72608f6781d9e]
entity cluster--><polygon fill="#FEFECE" filter="url(#f4acfosa4dagt)" points="333,16,343,6,488,6,488,42.7999,478,52.7999,333,52.7999,333,16" style="stroke:#000000;stroke-width:1.5;"/><line style="stroke:#000000;stroke-width:1.5;" x1="478" x2="488" y1="16" y2="6"/><line style="stroke:#000000;stroke-width:1.5;" x1="333" x2="478" y1="16" y2="16"/><line style="stroke:#000000;stroke-width:1.5;" x1="478" x2="478" y1="16" y2="52.7999"/><text fill="#000000" font-family="sans-serif" font-size="14" lengthAdjust="spacing" textLength="115" x="348" y="39.9999">Couchbase cluster</text><!--MD5=[e987a9053741ca611bbb00ccd0372f5a]
entity bucket--><path d="M359,123 C359,113 410.5,113 410.5,113 C410.5,113 462,113 462,123 L462,148.7999 C462,158.7999 410.5,158.7999 410.5,158.7999 C410.5,158.7999 359,158.7999 359,148.7999 L359,123 " fill="#FEFECE" filter="url(#f4acfosa4dagt)" style="stroke:#000000;stroke-width:1.5;"/><path d="M359,123 C359,133 410.5,133 410.5,133 C410.5,133 462,133 462,123 " fill="none" style="stroke:#000000;stroke-width:1.5;"/><text fill="#000000" font-family="sans-serif" font-size="14" lengthAdjust="spacing" textLength="83" x="369" y="150.9999">travel-sample</text><!--MD5=[f8e745406a4437ba9dd668c2fc83629b]
entity inventory--><rect fill="#FEFECE" filter="url(#f4acfosa4dagt)" height="36.7999" style="stroke:#000000;stroke-width:1.5;" width="76" x="276.5" y="219"/><text fill="#000000" font-family="sans-serif" font-size="14" lengthAdjust="spacing" textLength="56" x="286.5" y="242.9999">inventory</text><!--MD5=[8084ad898ab70d49b28a9beceff76d52]
entity tenant--><rect fill="#FEFECE" filter="url(#f4acfosa4dagt)" height="36.7999" style="stroke:#000000;stroke-width:1.5;" width="59" x="478" y="219"/><text fill="#000000" font-family="sans-serif" font-size="14" lengthAdjust="spacing" textLength="39" x="488" y="242.9999">tenant</text><path d="M6,316 L6,372.8 A0,0 0 0 0 6,372.8 L136.66,372.8 L156.1,432.8 L144.66,372.8 L261,372.8 A0,0 0 0 0 261,372.8 L261,326 L251,316 L6,316 A0,0 0 0 0 6,316 " fill="#FBFB77" filter="url(#f4acfosa4dagt)" style="stroke:#A80036;stroke-width:1.0;"/><path d="M251,316 L251,326 L261,326 L251,316 " fill="#FBFB77" style="stroke:#A80036;stroke-width:1.0;"/><text fill="#000000" font-family="sans-serif" font-size="13" lengthAdjust="spacing" textLength="234" x="12" y="334">can access the getBusinessDays function</text><text fill="#000000" font-family="sans-serif" font-size="13" lengthAdjust="spacing" textLength="142" x="12" y="349.6">as long as s/he is working</text><text fill="#000000" font-family="sans-serif" font-size="13" lengthAdjust="spacing" textLength="205" x="12" y="365.2">inside the '"Inventory Scope" context</text><path d="M388,224.5 L388,233.5 L352.77,237.5 L388,241.5 L388,250.1 A0,0 0 0 0 388,250.1 L443,250.1 A0,0 0 0 0 443,250.1 L443,234.5 L433,224.5 L388,224.5 A0,0 0 0 0 388,224.5 " fill="#FBFB77" filter="url(#f4acfosa4dagt)" style="stroke:#A80036;stroke-width:1.0;"/><path d="M433,224.5 L433,234.5 L443,234.5 L433,224.5 " fill="#FBFB77" style="stroke:#A80036;stroke-width:1.0;"/><text fill="#000000" font-family="sans-serif" font-size="13" lengthAdjust="spacing" textLength="34" x="394" y="242.5">scope</text><!--MD5=[281524e9f32be153eff0ea24a8460cc1]
link cluster to bucket--><path codeLine="17" d="M410.5,53.17 C410.5,70.82 410.5,95.18 410.5,112.73 " fill="none" id="cluster-bucket" style="stroke:#A80036;stroke-width:1.0;"/><!--MD5=[35428efcf9dc7c16942b9d3811a6a060]
link bucket to inventory--><path codeLine="18" d="M389.19,159.08 C371.85,177.06 347.69,202.1 331.59,218.79 " fill="none" id="bucket-inventory" style="stroke:#A80036;stroke-width:1.0;"/><!--MD5=[49a699f46bf815af491dfd6da0cb6b54]
link bucket to tenant--><path codeLine="19" d="M432.03,159.08 C449.55,177.06 473.97,202.1 490.23,218.79 " fill="none" id="bucket-tenant" style="stroke:#A80036;stroke-width:1.0;"/><!--MD5=[01098f42ebd4b2f4dbf3213822a94e7a]
link inventory to MyLibrary--><path codeLine="21" d="M312.02,256.13 C308.245,282.97 300.7925,335.925 294.1975,382.7863 C293.3731,388.6439 292.5621,394.4063 291.7734,400.0107 C291.6748,400.7112 291.5766,401.4093 291.4787,402.1048 C291.4298,402.4525 291.3809,402.7996 291.3322,403.146 " fill="none" id="inventory-MyLibrary" style="stroke:#A80036;stroke-width:1.0;"/><!--MD5=[3133cdd169f8ee8216b1fd5214703b88]
link user to MyLibrary--><path codeLine="23" d="M181.32,474 C197.955,474 214.5875,474 231.2188,474 C239.5344,474 247.8497,474 256.1648,474 C260.3224,474 264.48,474 268.6375,474 C269.6769,474 270.7162,474 271.7556,474 C272.2753,474 272.795,474 273.3147,474 " fill="none" id="user-to-MyLibrary" style="stroke:#A80036;stroke-width:1.0;"/><polygon fill="#A80036" points="273.3147,474,264.3147,470,268.3147,474,264.3147,478,273.3147,474" style="stroke:#A80036;stroke-width:1.0;"/><!--MD5=[6698e9d96f62038731a207811e62ecb6]
@startuml
allow_mixing

package "my-library" as MyLibrary {
   file "getBusinessDays(startDate, \nendDate)" as getBusinessDays
}

actor "user" as user

node "Couchbase cluster" as cluster

database "travel-sample" as bucket

rectangle "inventory" as inventory
rectangle "tenant" as tenant


cluster - - bucket
bucket - - inventory
bucket - - tenant

inventory - - - MyLibrary

user - - -right- - -> MyLibrary

note top of user
  can access the getBusinessDays function
  as long as s/he is working
  inside the '"Inventory Scope" context
end note

note right of inventory
  scope
end note
@enduml

PlantUML version 1.2021.16(Wed Dec 08 17:25:22 GMT 2021)
(GPL source distribution)
Java Runtime: OpenJDK Runtime Environment
JVM: OpenJDK 64-Bit Server VM
Default Encoding: UTF-8
Language: en
Country: US
--></g></svg>