<?xml version="1.0" encoding="UTF-8" standalone="no"?><svg xmlns="http://www.w3.org/2000/svg" xmlns:xlink="http://www.w3.org/1999/xlink" contentScriptType="application/ecmascript" contentStyleType="text/css" height="285px" preserveAspectRatio="none" style="width:1140px;height:285px;background:#FFFFFF;" version="1.1" viewBox="0 0 1140 285" width="1140px" zoomAndPan="magnify"><defs><filter height="300%" id="f1hgjckezmlrdw" width="300%" x="-1" y="-1"><feGaussianBlur result="blurOut" stdDeviation="2.0"/><feColorMatrix in="blurOut" result="blurOut2" type="matrix" values="0 0 0 0 0 0 0 0 0 0 0 0 0 0 0 0 0 0 .4 0"/><feOffset dx="4.0" dy="4.0" in="blurOut2" result="blurOut3"/><feBlend in="SourceGraphic" in2="blurOut3" mode="normal"/></filter></defs><g><!--MD5=[1a08f5c2f344d2fdeaebc4983dabfe2b]
cluster cAndA--><rect fill="#FFFFFF" filter="url(#f1hgjckezmlrdw)" height="124" style="stroke:#000000;stroke-width:1.5;" width="578" x="146.5" y="71.5"/><path d="M400.5,71.5 L400.5,81.2999 L390.5,91.2999 L146.5,91.2999 " fill="none" style="stroke:#000000;stroke-width:1.5;"/><text fill="#000000" font-family="sans-serif" font-size="14" font-weight="bold" lengthAdjust="spacing" textLength="244" x="149.5" y="86.4999">Create library and add first function</text><!--MD5=[9780cf7e3f19098ffc51e0c2265c1688]
entity createLibrary--><rect fill="#FEFECE" filter="url(#f1hgjckezmlrdw)" height="36.7999" style="stroke:#000000;stroke-width:1.5;" width="126" x="170.5" y="115"/><text fill="#000000" font-family="sans-serif" font-size="14" lengthAdjust="spacing" textLength="106" x="180.5" y="138.9999">(1) Create library</text><!--MD5=[2fb1080adff7f992f74c072686d7cb6a]
entity addFunction--><rect fill="#FEFECE" filter="url(#f1hgjckezmlrdw)" height="36.7999" style="stroke:#000000;stroke-width:1.5;" width="294" x="406.5" y="115"/><text fill="#000000" font-family="sans-serif" font-size="14" lengthAdjust="spacing" textLength="274" x="416.5" y="138.9999">(2) Add the JavaScript function to the library</text><!--MD5=[8fc3522a43f8c7199df5e09e5bb0188e]
entity user--><ellipse cx="35.5" cy="111" fill="#FEFECE" filter="url(#f1hgjckezmlrdw)" rx="16" ry="16" style="stroke:#A80036;stroke-width:1.5;"/><path d="M35.5,131 C39.5,131 42.5,131 46.5,127 C54.5,127 62.5,135 62.5,143 L62.5,147 C62.5,151 58.5,155 54.5,155 L16.5,155 C12.5,155 8.5,151 8.5,147 L8.5,143 C8.5,135 16.5,127 24.5,127 C28.5,131 31.5,131 35.5,131 " fill="#FEFECE" filter="url(#f1hgjckezmlrdw)" style="stroke:#A80036;stroke-width:1.5;"/><text fill="#000000" font-family="sans-serif" font-size="14" lengthAdjust="spacing" textLength="59" x="6" y="170.4999">developer</text><path d="M125,223 L125,264.2 L342,264.2 L342,233 L332,223 L125,223 " fill="#FFFFF0" filter="url(#f1hgjckezmlrdw)" style="stroke:#A80036;stroke-width:1.0;"/><path d="M332,223 L332,233 L342,233 L332,223 " fill="#FFFFF0" style="stroke:#A80036;stroke-width:1.0;"/><text fill="#000000" font-family="sans-serif" font-size="13" lengthAdjust="spacing" textLength="177" x="131" y="241">The library and the first function</text><text fill="#000000" font-family="sans-serif" font-size="13" lengthAdjust="spacing" textLength="196" x="131" y="256.6">are usually added in the same step.</text><path d="M402,220 L402,276.8 L705,276.8 L705,230 L695,220 L402,220 " fill="#FFFFF0" filter="url(#f1hgjckezmlrdw)" style="stroke:#A80036;stroke-width:1.0;"/><path d="M695,220 L695,230 L705,230 L695,220 " fill="#FFFFF0" style="stroke:#A80036;stroke-width:1.0;"/><text fill="#000000" font-family="sans-serif" font-size="13" lengthAdjust="spacing" textLength="271" x="408" y="238">The library can be created as globally accessible</text><text fill="#000000" font-family="sans-serif" font-size="13" lengthAdjust="spacing" textLength="282" x="408" y="253.6">across the cluster, or it can be set to be accessible</text><text fill="#000000" font-family="sans-serif" font-size="13" lengthAdjust="spacing" textLength="222" x="408" y="269.2">by users with access to a bucket/scope.</text><!--MD5=[60f0d50cabbb4d49de1b6d611b46e1e5]
entity createN1QL--><rect fill="#FEFECE" filter="url(#f1hgjckezmlrdw)" height="36.7999" style="stroke:#000000;stroke-width:1.5;" width="266" x="765" y="115"/><text fill="#000000" font-family="sans-serif" font-size="14" lengthAdjust="spacing" textLength="246" x="775" y="138.9999">(3) Create N1QL User-Defined Function</text><!--MD5=[22efa60cf2b4332bf8574b0c93969d71]
entity end--><ellipse cx="1118" cy="133.5" fill="#FEFECE" filter="url(#f1hgjckezmlrdw)" rx="8" ry="8" style="stroke:#A80036;stroke-width:1.5;"/><text fill="#000000" font-family="sans-serif" font-size="14" lengthAdjust="spacing" textLength="23" x="1106.5" y="164.4999">end</text><path d="M444,6 L444,47.2 A0,0 0 0 0 444,47.2 L549.5,47.2 L553.5,114.69 L557.5,47.2 L663,47.2 A0,0 0 0 0 663,47.2 L663,16 L653,6 L444,6 A0,0 0 0 0 444,6 " fill="#FFFFF0" filter="url(#f1hgjckezmlrdw)" style="stroke:#A80036;stroke-width:1.0;"/><path d="M653,6 L653,16 L663,16 L653,6 " fill="#FFFFF0" style="stroke:#A80036;stroke-width:1.0;"/><text fill="#000000" font-family="sans-serif" font-size="13" lengthAdjust="spacing" textLength="198" x="450" y="24">The developer can add one or more</text><text fill="#000000" font-family="sans-serif" font-size="13" lengthAdjust="spacing" textLength="124" x="450" y="39.6">functions to the library</text><!--MD5=[e1ee8a1406dac2177e749149d0aacc22]
link GMN23 to cAndA--><path d="M233.5,222.94 C233.5,217.125 233.5,211.31 233.5,205.495 C233.5,202.5875 233.5,199.68 233.5,196.7725 C233.5,196.4091 233.5,196.0456 233.5,195.6822 C233.5,195.6368 233.5,195.5913 233.5,195.5459 " fill="none" id="GMN23-cAndA" style="stroke:#A80036;stroke-width:1.0;stroke-dasharray:7.0,7.0;"/><!--MD5=[8536c63625922c2b366000beb4c2d5d9]
link cAndA to GMN26--><path d="M284.6617,195.5206 C285.0166,195.5793 285.3724,195.6382 285.729,195.6973 C286.4424,195.8154 287.1595,195.9343 287.8799,196.054 C293.6436,197.0116 299.6248,198.0174 305.6892,199.0539 C317.8181,201.1269 330.28,203.3225 342,205.5 C366.11,209.98 391.72,215 416.47,219.98 " fill="none" id="cAndA-GMN26" style="stroke:#A80036;stroke-width:1.0;stroke-dasharray:7.0,7.0;"/><!--MD5=[0f8b7e88b556c29e5141b80afdc7c98c]
link createLibrary to addFunction--><path d="M296.57,133.5 C326.54,133.5 363.95,133.5 400.84,133.5 " fill="none" id="createLibrary-to-addFunction" style="stroke:#A80036;stroke-width:1.0;"/><polygon fill="#A80036" points="406.27,133.5,397.27,129.5,401.27,133.5,397.27,137.5,406.27,133.5" style="stroke:#A80036;stroke-width:1.0;"/><!--MD5=[fc5f50e29d813ac1059901a62aacd44d]
link user to createLibrary--><path d="M65,133.5 C91.21,133.5 131.08,133.5 165.35,133.5 " fill="none" id="user-to-createLibrary" style="stroke:#A80036;stroke-width:1.0;"/><polygon fill="#A80036" points="170.37,133.5,161.37,129.5,165.37,133.5,161.37,137.5,170.37,133.5" style="stroke:#A80036;stroke-width:1.0;"/><!--MD5=[9ca99da250320f6b42d476613d9de75d]
link addFunction to createN1QL--><path d="M700.74,133.5 C720.19,133.5 740.07,133.5 759.36,133.5 " fill="none" id="addFunction-to-createN1QL" style="stroke:#A80036;stroke-width:1.0;"/><polygon fill="#A80036" points="764.79,133.5,755.79,129.5,759.79,133.5,755.79,137.5,764.79,133.5" style="stroke:#A80036;stroke-width:1.0;"/><!--MD5=[17e3491328fc727aa43e10b5d43d5bdc]
link createN1QL to end--><path d="M1031.15,133.5 C1060.78,133.5 1088.01,133.5 1103.54,133.5 " fill="none" id="createN1QL-to-end" style="stroke:#A80036;stroke-width:1.0;"/><polygon fill="#A80036" points="1108.72,133.5,1099.72,129.5,1103.72,133.5,1099.72,137.5,1108.72,133.5" style="stroke:#A80036;stroke-width:1.0;"/><!--MD5=[9a76deb4df45d67a4b7768cdd68574d5]
@startuml
skinparam ComponentStyle rectangle
skinparam ActorStyle awesome

left to right direction

actor "developer" as user

note top of cAndA #Ivory
  The library and the first function
  are usually added in the same step.
end note

note right of cAndA #Ivory
  The library can be created as globally accessible
  across the cluster, or it can be set to be accessible
  by users with access to a bucket/scope.
end note

frame "Create library and add first function" as cAndA {
  [(1) Create library] as createLibrary
  [(2) Add the JavaScript function to the library] as addFunction
  createLibrary  - -> addFunction
}

user - -> createLibrary
[(3) Create N1QL User-Defined Function] as createN1QL

addFunction - -> createN1QL
createN1QL - ->() end

note top of addFunction #Ivory
  The developer can add one or more
  functions to the library
end note
@enduml

PlantUML version 1.2021.16(Wed Dec 08 17:25:22 GMT 2021)
(GPL source distribution)
Java Runtime: OpenJDK Runtime Environment
JVM: OpenJDK 64-Bit Server VM
Default Encoding: UTF-8
Language: en
Country: US
--></g></svg>