<?xml version="1.0" encoding="UTF-8" standalone="no"?><svg xmlns="http://www.w3.org/2000/svg" xmlns:xlink="http://www.w3.org/1999/xlink" contentScriptType="application/ecmascript" contentStyleType="text/css" height="568px" preserveAspectRatio="none" style="width:990px;height:568px;background:#FFFFFF;" version="1.1" viewBox="0 0 990 568" width="990px" zoomAndPan="magnify"><defs><filter height="300%" id="f3ni7secuqz2h" width="300%" x="-1" y="-1"><feGaussianBlur result="blurOut" stdDeviation="2.0"/><feColorMatrix in="blurOut" result="blurOut2" type="matrix" values="0 0 0 0 0 0 0 0 0 0 0 0 0 0 0 0 0 0 .4 0"/><feOffset dx="4.0" dy="4.0" in="blurOut2" result="blurOut3"/><feBlend in="SourceGraphic" in2="blurOut3" mode="normal"/></filter></defs><g><!--MD5=[cd2d2a69136bcb457c777d7f0a388268]
cluster MyLibrary--><polygon fill="#FFFFFF" filter="url(#f3ni7secuqz2h)" points="332,440,406,440,413,462.7999,597,462.7999,597,561,332,561,332,440" style="stroke:#000000;stroke-width:1.5;"/><line style="stroke:#000000;stroke-width:1.5;" x1="332" x2="413" y1="462.7999" y2="462.7999"/><text fill="#000000" font-family="sans-serif" font-size="14" font-weight="bold" lengthAdjust="spacing" textLength="68" x="336" y="455.9999">MyLibrary</text><!--MD5=[63955b8f5af8bd25e363284f268579d0]
entity getBusinessDays--><polygon fill="#F8F8F8" filter="url(#f3ni7secuqz2h)" points="375.5,483,375.5,536.5999,572.5,536.5999,572.5,493,562.5,483,375.5,483" style="stroke:#000000;stroke-width:1.5;"/><path d="M562.5,483 L562.5,493 L572.5,493 " fill="#F8F8F8" style="stroke:#000000;stroke-width:1.5;"/><text fill="#000000" font-family="sans-serif" font-size="14" lengthAdjust="spacing" textLength="173" x="385.5" y="506.9999">getBusinessDays(startDate,</text><text fill="#000000" font-family="sans-serif" font-size="14" lengthAdjust="spacing" textLength="57" x="385.5" y="523.7999">endDate)</text><!--MD5=[8fc3522a43f8c7199df5e09e5bb0188e]
entity user--><ellipse cx="340" cy="228.5" fill="#F8F8F8" filter="url(#f3ni7secuqz2h)" rx="8" ry="8" style="stroke:#383838;stroke-width:1.5;"/><path d="M340,236.5 L340,263.5 M327,244.5 L353,244.5 M340,263.5 L327,278.5 M340,263.5 L353,278.5 " fill="none" filter="url(#f3ni7secuqz2h)" style="stroke:#383838;stroke-width:1.5;"/><text fill="#000000" font-family="sans-serif" font-size="14" lengthAdjust="spacing" textLength="27" x="326.5" y="297.9999">user</text><!--MD5=[2975947dbd53e11d08a72608f6781d9e]
entity cluster--><polygon fill="#F8F8F8" filter="url(#f3ni7secuqz2h)" points="515.5,16,525.5,6,670.5,6,670.5,42.7999,660.5,52.7999,515.5,52.7999,515.5,16" style="stroke:#000000;stroke-width:1.5;"/><line style="stroke:#000000;stroke-width:1.5;" x1="660.5" x2="670.5" y1="16" y2="6"/><line style="stroke:#000000;stroke-width:1.5;" x1="515.5" x2="660.5" y1="16" y2="16"/><line style="stroke:#000000;stroke-width:1.5;" x1="660.5" x2="660.5" y1="16" y2="52.7999"/><text fill="#000000" font-family="sans-serif" font-size="14" lengthAdjust="spacing" textLength="115" x="530.5" y="39.9999">Couchbase cluster</text><!--MD5=[e987a9053741ca611bbb00ccd0372f5a]
entity bucket--><path d="M562,123 C562,113 593,113 593,113 C593,113 624,113 624,123 L624,148.7999 C624,158.7999 593,158.7999 593,158.7999 C593,158.7999 562,158.7999 562,148.7999 L562,123 " fill="#F8F8F8" filter="url(#f3ni7secuqz2h)" style="stroke:#000000;stroke-width:1.5;"/><path d="M562,123 C562,133 593,133 593,133 C593,133 624,133 624,123 " fill="none" style="stroke:#000000;stroke-width:1.5;"/><text fill="#000000" font-family="sans-serif" font-size="14" lengthAdjust="spacing" textLength="42" x="572" y="150.9999">Bucket</text><!--MD5=[f8e745406a4437ba9dd668c2fc83629b]
entity inventory--><rect fill="#F8F8F8" filter="url(#f3ni7secuqz2h)" height="36.7999" style="stroke:#000000;stroke-width:1.5;" width="119" x="459.5" y="241.5"/><text fill="#000000" font-family="sans-serif" font-size="14" lengthAdjust="spacing" textLength="99" x="469.5" y="265.4999">Inventory Scope</text><!--MD5=[8084ad898ab70d49b28a9beceff76d52]
entity tenant--><rect fill="#F8F8F8" filter="url(#f3ni7secuqz2h)" height="36.7999" style="stroke:#000000;stroke-width:1.5;" width="106" x="614" y="241.5"/><text fill="#000000" font-family="sans-serif" font-size="14" lengthAdjust="spacing" textLength="86" x="624" y="265.4999">Tenant Scope</text><!--MD5=[e8144009250fefa8de7ab17e8fe20380]
entity collection--><polygon fill="#F8F8F8" filter="url(#f3ni7secuqz2h)" points="687.5,361,733.5,361,740.5,382,776.5,382,776.5,415.7999,687.5,415.7999,687.5,361" style="stroke:#000000;stroke-width:1.5;"/><line style="stroke:#000000;stroke-width:1.5;" x1="687.5" x2="740.5" y1="382" y2="382"/><text fill="#000000" font-family="sans-serif" font-size="14" lengthAdjust="spacing" textLength="59" x="697.5" y="402.9999">Collection</text><!--MD5=[ab1e5baf85ed143b76d3e76a48078bed]
entity document1--><polygon fill="#F8F8F8" filter="url(#f3ni7secuqz2h)" points="621,491.5,621,528.2999,715,528.2999,715,501.5,705,491.5,621,491.5" style="stroke:#000000;stroke-width:1.5;"/><path d="M705,491.5 L705,501.5 L715,501.5 " fill="#F8F8F8" style="stroke:#000000;stroke-width:1.5;"/><text fill="#000000" font-family="sans-serif" font-size="14" lengthAdjust="spacing" textLength="74" x="631" y="515.4999">Document 1</text><!--MD5=[dd1bebfa84e2488b3127885c5b41e328]
entity document2--><polygon fill="#F8F8F8" filter="url(#f3ni7secuqz2h)" points="750,491.5,750,528.2999,844,528.2999,844,501.5,834,491.5,750,491.5" style="stroke:#000000;stroke-width:1.5;"/><path d="M834,491.5 L834,501.5 L844,501.5 " fill="#F8F8F8" style="stroke:#000000;stroke-width:1.5;"/><text fill="#000000" font-family="sans-serif" font-size="14" lengthAdjust="spacing" textLength="74" x="760" y="515.4999">Document 2</text><!--MD5=[a05b76816b6fc3abd39e436261e75b4c]
entity document3--><polygon fill="#F8F8F8" filter="url(#f3ni7secuqz2h)" points="879,491.5,879,528.2999,973,528.2999,973,501.5,963,491.5,879,491.5" style="stroke:#000000;stroke-width:1.5;"/><path d="M963,491.5 L963,501.5 L973,501.5 " fill="#F8F8F8" style="stroke:#000000;stroke-width:1.5;"/><text fill="#000000" font-family="sans-serif" font-size="14" lengthAdjust="spacing" textLength="74" x="889" y="515.4999">Document 3</text><path d="M6,231.5 L6,288.3 A0,0 0 0 0 6,288.3 L290,288.3 A0,0 0 0 0 290,288.3 L290,264 L325.19,260 L290,256 L290,241.5 L280,231.5 L6,231.5 A0,0 0 0 0 6,231.5 " fill="#EBEBEB" filter="url(#f3ni7secuqz2h)" style="stroke:#383838;stroke-width:1.0;"/><path d="M280,231.5 L280,241.5 L290,241.5 L280,231.5 " fill="#EBEBEB" style="stroke:#383838;stroke-width:1.0;"/><text fill="#000000" font-family="sans-serif" font-size="13" lengthAdjust="spacing" textLength="263" x="12" y="249.5">User can access the getBusinessDays function</text><text fill="#000000" font-family="sans-serif" font-size="13" lengthAdjust="spacing" textLength="142" x="12" y="265.1">as long as s/he is working</text><text fill="#000000" font-family="sans-serif" font-size="13" lengthAdjust="spacing" textLength="205" x="12" y="280.7">inside the '"Inventory Scope" context</text><!--MD5=[281524e9f32be153eff0ea24a8460cc1]
link cluster to bucket--><path codeLine="24" d="M593,53.17 C593,70.82 593,95.18 593,112.73 " fill="none" id="cluster-bucket" style="stroke:#383838;stroke-width:1.0;"/><!--MD5=[35428efcf9dc7c16942b9d3811a6a060]
link bucket to inventory--><path codeLine="25" d="M579.6,159.09 C565.27,182.71 542.84,219.69 529.66,241.42 " fill="none" id="bucket-inventory" style="stroke:#383838;stroke-width:1.0;"/><!--MD5=[49a699f46bf815af491dfd6da0cb6b54]
link bucket to tenant--><path codeLine="26" d="M606.4,159.09 C620.73,182.71 643.16,219.69 656.34,241.42 " fill="none" id="bucket-tenant" style="stroke:#383838;stroke-width:1.0;"/><!--MD5=[de740f467c584e4f51814643f6222db6]
link inventory to collection--><path codeLine="27" d="M548.62,278.59 C584.62,299.97 645.74,336.27 687.44,361.03 " fill="none" id="inventory-collection" style="stroke:#383838;stroke-width:1.0;"/><!--MD5=[ab43a1f600bfb89b9c5121b3602da514]
link collection to document1--><path codeLine="28" d="M717.8,416.02 C705.5,438.99 688.05,471.56 677.41,491.43 " fill="none" id="collection-document1" style="stroke:#383838;stroke-width:1.0;"/><!--MD5=[93f8c9cb5046ebd87d3059498af61558]
link collection to document2--><path codeLine="29" d="M746.43,416.02 C758.92,438.99 776.63,471.56 787.44,491.43 " fill="none" id="collection-document2" style="stroke:#383838;stroke-width:1.0;"/><!--MD5=[fb180569bd3efdcd43513d540660e130]
link collection to document3--><path codeLine="30" d="M776.56,393.93 C803.18,398.29 836.62,406.92 862,424 C887.44,441.12 906.8,471.78 917.26,491.22 " fill="none" id="collection-document3" style="stroke:#383838;stroke-width:1.0;"/><!--MD5=[01098f42ebd4b2f4dbf3213822a94e7a]
link inventory to MyLibrary--><path codeLine="32" d="M501.27,278.8 C460.11,320.17 361.4,419.59 359,424 C356.7613,428.1188 354.7861,432.4864 353.0435,436.9823 C352.8257,437.5443 352.6115,438.1083 352.4009,438.674 C352.2956,438.9569 352.1912,439.2402 352.0876,439.5239 C352.0359,439.6658 351.9843,439.8078 351.933,439.9498 " fill="none" id="inventory-MyLibrary" style="stroke:#383838;stroke-width:1.0;"/><!--MD5=[3133cdd169f8ee8216b1fd5214703b88]
link user to MyLibrary--><path codeLine="34" d="M340,301.12 C340,335.665 340,386.5625 340,429.3475 C340,432.0216 340,434.6639 340,437.2686 C340,437.9198 340,438.5686 340,439.215 " fill="none" id="user-to-MyLibrary" style="stroke:#383838;stroke-width:1.0;"/><polygon fill="#383838" points="340,439.215,344,430.215,340,434.215,336,430.215,340,439.215" style="stroke:#383838;stroke-width:1.0;"/><!--MD5=[b41c991a8fe4cc64e63de0ddff5fa42b]
@startuml
skinparam monochrome true
allow_mixing

package MyLibrary {
   file "getBusinessDays(startDate, \nendDate)" as getBusinessDays
}

actor "user" as user

node "Couchbase cluster" as cluster

database "Bucket" as bucket

rectangle "Inventory Scope" as inventory
rectangle "Tenant Scope" as tenant

folder "Collection" as collection


file "Document 1" as document1
file "Document 2" as document2
file "Document 3" as document3

cluster - - bucket
bucket - - inventory
bucket - - tenant
inventory - - collection
collection - - document1
collection - - document2
collection - - document3

inventory - - - MyLibrary

user - - -> MyLibrary

note left of user
  User can access the getBusinessDays function
  as long as s/he is working
  inside the '"Inventory Scope" context
end note
@enduml

PlantUML version 1.2021.16(Wed Dec 08 17:25:22 GMT 2021)
(GPL source distribution)
Java Runtime: OpenJDK Runtime Environment
JVM: OpenJDK 64-Bit Server VM
Default Encoding: UTF-8
Language: en
Country: US
--></g></svg>