<?xml version="1.0" encoding="UTF-8" standalone="no"?><svg xmlns="http://www.w3.org/2000/svg" xmlns:xlink="http://www.w3.org/1999/xlink" contentScriptType="application/ecmascript" contentStyleType="text/css" height="531px" preserveAspectRatio="none" style="width:558px;height:531px;background:#FFFFFF;" version="1.1" viewBox="0 0 558 531" width="558px" zoomAndPan="magnify"><defs><filter height="300%" id="f2ey29dvvp5ma" width="300%" x="-1" y="-1"><feGaussianBlur result="blurOut" stdDeviation="2.0"/><feColorMatrix in="blurOut" result="blurOut2" type="matrix" values="0 0 0 0 0 0 0 0 0 0 0 0 0 0 0 0 0 0 .4 0"/><feOffset dx="4.0" dy="4.0" in="blurOut2" result="blurOut3"/><feBlend in="SourceGraphic" in2="blurOut3" mode="normal"/></filter></defs><g><!--MD5=[cd2d2a69136bcb457c777d7f0a388268]
cluster MyLibrary--><polygon fill="#FFFFFF" filter="url(#f2ey29dvvp5ma)" points="276.5,403,351.5,403,358.5,425.7999,541.5,425.7999,541.5,524,276.5,524,276.5,403" style="stroke:#000000;stroke-width:1.5;"/><line style="stroke:#000000;stroke-width:1.5;" x1="276.5" x2="358.5" y1="425.7999" y2="425.7999"/><text fill="#000000" font-family="sans-serif" font-size="14" font-weight="bold" lengthAdjust="spacing" textLength="69" x="280.5" y="418.9999">my-library</text><!--MD5=[63955b8f5af8bd25e363284f268579d0]
entity getBusinessDays--><polygon fill="#FEFECE" filter="url(#f2ey29dvvp5ma)" points="320,446,320,499.5999,517,499.5999,517,456,507,446,320,446" style="stroke:#000000;stroke-width:1.5;"/><path d="M507,446 L507,456 L517,456 " fill="#FEFECE" style="stroke:#000000;stroke-width:1.5;"/><text fill="#000000" font-family="sans-serif" font-size="14" lengthAdjust="spacing" textLength="173" x="330" y="469.9999">getBusinessDays(startDate,</text><text fill="#000000" font-family="sans-serif" font-size="14" lengthAdjust="spacing" textLength="57" x="330" y="486.7999">endDate)</text><!--MD5=[8fc3522a43f8c7199df5e09e5bb0188e]
entity user--><ellipse cx="162.5" cy="450.5" fill="#FEFECE" filter="url(#f2ey29dvvp5ma)" rx="16" ry="16" style="stroke:#A80036;stroke-width:1.5;"/><path d="M162.5,470.5 C166.5,470.5 169.5,470.5 173.5,466.5 C181.5,466.5 189.5,474.5 189.5,482.5 L189.5,486.5 C189.5,490.5 185.5,494.5 181.5,494.5 L143.5,494.5 C139.5,494.5 135.5,490.5 135.5,486.5 L135.5,482.5 C135.5,474.5 143.5,466.5 151.5,466.5 C155.5,470.5 158.5,470.5 162.5,470.5 " fill="#FEFECE" filter="url(#f2ey29dvvp5ma)" style="stroke:#A80036;stroke-width:1.5;"/><text fill="#000000" font-family="sans-serif" font-size="14" lengthAdjust="spacing" textLength="27" x="149" y="509.9999">user</text><!--MD5=[2975947dbd53e11d08a72608f6781d9e]
entity cluster--><polygon fill="#FEFECE" filter="url(#f2ey29dvvp5ma)" points="185,16,195,6,340,6,340,42.7999,330,52.7999,185,52.7999,185,16" style="stroke:#000000;stroke-width:1.5;"/><line style="stroke:#000000;stroke-width:1.5;" x1="330" x2="340" y1="16" y2="6"/><line style="stroke:#000000;stroke-width:1.5;" x1="185" x2="330" y1="16" y2="16"/><line style="stroke:#000000;stroke-width:1.5;" x1="330" x2="330" y1="16" y2="52.7999"/><text fill="#000000" font-family="sans-serif" font-size="14" lengthAdjust="spacing" textLength="115" x="200" y="39.9999">Couchbase cluster</text><!--MD5=[e987a9053741ca611bbb00ccd0372f5a]
entity bucket--><path d="M211,123 C211,113 262.5,113 262.5,113 C262.5,113 314,113 314,123 L314,148.7999 C314,158.7999 262.5,158.7999 262.5,158.7999 C262.5,158.7999 211,158.7999 211,148.7999 L211,123 " fill="#FEFECE" filter="url(#f2ey29dvvp5ma)" style="stroke:#000000;stroke-width:1.5;"/><path d="M211,123 C211,133 262.5,133 262.5,133 C262.5,133 314,133 314,123 " fill="none" style="stroke:#000000;stroke-width:1.5;"/><text fill="#000000" font-family="sans-serif" font-size="14" lengthAdjust="spacing" textLength="83" x="221" y="150.9999">travel-sample</text><!--MD5=[f8e745406a4437ba9dd668c2fc83629b]
entity inventory--><rect fill="#FEFECE" filter="url(#f2ey29dvvp5ma)" height="36.7999" style="stroke:#000000;stroke-width:1.5;" width="76" x="276.5" y="219"/><text fill="#000000" font-family="sans-serif" font-size="14" lengthAdjust="spacing" textLength="56" x="286.5" y="242.9999">inventory</text><!--MD5=[8084ad898ab70d49b28a9beceff76d52]
entity tenant--><rect fill="#FEFECE" filter="url(#f2ey29dvvp5ma)" height="36.7999" style="stroke:#000000;stroke-width:1.5;" width="59" x="182" y="219"/><text fill="#000000" font-family="sans-serif" font-size="14" lengthAdjust="spacing" textLength="39" x="192" y="242.9999">tenant</text><path d="M6,316 L6,372.8 A0,0 0 0 0 6,372.8 L135.86,372.8 L153.51,432.79 L143.86,372.8 L261,372.8 A0,0 0 0 0 261,372.8 L261,326 L251,316 L6,316 A0,0 0 0 0 6,316 " fill="#FFFFF0" filter="url(#f2ey29dvvp5ma)" style="stroke:#A80036;stroke-width:1.0;"/><path d="M251,316 L251,326 L261,326 L251,316 " fill="#FFFFF0" style="stroke:#A80036;stroke-width:1.0;"/><text fill="#000000" font-family="sans-serif" font-size="13" lengthAdjust="spacing" textLength="234" x="12" y="334">can access the getBusinessDays function</text><text fill="#000000" font-family="sans-serif" font-size="13" lengthAdjust="spacing" textLength="142" x="12" y="349.6">as long as s/he is working</text><text fill="#000000" font-family="sans-serif" font-size="13" lengthAdjust="spacing" textLength="205" x="12" y="365.2">inside the '"Inventory Scope" context</text><path d="M388,224.5 L388,233.5 L352.77,237.5 L388,241.5 L388,250.1 A0,0 0 0 0 388,250.1 L443,250.1 A0,0 0 0 0 443,250.1 L443,234.5 L433,224.5 L388,224.5 A0,0 0 0 0 388,224.5 " fill="#FFFFF0" filter="url(#f2ey29dvvp5ma)" style="stroke:#A80036;stroke-width:1.0;"/><path d="M433,224.5 L433,234.5 L443,234.5 L433,224.5 " fill="#FFFFF0" style="stroke:#A80036;stroke-width:1.0;"/><text fill="#000000" font-family="sans-serif" font-size="13" lengthAdjust="spacing" textLength="34" x="394" y="242.5">scope</text><path d="M92,224.5 L92,250.1 A0,0 0 0 0 92,250.1 L147,250.1 A0,0 0 0 0 147,250.1 L147,242.5 L181.85,237.5 L147,234.5 L147,234.5 L137,224.5 L92,224.5 A0,0 0 0 0 92,224.5 " fill="#FFFFF0" filter="url(#f2ey29dvvp5ma)" style="stroke:#A80036;stroke-width:1.0;"/><path d="M137,224.5 L137,234.5 L147,234.5 L137,224.5 " fill="#FFFFF0" style="stroke:#A80036;stroke-width:1.0;"/><text fill="#000000" font-family="sans-serif" font-size="13" lengthAdjust="spacing" textLength="34" x="98" y="242.5">scope</text><!--MD5=[281524e9f32be153eff0ea24a8460cc1]
link cluster to bucket--><path codeLine="18" d="M262.5,53.17 C262.5,70.82 262.5,95.18 262.5,112.73 " fill="none" id="cluster-bucket" style="stroke:#A80036;stroke-width:1.0;"/><!--MD5=[35428efcf9dc7c16942b9d3811a6a060]
link bucket to inventory--><path codeLine="19" d="M274.04,159.08 C283.44,177.06 296.52,202.1 305.24,218.79 " fill="none" id="bucket-inventory" style="stroke:#A80036;stroke-width:1.0;"/><!--MD5=[49a699f46bf815af491dfd6da0cb6b54]
link bucket to tenant--><path codeLine="20" d="M251.18,159.08 C241.97,177.06 229.13,202.1 220.58,218.79 " fill="none" id="bucket-tenant" style="stroke:#A80036;stroke-width:1.0;"/><!--MD5=[01098f42ebd4b2f4dbf3213822a94e7a]
link inventory to MyLibrary--><path codeLine="22" d="M312.25,256.05 C308.815,282.78 302.04,335.51 296.045,382.1713 C295.2956,388.0039 294.5584,393.7417 293.8415,399.3221 C293.7519,400.0197 293.6626,400.7147 293.5736,401.4072 C293.5291,401.7535 293.4847,402.0991 293.4404,402.4441 " fill="none" id="inventory-MyLibrary" style="stroke:#A80036;stroke-width:1.0;"/><!--MD5=[3133cdd169f8ee8216b1fd5214703b88]
link user to MyLibrary--><path codeLine="24" d="M191.09,473 C206.6,473 222.1075,473 237.615,473 C245.3688,473 253.1225,473 260.8766,473 C264.7536,473 268.6307,473 272.5079,473 C273.4772,473 274.4466,473 275.4159,473 C275.6582,473 275.9005,473 276.1429,473 " fill="none" id="user-to-MyLibrary" style="stroke:#A80036;stroke-width:1.0;"/><polygon fill="#A80036" points="276.1429,473,267.1429,469,271.1429,473,267.1429,477,276.1429,473" style="stroke:#A80036;stroke-width:1.0;"/><!--MD5=[91ac2c51d3e245e9ea6fcbb64155925e]
@startuml
allow_mixing

skinparam actorStyle Awesome
package "my-library" as MyLibrary {
   file "getBusinessDays(startDate, \nendDate)" as getBusinessDays
}

actor "user" as user

node "Couchbase cluster" as cluster

database "travel-sample" as bucket

rectangle "inventory" as inventory
rectangle "tenant" as tenant


cluster - - bucket
bucket - - inventory
bucket - - tenant

inventory - - - MyLibrary

user - - -right- - -> MyLibrary

note top of user #Ivory
  can access the getBusinessDays function
  as long as s/he is working
  inside the '"Inventory Scope" context
end note

note right of inventory #Ivory
  scope
end note

note left of tenant #Ivory
  scope
end note
@enduml

PlantUML version 1.2021.16(Wed Dec 08 17:25:22 GMT 2021)
(GPL source distribution)
Java Runtime: OpenJDK Runtime Environment
JVM: OpenJDK 64-Bit Server VM
Default Encoding: UTF-8
Language: en
Country: US
--></g></svg>