<?xml version="1.0" encoding="UTF-8" standalone="no"?><svg xmlns="http://www.w3.org/2000/svg" xmlns:xlink="http://www.w3.org/1999/xlink" contentStyleType="text/css" height="326px" preserveAspectRatio="none" style="width:563px;height:326px;background:#FFFFFF;" version="1.1" viewBox="0 0 563 326" width="563px" zoomAndPan="magnify"><defs/><g><!--cluster Database--><g id="cluster_Database"><path d="M6,16 C6,6 276,6 276,6 C276,6 546,6 546,16 L546,299 C546,309 276,309 276,309 C276,309 6,309 6,299 L6,16 " fill="none" style="stroke:#181818;stroke-width:1.0;"/><path d="M6,16 C6,26 276,26 276,26 C276,26 546,26 546,16 " fill="none" style="stroke:#181818;stroke-width:1.0;"/><text fill="#000000" font-family="sans-serif" font-size="14" font-weight="bold" lengthAdjust="spacing" textLength="73" x="239.5" y="40.9951">Database</text></g><!--cluster Bucket 2--><g id="cluster_Bucket 2"><rect fill="none" height="221" rx="35" ry="35" style="stroke:#181818;stroke-width:1.0;" width="234" x="288" y="64"/><text fill="#000000" font-family="sans-serif" font-size="14" font-weight="bold" lengthAdjust="spacing" textLength="69" x="370.5" y="83.9951">Bucket 2</text></g><!--cluster Scope 2--><g id="cluster_Scope 2"><path d="M314.5,107 L379.5,107 A3.75,3.75 0 0 1 382,109.5 L389,129.2969 L495.5,129.2969 A2.5,2.5 0 0 1 498,131.7969 L498,258.5 A2.5,2.5 0 0 1 495.5,261 L314.5,261 A2.5,2.5 0 0 1 312,258.5 L312,109.5 A2.5,2.5 0 0 1 314.5,107 " fill="none" style="stroke:#000000;stroke-width:1.5;"/><line style="stroke:#000000;stroke-width:1.5;" x1="312" x2="389" y1="129.2969" y2="129.2969"/><text fill="#000000" font-family="sans-serif" font-size="14" font-weight="bold" lengthAdjust="spacing" textLength="64" x="316" y="121.9951">Scope 2</text></g><!--cluster Collection 2--><g id="cluster_Collection 2"><path d="M338.5,150 L432.5,150 A3.75,3.75 0 0 1 435,152.5 L442,172.2969 L471.5,172.2969 A2.5,2.5 0 0 1 474,174.7969 L474,234.5 A2.5,2.5 0 0 1 471.5,237 L338.5,237 A2.5,2.5 0 0 1 336,234.5 L336,152.5 A2.5,2.5 0 0 1 338.5,150 " fill="none" style="stroke:#000000;stroke-width:1.5;"/><line style="stroke:#000000;stroke-width:1.5;" x1="336" x2="442" y1="172.2969" y2="172.2969"/><text fill="#000000" font-family="sans-serif" font-size="14" font-weight="bold" lengthAdjust="spacing" textLength="93" x="340" y="164.9951">Collection 2</text></g><!--cluster Bucket 1--><g id="cluster_Bucket 1"><rect fill="none" height="221" rx="35" ry="35" style="stroke:#181818;stroke-width:1.0;" width="234" x="30" y="64"/><text fill="#000000" font-family="sans-serif" font-size="14" font-weight="bold" lengthAdjust="spacing" textLength="69" x="112.5" y="83.9951">Bucket 1</text></g><!--cluster Scope 1--><g id="cluster_Scope 1"><path d="M56.5,107 L121.5,107 A3.75,3.75 0 0 1 124,109.5 L131,129.2969 L237.5,129.2969 A2.5,2.5 0 0 1 240,131.7969 L240,258.5 A2.5,2.5 0 0 1 237.5,261 L56.5,261 A2.5,2.5 0 0 1 54,258.5 L54,109.5 A2.5,2.5 0 0 1 56.5,107 " fill="none" style="stroke:#000000;stroke-width:1.5;"/><line style="stroke:#000000;stroke-width:1.5;" x1="54" x2="131" y1="129.2969" y2="129.2969"/><text fill="#000000" font-family="sans-serif" font-size="14" font-weight="bold" lengthAdjust="spacing" textLength="64" x="58" y="121.9951">Scope 1</text></g><!--cluster Collection 1--><g id="cluster_Collection 1"><path d="M80.5,150 L174.5,150 A3.75,3.75 0 0 1 177,152.5 L184,172.2969 L213.5,172.2969 A2.5,2.5 0 0 1 216,174.7969 L216,234.5 A2.5,2.5 0 0 1 213.5,237 L80.5,237 A2.5,2.5 0 0 1 78,234.5 L78,152.5 A2.5,2.5 0 0 1 80.5,150 " fill="none" style="stroke:#000000;stroke-width:1.5;"/><line style="stroke:#000000;stroke-width:1.5;" x1="78" x2="184" y1="172.2969" y2="172.2969"/><text fill="#000000" font-family="sans-serif" font-size="14" font-weight="bold" lengthAdjust="spacing" textLength="93" x="82" y="164.9951">Collection 1</text></g><!--entity Document 2--><g id="elem_Document 2"><path d="M352,187.5 L352,218.7969 A2.5,2.5 0 0 0 354.5,221.2969 L455.5,221.2969 A2.5,2.5 0 0 0 458,218.7969 L458,195 L448,185 L354.5,185 A2.5,2.5 0 0 0 352,187.5 " fill="#F1F1F1" style="stroke:#181818;stroke-width:0.5;"/><path d="M448,185 L448,192.5 A2.5,2.5 0 0 0 450.5,195 L458,195 " fill="#F1F1F1" style="stroke:#181818;stroke-width:0.5;"/><text fill="#000000" font-family="sans-serif" font-size="14" lengthAdjust="spacing" textLength="86" x="362" y="207.9951">Document 2</text></g><!--entity Document 1--><g id="elem_Document 1"><path d="M94,187.5 L94,218.7969 A2.5,2.5 0 0 0 96.5,221.2969 L197.5,221.2969 A2.5,2.5 0 0 0 200,218.7969 L200,195 L190,185 L96.5,185 A2.5,2.5 0 0 0 94,187.5 " fill="#F1F1F1" style="stroke:#181818;stroke-width:0.5;"/><path d="M190,185 L190,192.5 A2.5,2.5 0 0 0 192.5,195 L200,195 " fill="#F1F1F1" style="stroke:#181818;stroke-width:0.5;"/><text fill="#000000" font-family="sans-serif" font-size="14" lengthAdjust="spacing" textLength="86" x="104" y="207.9951">Document 1</text></g><!--SRC=[IqaiIKnAB4vLS84nghaKeA2u9ByeCJrLGScfD3axjKJ1I0b94WJIydDIKeiKb8AJymjICQL1e20nEHjiXdD-JavgSabcVXvsXM3pCdE0AbtoaqjpK_D0zc6egkN2pgl5wMX3_8us9DRHXaGwsf1KHzS20000]--></g></svg>