<?xml version="1.0" encoding="UTF-8"?><svg xmlns="http://www.w3.org/2000/svg" width="1310" height="532" version="1.0" shape-rendering="geometricPrecision"><defs><filter id="shadowBlur" x="0" y="0" width="200%" height="200%"><feOffset in="SourceGraphic" dx="3.0003002" dy="3.0003002" result="offOut"></feOffset><feGaussianBlur in="offOut" stdDeviation="3"></feGaussianBlur></filter></defs><g stroke-width="1" stroke-linecap="square" stroke-linejoin="round"><rect x="0" y="0" width="1310" height="532" style="fill: #ffffff"></rect><path stroke="#969696" fill="#969696" filter="url(#shadowBlur)" d="M385.0 154.0 Q385.0 149.0 390.0 149.0 L1280.0 149.0 Q1285.0 149.0 1285.0 154.0 L1285.0 196.0 L1285.0 196.0 Q1285.0 201.0 1280.0 201.0 L390.0 201.0 L390.0 201.0 Q385.0 201.0 385.0 196.0 L385.0 154.0 z"></path><path stroke="#969696" fill="#969696" filter="url(#shadowBlur)" d="M715.0 98.0 Q715.0 93.0 720.0 93.0 L1280.0 93.0 Q1285.0 93.0 1285.0 98.0 L1285.0 140.0 L1285.0 140.0 Q1285.0 145.0 1280.0 145.0 L720.0 145.0 L720.0 145.0 Q715.0 145.0 715.0 140.0 L715.0 98.0 z"></path><path stroke="#969696" fill="#969696" filter="url(#shadowBlur)" d="M257.0 210.0 Q257.0 205.0 260.0 205.0 L720.0 205.0 Q723.0 205.0 723.0 210.0 L723.0 252.0 L723.0 252.0 Q723.0 259.0 720.0 259.0 L260.0 259.0 L260.0 259.0 Q257.0 259.0 257.0 252.0 L257.0 210.0 z"></path><path stroke="#969696" fill="#969696" filter="url(#shadowBlur)" d="M965.0 42.0 Q965.0 35.0 970.0 35.0 L1280.0 35.0 Q1285.0 35.0 1285.0 42.0 L1285.0 84.0 L1285.0 84.0 Q1285.0 89.0 1280.0 89.0 L970.0 89.0 L970.0 89.0 Q965.0 89.0 965.0 84.0 L965.0 42.0 z"></path><path stroke="#969696" fill="#969696" filter="url(#shadowBlur)" d="M25.0 210.0 Q25.0 203.0 30.0 203.0 L250.0 203.0 Q253.0 203.0 253.0 210.0 L253.0 252.0 L253.0 252.0 Q253.0 259.0 250.0 259.0 L30.0 259.0 L30.0 259.0 Q25.0 259.0 25.0 252.0 L25.0 210.0 z"></path><path stroke="#969696" fill="#969696" filter="url(#shadowBlur)" d="M25.0 308.0 Q25.0 301.0 30.0 301.0 L140.0 301.0 Q143.0 301.0 143.0 308.0 L143.0 350.0 L143.0 350.0 Q143.0 357.0 140.0 357.0 L30.0 357.0 L30.0 357.0 Q25.0 357.0 25.0 350.0 L25.0 308.0 z"></path><path stroke="#969696" fill="#969696" filter="url(#shadowBlur)" d="M257.0 308.0 Q257.0 301.0 260.0 301.0 L370.0 301.0 Q373.0 301.0 373.0 308.0 L373.0 350.0 L373.0 350.0 Q373.0 357.0 370.0 357.0 L260.0 357.0 L260.0 357.0 Q257.0 357.0 257.0 350.0 L257.0 308.0 z"></path><path stroke="#969696" fill="#969696" filter="url(#shadowBlur)" d="M377.0 308.0 Q377.0 301.0 380.0 301.0 L490.0 301.0 Q493.0 301.0 493.0 308.0 L493.0 350.0 L493.0 350.0 Q493.0 357.0 490.0 357.0 L380.0 357.0 L380.0 357.0 Q377.0 357.0 377.0 350.0 L377.0 308.0 z"></path><path stroke="#969696" fill="#969696" filter="url(#shadowBlur)" d="M607.0 308.0 Q607.0 301.0 610.0 301.0 L720.0 301.0 Q723.0 301.0 723.0 308.0 L723.0 350.0 L723.0 350.0 Q723.0 357.0 720.0 357.0 L610.0 357.0 L610.0 357.0 Q607.0 357.0 607.0 350.0 L607.0 308.0 z"></path><path stroke="#969696" fill="#969696" filter="url(#shadowBlur)" d="M727.0 308.0 Q727.0 301.0 730.0 301.0 L840.0 301.0 Q843.0 301.0 843.0 308.0 L843.0 350.0 L843.0 350.0 Q843.0 357.0 840.0 357.0 L730.0 357.0 L730.0 357.0 Q727.0 357.0 727.0 350.0 L727.0 308.0 z"></path><path stroke="#969696" fill="#969696" filter="url(#shadowBlur)" d="M847.0 308.0 Q847.0 301.0 850.0 301.0 L960.0 301.0 Q963.0 301.0 963.0 308.0 L963.0 350.0 L963.0 350.0 Q963.0 357.0 960.0 357.0 L850.0 357.0 L850.0 357.0 Q847.0 357.0 847.0 350.0 L847.0 308.0 z"></path><path stroke="#969696" fill="#969696" filter="url(#shadowBlur)" d="M967.0 308.0 Q967.0 301.0 970.0 301.0 L1080.0 301.0 Q1083.0 301.0 1083.0 308.0 L1083.0 350.0 L1083.0 350.0 Q1083.0 357.0 1080.0 357.0 L970.0 357.0 L970.0 357.0 Q967.0 357.0 967.0 350.0 L967.0 308.0 z"></path><path stroke="#969696" fill="#969696" filter="url(#shadowBlur)" d="M1087.0 308.0 Q1087.0 301.0 1090.0 301.0 L1200.0 301.0 Q1203.0 301.0 1203.0 308.0 L1203.0 350.0 L1203.0 350.0 Q1203.0 357.0 1200.0 357.0 L1090.0 357.0 L1090.0 357.0 Q1087.0 357.0 1087.0 350.0 L1087.0 308.0 z"></path><path stroke="#969696" fill="#969696" filter="url(#shadowBlur)" d="M147.0 308.0 Q147.0 301.0 150.0 301.0 L250.0 301.0 Q253.0 301.0 253.0 308.0 L253.0 350.0 L253.0 350.0 Q253.0 357.0 250.0 357.0 L150.0 357.0 L150.0 357.0 Q147.0 357.0 147.0 350.0 L147.0 308.0 z"></path><path stroke="#969696" fill="#969696" filter="url(#shadowBlur)" d="M497.0 308.0 Q497.0 301.0 500.0 301.0 L600.0 301.0 Q603.0 301.0 603.0 308.0 L603.0 350.0 L603.0 350.0 Q603.0 357.0 600.0 357.0 L500.0 357.0 L500.0 357.0 Q497.0 357.0 497.0 350.0 L497.0 308.0 z"></path><path stroke="#969696" fill="#969696" filter="url(#shadowBlur)" d="M727.0 210.0 Q727.0 205.0 730.0 205.0 L830.0 205.0 Q835.0 205.0 835.0 210.0 L835.0 252.0 L835.0 252.0 Q835.0 259.0 830.0 259.0 L730.0 259.0 L730.0 259.0 Q727.0 259.0 727.0 252.0 L727.0 210.0 z"></path><path stroke="#969696" fill="#969696" filter="url(#shadowBlur)" d="M1207.0 308.0 Q1207.0 301.0 1210.0 301.0 L1280.0 301.0 Q1285.0 301.0 1285.0 308.0 L1285.0 350.0 L1285.0 350.0 Q1285.0 357.0 1280.0 357.0 L1210.0 357.0 L1210.0 357.0 Q1207.0 357.0 1207.0 350.0 L1207.0 308.0 z"></path><path stroke="#969696" fill="#969696" filter="url(#shadowBlur)" d="M25.0 392.0 Q25.0 385.0 30.0 385.0 L70.0 385.0 Q75.0 385.0 75.0 392.0 L75.0 434.0 L75.0 434.0 Q75.0 441.0 70.0 441.0 L30.0 441.0 L30.0 441.0 Q25.0 441.0 25.0 434.0 L25.0 392.0 z"></path><path stroke="#969696" fill="#969696" filter="url(#shadowBlur)" d="M375.0 392.0 Q375.0 385.0 380.0 385.0 L420.0 385.0 Q425.0 385.0 425.0 392.0 L425.0 434.0 L425.0 434.0 Q425.0 441.0 420.0 441.0 L380.0 441.0 L380.0 441.0 Q375.0 441.0 375.0 434.0 L375.0 392.0 z"></path><path stroke="#000000" stroke-width="1.0" stroke-linecap="round" stroke-linejoin="round" fill="#bbeeaa" d="M385.0 154.0 Q385.0 149.0 390.0 149.0 L1280.0 149.0 Q1285.0 149.0 1285.0 154.0 L1285.0 196.0 L1285.0 196.0 Q1285.0 201.0 1280.0 201.0 L390.0 201.0 L390.0 201.0 Q385.0 201.0 385.0 196.0 L385.0 154.0 z"></path><path stroke="#000000" stroke-width="1.0" stroke-linecap="round" stroke-linejoin="round" fill="#bbeeaa" d="M715.0 98.0 Q715.0 93.0 720.0 93.0 L1280.0 93.0 Q1285.0 93.0 1285.0 98.0 L1285.0 140.0 L1285.0 140.0 Q1285.0 145.0 1280.0 145.0 L720.0 145.0 L720.0 145.0 Q715.0 145.0 715.0 140.0 L715.0 98.0 z"></path><path stroke="#000000" stroke-width="1.0" stroke-linecap="round" stroke-linejoin="round" fill="#bbeeaa" d="M257.0 210.0 Q257.0 205.0 260.0 205.0 L720.0 205.0 Q723.0 205.0 723.0 210.0 L723.0 252.0 L723.0 252.0 Q723.0 259.0 720.0 259.0 L260.0 259.0 L260.0 259.0 Q257.0 259.0 257.0 252.0 L257.0 210.0 z"></path><path stroke="#000000" stroke-width="1.0" stroke-linecap="round" stroke-linejoin="round" fill="#bbeeaa" d="M965.0 42.0 Q965.0 35.0 970.0 35.0 L1280.0 35.0 Q1285.0 35.0 1285.0 42.0 L1285.0 84.0 L1285.0 84.0 Q1285.0 89.0 1280.0 89.0 L970.0 89.0 L970.0 89.0 Q965.0 89.0 965.0 84.0 L965.0 42.0 z"></path><path stroke="#000000" stroke-width="1.0" stroke-linecap="round" stroke-linejoin="round" fill="#bbcc33" d="M25.0 210.0 Q25.0 203.0 30.0 203.0 L250.0 203.0 Q253.0 203.0 253.0 210.0 L253.0 252.0 L253.0 252.0 Q253.0 259.0 250.0 259.0 L30.0 259.0 L30.0 259.0 Q25.0 259.0 25.0 252.0 L25.0 210.0 z"></path><path stroke="#000000" stroke-width="1.0" stroke-linecap="round" stroke-linejoin="round" fill="#ffeebb" d="M25.0 308.0 Q25.0 301.0 30.0 301.0 L140.0 301.0 Q143.0 301.0 143.0 308.0 L143.0 350.0 L143.0 350.0 Q143.0 357.0 140.0 357.0 L30.0 357.0 L30.0 357.0 Q25.0 357.0 25.0 350.0 L25.0 308.0 z"></path><path stroke="#000000" stroke-width="1.0" stroke-linecap="round" stroke-linejoin="round" fill="#ffeebb" d="M257.0 308.0 Q257.0 301.0 260.0 301.0 L370.0 301.0 Q373.0 301.0 373.0 308.0 L373.0 350.0 L373.0 350.0 Q373.0 357.0 370.0 357.0 L260.0 357.0 L260.0 357.0 Q257.0 357.0 257.0 350.0 L257.0 308.0 z"></path><path stroke="#000000" stroke-width="1.0" stroke-linecap="round" stroke-linejoin="round" fill="#ffeebb" d="M377.0 308.0 Q377.0 301.0 380.0 301.0 L490.0 301.0 Q493.0 301.0 493.0 308.0 L493.0 350.0 L493.0 350.0 Q493.0 357.0 490.0 357.0 L380.0 357.0 L380.0 357.0 Q377.0 357.0 377.0 350.0 L377.0 308.0 z"></path><path stroke="#000000" stroke-width="1.0" stroke-linecap="round" stroke-linejoin="round" fill="#ffeebb" d="M607.0 308.0 Q607.0 301.0 610.0 301.0 L720.0 301.0 Q723.0 301.0 723.0 308.0 L723.0 350.0 L723.0 350.0 Q723.0 357.0 720.0 357.0 L610.0 357.0 L610.0 357.0 Q607.0 357.0 607.0 350.0 L607.0 308.0 z"></path><path stroke="#000000" stroke-width="1.0" stroke-linecap="round" stroke-linejoin="round" fill="#ffeebb" d="M727.0 308.0 Q727.0 301.0 730.0 301.0 L840.0 301.0 Q843.0 301.0 843.0 308.0 L843.0 350.0 L843.0 350.0 Q843.0 357.0 840.0 357.0 L730.0 357.0 L730.0 357.0 Q727.0 357.0 727.0 350.0 L727.0 308.0 z"></path><path stroke="#000000" stroke-width="1.0" stroke-linecap="round" stroke-linejoin="round" fill="#ffeebb" d="M847.0 308.0 Q847.0 301.0 850.0 301.0 L960.0 301.0 Q963.0 301.0 963.0 308.0 L963.0 350.0 L963.0 350.0 Q963.0 357.0 960.0 357.0 L850.0 357.0 L850.0 357.0 Q847.0 357.0 847.0 350.0 L847.0 308.0 z"></path><path stroke="#000000" stroke-width="1.0" stroke-linecap="round" stroke-linejoin="round" fill="#ffeebb" d="M967.0 308.0 Q967.0 301.0 970.0 301.0 L1080.0 301.0 Q1083.0 301.0 1083.0 308.0 L1083.0 350.0 L1083.0 350.0 Q1083.0 357.0 1080.0 357.0 L970.0 357.0 L970.0 357.0 Q967.0 357.0 967.0 350.0 L967.0 308.0 z"></path><path stroke="#000000" stroke-width="1.0" stroke-linecap="round" stroke-linejoin="round" fill="#ffeebb" d="M1087.0 308.0 Q1087.0 301.0 1090.0 301.0 L1200.0 301.0 Q1203.0 301.0 1203.0 308.0 L1203.0 350.0 L1203.0 350.0 Q1203.0 357.0 1200.0 357.0 L1090.0 357.0 L1090.0 357.0 Q1087.0 357.0 1087.0 350.0 L1087.0 308.0 z"></path><path stroke="#000000" stroke-width="1.0" stroke-linecap="round" stroke-linejoin="round" fill="#ffeebb" d="M147.0 308.0 Q147.0 301.0 150.0 301.0 L250.0 301.0 Q253.0 301.0 253.0 308.0 L253.0 350.0 L253.0 350.0 Q253.0 357.0 250.0 357.0 L150.0 357.0 L150.0 357.0 Q147.0 357.0 147.0 350.0 L147.0 308.0 z"></path><path stroke="#000000" stroke-width="1.0" stroke-linecap="round" stroke-linejoin="round" fill="#ffeebb" d="M497.0 308.0 Q497.0 301.0 500.0 301.0 L600.0 301.0 Q603.0 301.0 603.0 308.0 L603.0 350.0 L603.0 350.0 Q603.0 357.0 600.0 357.0 L500.0 357.0 L500.0 357.0 Q497.0 357.0 497.0 350.0 L497.0 308.0 z"></path><path stroke="#000000" stroke-width="1.0" stroke-linecap="round" stroke-linejoin="round" fill="#bbcc33" d="M727.0 210.0 Q727.0 205.0 730.0 205.0 L830.0 205.0 Q835.0 205.0 835.0 210.0 L835.0 252.0 L835.0 252.0 Q835.0 259.0 830.0 259.0 L730.0 259.0 L730.0 259.0 Q727.0 259.0 727.0 252.0 L727.0 210.0 z"></path><path stroke="#000000" stroke-width="1.0" stroke-linecap="round" stroke-linejoin="round" fill="#ffeebb" d="M1207.0 308.0 Q1207.0 301.0 1210.0 301.0 L1280.0 301.0 Q1285.0 301.0 1285.0 308.0 L1285.0 350.0 L1285.0 350.0 Q1285.0 357.0 1280.0 357.0 L1210.0 357.0 L1210.0 357.0 Q1207.0 357.0 1207.0 350.0 L1207.0 308.0 z"></path><path stroke="#000000" stroke-width="1.0" stroke-linecap="round" stroke-linejoin="round" fill="#bbeeaa" d="M25.0 392.0 Q25.0 385.0 30.0 385.0 L70.0 385.0 Q75.0 385.0 75.0 392.0 L75.0 434.0 L75.0 434.0 Q75.0 441.0 70.0 441.0 L30.0 441.0 L30.0 441.0 Q25.0 441.0 25.0 434.0 L25.0 392.0 z"></path><path stroke="#000000" stroke-width="1.0" stroke-linecap="round" stroke-linejoin="round" fill="#bbcc33" d="M375.0 392.0 Q375.0 385.0 380.0 385.0 L420.0 385.0 Q425.0 385.0 425.0 392.0 L425.0 434.0 L425.0 434.0 Q425.0 441.0 420.0 441.0 L380.0 441.0 L380.0 441.0 Q375.0 441.0 375.0 434.0 L375.0 392.0 z"></path><text x="1092" y="68" font-family="sans-serif" font-size="15" stroke="none" fill="#000000"><![CDATA[2.6]]></text><text x="992" y="124" font-family="sans-serif" font-size="15" stroke="none" fill="#000000"><![CDATA[2.5]]></text><text x="403" y="180" font-family="sans-serif" font-size="15" stroke="none" fill="#000000"><![CDATA[(3)]]></text><text x="842" y="180" font-family="sans-serif" font-size="15" stroke="none" fill="#000000"><![CDATA[2.4]]></text><text x="53" y="236" font-family="sans-serif" font-size="15" stroke="none" fill="#000000"><![CDATA[(1)]]></text><text x="492" y="236" font-family="sans-serif" font-size="15" stroke="none" fill="#000000"><![CDATA[2.3]]></text><text x="743" y="236" font-family="sans-serif" font-size="15" stroke="none" fill="#000000"><![CDATA[(2)]]></text><text x="47" y="334" font-family="sans-serif" font-size="15" stroke="none" fill="#000000"><![CDATA[1.18(4.5)]]></text><text x="157" y="334" font-family="sans-serif" font-size="15" stroke="none" fill="#000000"><![CDATA[1.19(4.6)]]></text><text x="267" y="334" font-family="sans-serif" font-size="15" stroke="none" fill="#000000"><![CDATA[1.20(4.7)]]></text><text x="387" y="334" font-family="sans-serif" font-size="15" stroke="none" fill="#000000"><![CDATA[1.21(4.8)]]></text><text x="507" y="334" font-family="sans-serif" font-size="15" stroke="none" fill="#000000"><![CDATA[1.22(4.9)]]></text><text x="617" y="334" font-family="sans-serif" font-size="15" stroke="none" fill="#000000"><![CDATA[1.23(4.10)]]></text><text x="737" y="334" font-family="sans-serif" font-size="15" stroke="none" fill="#000000"><![CDATA[1.24(4.11)]]></text><text x="857" y="334" font-family="sans-serif" font-size="15" stroke="none" fill="#000000"><![CDATA[1.25(4.12)]]></text><text x="977" y="334" font-family="sans-serif" font-size="15" stroke="none" fill="#000000"><![CDATA[1.26(4.13)]]></text><text x="1097" y="334" font-family="sans-serif" font-size="15" stroke="none" fill="#000000"><![CDATA[1.27(4.14)]]></text><text x="1222" y="334" font-family="sans-serif" font-size="15" stroke="none" fill="#000000"><![CDATA[1.28]]></text><text x="102" y="418" font-family="sans-serif" font-size="15" stroke="none" fill="#000000"><![CDATA[Fully supported]]></text><text x="444" y="418" font-family="sans-serif" font-size="15" stroke="none" fill="#000000"><![CDATA[Compatible]]></text><text x="20" y="474" font-family="sans-serif" font-size="15" stroke="none" fill="#000000"><![CDATA[(1) Operator 2.3 requires the Kubernetes apiextensions.k8s.io/v1 api (with set uniqueness)]]></text><text x="20" y="488" font-family="sans-serif" font-size="15" stroke="none" fill="#000000"><![CDATA[(2) Operator 2.3 will stop working at 1.25 as batch/v1beta1 and policy v1/beta1 are retired.]]></text><text x="20" y="502" font-family="sans-serif" font-size="15" stroke="none" fill="#000000"><![CDATA[(3) Operator 2.4 requires the Kubernetes batch/v1 and policy/v1 apis.]]></text></g></svg>