<?xml version="1.0" encoding="UTF-8" standalone="no"?><svg xmlns="http://www.w3.org/2000/svg" xmlns:xlink="http://www.w3.org/1999/xlink" contentScriptType="application/ecmascript" contentStyleType="text/css" height="507px" preserveAspectRatio="none" style="width:527px;height:507px;background:#FFFFFF;" version="1.1" viewBox="0 0 527 507" width="527px" zoomAndPan="magnify"><defs><filter height="300%" id="fdz0t1qrjb0jw" width="300%" x="-1" y="-1"><feGaussianBlur result="blurOut" stdDeviation="2.0"/><feColorMatrix in="blurOut" result="blurOut2" type="matrix" values="0 0 0 0 0 0 0 0 0 0 0 0 0 0 0 0 0 0 .4 0"/><feOffset dx="4.0" dy="4.0" in="blurOut2" result="blurOut3"/><feBlend in="SourceGraphic" in2="blurOut3" mode="normal"/></filter></defs><g><!--MD5=[2975947dbd53e11d08a72608f6781d9e]
entity cluster--><polygon fill="#FEFECE" filter="url(#fdz0t1qrjb0jw)" points="176.5,16,186.5,6,331.5,6,331.5,42.7999,321.5,52.7999,176.5,52.7999,176.5,16" style="stroke:#000000;stroke-width:1.5;"/><line style="stroke:#000000;stroke-width:1.5;" x1="321.5" x2="331.5" y1="16" y2="6"/><line style="stroke:#000000;stroke-width:1.5;" x1="176.5" x2="321.5" y1="16" y2="16"/><line style="stroke:#000000;stroke-width:1.5;" x1="321.5" x2="321.5" y1="16" y2="52.7999"/><text fill="#000000" font-family="sans-serif" font-size="14" lengthAdjust="spacing" textLength="115" x="191.5" y="39.9999">Couchbase cluster</text><!--MD5=[e987a9053741ca611bbb00ccd0372f5a]
entity bucket--><path d="M223,128.5 C223,118.5 254,118.5 254,118.5 C254,118.5 285,118.5 285,128.5 L285,154.2999 C285,164.2999 254,164.2999 254,164.2999 C254,164.2999 223,164.2999 223,154.2999 L223,128.5 " fill="#FEFECE" filter="url(#fdz0t1qrjb0jw)" style="stroke:#000000;stroke-width:1.5;"/><path d="M223,128.5 C223,138.5 254,138.5 254,138.5 C254,138.5 285,138.5 285,128.5 " fill="none" style="stroke:#000000;stroke-width:1.5;"/><text fill="#000000" font-family="sans-serif" font-size="14" lengthAdjust="spacing" textLength="42" x="233" y="156.4999">Bucket</text><!--MD5=[c8a1f054d404df0a65fc25cf7fbed36b]
entity scope--><rect fill="#FEFECE" filter="url(#fdz0t1qrjb0jw)" height="36.7999" style="stroke:#000000;stroke-width:1.5;" width="58" x="225" y="240"/><text fill="#000000" font-family="sans-serif" font-size="14" lengthAdjust="spacing" textLength="38" x="235" y="263.9999">Scope</text><!--MD5=[e8144009250fefa8de7ab17e8fe20380]
entity collection--><polygon fill="#FEFECE" filter="url(#fdz0t1qrjb0jw)" points="209.5,348,255.5,348,262.5,369,298.5,369,298.5,402.7999,209.5,402.7999,209.5,348" style="stroke:#000000;stroke-width:1.5;"/><line style="stroke:#000000;stroke-width:1.5;" x1="209.5" x2="262.5" y1="369" y2="369"/><text fill="#000000" font-family="sans-serif" font-size="14" lengthAdjust="spacing" textLength="59" x="219.5" y="389.9999">Collection</text><!--MD5=[ab1e5baf85ed143b76d3e76a48078bed]
entity document1--><polygon fill="#FEFECE" filter="url(#fdz0t1qrjb0jw)" points="78,464,78,500.7999,172,500.7999,172,474,162,464,78,464" style="stroke:#000000;stroke-width:1.5;"/><path d="M162,464 L162,474 L172,474 " fill="#FEFECE" style="stroke:#000000;stroke-width:1.5;"/><text fill="#000000" font-family="sans-serif" font-size="14" lengthAdjust="spacing" textLength="74" x="88" y="487.9999">Document 1</text><!--MD5=[dd1bebfa84e2488b3127885c5b41e328]
entity document2--><polygon fill="#FEFECE" filter="url(#fdz0t1qrjb0jw)" points="207,464,207,500.7999,301,500.7999,301,474,291,464,207,464" style="stroke:#000000;stroke-width:1.5;"/><path d="M291,464 L291,474 L301,474 " fill="#FEFECE" style="stroke:#000000;stroke-width:1.5;"/><text fill="#000000" font-family="sans-serif" font-size="14" lengthAdjust="spacing" textLength="74" x="217" y="487.9999">Document 2</text><!--MD5=[a05b76816b6fc3abd39e436261e75b4c]
entity document3--><polygon fill="#FEFECE" filter="url(#fdz0t1qrjb0jw)" points="336,464,336,500.7999,430,500.7999,430,474,420,464,336,464" style="stroke:#000000;stroke-width:1.5;"/><path d="M420,464 L420,474 L430,474 " fill="#FEFECE" style="stroke:#000000;stroke-width:1.5;"/><text fill="#000000" font-family="sans-serif" font-size="14" lengthAdjust="spacing" textLength="74" x="346" y="487.9999">Document 3</text><path d="M320.5,113 L320.5,137.5 L285.08,141.5 L320.5,145.5 L320.5,169.8 A0,0 0 0 0 320.5,169.8 L493.5,169.8 A0,0 0 0 0 493.5,169.8 L493.5,123 L483.5,113 L320.5,113 A0,0 0 0 0 320.5,113 " fill="#FBFB77" filter="url(#fdz0t1qrjb0jw)" style="stroke:#A80036;stroke-width:1.0;"/><path d="M483.5,113 L483.5,123 L493.5,123 L483.5,113 " fill="#FBFB77" style="stroke:#A80036;stroke-width:1.0;"/><text fill="#000000" font-family="sans-serif" font-size="13" lengthAdjust="spacing" textLength="0" x="329.5" y="131"/><text fill="#000000" font-family="sans-serif" font-size="13" lengthAdjust="spacing" textLength="152" x="326.5" y="146.6">Maximum of  30 per cluster</text><text fill="#000000" font-family="sans-serif" font-size="13" lengthAdjust="spacing" textLength="0" x="329.5" y="162.2"/><path d="M6,230 L6,286.8 A0,0 0 0 0 6,286.8 L190,286.8 A0,0 0 0 0 190,286.8 L190,262.5 L224.51,258.5 L190,254.5 L190,240 L180,230 L6,230 A0,0 0 0 0 6,230 " fill="#FBFB77" filter="url(#fdz0t1qrjb0jw)" style="stroke:#A80036;stroke-width:1.0;"/><path d="M180,230 L180,240 L190,240 L180,230 " fill="#FBFB77" style="stroke:#A80036;stroke-width:1.0;"/><text fill="#000000" font-family="sans-serif" font-size="13" lengthAdjust="spacing" textLength="0" x="15" y="248"/><text fill="#000000" font-family="sans-serif" font-size="13" lengthAdjust="spacing" textLength="163" x="12" y="263.6">Maximum of 1000 per cluster</text><text fill="#000000" font-family="sans-serif" font-size="13" lengthAdjust="spacing" textLength="0" x="15" y="279.2"/><path d="M334,347 L334,371.5 L298.68,375.5 L334,379.5 L334,403.8 A0,0 0 0 0 334,403.8 L518,403.8 A0,0 0 0 0 518,403.8 L518,357 L508,347 L334,347 A0,0 0 0 0 334,347 " fill="#FBFB77" filter="url(#fdz0t1qrjb0jw)" style="stroke:#A80036;stroke-width:1.0;"/><path d="M508,347 L508,357 L518,357 L508,347 " fill="#FBFB77" style="stroke:#A80036;stroke-width:1.0;"/><text fill="#000000" font-family="sans-serif" font-size="13" lengthAdjust="spacing" textLength="0" x="343" y="365"/><text fill="#000000" font-family="sans-serif" font-size="13" lengthAdjust="spacing" textLength="163" x="340" y="380.6">Maximum of 1000 per cluster</text><text fill="#000000" font-family="sans-serif" font-size="13" lengthAdjust="spacing" textLength="0" x="343" y="396.2"/><!--MD5=[281524e9f32be153eff0ea24a8460cc1]
link cluster to bucket--><path d="M254,53.03 C254,70.49 254,94.76 254,113.31 " fill="none" id="cluster-to-bucket" style="stroke:#A80036;stroke-width:1.0;"/><polygon fill="#A80036" points="254,118.38,258,109.38,254,113.38,250,109.38,254,118.38" style="stroke:#A80036;stroke-width:1.0;"/><!--MD5=[a8178d1de33984ce3b5ea76419192a56]
link bucket to scope--><path d="M254,164.67 C254,184.8 254,214.37 254,234.69 " fill="none" id="bucket-to-scope" style="stroke:#A80036;stroke-width:1.0;"/><polygon fill="#A80036" points="254,239.91,258,230.91,254,234.91,250,230.91,254,239.91" style="stroke:#A80036;stroke-width:1.0;"/><!--MD5=[bd95b2d60b83b38d7618f2ab0aa9393c]
link scope to collection--><path d="M254,277.47 C254,294.82 254,321.49 254,342.48 " fill="none" id="scope-to-collection" style="stroke:#A80036;stroke-width:1.0;"/><polygon fill="#A80036" points="254,347.68,258,338.68,254,342.68,250,338.68,254,347.68" style="stroke:#A80036;stroke-width:1.0;"/><!--MD5=[ab43a1f600bfb89b9c5121b3602da514]
link collection to document1--><path d="M221.11,403.27 C199.28,421.04 171.02,444.04 150.81,460.49 " fill="none" id="collection-to-document1" style="stroke:#A80036;stroke-width:1.0;"/><polygon fill="#A80036" points="146.88,463.69,156.3827,461.102,150.7549,460.53,151.3268,454.9022,146.88,463.69" style="stroke:#A80036;stroke-width:1.0;"/><!--MD5=[93f8c9cb5046ebd87d3059498af61558]
link collection to document2--><path d="M254,403.27 C254,420.3 254,442.13 254,458.4 " fill="none" id="collection-to-document2" style="stroke:#A80036;stroke-width:1.0;"/><polygon fill="#A80036" points="254,463.69,258,454.69,254,458.69,250,454.69,254,463.69" style="stroke:#A80036;stroke-width:1.0;"/><!--MD5=[fb180569bd3efdcd43513d540660e130]
link collection to document3--><path d="M286.89,403.27 C308.72,421.04 336.98,444.04 357.19,460.49 " fill="none" id="collection-to-document3" style="stroke:#A80036;stroke-width:1.0;"/><polygon fill="#A80036" points="361.12,463.69,356.6732,454.9022,357.2451,460.53,351.6173,461.102,361.12,463.69" style="stroke:#A80036;stroke-width:1.0;"/><!--MD5=[a4a076bd9e5fa9e29f081a56b882ef88]
@startuml
node "Couchbase cluster" as cluster

database "Bucket" as bucket

rectangle "Scope" as scope

folder "Collection" as collection



file "Document 1" as document1
file "Document 2" as document2
file "Document 3" as document3

cluster - -> bucket
bucket - -> scope
scope - -> collection
collection - -> document1
collection - -> document2
collection - -> document3

note right of bucket

 Maximum of  30 per cluster
 
end note

note left of scope

  Maximum of 1000 per cluster
  
end note

note right of collection

  Maximum of 1000 per cluster
  
end note
@enduml

PlantUML version 1.2021.16(Wed Dec 08 17:25:22 GMT 2021)
(GPL source distribution)
Java Runtime: OpenJDK Runtime Environment
JVM: OpenJDK 64-Bit Server VM
Default Encoding: UTF-8
Language: en
Country: US
--></g></svg>