<?xml version="1.0" encoding="UTF-8"?><svg xmlns="http://www.w3.org/2000/svg" width="610" height="336" version="1.0" shape-rendering="geometricPrecision"><defs><filter id="shadowBlur" x="0" y="0" width="200%" height="200%"><feOffset in="SourceGraphic" dx="3.0003002" dy="3.0003002" result="offOut"></feOffset><feGaussianBlur in="offOut" stdDeviation="3"></feGaussianBlur></filter></defs><g stroke-width="1" stroke-linecap="square" stroke-linejoin="round"><rect x="0" y="0" width="610" height="336" style="fill: #ffffff"></rect><path stroke="#969696" fill="#969696" filter="url(#shadowBlur)" d="M255.0 49.0 L575.0 49.0 L575.0 103.0 L255.0 103.0 z"></path><path stroke="#969696" fill="#969696" filter="url(#shadowBlur)" d="M255.0 163.0 L425.0 163.0 L425.0 217.0 L255.0 217.0 z"></path><path stroke="#969696" fill="#969696" filter="url(#shadowBlur)" d="M255.0 107.0 L425.0 107.0 L425.0 159.0 L255.0 159.0 z"></path><path stroke="#969696" fill="#969696" filter="url(#shadowBlur)" d="M337.0 245.0 L423.0 245.0 L423.0 301.0 L337.0 301.0 z"></path><path stroke="#969696" fill="#969696" filter="url(#shadowBlur)" d="M255.0 245.0 L333.0 245.0 L333.0 301.0 L255.0 301.0 z"></path><path stroke="#969696" fill="#969696" filter="url(#shadowBlur)" d="M507.0 245.0 L585.0 245.0 L585.0 301.0 L507.0 301.0 z"></path><path stroke="#969696" fill="#969696" filter="url(#shadowBlur)" d="M427.0 245.0 L503.0 245.0 L503.0 301.0 L427.0 301.0 z"></path><path stroke="#000000" stroke-width="1.0" stroke-linecap="round" stroke-linejoin="round" fill="#ffeebb" d="M255.0 49.0 L575.0 49.0 L575.0 103.0 L255.0 103.0 z"></path><path stroke="#000000" stroke-width="1.0" stroke-linecap="round" stroke-linejoin="round" fill="#ffeebb" d="M255.0 163.0 L425.0 163.0 L425.0 217.0 L255.0 217.0 z"></path><path stroke="#000000" stroke-width="1.0" stroke-linecap="round" stroke-linejoin="round" fill="#ffeebb" d="M255.0 107.0 L425.0 107.0 L425.0 159.0 L255.0 159.0 z"></path><path stroke="#000000" stroke-width="1.0" stroke-linecap="round" stroke-linejoin="round" fill="#ddeeff" d="M337.0 245.0 L423.0 245.0 L423.0 301.0 L337.0 301.0 z"></path><path stroke="#000000" stroke-width="1.0" stroke-linecap="round" stroke-linejoin="round" fill="#ddeeff" d="M255.0 245.0 L333.0 245.0 L333.0 301.0 L255.0 301.0 z"></path><path stroke="#000000" stroke-width="1.0" stroke-linecap="round" stroke-linejoin="round" fill="#ddeeff" d="M507.0 245.0 L585.0 245.0 L585.0 301.0 L507.0 301.0 z"></path><path stroke="#000000" stroke-width="1.0" stroke-linecap="round" stroke-linejoin="round" fill="#ddeeff" d="M427.0 245.0 L503.0 245.0 L503.0 301.0 L427.0 301.0 z"></path><text x="352" y="82" font-family="sans-serif" font-size="15" stroke="none" fill="#000000"><![CDATA[1.3x]]></text><text x="60" y="110" font-family="sans-serif" font-size="15" stroke="none" fill="#000000"><![CDATA[Backup]]></text><text x="60" y="124" font-family="sans-serif" font-size="15" stroke="none" fill="#000000"><![CDATA[Version]]></text><text x="332" y="138" font-family="sans-serif" font-size="15" stroke="none" fill="#000000"><![CDATA[1.2x]]></text><text x="324" y="194" font-family="sans-serif" font-size="15" stroke="none" fill="#000000"><![CDATA[1.1.1]]></text><text x="70" y="264" font-family="sans-serif" font-size="15" stroke="none" fill="#000000"><![CDATA[Couchbase Server]]></text><text x="70" y="278" font-family="sans-serif" font-size="15" stroke="none" fill="#000000"><![CDATA[Version]]></text><text x="272" y="278" font-family="sans-serif" font-size="15" stroke="none" fill="#000000"><![CDATA[7.0]]></text><text x="352" y="278" font-family="sans-serif" font-size="15" stroke="none" fill="#000000"><![CDATA[7.1]]></text><text x="442" y="278" font-family="sans-serif" font-size="15" stroke="none" fill="#000000"><![CDATA[7.2]]></text><text x="522" y="278" font-family="sans-serif" font-size="15" stroke="none" fill="#000000"><![CDATA[7.6]]></text></g></svg>