<?xml version="1.0" encoding="UTF-8"?><svg xmlns="http://www.w3.org/2000/svg" width="940" height="378" version="1.0" shape-rendering="geometricPrecision"><defs><filter id="shadowBlur" x="0" y="0" width="200%" height="200%"><feOffset in="SourceGraphic" dx="3.0003002" dy="3.0003002" result="offOut"></feOffset><feGaussianBlur in="offOut" stdDeviation="3"></feGaussianBlur></filter></defs><g stroke-width="1" stroke-linecap="square" stroke-linejoin="round"><rect x="0" y="0" width="940" height="378" style="fill: #ffffff"></rect><path stroke="#969696" fill="#969696" filter="url(#shadowBlur)" d="M385.0 154.0 Q385.0 149.0 390.0 149.0 L910.0 149.0 Q915.0 149.0 915.0 154.0 L915.0 196.0 L915.0 196.0 Q915.0 201.0 910.0 201.0 L390.0 201.0 L390.0 201.0 Q385.0 201.0 385.0 196.0 L385.0 154.0 z"></path><path stroke="#969696" fill="#969696" filter="url(#shadowBlur)" d="M485.0 42.0 Q485.0 35.0 490.0 35.0 L910.0 35.0 Q915.0 35.0 915.0 42.0 L915.0 84.0 L915.0 84.0 Q915.0 89.0 910.0 89.0 L490.0 89.0 L490.0 89.0 Q485.0 89.0 485.0 84.0 L485.0 42.0 z"></path><path stroke="#969696" fill="#969696" filter="url(#shadowBlur)" d="M485.0 98.0 Q485.0 93.0 490.0 93.0 L910.0 93.0 Q915.0 93.0 915.0 98.0 L915.0 140.0 L915.0 140.0 Q915.0 145.0 910.0 145.0 L490.0 145.0 L490.0 145.0 Q485.0 145.0 485.0 140.0 L485.0 98.0 z"></path><path stroke="#969696" fill="#969696" filter="url(#shadowBlur)" d="M315.0 210.0 Q315.0 205.0 320.0 205.0 L690.0 205.0 Q695.0 205.0 695.0 210.0 L695.0 252.0 L695.0 252.0 Q695.0 259.0 690.0 259.0 L320.0 259.0 L320.0 259.0 Q315.0 259.0 315.0 252.0 L315.0 210.0 z"></path><path stroke="#969696" fill="#969696" filter="url(#shadowBlur)" d="M537.0 294.0 Q537.0 287.0 540.0 287.0 L690.0 287.0 Q693.0 287.0 693.0 294.0 L693.0 336.0 L693.0 336.0 Q693.0 343.0 690.0 343.0 L540.0 343.0 L540.0 343.0 Q537.0 343.0 537.0 336.0 L537.0 294.0 z"></path><path stroke="#969696" fill="#969696" filter="url(#shadowBlur)" d="M387.0 294.0 Q387.0 287.0 390.0 287.0 L530.0 287.0 Q533.0 287.0 533.0 294.0 L533.0 336.0 L533.0 336.0 Q533.0 343.0 530.0 343.0 L390.0 343.0 L390.0 343.0 Q387.0 343.0 387.0 336.0 L387.0 294.0 z"></path><path stroke="#969696" fill="#969696" filter="url(#shadowBlur)" d="M697.0 294.0 Q697.0 287.0 700.0 287.0 L840.0 287.0 Q843.0 287.0 843.0 294.0 L843.0 336.0 L843.0 336.0 Q843.0 343.0 840.0 343.0 L700.0 343.0 L700.0 343.0 Q697.0 343.0 697.0 336.0 L697.0 294.0 z"></path><path stroke="#969696" fill="#969696" filter="url(#shadowBlur)" d="M315.0 294.0 Q315.0 287.0 320.0 287.0 L380.0 287.0 Q383.0 287.0 383.0 294.0 L383.0 336.0 L383.0 336.0 Q383.0 343.0 380.0 343.0 L320.0 343.0 L320.0 343.0 Q315.0 343.0 315.0 336.0 L315.0 294.0 z"></path><path stroke="#969696" fill="#969696" filter="url(#shadowBlur)" d="M847.0 294.0 Q847.0 287.0 850.0 287.0 L910.0 287.0 Q915.0 287.0 915.0 294.0 L915.0 336.0 L915.0 336.0 Q915.0 343.0 910.0 343.0 L850.0 343.0 L850.0 343.0 Q847.0 343.0 847.0 336.0 L847.0 294.0 z"></path><path stroke="#000000" stroke-width="1.0" stroke-linecap="round" stroke-linejoin="round" fill="#bbeeaa" d="M385.0 154.0 Q385.0 149.0 390.0 149.0 L910.0 149.0 Q915.0 149.0 915.0 154.0 L915.0 196.0 L915.0 196.0 Q915.0 201.0 910.0 201.0 L390.0 201.0 L390.0 201.0 Q385.0 201.0 385.0 196.0 L385.0 154.0 z"></path><path stroke="#000000" stroke-width="1.0" stroke-linecap="round" stroke-linejoin="round" fill="#bbeeaa" d="M485.0 42.0 Q485.0 35.0 490.0 35.0 L910.0 35.0 Q915.0 35.0 915.0 42.0 L915.0 84.0 L915.0 84.0 Q915.0 89.0 910.0 89.0 L490.0 89.0 L490.0 89.0 Q485.0 89.0 485.0 84.0 L485.0 42.0 z"></path><path stroke="#000000" stroke-width="1.0" stroke-linecap="round" stroke-linejoin="round" fill="#bbeeaa" d="M485.0 98.0 Q485.0 93.0 490.0 93.0 L910.0 93.0 Q915.0 93.0 915.0 98.0 L915.0 140.0 L915.0 140.0 Q915.0 145.0 910.0 145.0 L490.0 145.0 L490.0 145.0 Q485.0 145.0 485.0 140.0 L485.0 98.0 z"></path><path stroke="#000000" stroke-width="1.0" stroke-linecap="round" stroke-linejoin="round" fill="#bbeeaa" d="M315.0 210.0 Q315.0 205.0 320.0 205.0 L690.0 205.0 Q695.0 205.0 695.0 210.0 L695.0 252.0 L695.0 252.0 Q695.0 259.0 690.0 259.0 L320.0 259.0 L320.0 259.0 Q315.0 259.0 315.0 252.0 L315.0 210.0 z"></path><path stroke="#000000" stroke-width="1.0" stroke-linecap="round" stroke-linejoin="round" fill="#ddeeff" d="M537.0 294.0 Q537.0 287.0 540.0 287.0 L690.0 287.0 Q693.0 287.0 693.0 294.0 L693.0 336.0 L693.0 336.0 Q693.0 343.0 690.0 343.0 L540.0 343.0 L540.0 343.0 Q537.0 343.0 537.0 336.0 L537.0 294.0 z"></path><path stroke="#000000" stroke-width="1.0" stroke-linecap="round" stroke-linejoin="round" fill="#ddeeff" d="M387.0 294.0 Q387.0 287.0 390.0 287.0 L530.0 287.0 Q533.0 287.0 533.0 294.0 L533.0 336.0 L533.0 336.0 Q533.0 343.0 530.0 343.0 L390.0 343.0 L390.0 343.0 Q387.0 343.0 387.0 336.0 L387.0 294.0 z"></path><path stroke="#000000" stroke-width="1.0" stroke-linecap="round" stroke-linejoin="round" fill="#ddeeff" d="M697.0 294.0 Q697.0 287.0 700.0 287.0 L840.0 287.0 Q843.0 287.0 843.0 294.0 L843.0 336.0 L843.0 336.0 Q843.0 343.0 840.0 343.0 L700.0 343.0 L700.0 343.0 Q697.0 343.0 697.0 336.0 L697.0 294.0 z"></path><path stroke="#000000" stroke-width="1.0" stroke-linecap="round" stroke-linejoin="round" fill="#ddeeff" d="M315.0 294.0 Q315.0 287.0 320.0 287.0 L380.0 287.0 Q383.0 287.0 383.0 294.0 L383.0 336.0 L383.0 336.0 Q383.0 343.0 380.0 343.0 L320.0 343.0 L320.0 343.0 Q315.0 343.0 315.0 336.0 L315.0 294.0 z"></path><path stroke="#000000" stroke-width="1.0" stroke-linecap="round" stroke-linejoin="round" fill="#ddeeff" d="M847.0 294.0 Q847.0 287.0 850.0 287.0 L910.0 287.0 Q915.0 287.0 915.0 294.0 L915.0 336.0 L915.0 336.0 Q915.0 343.0 910.0 343.0 L850.0 343.0 L850.0 343.0 Q847.0 343.0 847.0 336.0 L847.0 294.0 z"></path><path stroke="#000000" stroke-width="1.0" stroke-linecap="round" stroke-linejoin="round" fill="none" d="M460.0 315.0 L469.0 315.0 "></path><path stroke="#000000" stroke-width="1.0" stroke-linecap="round" stroke-linejoin="round" fill="none" d="M610.0 315.0 L619.0 315.0 "></path><path stroke="#000000" stroke-width="1.0" stroke-linecap="round" stroke-linejoin="round" fill="none" d="M770.0 315.0 L779.0 315.0 "></path><text x="664" y="68" font-family="sans-serif" font-size="15" stroke="none" fill="#000000"><![CDATA[2.6.0]]></text><text x="20" y="110" font-family="sans-serif" font-size="15" stroke="none" fill="#000000"><![CDATA[Couchbase]]></text><text x="20" y="124" font-family="sans-serif" font-size="14" stroke="none" fill="#000000"><![CDATA[Autonomous]]></text><text x="664" y="124" font-family="sans-serif" font-size="15" stroke="none" fill="#000000"><![CDATA[2.5.x]]></text><text x="20" y="152" font-family="sans-serif" font-size="15" stroke="none" fill="#000000"><![CDATA[Operator]]></text><text x="20" y="166" font-family="sans-serif" font-size="15" stroke="none" fill="#000000"><![CDATA[Version]]></text><text x="664" y="180" font-family="sans-serif" font-size="15" stroke="none" fill="#000000"><![CDATA[2.4.x]]></text><text x="504" y="236" font-family="sans-serif" font-size="15" stroke="none" fill="#000000"><![CDATA[2.3.x]]></text><text x="20" y="306" font-family="sans-serif" font-size="15" stroke="none" fill="#000000"><![CDATA[Couchbase]]></text><text x="20" y="320" font-family="sans-serif" font-size="15" stroke="none" fill="#000000"><![CDATA[Fluent Bit]]></text><text x="20" y="334" font-family="sans-serif" font-size="15" stroke="none" fill="#000000"><![CDATA[Version]]></text><text x="334" y="320" font-family="sans-serif" font-size="15" stroke="none" fill="#000000"><![CDATA[1.0.4]]></text><text x="404" y="320" font-family="sans-serif" font-size="15" stroke="none" fill="#000000"><![CDATA[1.1.0]]></text><text x="484" y="320" font-family="sans-serif" font-size="15" stroke="none" fill="#000000"><![CDATA[1.1.3]]></text><text x="554" y="320" font-family="sans-serif" font-size="15" stroke="none" fill="#000000"><![CDATA[1.2.0]]></text><text x="634" y="320" font-family="sans-serif" font-size="15" stroke="none" fill="#000000"><![CDATA[1.2.1]]></text><text x="714" y="320" font-family="sans-serif" font-size="15" stroke="none" fill="#000000"><![CDATA[1.2.2]]></text><text x="794" y="320" font-family="sans-serif" font-size="15" stroke="none" fill="#000000"><![CDATA[1.2.6]]></text><text x="864" y="320" font-family="sans-serif" font-size="15" stroke="none" fill="#000000"><![CDATA[1.2.7]]></text></g></svg>