<?xml version="1.0" encoding="us-ascii" standalone="no"?><svg xmlns="http://www.w3.org/2000/svg" xmlns:xlink="http://www.w3.org/1999/xlink" contentStyleType="text/css" height="174px" preserveAspectRatio="none" style="width:370px;height:174px;background:#FFFFFF;" version="1.1" viewBox="0 0 370 174" width="370px" zoomAndPan="magnify"><defs/><g><g id="elem_Start"><ellipse cx="182.2383" cy="31.0406" fill="#F1F1F1" rx="71.2983" ry="25.0406" style="stroke:#181818;stroke-width:0.5;"/><text fill="#000000" font-family="sans-serif" font-size="14" font-style="italic" lengthAdjust="spacing" textLength="101" x="131.7383" y="28.9983">&#171;Input Token&#187;</text><text fill="#000000" font-family="sans-serif" font-size="14" lengthAdjust="spacing" textLength="51" x="156.7383" y="45.2952">abc def</text></g><g id="elem_abc"><ellipse cx="53.239" cy="142.5172" fill="#F1F1F1" rx="47.239" ry="24.8472" style="stroke:#181818;stroke-width:0.5;"/><text fill="#000000" font-family="sans-serif" font-size="14" font-style="italic" lengthAdjust="spacing" textLength="66" x="20.239" y="140.7637">&#171;Output&#187;</text><text fill="#000000" font-family="sans-serif" font-size="14" lengthAdjust="spacing" textLength="25" x="40.739" y="157.0606">abc</text></g><g id="elem_def"><ellipse cx="182.2353" cy="142.5219" fill="#F1F1F1" rx="46.9853" ry="24.7219" style="stroke:#181818;stroke-width:0.5;"/><text fill="#000000" font-family="sans-serif" font-size="14" font-style="italic" lengthAdjust="spacing" textLength="66" x="149.2353" y="140.9573">&#171;Output&#187;</text><text fill="#000000" font-family="sans-serif" font-size="14" lengthAdjust="spacing" textLength="22" x="171.2353" y="157.2541">def</text></g><g id="elem_abc def"><ellipse cx="314.2446" cy="142.5151" fill="#F1F1F1" rx="50.4746" ry="26.4451" style="stroke:#181818;stroke-width:0.5;"/><text fill="#000000" font-family="sans-serif" font-size="14" font-style="italic" lengthAdjust="spacing" textLength="66" x="281.2446" y="138.4572">&#171;Output&#187;</text><text fill="#000000" font-family="sans-serif" font-size="14" lengthAdjust="spacing" textLength="51" x="288.7446" y="154.7541">abc def</text></g><!--link Start to abc--><g id="link_Start_abc"><path d="M155.51,54.72 C132.48,74.27 104.1144,98.3373 81.8944,117.1973 " fill="none" id="Start-to-abc" style="stroke:#181818;stroke-width:1.0;"/><polygon fill="#181818" points="77.32,121.08,86.77,118.3056,81.132,117.8444,81.5931,112.2064,77.32,121.08" style="stroke:#181818;stroke-width:1.0;"/></g><!--link Start to def--><g id="link_Start_def"><path d="M182.24,56.34 C182.24,74.61 182.24,93.51 182.24,111.67 " fill="none" id="Start-to-def" style="stroke:#181818;stroke-width:1.0;"/><polygon fill="#181818" points="182.24,117.67,186.24,108.67,182.24,112.67,178.24,108.67,182.24,117.67" style="stroke:#181818;stroke-width:1.0;"/></g><!--link Start to abc def--><g id="link_Start_abc def"><path d="M209.27,54.46 C232.35,73.6 260.7227,97.1285 283.5227,116.0485 " fill="none" id="Start-to-abc def" style="stroke:#181818;stroke-width:1.0;"/><polygon fill="#181818" points="288.14,119.88,283.7684,111.0545,284.2923,116.6871,278.6597,117.2109,288.14,119.88" style="stroke:#181818;stroke-width:1.0;"/></g><!--SRC=[qqXCIbP8IKtJL4WiLWWkIImgKR2nySmhA2rH2CdFJispi-FYqW2gqGGA-vUM0CM18XfW3SW2S5EG1BaWnkdgsYc0JK3cWzIYoOFr0m00]--></g></svg>