<?xml version="1.0" encoding="UTF-8" standalone="no"?><svg xmlns="http://www.w3.org/2000/svg" xmlns:xlink="http://www.w3.org/1999/xlink" contentScriptType="application/ecmascript" contentStyleType="text/css" height="225px" preserveAspectRatio="none" style="width:677px;height:225px;background:#FFFFFF;" version="1.1" viewBox="0 0 677 225" width="677px" zoomAndPan="magnify"><defs><filter height="300%" id="f112gphmiaooz" width="300%" x="-1" y="-1"><feGaussianBlur result="blurOut" stdDeviation="2.0"/><feColorMatrix in="blurOut" result="blurOut2" type="matrix" values="0 0 0 0 0 0 0 0 0 0 0 0 0 0 0 0 0 0 .4 0"/><feOffset dx="4.0" dy="4.0" in="blurOut2" result="blurOut3"/><feBlend in="SourceGraphic" in2="blurOut3" mode="normal"/></filter></defs><g><!--MD5=[0c6c56afe89fba3f46d2be371783d5a6]
cluster Index\nService--><rect fill="#FFFFFF" filter="url(#f112gphmiaooz)" height="105" style="stroke:#000000;stroke-width:1.5;" width="122" x="42" y="7"/><text fill="#000000" font-family="sans-serif" font-size="14" font-weight="bold" lengthAdjust="spacing" textLength="38" x="84" y="22.9999">Index</text><text fill="#000000" font-family="sans-serif" font-size="14" font-weight="bold" lengthAdjust="spacing" textLength="51" x="77.5" y="39.7999">Service</text><!--MD5=[7e65e753e7f4885ff7567f7618ef3bdb]
cluster Query\nService--><rect fill="#FFFFFF" filter="url(#f112gphmiaooz)" height="105" style="stroke:#000000;stroke-width:1.5;" width="439" x="188" y="7"/><text fill="#000000" font-family="sans-serif" font-size="14" font-weight="bold" lengthAdjust="spacing" textLength="41" x="387" y="22.9999">Query</text><text fill="#000000" font-family="sans-serif" font-size="14" font-weight="bold" lengthAdjust="spacing" textLength="51" x="382" y="39.7999">Service</text><!--MD5=[b56d82cc628557b1acc6c002153fa3f7]
entity IndexScan--><rect fill="#FEFECE" filter="url(#f112gphmiaooz)" height="36.7999" style="stroke:#000000;stroke-width:1.5;" width="90" x="58" y="59"/><text fill="#000000" font-family="sans-serif" font-size="14" lengthAdjust="spacing" textLength="70" x="68" y="82.9999">Index Scan</text><!--MD5=[1bb669a7cce09e263741a8133c219385]
entity Fetch--><rect fill="#FEFECE" filter="url(#f112gphmiaooz)" height="36.7999" style="stroke:#000000;stroke-width:1.5;" width="54" x="204" y="59"/><text fill="#000000" font-family="sans-serif" font-size="14" lengthAdjust="spacing" textLength="34" x="214" y="82.9999">Fetch</text><!--MD5=[d04648e85a9b10e4576b2636e86a7d55]
entity Filter--><rect fill="#FEFECE" filter="url(#f112gphmiaooz)" height="36.7999" style="stroke:#000000;stroke-width:1.5;" width="50" x="293" y="59"/><text fill="#000000" font-family="sans-serif" font-size="14" lengthAdjust="spacing" textLength="30" x="303" y="82.9999">Filter</text><!--MD5=[ff70e4322b05e68cf66d2ff13f5b48e6]
entity Order--><rect fill="#FEFECE" filter="url(#f112gphmiaooz)" height="36.7999" style="stroke:#000000;stroke-width:1.5;" width="56" x="378" y="59"/><text fill="#000000" font-family="sans-serif" font-size="14" lengthAdjust="spacing" textLength="36" x="388" y="82.9999">Order</text><!--MD5=[ba3e2b2dca857ef37695f5c4c4439b77]
entity Offset--><rect fill="#FEFECE" filter="url(#f112gphmiaooz)" height="36.7999" style="stroke:#000000;stroke-width:1.5;" width="57" x="469.5" y="59"/><text fill="#000000" font-family="sans-serif" font-size="14" lengthAdjust="spacing" textLength="37" x="479.5" y="82.9999">Offset</text><!--MD5=[7c91c379e791bbc64b0e5662b11be0d0]
entity Limit--><rect fill="#FEFECE" filter="url(#f112gphmiaooz)" height="36.7999" style="stroke:#000000;stroke-width:1.5;" width="49" x="561.5" y="59"/><text fill="#000000" font-family="sans-serif" font-size="14" lengthAdjust="spacing" textLength="29" x="571.5" y="82.9999">Limit</text><!--MD5=[c88a36799ca4d6dff2d7449eacfc25f7]
entity start--><ellipse cx="14" cy="77.5" fill="#FEFECE" filter="url(#f112gphmiaooz)" rx="8" ry="8" style="stroke:#A80036;stroke-width:1.5;"/><!--MD5=[22efa60cf2b4332bf8574b0c93969d71]
entity end--><ellipse cx="655" cy="77.5" fill="#FEFECE" filter="url(#f112gphmiaooz)" rx="8" ry="8" style="stroke:#A80036;stroke-width:1.5;"/><path d="M299,167 L299,208.2 A0,0 0 0 0 299,208.2 L481,208.2 A0,0 0 0 0 481,208.2 L481,177 L471,167 L380.87,167 L329.89,96.33 L372.87,167 L299,167 A0,0 0 0 0 299,167 " fill="#FBFB77" filter="url(#f112gphmiaooz)" style="stroke:#A80036;stroke-width:1.0;"/><path d="M471,167 L471,177 L481,177 L471,167 " fill="#FBFB77" style="stroke:#A80036;stroke-width:1.0;"/><text fill="#000000" font-family="sans-serif" font-size="13" lengthAdjust="spacing" textLength="161" x="305" y="185">Filters, order, and pagination</text><text fill="#000000" font-family="sans-serif" font-size="13" lengthAdjust="spacing" textLength="119" x="326" y="200.6">performed after fetch</text><!--MD5=[0ecd579b94b5f51ba0c6012111a3b28f]
entity Data--><path d="M198.5,166 C198.5,156 231,156 231,156 C231,156 263.5,156 263.5,166 L263.5,208.5999 C263.5,218.5999 231,218.5999 231,218.5999 C231,218.5999 198.5,218.5999 198.5,208.5999 L198.5,166 " fill="#FEFECE" filter="url(#f112gphmiaooz)" style="stroke:#000000;stroke-width:1.5;"/><path d="M198.5,166 C198.5,176 231,176 231,176 C231,176 263.5,176 263.5,166 " fill="none" style="stroke:#000000;stroke-width:1.5;"/><text fill="#000000" font-family="sans-serif" font-size="14" lengthAdjust="spacing" textLength="30" x="216" y="193.9999">Data</text><text fill="#000000" font-family="sans-serif" font-size="14" lengthAdjust="spacing" textLength="45" x="208.5" y="210.7999">Service</text><!--MD5=[9dcf1f94b7e729ba3ce9af7466d1ed88]
link start to IndexScan--><path d="M23.04,77.5 C32.88,77.5 42.72,77.5 52.56,77.5 " fill="none" id="start-to-IndexScan" style="stroke:#A80036;stroke-width:1.0;stroke-dasharray:7.0,7.0;"/><polygon fill="#A80036" points="57.71,77.5,48.71,73.5,52.71,77.5,48.71,81.5,57.71,77.5" style="stroke:#A80036;stroke-width:1.0;"/><!--MD5=[10f386584cde928edacfc4f0dc02daf4]
link IndexScan to Fetch--><path d="M148.5,77.5 C165.24,77.5 181.99,77.5 198.73,77.5 " fill="none" id="IndexScan-to-Fetch" style="stroke:#A80036;stroke-width:1.0;"/><polygon fill="#A80036" points="203.93,77.5,194.93,73.5,198.93,77.5,194.93,81.5,203.93,77.5" style="stroke:#A80036;stroke-width:1.0;"/><!--MD5=[c331ff6aaed83c3552e0179f02c10475]
link Fetch to Filter--><path d="M258.19,77.5 C268,77.5 277.82,77.5 287.63,77.5 " fill="none" id="Fetch-to-Filter" style="stroke:#A80036;stroke-width:1.0;"/><polygon fill="#A80036" points="292.77,77.5,283.77,73.5,287.77,77.5,283.77,81.5,292.77,77.5" style="stroke:#A80036;stroke-width:1.0;"/><!--MD5=[92b6a7b0f6bdfd4b1190c36d7516077d]
link Filter to Order--><path d="M343.09,77.5 C353,77.5 362.9,77.5 372.81,77.5 " fill="none" id="Filter-to-Order" style="stroke:#A80036;stroke-width:1.0;"/><polygon fill="#A80036" points="377.99,77.5,368.99,73.5,372.99,77.5,368.99,81.5,377.99,77.5" style="stroke:#A80036;stroke-width:1.0;"/><!--MD5=[d560d6cf8d8d541f6eb8e1ba1bdccf93]
link Order to Offset--><path d="M434.03,77.5 C443.96,77.5 453.89,77.5 463.82,77.5 " fill="none" id="Order-to-Offset" style="stroke:#A80036;stroke-width:1.0;"/><polygon fill="#A80036" points="469.01,77.5,460.01,73.5,464.01,77.5,460.01,81.5,469.01,77.5" style="stroke:#A80036;stroke-width:1.0;"/><!--MD5=[56c14ee24531f019d403311447c155c8]
link Offset to Limit--><path d="M526.53,77.5 C536.42,77.5 546.31,77.5 556.2,77.5 " fill="none" id="Offset-to-Limit" style="stroke:#A80036;stroke-width:1.0;"/><polygon fill="#A80036" points="561.38,77.5,552.38,73.5,556.38,77.5,552.38,81.5,561.38,77.5" style="stroke:#A80036;stroke-width:1.0;"/><!--MD5=[99fdd6a768fdd86becbfbf4f6634f0a8]
link Fetch to Data--><path d="M221.24,96.33 C218.3,111.12 217.53,132.6 218.93,150.89 " fill="none" id="Fetch-to-Data" style="stroke:#A80036;stroke-width:1.0;"/><polygon fill="#A80036" points="219.39,155.95,222.5757,146.6306,218.9464,150.9697,214.6072,147.3404,219.39,155.95" style="stroke:#A80036;stroke-width:1.0;"/><!--MD5=[8c88eee373a4caddaf0bcb426e85f3cc]
reverse link Fetch to Data--><path d="M242.29,101.5 C244.85,117.37 245.19,138.66 243.3,155.95 " fill="none" id="Fetch-backto-Data" style="stroke:#A80036;stroke-width:1.0;"/><polygon fill="#A80036" points="241.33,96.33,239.0437,105.9098,242.2445,101.2457,246.9087,104.4465,241.33,96.33" style="stroke:#A80036;stroke-width:1.0;"/><!--MD5=[46b2d070a11629e5e3b743f9933b550e]
link Limit to end--><path d="M610.53,77.5 C620.59,77.5 630.65,77.5 640.71,77.5 " fill="none" id="Limit-to-end" style="stroke:#A80036;stroke-width:1.0;stroke-dasharray:7.0,7.0;"/><polygon fill="#A80036" points="645.97,77.5,636.97,73.5,640.97,77.5,636.97,81.5,645.97,77.5" style="stroke:#A80036;stroke-width:1.0;"/><!--MD5=[64307e546373d2f4459761c0c6af2ecb]
@startuml
skinparam defaultTextAlignment center

() " " as start
() " " as end

rectangle "Index\nService"{
  rectangle "Index Scan" as IndexScan
}

rectangle "Query\nService"{
  rectangle Fetch
  rectangle Filter
  rectangle Order
  rectangle Offset
  rectangle Limit
}

note bottom of Filter
  Filters, order, and pagination
  performed after fetch
end note

database "Data\nService" as Data

start ..r..> IndexScan
IndexScan -> Fetch
Fetch -> Filter
Filter -> Order
Order -> Offset
Offset -> Limit
Fetch - -> Data
Fetch <- - Data
Limit ..r..> end
@enduml

PlantUML version 1.2021.16(Wed Dec 08 17:25:22 GMT 2021)
(GPL source distribution)
Java Runtime: OpenJDK Runtime Environment
JVM: OpenJDK 64-Bit Server VM
Default Encoding: UTF-8
Language: en
Country: US
--></g></svg>