<?xml version="1.0" encoding="us-ascii" standalone="no"?><svg xmlns="http://www.w3.org/2000/svg" xmlns:xlink="http://www.w3.org/1999/xlink" contentStyleType="text/css" height="478px" preserveAspectRatio="none" style="width:569px;height:478px;background:#FFFFFF;" version="1.1" viewBox="0 0 569 478" width="569px" zoomAndPan="magnify"><defs/><g><rect fill="#FFFFFF" height="87.3984" style="stroke:#181818;stroke-width:1.0;" width="10" x="205.5" y="113.4297"/><rect fill="#FFFFFF" height="29.1328" style="stroke:#181818;stroke-width:1.0;" width="10" x="360.5" y="142.5625"/><rect fill="#FFFFFF" height="87.3984" style="stroke:#181818;stroke-width:1.0;" width="10" x="360.5" y="283.2266"/><rect fill="#FFFFFF" height="29.1328" style="stroke:#181818;stroke-width:1.0;" width="10" x="520.5" y="312.3594"/><rect fill="none" height="162.7969" style="stroke:#000000;stroke-width:1.5;" width="553" x="10" y="215.8281"/><line style="stroke:#181818;stroke-width:0.5;stroke-dasharray:5.0,5.0;" x1="47" x2="47" y1="82.2969" y2="395.625"/><line style="stroke:#181818;stroke-width:0.5;stroke-dasharray:5.0,5.0;" x1="210.5" x2="210.5" y1="82.2969" y2="395.625"/><line style="stroke:#181818;stroke-width:0.5;stroke-dasharray:5.0,5.0;" x1="365" x2="365" y1="82.2969" y2="395.625"/><line style="stroke:#181818;stroke-width:0.5;stroke-dasharray:5.0,5.0;" x1="525" x2="525" y1="82.2969" y2="395.625"/><text fill="#000000" font-family="sans-serif" font-size="14" lengthAdjust="spacing" textLength="27" x="31" y="78.9951">Dev</text><ellipse cx="47.5" cy="21.5" fill="#E2E2F0" rx="16" ry="16" style="stroke:#181818;stroke-width:0.5;"/><path d="M47.5,41.5 C51.5,41.5 54.5,41.5 58.5,37.5 C66.5,37.5 74.5,45.5 74.5,53.5 L74.5,57.5 C74.5,61.5 70.5,65.5 66.5,65.5 L28.5,65.5 C24.5,65.5 20.5,61.5 20.5,57.5 L20.5,53.5 C20.5,45.5 28.5,37.5 36.5,37.5 C40.5,41.5 43.5,41.5 47.5,41.5 " fill="#E2E2F0" style="stroke:#181818;stroke-width:0.5;"/><text fill="#000000" font-family="sans-serif" font-size="14" lengthAdjust="spacing" textLength="27" x="31" y="407.6201">Dev</text><ellipse cx="47.5" cy="427.4219" fill="#E2E2F0" rx="16" ry="16" style="stroke:#181818;stroke-width:0.5;"/><path d="M47.5,447.4219 C51.5,447.4219 54.5,447.4219 58.5,443.4219 C66.5,443.4219 74.5,451.4219 74.5,459.4219 L74.5,463.4219 C74.5,467.4219 70.5,471.4219 66.5,471.4219 L28.5,471.4219 C24.5,471.4219 20.5,467.4219 20.5,463.4219 L20.5,459.4219 C20.5,451.4219 28.5,443.4219 36.5,443.4219 C40.5,447.4219 43.5,447.4219 47.5,447.4219 " fill="#E2E2F0" style="stroke:#181818;stroke-width:0.5;"/><rect fill="#E2E2F0" height="30.2969" rx="2.5" ry="2.5" style="stroke:#181818;stroke-width:0.5;" width="74" x="173.5" y="51"/><text fill="#000000" font-family="sans-serif" font-size="14" lengthAdjust="spacing" textLength="60" x="180.5" y="70.9951">JSEngine</text><rect fill="#E2E2F0" height="30.2969" rx="2.5" ry="2.5" style="stroke:#181818;stroke-width:0.5;" width="74" x="173.5" y="394.625"/><text fill="#000000" font-family="sans-serif" font-size="14" lengthAdjust="spacing" textLength="60" x="180.5" y="414.6201">JSEngine</text><rect fill="#E2E2F0" height="30.2969" rx="2.5" ry="2.5" style="stroke:#181818;stroke-width:0.5;" width="103" x="314" y="51"/><text fill="#000000" font-family="sans-serif" font-size="14" lengthAdjust="spacing" textLength="89" x="321" y="70.9951">QueryEngine</text><rect fill="#E2E2F0" height="30.2969" rx="2.5" ry="2.5" style="stroke:#181818;stroke-width:0.5;" width="103" x="314" y="394.625"/><text fill="#000000" font-family="sans-serif" font-size="14" lengthAdjust="spacing" textLength="89" x="321" y="414.6201">QueryEngine</text><text fill="#000000" font-family="sans-serif" font-size="14" lengthAdjust="spacing" textLength="49" x="498" y="78.9951">Bucket</text><path d="M507.5,30 C507.5,20 525.5,20 525.5,20 C525.5,20 543.5,20 543.5,30 L543.5,56 C543.5,66 525.5,66 525.5,66 C525.5,66 507.5,66 507.5,56 L507.5,30 " fill="#E2E2F0" style="stroke:#181818;stroke-width:1.5;"/><path d="M507.5,30 C507.5,40 525.5,40 525.5,40 C525.5,40 543.5,40 543.5,30 " fill="none" style="stroke:#181818;stroke-width:1.5;"/><text fill="#000000" font-family="sans-serif" font-size="14" lengthAdjust="spacing" textLength="49" x="498" y="407.6201">Bucket</text><path d="M507.5,420.9219 C507.5,410.9219 525.5,410.9219 525.5,410.9219 C525.5,410.9219 543.5,410.9219 543.5,420.9219 L543.5,446.9219 C543.5,456.9219 525.5,456.9219 525.5,456.9219 C525.5,456.9219 507.5,456.9219 507.5,446.9219 L507.5,420.9219 " fill="#E2E2F0" style="stroke:#181818;stroke-width:1.5;"/><path d="M507.5,420.9219 C507.5,430.9219 525.5,430.9219 525.5,430.9219 C525.5,430.9219 543.5,430.9219 543.5,420.9219 " fill="none" style="stroke:#181818;stroke-width:1.5;"/><rect fill="#FFFFFF" height="87.3984" style="stroke:#181818;stroke-width:1.0;" width="10" x="205.5" y="113.4297"/><rect fill="#FFFFFF" height="29.1328" style="stroke:#181818;stroke-width:1.0;" width="10" x="360.5" y="142.5625"/><rect fill="#FFFFFF" height="87.3984" style="stroke:#181818;stroke-width:1.0;" width="10" x="360.5" y="283.2266"/><rect fill="#FFFFFF" height="29.1328" style="stroke:#181818;stroke-width:1.0;" width="10" x="520.5" y="312.3594"/><line style="stroke:#181818;stroke-width:1.0;" x1="203.5" x2="193.5" y1="113.4297" y2="109.4297"/><line style="stroke:#181818;stroke-width:1.0;" x1="203.5" x2="193.5" y1="113.4297" y2="117.4297"/><line style="stroke:#181818;stroke-width:1.0;" x1="47.5" x2="204.5" y1="113.4297" y2="113.4297"/><text fill="#000000" font-family="sans-serif" font-size="13" lengthAdjust="spacing" textLength="126" x="54.5" y="108.3638">JS: var q = select &#8230;</text><line style="stroke:#181818;stroke-width:1.0;" x1="358.5" x2="348.5" y1="142.5625" y2="138.5625"/><line style="stroke:#181818;stroke-width:1.0;" x1="358.5" x2="348.5" y1="142.5625" y2="146.5625"/><line style="stroke:#181818;stroke-width:1.0;" x1="215.5" x2="359.5" y1="142.5625" y2="142.5625"/><text fill="#000000" font-family="sans-serif" font-size="13" lengthAdjust="spacing" textLength="96" x="222.5" y="137.4966">SQL++(&#8230;) call</text><line style="stroke:#181818;stroke-width:1.0;" x1="216.5" x2="226.5" y1="171.6953" y2="167.6953"/><line style="stroke:#181818;stroke-width:1.0;" x1="216.5" x2="226.5" y1="171.6953" y2="175.6953"/><line style="stroke:#181818;stroke-width:1.0;" x1="215.5" x2="364.5" y1="171.6953" y2="171.6953"/><text fill="#000000" font-family="sans-serif" font-size="13" lengthAdjust="spacing" textLength="79" x="232.5" y="166.6294">return query</text><line style="stroke:#181818;stroke-width:1.0;" x1="48.5" x2="58.5" y1="200.8281" y2="196.8281"/><line style="stroke:#181818;stroke-width:1.0;" x1="48.5" x2="58.5" y1="200.8281" y2="204.8281"/><line style="stroke:#181818;stroke-width:1.0;" x1="47.5" x2="209.5" y1="200.8281" y2="200.8281"/><text fill="#000000" font-family="sans-serif" font-size="13" lengthAdjust="spacing" textLength="51" x="64.5" y="195.7622">return q</text><path d="M10,215.8281 L87,215.8281 L87,222.9609 L77,232.9609 L10,232.9609 L10,215.8281 " fill="#EEEEEE" style="stroke:#000000;stroke-width:1.5;"/><rect fill="none" height="162.7969" style="stroke:#000000;stroke-width:1.5;" width="553" x="10" y="215.8281"/><text fill="#000000" font-family="sans-serif" font-size="13" font-weight="bold" lengthAdjust="spacing" textLength="32" x="25" y="228.895">loop</text><text fill="#000000" font-family="sans-serif" font-size="11" font-weight="bold" lengthAdjust="spacing" textLength="140" x="102" y="228.0386">[Every document in q]</text><line style="stroke:#181818;stroke-width:1.0;" x1="208.5" x2="198.5" y1="254.0938" y2="250.0938"/><line style="stroke:#181818;stroke-width:1.0;" x1="208.5" x2="198.5" y1="254.0938" y2="258.0938"/><line style="stroke:#181818;stroke-width:1.0;" x1="47.5" x2="209.5" y1="254.0938" y2="254.0938"/><text fill="#000000" font-family="sans-serif" font-size="13" lengthAdjust="spacing" textLength="139" x="54.5" y="249.0278">operate on document</text><line style="stroke:#181818;stroke-width:1.0;" x1="358.5" x2="348.5" y1="283.2266" y2="279.2266"/><line style="stroke:#181818;stroke-width:1.0;" x1="358.5" x2="348.5" y1="283.2266" y2="287.2266"/><line style="stroke:#181818;stroke-width:1.0;" x1="210.5" x2="359.5" y1="283.2266" y2="283.2266"/><text fill="#000000" font-family="sans-serif" font-size="13" lengthAdjust="spacing" textLength="90" x="217.5" y="278.1606">get document</text><line style="stroke:#181818;stroke-width:1.0;" x1="518.5" x2="508.5" y1="312.3594" y2="308.3594"/><line style="stroke:#181818;stroke-width:1.0;" x1="518.5" x2="508.5" y1="312.3594" y2="316.3594"/><line style="stroke:#181818;stroke-width:1.0;" x1="370.5" x2="519.5" y1="312.3594" y2="312.3594"/><text fill="#000000" font-family="sans-serif" font-size="13" lengthAdjust="spacing" textLength="90" x="377.5" y="307.2935">get document</text><line style="stroke:#181818;stroke-width:1.0;" x1="371.5" x2="381.5" y1="341.4922" y2="337.4922"/><line style="stroke:#181818;stroke-width:1.0;" x1="371.5" x2="381.5" y1="341.4922" y2="345.4922"/><line style="stroke:#181818;stroke-width:1.0;" x1="370.5" x2="524.5" y1="341.4922" y2="341.4922"/><text fill="#000000" font-family="sans-serif" font-size="13" lengthAdjust="spacing" textLength="126" x="387.5" y="336.4263">retrieved document</text><line style="stroke:#181818;stroke-width:1.0;" x1="211.5" x2="221.5" y1="370.625" y2="366.625"/><line style="stroke:#181818;stroke-width:1.0;" x1="211.5" x2="221.5" y1="370.625" y2="374.625"/><line style="stroke:#181818;stroke-width:1.0;" x1="210.5" x2="364.5" y1="370.625" y2="370.625"/><text fill="#000000" font-family="sans-serif" font-size="13" lengthAdjust="spacing" textLength="126" x="227.5" y="365.5591">retrieved document</text><!--SRC=[XP51JiCm44NtFiLVWg9S858hWUW6iQboWi4PLLOTEtKSe-uu3GVZ9DX9cpeH1Qz6C_F-_1dtHsKwSjI2fBUkzcVDUFhWthOin9J42mU1sEMLL1qPZzTwPmxAy3Ax7zYThuM6FBrJptWUv96zW4WoABVRcQvYL26GmmaRzAnPUdn_VerZLI3FsQ1hD2faar2XthyLnKC47o59wmnVECgXt0QYX6C_E8DJQedU-NU5XOUqpGrSGBDhWVYqjHrs8UgWiN9eEPvAZSZurbT1ycCxTad9cfcvjD-zGr54xi1-3QpNdlxZRlkbl5OlosbPfpXmyz-Ccya_C3RD3m00]--></g></svg>