<?xml version="1.0" encoding="us-ascii" standalone="no"?><svg xmlns="http://www.w3.org/2000/svg" xmlns:xlink="http://www.w3.org/1999/xlink" contentStyleType="text/css" height="234px" preserveAspectRatio="none" style="width:1188px;height:234px;background:#FFFFFF;" version="1.1" viewBox="0 0 1188 234" width="1188px" zoomAndPan="magnify"><defs/><g><!--cluster Travel Data (Bucket)--><g id="cluster_Travel Data (Bucket)"><rect fill="none" height="221.3" rx="35" ry="35" style="stroke:#181818;stroke-width:1.0;" width="1175" x="7" y="7"/><text fill="#000000" font-family="sans-serif" font-size="14" font-weight="bold" lengthAdjust="spacing" textLength="160" x="514.5" y="26.9951">Travel Data (Bucket)</text></g><!--cluster Inventory (Scope)--><g id="cluster_Inventory (Scope)"><path d="M567.5,50 L709.5,50 A3.75,3.75 0 0 1 712,52.5 L719,72.2969 L1155.5,72.2969 A2.5,2.5 0 0 1 1158,74.7969 L1158,201.8 A2.5,2.5 0 0 1 1155.5,204.3 L567.5,204.3 A2.5,2.5 0 0 1 565,201.8 L565,52.5 A2.5,2.5 0 0 1 567.5,50 " fill="none" style="stroke:#000000;stroke-width:1.5;"/><line style="stroke:#000000;stroke-width:1.5;" x1="565" x2="719" y1="72.2969" y2="72.2969"/><text fill="#000000" font-family="sans-serif" font-size="14" font-weight="bold" lengthAdjust="spacing" textLength="141" x="569" y="64.9951">Inventory (Scope)</text></g><!--cluster Airlines (Collection)--><g id="cluster_Airlines (Collection)"><path d="M966.5,93 L1121.5,93 A3.75,3.75 0 0 1 1124,95.5 L1131,115.2969 L1131.5,115.2969 A2.5,2.5 0 0 1 1134,117.7969 L1134,177.8 A2.5,2.5 0 0 1 1131.5,180.3 L966.5,180.3 A2.5,2.5 0 0 1 964,177.8 L964,95.5 A2.5,2.5 0 0 1 966.5,93 " fill="none" style="stroke:#000000;stroke-width:1.5;"/><line style="stroke:#000000;stroke-width:1.5;" x1="964" x2="1131" y1="115.2969" y2="115.2969"/><text fill="#000000" font-family="sans-serif" font-size="14" font-weight="bold" lengthAdjust="spacing" textLength="154" x="968" y="107.9951">Airlines (Collection)</text></g><!--cluster Hotels (Collection)--><g id="cluster_Hotels (Collection)"><path d="M781.5,93 L927.5,93 A3.75,3.75 0 0 1 930,95.5 L937,115.2969 L937.5,115.2969 A2.5,2.5 0 0 1 940,117.7969 L940,177.8 A2.5,2.5 0 0 1 937.5,180.3 L781.5,180.3 A2.5,2.5 0 0 1 779,177.8 L779,95.5 A2.5,2.5 0 0 1 781.5,93 " fill="none" style="stroke:#000000;stroke-width:1.5;"/><line style="stroke:#000000;stroke-width:1.5;" x1="779" x2="937" y1="115.2969" y2="115.2969"/><text fill="#000000" font-family="sans-serif" font-size="14" font-weight="bold" lengthAdjust="spacing" textLength="145" x="783" y="107.9951">Hotels (Collection)</text></g><!--cluster Routes (Collection)--><g id="cluster_Routes (Collection)"><path d="M591.5,93 L742.5,93 A3.75,3.75 0 0 1 745,95.5 L752,115.2969 L752.5,115.2969 A2.5,2.5 0 0 1 755,117.7969 L755,177.8 A2.5,2.5 0 0 1 752.5,180.3 L591.5,180.3 A2.5,2.5 0 0 1 589,177.8 L589,95.5 A2.5,2.5 0 0 1 591.5,93 " fill="none" style="stroke:#000000;stroke-width:1.5;"/><line style="stroke:#000000;stroke-width:1.5;" x1="589" x2="752" y1="115.2969" y2="115.2969"/><text fill="#000000" font-family="sans-serif" font-size="14" font-weight="bold" lengthAdjust="spacing" textLength="150" x="593" y="107.9951">Routes (Collection)</text></g><!--cluster User Bookings (Scope)--><g id="cluster_User Bookings (Scope)"><path d="M33.5,50 L214.5,50 A3.75,3.75 0 0 1 217,52.5 L224,72.2969 L538.5,72.2969 A2.5,2.5 0 0 1 541,74.7969 L541,201.8 A2.5,2.5 0 0 1 538.5,204.3 L33.5,204.3 A2.5,2.5 0 0 1 31,201.8 L31,52.5 A2.5,2.5 0 0 1 33.5,50 " fill="none" style="stroke:#000000;stroke-width:1.5;"/><line style="stroke:#000000;stroke-width:1.5;" x1="31" x2="224" y1="72.2969" y2="72.2969"/><text fill="#000000" font-family="sans-serif" font-size="14" font-weight="bold" lengthAdjust="spacing" textLength="180" x="35" y="64.9951">User Bookings (Scope)</text></g><!--cluster Flights (Collection)--><g id="cluster_Flights (Collection)"><path d="M327.5,93 L475.5,93 A3.75,3.75 0 0 1 478,95.5 L485,115.2969 L514.5,115.2969 A2.5,2.5 0 0 1 517,117.7969 L517,177.8 A2.5,2.5 0 0 1 514.5,180.3 L327.5,180.3 A2.5,2.5 0 0 1 325,177.8 L325,95.5 A2.5,2.5 0 0 1 327.5,93 " fill="none" style="stroke:#000000;stroke-width:1.5;"/><line style="stroke:#000000;stroke-width:1.5;" x1="325" x2="485" y1="115.2969" y2="115.2969"/><text fill="#000000" font-family="sans-serif" font-size="14" font-weight="bold" lengthAdjust="spacing" textLength="147" x="329" y="107.9951">Flights (Collection)</text></g><!--cluster Accommodations (Collection)--><g id="cluster_Accommodations (Collection)"><path d="M57.5,93 L288.5,93 A3.75,3.75 0 0 1 291,95.5 L298,115.2969 L298.5,115.2969 A2.5,2.5 0 0 1 301,117.7969 L301,177.8 A2.5,2.5 0 0 1 298.5,180.3 L57.5,180.3 A2.5,2.5 0 0 1 55,177.8 L55,95.5 A2.5,2.5 0 0 1 57.5,93 " fill="none" style="stroke:#000000;stroke-width:1.5;"/><line style="stroke:#000000;stroke-width:1.5;" x1="55" x2="298" y1="115.2969" y2="115.2969"/><text fill="#000000" font-family="sans-serif" font-size="14" font-weight="bold" lengthAdjust="spacing" textLength="230" x="59" y="107.9951">Accommodations (Collection)</text></g><!--entity Best Air--><g id="elem_Best Air"><path d="M1012.5,130.5 L1012.5,161.7969 A2.5,2.5 0 0 0 1015,164.2969 L1083,164.2969 A2.5,2.5 0 0 0 1085.5,161.7969 L1085.5,138 L1075.5,128 L1015,128 A2.5,2.5 0 0 0 1012.5,130.5 " fill="#F1F1F1" style="stroke:#181818;stroke-width:0.5;"/><path d="M1075.5,128 L1075.5,135.5 A2.5,2.5 0 0 0 1078,138 L1085.5,138 " fill="#F1F1F1" style="stroke:#181818;stroke-width:0.5;"/><text fill="#000000" font-family="sans-serif" font-size="14" lengthAdjust="spacing" textLength="53" x="1022.5" y="150.9951">Best Air</text></g><!--entity Caesar's Palace--><g id="elem_Caesar's Palace"><path d="M795,130.5 L795,161.7969 A2.5,2.5 0 0 0 797.5,164.2969 L920.5,164.2969 A2.5,2.5 0 0 0 923,161.7969 L923,138 L913,128 L797.5,128 A2.5,2.5 0 0 0 795,130.5 " fill="#F1F1F1" style="stroke:#181818;stroke-width:0.5;"/><path d="M913,128 L913,135.5 A2.5,2.5 0 0 0 915.5,138 L923,138 " fill="#F1F1F1" style="stroke:#181818;stroke-width:0.5;"/><text fill="#000000" font-family="sans-serif" font-size="14" lengthAdjust="spacing" textLength="108" x="805" y="150.9951">Caesar's Palace</text></g><!--entity CVG -> BWI--><g id="elem_CVG -&gt; BWI"><path d="M621.5,130.5 L621.5,161.7969 A2.5,2.5 0 0 0 624,164.2969 L720,164.2969 A2.5,2.5 0 0 0 722.5,161.7969 L722.5,138 L712.5,128 L624,128 A2.5,2.5 0 0 0 621.5,130.5 " fill="#F1F1F1" style="stroke:#181818;stroke-width:0.5;"/><path d="M712.5,128 L712.5,135.5 A2.5,2.5 0 0 0 715,138 L722.5,138 " fill="#F1F1F1" style="stroke:#181818;stroke-width:0.5;"/><text fill="#000000" font-family="sans-serif" font-size="14" lengthAdjust="spacing" textLength="81" x="631.5" y="150.9951">CVG -&gt; BWI</text></g><!--entity Baltimore to Cancun--><g id="elem_Baltimore to Cancun"><path d="M341,130.5 L341,161.7969 A2.5,2.5 0 0 0 343.5,164.2969 L498.5,164.2969 A2.5,2.5 0 0 0 501,161.7969 L501,138 L491,128 L343.5,128 A2.5,2.5 0 0 0 341,130.5 " fill="#F1F1F1" style="stroke:#181818;stroke-width:0.5;"/><path d="M491,128 L491,135.5 A2.5,2.5 0 0 0 493.5,138 L501,138 " fill="#F1F1F1" style="stroke:#181818;stroke-width:0.5;"/><text fill="#000000" font-family="sans-serif" font-size="14" lengthAdjust="spacing" textLength="140" x="351" y="150.9951">Baltimore to Cancun</text></g><!--entity Stay at Hilton--><g id="elem_Stay at Hilton"><path d="M123.5,130.5 L123.5,161.7969 A2.5,2.5 0 0 0 126,164.2969 L230,164.2969 A2.5,2.5 0 0 0 232.5,161.7969 L232.5,138 L222.5,128 L126,128 A2.5,2.5 0 0 0 123.5,130.5 " fill="#F1F1F1" style="stroke:#181818;stroke-width:0.5;"/><path d="M222.5,128 L222.5,135.5 A2.5,2.5 0 0 0 225,138 L232.5,138 " fill="#F1F1F1" style="stroke:#181818;stroke-width:0.5;"/><text fill="#000000" font-family="sans-serif" font-size="14" lengthAdjust="spacing" textLength="89" x="133.5" y="150.9951">Stay at Hilton</text></g><!--SRC=[bP3B2i9034NtVaNenhhm5mHRyR4JwsCTnbY7fXEPIGiY_NUhAq55vowooiqX9wXuB0cIhSUM66Qe26dMc8fqbC1j02yv2H_9Gx9oBRc-U8MqC7AXjyL7BcYgv-MfzMmT1KXpOIQZLjp7nXDXkQza51JwNlAsqttdB4M9OoWvKa0_3B16HaDHi8qq6lLIlb_0U0BPOVMBqtrqlWlzp4Ggwyhmb_Svs_AiKTgHrTRY2LGWHsSQ5oLbQepKjHpnmOe15ufNG8MbPHNtdw3k3W00]--></g></svg>