<?xml version="1.0" encoding="us-ascii" standalone="no"?><svg xmlns="http://www.w3.org/2000/svg" xmlns:xlink="http://www.w3.org/1999/xlink" contentStyleType="text/css" height="167px" preserveAspectRatio="none" style="width:691px;height:167px;background:#FFFFFF;" version="1.1" viewBox="0 0 691 167" width="691px" zoomAndPan="magnify"><defs/><g><!--cluster Scope 1--><g id="cluster_Scope 1"><rect fill="none" height="154.3" rx="35" ry="35" style="stroke:#181818;stroke-width:1.0;" width="327" x="7" y="7"/><text fill="#000000" font-family="sans-serif" font-size="14" font-weight="bold" lengthAdjust="spacing" textLength="64" x="138.5" y="26.9951">Scope 1</text></g><!--cluster Collection A--><g id="cluster_Collection A"><path d="M33.5,50 L128.5,50 A3.75,3.75 0 0 1 131,52.5 L138,72.2969 L307.5,72.2969 A2.5,2.5 0 0 1 310,74.7969 L310,134.8 A2.5,2.5 0 0 1 307.5,137.3 L33.5,137.3 A2.5,2.5 0 0 1 31,134.8 L31,52.5 A2.5,2.5 0 0 1 33.5,50 " fill="none" style="stroke:#000000;stroke-width:1.5;"/><line style="stroke:#000000;stroke-width:1.5;" x1="31" x2="138" y1="72.2969" y2="72.2969"/><text fill="#000000" font-family="sans-serif" font-size="14" font-weight="bold" lengthAdjust="spacing" textLength="94" x="35" y="64.9951">Collection A</text></g><!--cluster Scope 2--><g id="cluster_Scope 2"><rect fill="none" height="154.3" rx="35" ry="35" style="stroke:#181818;stroke-width:1.0;" width="327" x="358" y="7"/><text fill="#000000" font-family="sans-serif" font-size="14" font-weight="bold" lengthAdjust="spacing" textLength="64" x="489.5" y="26.9951">Scope 2</text></g><!--cluster Collection B--><g id="cluster_Collection B"><path d="M384.5,50 L478.5,50 A3.75,3.75 0 0 1 481,52.5 L488,72.2969 L658.5,72.2969 A2.5,2.5 0 0 1 661,74.7969 L661,134.8 A2.5,2.5 0 0 1 658.5,137.3 L384.5,137.3 A2.5,2.5 0 0 1 382,134.8 L382,52.5 A2.5,2.5 0 0 1 384.5,50 " fill="none" style="stroke:#000000;stroke-width:1.5;"/><line style="stroke:#000000;stroke-width:1.5;" x1="382" x2="488" y1="72.2969" y2="72.2969"/><text fill="#000000" font-family="sans-serif" font-size="14" font-weight="bold" lengthAdjust="spacing" textLength="93" x="386" y="64.9951">Collection B</text></g><!--entity Document 2--><g id="elem_Document 2"><path d="M188,87.5 L188,118.7969 A2.5,2.5 0 0 0 190.5,121.2969 L291.5,121.2969 A2.5,2.5 0 0 0 294,118.7969 L294,95 L284,85 L190.5,85 A2.5,2.5 0 0 0 188,87.5 " fill="#F1F1F1" style="stroke:#181818;stroke-width:0.5;"/><path d="M284,85 L284,92.5 A2.5,2.5 0 0 0 286.5,95 L294,95 " fill="#F1F1F1" style="stroke:#181818;stroke-width:0.5;"/><text fill="#000000" font-family="sans-serif" font-size="14" lengthAdjust="spacing" textLength="86" x="198" y="107.9951">Document 2</text></g><!--entity Document 1--><g id="elem_Document 1"><path d="M47,87.5 L47,118.7969 A2.5,2.5 0 0 0 49.5,121.2969 L150.5,121.2969 A2.5,2.5 0 0 0 153,118.7969 L153,95 L143,85 L49.5,85 A2.5,2.5 0 0 0 47,87.5 " fill="#F1F1F1" style="stroke:#181818;stroke-width:0.5;"/><path d="M143,85 L143,92.5 A2.5,2.5 0 0 0 145.5,95 L153,95 " fill="#F1F1F1" style="stroke:#181818;stroke-width:0.5;"/><text fill="#000000" font-family="sans-serif" font-size="14" lengthAdjust="spacing" textLength="86" x="57" y="107.9951">Document 1</text></g><!--entity Document 4--><g id="elem_Document 4"><path d="M539,87.5 L539,118.7969 A2.5,2.5 0 0 0 541.5,121.2969 L642.5,121.2969 A2.5,2.5 0 0 0 645,118.7969 L645,95 L635,85 L541.5,85 A2.5,2.5 0 0 0 539,87.5 " fill="#F1F1F1" style="stroke:#181818;stroke-width:0.5;"/><path d="M635,85 L635,92.5 A2.5,2.5 0 0 0 637.5,95 L645,95 " fill="#F1F1F1" style="stroke:#181818;stroke-width:0.5;"/><text fill="#000000" font-family="sans-serif" font-size="14" lengthAdjust="spacing" textLength="86" x="549" y="107.9951">Document 4</text></g><!--entity Document 3--><g id="elem_Document 3"><path d="M398,87.5 L398,118.7969 A2.5,2.5 0 0 0 400.5,121.2969 L501.5,121.2969 A2.5,2.5 0 0 0 504,118.7969 L504,95 L494,85 L400.5,85 A2.5,2.5 0 0 0 398,87.5 " fill="#F1F1F1" style="stroke:#181818;stroke-width:0.5;"/><path d="M494,85 L494,92.5 A2.5,2.5 0 0 0 496.5,95 L504,95 " fill="#F1F1F1" style="stroke:#181818;stroke-width:0.5;"/><text fill="#000000" font-family="sans-serif" font-size="14" lengthAdjust="spacing" textLength="86" x="408" y="107.9951">Document 3</text></g><!--SRC=[Aox9BqfCJrLG2axEBqXLC5HIgEPIW8A2nEHii9npVavEQd99PdwUWgCIGXu4qZ9pW0fSyfDBSrFpIXICbF396Y9aQxaGP36g6um8kS49MG4MQqpmEi8Omn40]--></g></svg>