<?xml version="1.0" encoding="UTF-8" standalone="no"?><svg xmlns="http://www.w3.org/2000/svg" xmlns:xlink="http://www.w3.org/1999/xlink" contentStyleType="text/css" height="560.4167px" preserveAspectRatio="none" style="width:447px;height:560px;background:#00000000;" version="1.1" viewBox="0 0 447 560" width="447.9167px" zoomAndPan="magnify"><defs><linearGradient id="gyn8jabnvyvnh0" x1="50%" x2="50%" y1="0%" y2="100%"><stop offset="0%" stop-color="#FFFFFF"/><stop offset="100%" stop-color="#FFFFFF"/></linearGradient><filter height="300%" id="fyn8jabnvyvnh" width="300%" x="-1" y="-1"><feGaussianBlur result="blurOut" stdDeviation="2.0833333333333335"/><feColorMatrix in="blurOut" result="blurOut2" type="matrix" values="0 0 0 0 0 0 0 0 0 0 0 0 0 0 0 0 0 0 .4 0"/><feOffset dx="4.166666666666667" dy="4.166666666666667" in="blurOut2" result="blurOut3"/><feBlend in="SourceGraphic" in2="blurOut3" mode="normal"/></filter><linearGradient id="gyn8jabnvyvnh1" x1="50%" x2="50%" y1="0%" y2="100%"><stop offset="0%" stop-color="#4DABF5"/><stop offset="100%" stop-color="#2196F3"/></linearGradient></defs><g><!--MD5=[6a6f05bf1575242a6497d05c8d3cb5e3]
cluster Capella--><g id="cluster_Capella"><path d="M264.0079,40.8613 C273.6951,24.3434 285.3638,22.1828 297.1551,38.7534 C306.687,20.8632 318.499,17.7634 332.5493,34.0779 C341.9606,16.6667 356.8946,19.9852 365.4421,34.9554 C380.2197,20.5002 400.7902,19.7642 407.2917,43.9247 C408.4818,43.4818 409.1473,44.1984 408.8355,45.3652 C424.6453,54.2694 425.8272,64.1266 411.3703,75.5707 C424.732,85.6097 423.4374,93.9565 410.2344,102.8909 C424.388,110.0512 426.1406,118.2115 414.231,129.314 C427.104,136.0418 426.5133,145.4992 417.0864,154.7321 C429.1536,163.8941 426.7855,173.1725 414.9595,180.3509 C428.8306,187.2296 432.0507,196.5637 420.2714,208.3148 C432.1219,215.2804 435.7417,228.1047 421.7318,236.4144 C432.8386,246.1809 428.1204,255.5982 416.8413,260.8923 C430.5884,267.2942 431.5043,280.0291 417.4176,287.0444 C429.0147,296.562 432.4344,306.0664 416.8901,315.0732 C430.8246,326.6856 429.2996,339.4773 411.8955,346.0343 C425.5287,353.5855 425.9896,365.2962 411.7965,372.7443 C424.6241,382.8466 423.0459,391.7938 409.2256,399.3181 C419.619,413.342 419.3625,424.4608 400,429.3413 C402.1701,430.2956 401.8678,431.7354 400.4579,433.1231 C390.9896,450.4228 376.9012,448.5197 366.5787,434.0335 C356.5588,453.3791 345.6786,452.55 332.8139,436.768 C321.3905,453.5279 303.7904,450.885 297.3882,431.8048 C281.5098,448.4076 260.2336,445.2392 253.125,422.0497 C254.3927,422.3983 254.6612,423.239 253.6776,424.1735 C240.9513,414.2392 240.9888,404.8651 255.9858,397.3132 C244.4476,389.7017 245.2511,381.4434 254.9455,372.9261 C237.7311,366.434 239.3478,350.7171 252.0509,341.4718 C240.3444,334.8069 239.7478,322.846 253.2265,317.4118 C237.9276,310.5051 238.2212,302.5895 249.416,291.7489 C237.7139,285.5614 235.901,273.129 246.6126,264.6249 C232.5858,253.3458 233.2922,243.5211 249.5123,235.2253 C236.9968,228.2003 235.3772,215.8724 246.8867,206.6406 C236.2528,197.5039 237.5329,189.4444 249.7936,183.1396 C235.023,172.2618 239.6696,163.8115 251.8459,154.8914 C238.8022,147.6769 235.2564,133.5498 250.8938,125.409 C239.7562,117.0123 240.9942,108.3963 253.6239,102.8797 C240.9241,95.1194 238.9072,82.8052 253.3827,74.8114 C234.6047,58.8982 239.3747,45.2098 260.4167,36.633 C263.7177,35.9795 264.7304,38.0975 264.0079,40.8613 " fill="url(#gyn8jabnvyvnh0)" filter="url(#fyn8jabnvyvnh)" style="stroke:#F2FCFE;stroke-width:1.0416666666666667;"/><text fill="#2196F3" font-family="&quot;Verdana&quot;" font-size="20.8333" font-weight="bold" lengthAdjust="spacing" textLength="72.9167" x="293.75" y="73.0913">Capella</text></g><!--MD5=[b9a6fa3e926141d370e499cfdaf642ce]
entity CB--><g id="elem_CB"><path d="M16.6667,103.2997 C16.6667,92.883 87.5,92.883 87.5,92.883 C87.5,92.883 158.3333,92.883 158.3333,103.2997 L158.3333,148.5081 C158.3333,158.9248 87.5,158.9248 87.5,158.9248 C87.5,158.9248 16.6667,158.9248 16.6667,148.5081 L16.6667,103.2997 " fill="url(#gyn8jabnvyvnh1)" filter="url(#fyn8jabnvyvnh)" style="stroke:#2196F3;stroke-width:1.0416666666666667;"/><path d="M16.6667,103.2997 C16.6667,113.7163 87.5,113.7163 87.5,113.7163 C87.5,113.7163 158.3333,113.7163 158.3333,103.2997 " fill="none" style="stroke:#2196F3;stroke-width:1.0416666666666667;"/><text fill="#222222" font-family="&quot;Verdana&quot;" font-size="12.5" lengthAdjust="spacing" textLength="100" x="37.5" y="140.7998">Couchbase Server</text></g><!--MD5=[d6ea8f831e7fce7b55436a78f0727953]
entity Cap--><g id="elem_Cap"><path d="M267.7083,103.2997 C267.7083,92.883 330.2083,92.883 330.2083,92.883 C330.2083,92.883 392.7083,92.883 392.7083,103.2997 L392.7083,148.5081 C392.7083,158.9248 330.2083,158.9248 330.2083,158.9248 C330.2083,158.9248 267.7083,158.9248 267.7083,148.5081 L267.7083,103.2997 " fill="url(#gyn8jabnvyvnh1)" filter="url(#fyn8jabnvyvnh)" style="stroke:#2196F3;stroke-width:1.0416666666666667;"/><path d="M267.7083,103.2997 C267.7083,113.7163 330.2083,113.7163 330.2083,113.7163 C330.2083,113.7163 392.7083,113.7163 392.7083,103.2997 " fill="none" style="stroke:#2196F3;stroke-width:1.0416666666666667;"/><text fill="#222222" font-family="&quot;Verdana&quot;" font-size="12.5" lengthAdjust="spacing" textLength="83.3333" x="288.5417" y="140.7998">Capella Bucket</text></g><!--MD5=[4ec5e0198a45b1576103bd8a641ef52b]
entity AS--><g id="elem_AS"><polygon fill="url(#gyn8jabnvyvnh0)" filter="url(#fyn8jabnvyvnh)" points="262.5,234.5497,272.9167,224.133,397.9167,224.133,397.9167,280.7998,387.5,291.2164,262.5,291.2164,262.5,234.5497" style="stroke:#222222;stroke-width:1.0416666666666667;"/><line style="stroke:#222222;stroke-width:1.0416666666666667;" x1="387.5" x2="397.9167" y1="234.5497" y2="224.133"/><line style="stroke:#222222;stroke-width:1.0416666666666667;" x1="262.5" x2="387.5" y1="234.5497" y2="234.5497"/><line style="stroke:#222222;stroke-width:1.0416666666666667;" x1="387.5" x2="387.5" y1="234.5497" y2="291.2164"/><text fill="#222222" font-family="&quot;Verdana&quot;" font-size="12.5" lengthAdjust="spacing" textLength="72.9167" x="288.5417" y="267.8831">App Services</text></g><!--MD5=[c410993456f51eb65cb3af9e16eec903]
entity AE--><g id="elem_AE"><polygon fill="url(#gyn8jabnvyvnh0)" filter="url(#fyn8jabnvyvnh)" points="261.9792,364.758,272.3958,354.3413,398.4375,354.3413,398.4375,411.0081,388.0208,421.4248,261.9792,421.4248,261.9792,364.758" style="stroke:#222222;stroke-width:1.0416666666666667;"/><line style="stroke:#222222;stroke-width:1.0416666666666667;" x1="388.0208" x2="398.4375" y1="364.758" y2="354.3413"/><line style="stroke:#222222;stroke-width:1.0416666666666667;" x1="261.9792" x2="388.0208" y1="364.758" y2="364.758"/><line style="stroke:#222222;stroke-width:1.0416666666666667;" x1="388.0208" x2="388.0208" y1="364.758" y2="421.4248"/><text fill="#222222" font-family="&quot;Verdana&quot;" font-size="12.5" lengthAdjust="spacing" textLength="73.9583" x="288.0208" y="398.0914">App Endpoint</text></g><!--MD5=[adbc3b47b0f1b1966c2f3e843f0924c6]
entity Clients--><g id="elem_Clients"><rect fill="#FFA500" filter="url(#fyn8jabnvyvnh)" height="56.6668" rx="4.1667" ry="4.1667" style="stroke:#999999;stroke-width:1.0416666666666667;" width="163.5417" x="248.4375" y="486.633"/><text fill="#333333" font-family="&quot;Verdana&quot;" font-size="12.5" lengthAdjust="spacing" textLength="121.875" x="269.2708" y="519.9664">Couchbase Lite clients</text></g><!--MD5=[d7d6e5f8340a5feb77a2c8a46f01d0e5]
link Cap to AS--><g id="link_Cap_AS"><path d="M330.2083,164.0184 C330.2083,181.1434 330.2083,201.4143 330.2083,218.6018 " fill="none" id="Cap-AS" style="stroke:#2196F3;stroke-width:3.125;"/><polygon fill="#2196F3" points="330.2083,223.8309,334.375,214.4559,330.2083,218.6226,326.0417,214.4559,330.2083,223.8309" style="stroke:#2196F3;stroke-width:3.125;"/><polygon fill="#2196F3" points="330.2083,158.7997,326.0417,168.1747,330.2083,164.008,334.375,168.1747,330.2083,158.7997" style="stroke:#2196F3;stroke-width:3.125;"/></g><!--MD5=[aafc56b36c11561eeef063e9af7f54d6]
link AS to AE--><g id="link_AS_AE"><path d="M330.2083,290.8413 C330.2083,310.258 330.2083,334.8934 330.2083,354.3101 " fill="none" id="AS-AE" style="stroke:#2196F3;stroke-width:3.125;"/></g><!--MD5=[09ea79e80d17967661632d4a2c4e13f4]
link AE to Clients--><g id="link_AE_Clients"><path d="M330.2083,421.2372 C330.2083,441.4872 330.2083,467.2476 330.2083,486.4351 " fill="none" id="AE-Clients" style="stroke:#2196F3;stroke-width:3.125;"/></g><!--MD5=[25cd24d1101ed814146a552c5ec36ff2]
link CB to Cap--><!--MD5=[245f9de0c61f64dcfaf1113b35066fe6]
@startuml
!theme materia


together {
    database "Couchbase Server" as CB
}

cloud Capella {
    database "Capella Bucket" as Cap
    node "App Services" as AS
    node "App Endpoint" as AE
}

agent "Couchbase Lite clients" as Clients

Cap <- -> AS
AS - - AE
AE - - Clients
' same XDCR line, but hidden, to get consistent positioning
CB -[hidden]> Cap   : "XDCR\t"
@enduml

@startuml



skinparam backgroundColor transparent
skinparam useBetaStyle false






<style>
  root {
    BackgroundColor transparent
    FontColor #FFF
    HyperLinkColor #fd7e14
    LineColor #1a78c2
    LineThickness 1
    Margin 10
    Padding 6
    Shadowing 0.0
  }
  node {
   Padding 15
   roundcorner 20
   BackgroundColor #2196F3-#1a78c2
  }
  caption {
    LineThickness 0
  }
  footer {
    LineThickness 0
  }
  groupHeader {
    BackgroundColor #fff
    FontColor #9C27B0
    FontStyle bold
  }
  header {
    LineThickness 0
  }
  referenceHeader {
    BackgroundColor transparent
    FontColor #222
    FontStyle bold
  }
  separator {
    BackgroundColor #222
    FontColor transparent
    FontStyle bold
  }
  title {
	FontSize 20
	BorderRoundCorner            8
	BorderThickness 	         1
	BackgroundColor  #fff-#fff
	FontColor #2196F3
	BorderColor #fff
  }
  nwdiagDiagram {
	network {
			FontColor #FFF
	BorderColor #2196F3
	BackgroundColor #4dabf5-#2196F3    
		LineColor #2196F3
		LineThickness 1.0
		FontColor #1a78c2
	}
	server {
			FontColor #FFF
	BorderColor #2196F3
	BackgroundColor #4dabf5-#2196F3
	}
	arrow {
		FontColor #1a78c2
		LineColor #1a78c2
	}
	group {
		BackGroundColor #fff
		LineColor $LIGHT_DARK
		LineThickness 2.0
		Margin 5
		Padding 5
	}
  }
  ganttDiagram {
	task {
			FontColor #FFF
	BorderColor #2196F3
	BackgroundColor #4dabf5-#2196F3
		LineColor #2196F3
		Margin 10
		Padding 6
	}
	note {
		FontColor #FFF
		LineColor #7D1F8D
		BackGroundColor #9C27B0
	}
	separator {
		LineColor #fff
		BackGroundColor #fff-#cccccc
		FontColor #222
	}
	milestone {
		FontColor #9C27B0
		FontSize 16
		FontStyle italic
		BackGroundColor #fff
		LineColor #cccccc
	}
	timeline {
		BackgroundColor #fff
		FontColor #222
	}
	closed {
		BackgroundColor #CC7A00
		FontColor #FFF
	}
  }
</style>
skinparam defaultFontName       "Verdana"
skinparam defaultFontSize       12
skinparam dpi                   100
skinparam shadowing             true
skinparam roundcorner           8
skinparam ParticipantPadding    40
skinparam BoxPadding            40
skinparam Padding               10
skinparam ArrowColor            #666
skinparam stereotype {
    CBackgroundColor #fff
    CBorderColor #cccccc
    ABackgroundColor #70bf73
    ABorderColor #3D8C40
    IBackgroundColor #B7161C
    IBorderColor #b7161c
    EBackgroundColor #ffad33
    EBorderColor #CC7A00
    NBackgroundColor #b052c0
    NBorderColor #7D1F8D
}
skinparam title {
	FontColor	                 #2196F3
	BorderColor	                 #cccccc
	FontSize	    	         20
	BorderRoundCorner            8
	BorderThickness 	         1
	BackgroundColor              #fff-#fff
}

skinparam legend {
	BackgroundColor #fff
	BorderColor #cccccc
	FontColor #222
}

skinparam swimlane {
	BorderColor #9C27B0
	BorderThickness 2
	TitleBackgroundColor  #fff-#fff
	TitleFontColor #2196F3
}


skinparam activity {
		FontColor #FFF
	BorderColor #2196F3
	BackgroundColor #4dabf5-#2196F3
	BarColor #4CAF50
	StartColor #9C27B0
	EndColor #9C27B0
	DiamondBackgroundColor #FFF-#fff
  	DiamondBorderColor #cccccc
	DiamondFontColor #222
}


skinparam participant {
		FontColor #FFF
	BorderColor #2196F3
	BackgroundColor #4dabf5-#2196F3
	ParticipantBorderThickness 2
}


skinparam actor {
		FontColor #FFF
	BorderColor #2196F3
	BackgroundColor #4dabf5-#2196F3
	FontColor #222
}


skinparam arrow {
	Thickness 3
	Color #2196F3
	FontColor #222
}


skinparam sequence {
	BorderColor #2196F3
	TitleFontColor #2196F3
	BackgroundColor transparent
	StartColor #2196F3
	EndColor #2196F3
	BoxBackgroundColor #fff
	BoxBorderColor #666
	BoxFontColor #222
	DelayFontColor #222
	LifeLineBorderColor #cccccc
	LifeLineBorderThickness 2
	LifeLineBackgroundColor #fff
	GroupBorderColor #666
	GroupFontColor #222
	GroupHeaderFontColor #9C27B0
	DividerBackgroundColor #FFF-#fff
    DividerBorderColor #666
    DividerBorderThickness 2
    DividerFontColor #222
	ReferenceBackgroundColor transparent
	ReferenceBorderColor #666
	ReferenceFontColor #222
	ReferenceHeaderFontColor #9C27B0
	StereotypeFontColor #FFF
}


skinparam partition {
	BorderColor #2196F3
	FontColor #2196F3
	BackgroundColor transparent
}


skinparam collections {
		FontColor #FFF
	BorderColor #2196F3
	BackgroundColor #4dabf5-#2196F3
}


skinparam control {
		FontColor #FFF
	BorderColor #2196F3
	BackgroundColor #4dabf5-#2196F3
	FontColor #222
}


skinparam entity {
		FontColor #FFF
	BorderColor #2196F3
	BackgroundColor #4dabf5-#2196F3
	FontColor #222
}


skinparam boundary {
		FontColor #FFF
	BorderColor #2196F3
	BackgroundColor #4dabf5-#2196F3
	FontColor #222
}


skinparam agent {
	BackgroundColor #orange
	BorderColor #999999
	FontColor #333333
}


skinparam note {
	BorderThickness 1
	BackgroundColor #b052c0-#9C27B0
	BorderColor #9C27B0
	FontColor #FFF
}


skinparam artifact {
	BackgroundColor #FFF-#fff
	BorderColor #666
	FontColor #666
}


skinparam component {
		FontColor #FFF
	BorderColor #2196F3
	BackgroundColor #4dabf5-#2196F3
}


skinparam interface {
	BackgroundColor  #B7161C
	BorderColor  #e51c23
	FontColor #222
}


skinparam storage {
	BackgroundColor #ffad33-#ff9800
  	BorderColor #ff9800
	FontColor #FFF
}


skinparam node {
	BackgroundColor #fff-#fff
	BorderColor #222
	FontColor #222
}


skinparam cloud {
	BackgroundColor #F2FCFE-#eeeeee
	BorderColor #F2FCFE
	FontColor #222
}


skinparam database {
		FontColor #FFF
	BorderColor #2196F3
	BackgroundColor #4dabf5-#2196F3
	FontColor #222
}


skinparam class {
		FontColor #FFF
	BorderColor #2196F3
	BackgroundColor #4dabf5-#2196F3
	HeaderBackgroundColor #2196F3-#1a78c2
	StereotypeFontColor #222
	BorderThickness 1
	AttributeFontColor #fff
	AttributeFontSize 11
}


skinparam object {
		FontColor #FFF
	BorderColor #2196F3
	BackgroundColor #4dabf5-#2196F3
	StereotypeFontColor #222
	BorderThickness 1
	AttributeFontColor #222
	AttributeFontSize 11
}


skinparam usecase {
		FontColor #FFF
	BorderColor #2196F3
	BackgroundColor #4dabf5-#2196F3
	BorderThickness 2
	StereotypeFontColor #2196F3
}


skinparam rectangle {
	FontColor #2196F3
	BackgroundColor #fff-#fff
	BorderThickness 2
	StereotypeFontColor #2196F3
}


skinparam package {
		FontColor #FFF
	BorderColor #2196F3
	BackgroundColor #4dabf5-#2196F3
	BackgroundColor #fff-#fff
	BorderThickness 2
}


skinparam folder {
	BackgroundColor #FFF-#fff
  	BorderColor #ff9800
	FontColor #ff9800
	BorderThickness 2
}


skinparam frame {
	BackgroundColor #FFF-#fff
  	BorderColor #9C27B0
	FontColor #9C27B0
	BorderThickness 2
}


skinparam state {
		FontColor #FFF
	BorderColor #2196F3
	BackgroundColor #4dabf5-#2196F3
	BorderColor #1a78c2
	StartColor #9C27B0
	EndColor #9C27B0
	AttributeFontColor #222
	AttributeFontSize 11
}


skinparam queue {
		FontColor #FFF
	BorderColor #2196F3
	BackgroundColor #4dabf5-#2196F3
}


skinparam card {
	BackgroundColor #b052c0-#9C27B0
	BorderColor #9C27B0
	FontColor #FFF
}


skinparam file {
	BackgroundColor #fff-#fff
	BorderColor #666
	FontColor #666

}


skinparam stack {
		FontColor #FFF
	BorderColor #2196F3
	BackgroundColor #4dabf5-#2196F3
}


together {
    database "Couchbase Server" as CB
}

cloud Capella {
    database "Capella Bucket" as Cap
    node "App Services" as AS
    node "App Endpoint" as AE
}

agent "Couchbase Lite clients" as Clients

Cap <- -> AS
AS - - AE
AE - - Clients
CB -[hidden]> Cap   : "XDCR\t"
@enduml

PlantUML version 1.2022.5(Sat Apr 30 10:55:52 GMT 2022)
(GPL source distribution)
Java Runtime: OpenJDK Runtime Environment
JVM: OpenJDK 64-Bit Server VM
Default Encoding: UTF-8
Language: en
Country: US
--></g></svg>