<?xml version="1.0" encoding="UTF-8"?><svg xmlns="http://www.w3.org/2000/svg" width="440" height="392" version="1.0" shape-rendering="geometricPrecision"><defs><filter id="shadowBlur" x="0" y="0" width="200%" height="200%"><feOffset in="SourceGraphic" dx="3.0003002" dy="3.0003002" result="offOut"></feOffset><feGaussianBlur in="offOut" stdDeviation="3"></feGaussianBlur></filter></defs><g stroke-width="1" stroke-linecap="square" stroke-linejoin="round"><rect x="0" y="0" width="440" height="392" style="fill: #ffffff"></rect><path stroke="#969696" fill="#969696" filter="url(#shadowBlur)" d="M175.0 219.0 L415.0 219.0 L415.0 273.0 L175.0 273.0 z"></path><path stroke="#969696" fill="#969696" filter="url(#shadowBlur)" d="M175.0 163.0 L415.0 163.0 L415.0 215.0 L175.0 215.0 z"></path><path stroke="#969696" fill="#969696" filter="url(#shadowBlur)" d="M235.0 49.0 L415.0 49.0 L415.0 103.0 L235.0 103.0 z"></path><path stroke="#969696" fill="#969696" filter="url(#shadowBlur)" d="M235.0 107.0 L415.0 107.0 L415.0 159.0 L235.0 159.0 z"></path><path stroke="#969696" fill="#969696" filter="url(#shadowBlur)" d="M175.0 301.0 L233.0 301.0 L233.0 357.0 L175.0 357.0 z"></path><path stroke="#969696" fill="#969696" filter="url(#shadowBlur)" d="M357.0 301.0 L415.0 301.0 L415.0 357.0 L357.0 357.0 z"></path><path stroke="#969696" fill="#969696" filter="url(#shadowBlur)" d="M237.0 301.0 L293.0 301.0 L293.0 357.0 L237.0 357.0 z"></path><path stroke="#969696" fill="#969696" filter="url(#shadowBlur)" d="M297.0 301.0 L353.0 301.0 L353.0 357.0 L297.0 357.0 z"></path><path stroke="#000000" stroke-width="1.0" stroke-linecap="round" stroke-linejoin="round" fill="#ddeeff" d="M175.0 219.0 L415.0 219.0 L415.0 273.0 L175.0 273.0 z"></path><path stroke="#000000" stroke-width="1.0" stroke-linecap="round" stroke-linejoin="round" fill="#ddeeff" d="M175.0 163.0 L415.0 163.0 L415.0 215.0 L175.0 215.0 z"></path><path stroke="#000000" stroke-width="1.0" stroke-linecap="round" stroke-linejoin="round" fill="#ddeeff" d="M235.0 49.0 L415.0 49.0 L415.0 103.0 L235.0 103.0 z"></path><path stroke="#000000" stroke-width="1.0" stroke-linecap="round" stroke-linejoin="round" fill="#ddeeff" d="M235.0 107.0 L415.0 107.0 L415.0 159.0 L235.0 159.0 z"></path><path stroke="#000000" stroke-width="1.0" stroke-linecap="round" stroke-linejoin="round" fill="#bbeeaa" d="M175.0 301.0 L233.0 301.0 L233.0 357.0 L175.0 357.0 z"></path><path stroke="#000000" stroke-width="1.0" stroke-linecap="round" stroke-linejoin="round" fill="#bbeeaa" d="M357.0 301.0 L415.0 301.0 L415.0 357.0 L357.0 357.0 z"></path><path stroke="#000000" stroke-width="1.0" stroke-linecap="round" stroke-linejoin="round" fill="#bbeeaa" d="M237.0 301.0 L293.0 301.0 L293.0 357.0 L237.0 357.0 z"></path><path stroke="#000000" stroke-width="1.0" stroke-linecap="round" stroke-linejoin="round" fill="#bbeeaa" d="M297.0 301.0 L353.0 301.0 L353.0 357.0 L297.0 357.0 z"></path><text x="322" y="82" font-family="sans-serif" font-size="15" stroke="none" fill="#000000"><![CDATA[7.6]]></text><text x="322" y="138" font-family="sans-serif" font-size="15" stroke="none" fill="#000000"><![CDATA[7.2]]></text><text x="30" y="166" font-family="sans-serif" font-size="15" stroke="none" fill="#000000"><![CDATA[Couchbase]]></text><text x="30" y="180" font-family="sans-serif" font-size="15" stroke="none" fill="#000000"><![CDATA[Server]]></text><text x="30" y="194" font-family="sans-serif" font-size="15" stroke="none" fill="#000000"><![CDATA[Version]]></text><text x="292" y="194" font-family="sans-serif" font-size="15" stroke="none" fill="#000000"><![CDATA[7.1]]></text><text x="292" y="250" font-family="sans-serif" font-size="15" stroke="none" fill="#000000"><![CDATA[7.0]]></text><text x="20" y="320" font-family="sans-serif" font-size="15" stroke="none" fill="#000000"><![CDATA[Operator]]></text><text x="20" y="334" font-family="sans-serif" font-size="15" stroke="none" fill="#000000"><![CDATA[Version]]></text><text x="192" y="334" font-family="sans-serif" font-size="15" stroke="none" fill="#000000"><![CDATA[2.3]]></text><text x="252" y="334" font-family="sans-serif" font-size="15" stroke="none" fill="#000000"><![CDATA[2.4]]></text><text x="312" y="334" font-family="sans-serif" font-size="15" stroke="none" fill="#000000"><![CDATA[2.5]]></text><text x="372" y="334" font-family="sans-serif" font-size="15" stroke="none" fill="#000000"><![CDATA[2.6]]></text></g></svg>