<?xml version="1.0" encoding="UTF-8"?><svg xmlns="http://www.w3.org/2000/svg" width="600" height="378" version="1.0" shape-rendering="geometricPrecision"><defs><filter id="shadowBlur" x="0" y="0" width="200%" height="200%"><feOffset in="SourceGraphic" dx="3.0003002" dy="3.0003002" result="offOut"></feOffset><feGaussianBlur in="offOut" stdDeviation="3"></feGaussianBlur></filter></defs><g stroke-width="1" stroke-linecap="square" stroke-linejoin="round"><rect x="0" y="0" width="600" height="378" style="fill: #ffffff"></rect><path stroke="#969696" fill="#969696" filter="url(#shadowBlur)" d="M255.0 35.0 L575.0 35.0 L575.0 89.0 L255.0 89.0 z"></path><path stroke="#969696" fill="#969696" filter="url(#shadowBlur)" d="M255.0 93.0 L575.0 93.0 L575.0 145.0 L255.0 145.0 z"></path><path stroke="#969696" fill="#969696" filter="url(#shadowBlur)" d="M255.0 205.0 L415.0 205.0 L415.0 259.0 L255.0 259.0 z"></path><path stroke="#969696" fill="#969696" filter="url(#shadowBlur)" d="M255.0 149.0 L415.0 149.0 L415.0 201.0 L255.0 201.0 z"></path><path stroke="#969696" fill="#969696" filter="url(#shadowBlur)" d="M255.0 287.0 L333.0 287.0 L333.0 343.0 L255.0 343.0 z"></path><path stroke="#969696" fill="#969696" filter="url(#shadowBlur)" d="M497.0 287.0 L575.0 287.0 L575.0 343.0 L497.0 343.0 z"></path><path stroke="#969696" fill="#969696" filter="url(#shadowBlur)" d="M337.0 287.0 L413.0 287.0 L413.0 343.0 L337.0 343.0 z"></path><path stroke="#969696" fill="#969696" filter="url(#shadowBlur)" d="M417.0 287.0 L493.0 287.0 L493.0 343.0 L417.0 343.0 z"></path><path stroke="#000000" stroke-width="1.0" stroke-linecap="round" stroke-linejoin="round" fill="#ffeebb" d="M255.0 35.0 L575.0 35.0 L575.0 89.0 L255.0 89.0 z"></path><path stroke="#000000" stroke-width="1.0" stroke-linecap="round" stroke-linejoin="round" fill="#ffeebb" d="M255.0 93.0 L575.0 93.0 L575.0 145.0 L255.0 145.0 z"></path><path stroke="#000000" stroke-width="1.0" stroke-linecap="round" stroke-linejoin="round" fill="#ffeebb" d="M255.0 205.0 L415.0 205.0 L415.0 259.0 L255.0 259.0 z"></path><path stroke="#000000" stroke-width="1.0" stroke-linecap="round" stroke-linejoin="round" fill="#ffeebb" d="M255.0 149.0 L415.0 149.0 L415.0 201.0 L255.0 201.0 z"></path><path stroke="#000000" stroke-width="1.0" stroke-linecap="round" stroke-linejoin="round" fill="#ddeeff" d="M255.0 287.0 L333.0 287.0 L333.0 343.0 L255.0 343.0 z"></path><path stroke="#000000" stroke-width="1.0" stroke-linecap="round" stroke-linejoin="round" fill="#ddeeff" d="M497.0 287.0 L575.0 287.0 L575.0 343.0 L497.0 343.0 z"></path><path stroke="#000000" stroke-width="1.0" stroke-linecap="round" stroke-linejoin="round" fill="#ddeeff" d="M337.0 287.0 L413.0 287.0 L413.0 343.0 L337.0 343.0 z"></path><path stroke="#000000" stroke-width="1.0" stroke-linecap="round" stroke-linejoin="round" fill="#ddeeff" d="M417.0 287.0 L493.0 287.0 L493.0 343.0 L417.0 343.0 z"></path><text x="402" y="68" font-family="sans-serif" font-size="15" stroke="none" fill="#000000"><![CDATA[1.4x]]></text><text x="402" y="124" font-family="sans-serif" font-size="15" stroke="none" fill="#000000"><![CDATA[1.3x]]></text><text x="60" y="152" font-family="sans-serif" font-size="15" stroke="none" fill="#000000"><![CDATA[Backup]]></text><text x="60" y="166" font-family="sans-serif" font-size="15" stroke="none" fill="#000000"><![CDATA[Version]]></text><text x="312" y="180" font-family="sans-serif" font-size="15" stroke="none" fill="#000000"><![CDATA[1.2x]]></text><text x="314" y="236" font-family="sans-serif" font-size="15" stroke="none" fill="#000000"><![CDATA[1.1.1]]></text><text x="70" y="306" font-family="sans-serif" font-size="15" stroke="none" fill="#000000"><![CDATA[Couchbase Server]]></text><text x="70" y="320" font-family="sans-serif" font-size="15" stroke="none" fill="#000000"><![CDATA[Version]]></text><text x="282" y="320" font-family="sans-serif" font-size="15" stroke="none" fill="#000000"><![CDATA[7.0]]></text><text x="362" y="320" font-family="sans-serif" font-size="15" stroke="none" fill="#000000"><![CDATA[7.1]]></text><text x="442" y="320" font-family="sans-serif" font-size="15" stroke="none" fill="#000000"><![CDATA[7.2]]></text><text x="522" y="320" font-family="sans-serif" font-size="15" stroke="none" fill="#000000"><![CDATA[7.6]]></text></g></svg>