<?xml version="1.0" encoding="UTF-8"?><svg xmlns="http://www.w3.org/2000/svg" width="680" height="322" version="1.0" shape-rendering="geometricPrecision"><defs><filter id="shadowBlur" x="0" y="0" width="200%" height="200%"><feOffset in="SourceGraphic" dx="3.0003002" dy="3.0003002" result="offOut"></feOffset><feGaussianBlur in="offOut" stdDeviation="3"></feGaussianBlur></filter></defs><g stroke-width="1" stroke-linecap="square" stroke-linejoin="round"><rect x="0" y="0" width="680" height="322" style="fill: #ffffff"></rect><path stroke="#969696" fill="#969696" filter="url(#shadowBlur)" d="M355.0 91.0 L555.0 91.0 L555.0 147.0 L355.0 147.0 z"></path><path stroke="#969696" fill="#969696" filter="url(#shadowBlur)" d="M555.0 35.0 L655.0 35.0 L655.0 91.0 L555.0 91.0 z"></path><path stroke="#969696" fill="#969696" filter="url(#shadowBlur)" d="M255.0 147.0 L355.0 147.0 L355.0 203.0 L255.0 203.0 z"></path><path stroke="#969696" fill="#969696" filter="url(#shadowBlur)" d="M255.0 231.0 L353.0 231.0 L353.0 287.0 L255.0 287.0 z"></path><path stroke="#969696" fill="#969696" filter="url(#shadowBlur)" d="M557.0 231.0 L655.0 231.0 L655.0 287.0 L557.0 287.0 z"></path><path stroke="#969696" fill="#969696" filter="url(#shadowBlur)" d="M357.0 231.0 L453.0 231.0 L453.0 287.0 L357.0 287.0 z"></path><path stroke="#969696" fill="#969696" filter="url(#shadowBlur)" d="M457.0 231.0 L553.0 231.0 L553.0 287.0 L457.0 287.0 z"></path><path stroke="#000000" stroke-width="1.0" stroke-linecap="round" stroke-linejoin="round" fill="#ffeebb" d="M355.0 91.0 L555.0 91.0 L555.0 147.0 L355.0 147.0 z"></path><path stroke="#000000" stroke-width="1.0" stroke-linecap="round" stroke-linejoin="round" fill="#ffeebb" d="M555.0 35.0 L655.0 35.0 L655.0 91.0 L555.0 91.0 z"></path><path stroke="#000000" stroke-width="1.0" stroke-linecap="round" stroke-linejoin="round" fill="#ffeebb" d="M255.0 147.0 L355.0 147.0 L355.0 203.0 L255.0 203.0 z"></path><path stroke="#000000" stroke-width="1.0" stroke-linecap="round" stroke-linejoin="round" fill="#ddeeff" d="M255.0 231.0 L353.0 231.0 L353.0 287.0 L255.0 287.0 z"></path><path stroke="#000000" stroke-width="1.0" stroke-linecap="round" stroke-linejoin="round" fill="#ddeeff" d="M557.0 231.0 L655.0 231.0 L655.0 287.0 L557.0 287.0 z"></path><path stroke="#000000" stroke-width="1.0" stroke-linecap="round" stroke-linejoin="round" fill="#ddeeff" d="M357.0 231.0 L453.0 231.0 L453.0 287.0 L357.0 287.0 z"></path><path stroke="#000000" stroke-width="1.0" stroke-linecap="round" stroke-linejoin="round" fill="#ddeeff" d="M457.0 231.0 L553.0 231.0 L553.0 287.0 L457.0 287.0 z"></path><path stroke="#000000" stroke-width="1.0" stroke-linecap="round" stroke-linejoin="round" fill="none" d="M450.0 119.0 L459.0 119.0 "></path><path stroke="#000000" stroke-width="1.0" stroke-linecap="round" stroke-linejoin="round" fill="none" d="M330.0 175.0 L339.0 175.0 "></path><text x="582" y="68" font-family="sans-serif" font-size="15" stroke="none" fill="#000000"><![CDATA[1.4x]]></text><text x="404" y="124" font-family="sans-serif" font-size="15" stroke="none" fill="#000000"><![CDATA[1.3.5]]></text><text x="472" y="124" font-family="sans-serif" font-size="15" stroke="none" fill="#000000"><![CDATA[1.3x]]></text><text x="60" y="152" font-family="sans-serif" font-size="15" stroke="none" fill="#000000"><![CDATA[Backup]]></text><text x="284" y="180" font-family="sans-serif" font-size="15" stroke="none" fill="#000000"><![CDATA[1.1.1]]></text><text x="284" y="194" font-family="sans-serif" font-size="15" stroke="none" fill="#000000"><![CDATA[1.3.5]]></text><text x="26" y="250" font-family="sans-serif" font-size="15" stroke="none" fill="#000000"><![CDATA[Couchbase Operator]]></text><text x="74" y="264" font-family="sans-serif" font-size="15" stroke="none" fill="#000000"><![CDATA[Version]]></text><text x="292" y="264" font-family="sans-serif" font-size="15" stroke="none" fill="#000000"><![CDATA[2.4]]></text><text x="392" y="264" font-family="sans-serif" font-size="15" stroke="none" fill="#000000"><![CDATA[2.5]]></text><text x="492" y="264" font-family="sans-serif" font-size="15" stroke="none" fill="#000000"><![CDATA[2.6]]></text><text x="592" y="264" font-family="sans-serif" font-size="15" stroke="none" fill="#000000"><![CDATA[2.7]]></text></g></svg>