<?xml version="1.0" encoding="UTF-8" standalone="no"?><svg xmlns="http://www.w3.org/2000/svg" xmlns:xlink="http://www.w3.org/1999/xlink" contentStyleType="text/css" height="422.9167px" preserveAspectRatio="none" style="width:436px;height:422px;background:#00000000;" version="1.1" viewBox="0 0 436 422" width="436.4583px" zoomAndPan="magnify"><defs><linearGradient id="g1j157a3t0ie0x0" x1="50%" x2="50%" y1="0%" y2="100%"><stop offset="0%" stop-color="#FFFFFF"/><stop offset="100%" stop-color="#FFFFFF"/></linearGradient><filter height="300%" id="f1j157a3t0ie0x" width="300%" x="-1" y="-1"><feGaussianBlur result="blurOut" stdDeviation="2.0833333333333335"/><feColorMatrix in="blurOut" result="blurOut2" type="matrix" values="0 0 0 0 0 0 0 0 0 0 0 0 0 0 0 0 0 0 .4 0"/><feOffset dx="4.166666666666667" dy="4.166666666666667" in="blurOut2" result="blurOut3"/><feBlend in="SourceGraphic" in2="blurOut3" mode="normal"/></filter><linearGradient id="g1j157a3t0ie0x1" x1="50%" x2="50%" y1="0%" y2="100%"><stop offset="0%" stop-color="#4DABF5"/><stop offset="100%" stop-color="#2196F3"/></linearGradient></defs><g><!--MD5=[6a6f05bf1575242a6497d05c8d3cb5e3]
cluster Capella--><g id="cluster_Capella"><path d="M279.2725,30.5433 C282.0695,23.8388 287.5965,22.8642 292.2306,28.6352 C295.7255,22.6719 301.7812,22.4321 305.4951,28.3915 C307.8241,20.9474 313.3835,21.3549 317.9058,26.1713 C321.4512,18.764 325.5351,18.2991 331.295,23.8902 C333.6655,17.3923 338.876,17.0057 342.6423,22.5781 C346.9942,16.6667 352.6671,17.8713 355.5145,24.1649 C360.8196,18.3613 365.752,19.8377 368.7903,26.5663 C373.5018,20.7548 377.8038,21.0411 382.1512,26.9803 C387.3317,21.8807 391.3894,22.5471 393.9985,29.5065 C401.7879,23.0328 411.5176,25.9225 413.0208,36.5137 C413.9005,37.0885 414.066,37.6562 413.2406,38.4268 C419.128,41.4132 419.156,45.8794 414.3714,49.9161 C420.2592,52.3931 421.4636,56.8912 415.8477,60.9125 C422.3647,63.7318 422.7512,69.7894 416.4543,73.2392 C422.3693,75.3888 423.358,79.8832 418.3449,83.9599 C424.5594,87.4762 424.5511,91.6124 418.523,95.3206 C423.4973,99.13 423.5688,104.7528 417.5058,107.6517 C423.4159,111.1039 423.2414,115.3648 417.6316,118.9453 C421.8574,122.6971 421.9357,126.3168 416.8144,129.3333 C421.8347,134.2743 420.615,137.8301 414.8923,141.0014 C419.5803,150.2606 416.7843,157.9988 405.7292,159.4303 C405.987,159.2583 406.2024,159.3566 406.2273,159.6695 C403.5655,166.3674 398.3463,167.0728 393.1173,162.7134 C390.9233,168.3095 386.4287,170.3526 382.0478,164.9055 C378.929,171.6744 371.9801,171.7936 367.803,166.1167 C365.666,171.7669 360.6573,172.6078 356.5817,168.3016 C353.6959,174.5589 348.2806,176.5107 343.4333,170.3841 C339.4222,175.6824 333.1349,177.0477 329.9726,169.495 C325.1135,174.118 319.1112,172.3729 317.8157,165.67 C314.0805,170.9931 308.2203,170.8649 304.9855,165.0915 C298.8865,169.7046 294.8308,168.9637 291.8379,161.6636 C282.3562,167.3948 271.8293,165.7762 271.3542,152.1387 C272.0267,151.3171 272.7251,151.4101 273.3123,152.2398 C267.6776,150.6364 266.1905,146.0234 270.7755,141.9102 C265.2443,139.494 264.4005,134.8316 269.3964,131.0755 C262.3654,128.5747 262.8587,122.9583 267.3344,118.5615 C262.4116,114.6448 261.0139,109.7701 267.746,106.2428 C261.1908,103.6874 260.127,100.0976 265.4723,95.1114 C261.1277,91.0149 261.3727,85.8864 267.6673,83.8667 C262.6298,80.2069 262.3671,75.4768 268.4719,72.6137 C262.4448,68.8422 263.182,63.142 269.9096,60.9415 C265.2417,57.08 265.8404,51.9457 271.0189,48.9988 C265.1338,40.6407 267.9289,31.1775 278.6458,29.222 C279.4124,29.33 279.6277,29.9033 279.2725,30.5433 " fill="url(#g1j157a3t0ie0x0)" filter="url(#f1j157a3t0ie0x)" style="stroke:#F2FCFE;stroke-width:1.0416666666666667;"/><text fill="#2196F3" font-family="&quot;Verdana&quot;" font-size="20.8333" font-weight="bold" lengthAdjust="spacing" textLength="72.9167" x="305.7292" y="65.6803">Capella</text></g><!--MD5=[b9a6fa3e926141d370e499cfdaf642ce]
entity CB--><g id="elem_CB"><path d="M28.6458,95.8887 C28.6458,85.472 99.4792,85.472 99.4792,85.472 C99.4792,85.472 170.3125,85.472 170.3125,95.8887 L170.3125,141.0971 C170.3125,151.5138 99.4792,151.5138 99.4792,151.5138 C99.4792,151.5138 28.6458,151.5138 28.6458,141.0971 L28.6458,95.8887 " fill="url(#g1j157a3t0ie0x1)" filter="url(#f1j157a3t0ie0x)" style="stroke:#2196F3;stroke-width:1.0416666666666667;"/><path d="M28.6458,95.8887 C28.6458,106.3053 99.4792,106.3053 99.4792,106.3053 C99.4792,106.3053 170.3125,106.3053 170.3125,95.8887 " fill="none" style="stroke:#2196F3;stroke-width:1.0416666666666667;"/><text fill="#222222" font-family="&quot;Verdana&quot;" font-size="12.5" lengthAdjust="spacing" textLength="100" x="49.4792" y="133.3888">Couchbase Server</text></g><!--MD5=[1111c1b49dabe8fe4e86dac910afc6cf]
entity SGW--><g id="elem_SGW"><polygon fill="url(#g1j157a3t0ie0x0)" filter="url(#f1j157a3t0ie0x)" points="28.6458,227.1387,39.0625,216.722,170.3125,216.722,170.3125,273.3888,159.8958,283.8054,28.6458,283.8054,28.6458,227.1387" style="stroke:#222222;stroke-width:1.0416666666666667;"/><line style="stroke:#222222;stroke-width:1.0416666666666667;" x1="159.8958" x2="170.3125" y1="227.1387" y2="216.722"/><line style="stroke:#222222;stroke-width:1.0416666666666667;" x1="28.6458" x2="159.8958" y1="227.1387" y2="227.1387"/><line style="stroke:#222222;stroke-width:1.0416666666666667;" x1="159.8958" x2="159.8958" y1="227.1387" y2="283.8054"/><text fill="#222222" font-family="&quot;Verdana&quot;" font-size="12.5" lengthAdjust="spacing" textLength="79.1667" x="54.6875" y="260.4721">Sync Gateway</text></g><!--MD5=[d6ea8f831e7fce7b55436a78f0727953]
entity Cap--><g id="elem_Cap"><path d="M279.6875,95.8887 C279.6875,85.472 342.1875,85.472 342.1875,85.472 C342.1875,85.472 404.6875,85.472 404.6875,95.8887 L404.6875,141.0971 C404.6875,151.5138 342.1875,151.5138 342.1875,151.5138 C342.1875,151.5138 279.6875,151.5138 279.6875,141.0971 L279.6875,95.8887 " fill="url(#g1j157a3t0ie0x1)" filter="url(#f1j157a3t0ie0x)" style="stroke:#2196F3;stroke-width:1.0416666666666667;"/><path d="M279.6875,95.8887 C279.6875,106.3053 342.1875,106.3053 342.1875,106.3053 C342.1875,106.3053 404.6875,106.3053 404.6875,95.8887 " fill="none" style="stroke:#2196F3;stroke-width:1.0416666666666667;"/><text fill="#222222" font-family="&quot;Verdana&quot;" font-size="12.5" lengthAdjust="spacing" textLength="83.3333" x="300.5208" y="133.3888">Capella Bucket</text></g><!--MD5=[adbc3b47b0f1b1966c2f3e843f0924c6]
entity Clients--><g id="elem_Clients"><rect fill="#FFA500" filter="url(#f1j157a3t0ie0x)" height="56.6668" rx="4.1667" ry="4.1667" style="stroke:#999999;stroke-width:1.0416666666666667;" width="163.5417" x="17.7083" y="349.0137"/><text fill="#333333" font-family="&quot;Verdana&quot;" font-size="12.5" lengthAdjust="spacing" textLength="121.875" x="38.5417" y="382.3471">Couchbase Lite clients</text></g><!--MD5=[cb720f8c04f95f4ccf48d76bb2b18ba8]
link CB to SGW--><g id="link_CB_SGW"><path d="M99.4792,156.6074 C99.4792,173.7324 99.4792,194.0032 99.4792,211.1907 " fill="none" id="CB-SGW" style="stroke:#2196F3;stroke-width:3.125;"/><polygon fill="#2196F3" points="99.4792,216.4199,103.6458,207.0449,99.4792,211.2116,95.3125,207.0449,99.4792,216.4199" style="stroke:#2196F3;stroke-width:3.125;"/><polygon fill="#2196F3" points="99.4792,151.3887,95.3125,160.7637,99.4792,156.597,103.6458,160.7637,99.4792,151.3887" style="stroke:#2196F3;stroke-width:3.125;"/></g><!--MD5=[a688f4cf4f3b028ce8ae6dd53f6b466e]
link SGW to Clients--><g id="link_SGW_Clients"><path d="M99.4792,283.6178 C99.4792,303.8678 99.4792,329.6282 99.4792,348.8157 " fill="none" id="SGW-Clients" style="stroke:#2196F3;stroke-width:3.125;"/></g><!--MD5=[25cd24d1101ed814146a552c5ec36ff2]
link CB to Cap--><g id="link_CB_Cap"><path d="M170.3333,118.2845 C203,118.2845 241.6146,118.2845 273.9583,118.2845 " fill="none" id="CB-to-Cap" style="stroke:#FF0000;stroke-width:3.125;"/><polygon fill="#FF0000" points="279.5104,118.2845,270.1354,114.1178,274.3021,118.2845,270.1354,122.4512,279.5104,118.2845" style="stroke:#FF0000;stroke-width:3.125;"/><text fill="#222222" font-family="&quot;Verdana&quot;" font-size="12.5" lengthAdjust="spacing" textLength="35.4167" x="200" y="101.6179">XDCR</text></g><!--MD5=[da4690134e29dbebc1a7d075a3d1ad7d]
@startuml
!theme materia

together {
    database "Couchbase Server" as CB
    node "Sync Gateway" as SGW
}

agent "Couchbase Lite clients" as Clients

cloud Capella {
    database "Capella Bucket" as Cap
}

CB <- -> SGW
SGW - - Clients
' extra TAB to give enough space for labeel
CB -right-> Cap  #red : "XDCR\t"
@enduml

@startuml



skinparam backgroundColor transparent
skinparam useBetaStyle false






<style>
  root {
    BackgroundColor transparent
    FontColor #FFF
    HyperLinkColor #fd7e14
    LineColor #1a78c2
    LineThickness 1
    Margin 10
    Padding 6
    Shadowing 0.0
  }
  node {
   Padding 15
   roundcorner 20
   BackgroundColor #2196F3-#1a78c2
  }
  caption {
    LineThickness 0
  }
  footer {
    LineThickness 0
  }
  groupHeader {
    BackgroundColor #fff
    FontColor #9C27B0
    FontStyle bold
  }
  header {
    LineThickness 0
  }
  referenceHeader {
    BackgroundColor transparent
    FontColor #222
    FontStyle bold
  }
  separator {
    BackgroundColor #222
    FontColor transparent
    FontStyle bold
  }
  title {
	FontSize 20
	BorderRoundCorner            8
	BorderThickness 	         1
	BackgroundColor  #fff-#fff
	FontColor #2196F3
	BorderColor #fff
  }
  nwdiagDiagram {
	network {
			FontColor #FFF
	BorderColor #2196F3
	BackgroundColor #4dabf5-#2196F3    
		LineColor #2196F3
		LineThickness 1.0
		FontColor #1a78c2
	}
	server {
			FontColor #FFF
	BorderColor #2196F3
	BackgroundColor #4dabf5-#2196F3
	}
	arrow {
		FontColor #1a78c2
		LineColor #1a78c2
	}
	group {
		BackGroundColor #fff
		LineColor $LIGHT_DARK
		LineThickness 2.0
		Margin 5
		Padding 5
	}
  }
  ganttDiagram {
	task {
			FontColor #FFF
	BorderColor #2196F3
	BackgroundColor #4dabf5-#2196F3
		LineColor #2196F3
		Margin 10
		Padding 6
	}
	note {
		FontColor #FFF
		LineColor #7D1F8D
		BackGroundColor #9C27B0
	}
	separator {
		LineColor #fff
		BackGroundColor #fff-#cccccc
		FontColor #222
	}
	milestone {
		FontColor #9C27B0
		FontSize 16
		FontStyle italic
		BackGroundColor #fff
		LineColor #cccccc
	}
	timeline {
		BackgroundColor #fff
		FontColor #222
	}
	closed {
		BackgroundColor #CC7A00
		FontColor #FFF
	}
  }
</style>
skinparam defaultFontName       "Verdana"
skinparam defaultFontSize       12
skinparam dpi                   100
skinparam shadowing             true
skinparam roundcorner           8
skinparam ParticipantPadding    40
skinparam BoxPadding            40
skinparam Padding               10
skinparam ArrowColor            #666
skinparam stereotype {
    CBackgroundColor #fff
    CBorderColor #cccccc
    ABackgroundColor #70bf73
    ABorderColor #3D8C40
    IBackgroundColor #B7161C
    IBorderColor #b7161c
    EBackgroundColor #ffad33
    EBorderColor #CC7A00
    NBackgroundColor #b052c0
    NBorderColor #7D1F8D
}
skinparam title {
	FontColor	                 #2196F3
	BorderColor	                 #cccccc
	FontSize	    	         20
	BorderRoundCorner            8
	BorderThickness 	         1
	BackgroundColor              #fff-#fff
}

skinparam legend {
	BackgroundColor #fff
	BorderColor #cccccc
	FontColor #222
}

skinparam swimlane {
	BorderColor #9C27B0
	BorderThickness 2
	TitleBackgroundColor  #fff-#fff
	TitleFontColor #2196F3
}


skinparam activity {
		FontColor #FFF
	BorderColor #2196F3
	BackgroundColor #4dabf5-#2196F3
	BarColor #4CAF50
	StartColor #9C27B0
	EndColor #9C27B0
	DiamondBackgroundColor #FFF-#fff
  	DiamondBorderColor #cccccc
	DiamondFontColor #222
}


skinparam participant {
		FontColor #FFF
	BorderColor #2196F3
	BackgroundColor #4dabf5-#2196F3
	ParticipantBorderThickness 2
}


skinparam actor {
		FontColor #FFF
	BorderColor #2196F3
	BackgroundColor #4dabf5-#2196F3
	FontColor #222
}


skinparam arrow {
	Thickness 3
	Color #2196F3
	FontColor #222
}


skinparam sequence {
	BorderColor #2196F3
	TitleFontColor #2196F3
	BackgroundColor transparent
	StartColor #2196F3
	EndColor #2196F3
	BoxBackgroundColor #fff
	BoxBorderColor #666
	BoxFontColor #222
	DelayFontColor #222
	LifeLineBorderColor #cccccc
	LifeLineBorderThickness 2
	LifeLineBackgroundColor #fff
	GroupBorderColor #666
	GroupFontColor #222
	GroupHeaderFontColor #9C27B0
	DividerBackgroundColor #FFF-#fff
    DividerBorderColor #666
    DividerBorderThickness 2
    DividerFontColor #222
	ReferenceBackgroundColor transparent
	ReferenceBorderColor #666
	ReferenceFontColor #222
	ReferenceHeaderFontColor #9C27B0
	StereotypeFontColor #FFF
}


skinparam partition {
	BorderColor #2196F3
	FontColor #2196F3
	BackgroundColor transparent
}


skinparam collections {
		FontColor #FFF
	BorderColor #2196F3
	BackgroundColor #4dabf5-#2196F3
}


skinparam control {
		FontColor #FFF
	BorderColor #2196F3
	BackgroundColor #4dabf5-#2196F3
	FontColor #222
}


skinparam entity {
		FontColor #FFF
	BorderColor #2196F3
	BackgroundColor #4dabf5-#2196F3
	FontColor #222
}


skinparam boundary {
		FontColor #FFF
	BorderColor #2196F3
	BackgroundColor #4dabf5-#2196F3
	FontColor #222
}


skinparam agent {
	BackgroundColor #orange
	BorderColor #999999
	FontColor #333333
}


skinparam note {
	BorderThickness 1
	BackgroundColor #b052c0-#9C27B0
	BorderColor #9C27B0
	FontColor #FFF
}


skinparam artifact {
	BackgroundColor #FFF-#fff
	BorderColor #666
	FontColor #666
}


skinparam component {
		FontColor #FFF
	BorderColor #2196F3
	BackgroundColor #4dabf5-#2196F3
}


skinparam interface {
	BackgroundColor  #B7161C
	BorderColor  #e51c23
	FontColor #222
}


skinparam storage {
	BackgroundColor #ffad33-#ff9800
  	BorderColor #ff9800
	FontColor #FFF
}


skinparam node {
	BackgroundColor #fff-#fff
	BorderColor #222
	FontColor #222
}


skinparam cloud {
	BackgroundColor #F2FCFE-#eeeeee
	BorderColor #F2FCFE
	FontColor #222
}


skinparam database {
		FontColor #FFF
	BorderColor #2196F3
	BackgroundColor #4dabf5-#2196F3
	FontColor #222
}


skinparam class {
		FontColor #FFF
	BorderColor #2196F3
	BackgroundColor #4dabf5-#2196F3
	HeaderBackgroundColor #2196F3-#1a78c2
	StereotypeFontColor #222
	BorderThickness 1
	AttributeFontColor #fff
	AttributeFontSize 11
}


skinparam object {
		FontColor #FFF
	BorderColor #2196F3
	BackgroundColor #4dabf5-#2196F3
	StereotypeFontColor #222
	BorderThickness 1
	AttributeFontColor #222
	AttributeFontSize 11
}


skinparam usecase {
		FontColor #FFF
	BorderColor #2196F3
	BackgroundColor #4dabf5-#2196F3
	BorderThickness 2
	StereotypeFontColor #2196F3
}


skinparam rectangle {
	FontColor #2196F3
	BackgroundColor #fff-#fff
	BorderThickness 2
	StereotypeFontColor #2196F3
}


skinparam package {
		FontColor #FFF
	BorderColor #2196F3
	BackgroundColor #4dabf5-#2196F3
	BackgroundColor #fff-#fff
	BorderThickness 2
}


skinparam folder {
	BackgroundColor #FFF-#fff
  	BorderColor #ff9800
	FontColor #ff9800
	BorderThickness 2
}


skinparam frame {
	BackgroundColor #FFF-#fff
  	BorderColor #9C27B0
	FontColor #9C27B0
	BorderThickness 2
}


skinparam state {
		FontColor #FFF
	BorderColor #2196F3
	BackgroundColor #4dabf5-#2196F3
	BorderColor #1a78c2
	StartColor #9C27B0
	EndColor #9C27B0
	AttributeFontColor #222
	AttributeFontSize 11
}


skinparam queue {
		FontColor #FFF
	BorderColor #2196F3
	BackgroundColor #4dabf5-#2196F3
}


skinparam card {
	BackgroundColor #b052c0-#9C27B0
	BorderColor #9C27B0
	FontColor #FFF
}


skinparam file {
	BackgroundColor #fff-#fff
	BorderColor #666
	FontColor #666

}


skinparam stack {
		FontColor #FFF
	BorderColor #2196F3
	BackgroundColor #4dabf5-#2196F3
}

together {
    database "Couchbase Server" as CB
    node "Sync Gateway" as SGW
}

agent "Couchbase Lite clients" as Clients

cloud Capella {
    database "Capella Bucket" as Cap
}

CB <- -> SGW
SGW - - Clients
CB -right-> Cap  #red : "XDCR\t"
@enduml

PlantUML version 1.2022.5(Sat Apr 30 10:55:52 GMT 2022)
(GPL source distribution)
Java Runtime: OpenJDK Runtime Environment
JVM: OpenJDK 64-Bit Server VM
Default Encoding: UTF-8
Language: en
Country: US
--></g></svg>