<?xml version="1.0" encoding="UTF-8" standalone="no"?><svg xmlns="http://www.w3.org/2000/svg" xmlns:xlink="http://www.w3.org/1999/xlink" contentStyleType="text/css" height="801px" preserveAspectRatio="none" style="width:743px;height:801px;background:#FFFFFF;" version="1.1" viewBox="0 0 743 801" width="743px" zoomAndPan="magnify"><defs><filter height="300%" id="fmi6teugk8c2d" width="300%" x="-1" y="-1"><feGaussianBlur result="blurOut" stdDeviation="2.0"/><feColorMatrix in="blurOut" result="blurOut2" type="matrix" values="0 0 0 0 0 0 0 0 0 0 0 0 0 0 0 0 0 0 .4 0"/><feOffset dx="4.0" dy="4.0" in="blurOut2" result="blurOut3"/><feBlend in="SourceGraphic" in2="blurOut3" mode="normal"/></filter></defs><g><!--entity travelSample--><g id="elem_travelSample"><path d="M360.5,16 C360.5,6 396,6 396,6 C396,6 431.5,6 431.5,16 L431.5,57.5938 C431.5,67.5938 396,67.5938 396,67.5938 C396,67.5938 360.5,67.5938 360.5,57.5938 L360.5,16 " fill="#FEFECE" filter="url(#fmi6teugk8c2d)" style="stroke:#A80036;stroke-width:1.0;"/><path d="M360.5,16 C360.5,26 396,26 396,26 C396,26 431.5,26 431.5,16 " fill="none" style="stroke:#A80036;stroke-width:1.0;"/><text fill="#000000" font-family="sans-serif" font-size="14" lengthAdjust="spacing" textLength="41" x="375.5" y="42.9951">Travel</text><text fill="#000000" font-family="sans-serif" font-size="14" lengthAdjust="spacing" textLength="51" x="370.5" y="59.292">Sample</text></g><!--entity vBucketFilter--><g id="elem_vBucketFilter"><rect fill="#FEFECE" filter="url(#fmi6teugk8c2d)" height="62.5938" style="stroke:#A80036;stroke-width:1.0;" width="127" x="332.5" y="129"/><rect fill="#FEFECE" height="10" style="stroke:#A80036;stroke-width:1.0;" width="15" x="439.5" y="134"/><rect fill="#FEFECE" height="2" style="stroke:#A80036;stroke-width:1.0;" width="4" x="437.5" y="136"/><rect fill="#FEFECE" height="2" style="stroke:#A80036;stroke-width:1.0;" width="4" x="437.5" y="140"/><text fill="#000000" font-family="sans-serif" font-size="14" lengthAdjust="spacing" textLength="87" x="347.5" y="161.9951">Filter by type</text><text fill="#000000" font-family="sans-serif" font-size="14" lengthAdjust="spacing" textLength="39" x="347.5" y="178.292">event</text></g><!--entity ecs1--><g id="elem_ecs1"><rect fill="#FEFECE" filter="url(#fmi6teugk8c2d)" height="62.5938" style="stroke:#A80036;stroke-width:1.0;" width="126" x="244" y="269"/><rect fill="#FEFECE" height="10" style="stroke:#A80036;stroke-width:1.0;" width="15" x="350" y="274"/><rect fill="#FEFECE" height="2" style="stroke:#A80036;stroke-width:1.0;" width="4" x="348" y="276"/><rect fill="#FEFECE" height="2" style="stroke:#A80036;stroke-width:1.0;" width="4" x="348" y="280"/><text fill="#000000" font-family="sans-serif" font-size="14" lengthAdjust="spacing" textLength="44" x="259" y="301.9951">Elastic</text><text fill="#000000" font-family="sans-serif" font-size="14" lengthAdjust="spacing" textLength="86" x="259" y="318.292">Connector 1</text></g><!--entity ecs2--><g id="elem_ecs2"><rect fill="#FEFECE" filter="url(#fmi6teugk8c2d)" height="62.5938" style="stroke:#A80036;stroke-width:1.0;" width="126" x="447" y="269"/><rect fill="#FEFECE" height="10" style="stroke:#A80036;stroke-width:1.0;" width="15" x="553" y="274"/><rect fill="#FEFECE" height="2" style="stroke:#A80036;stroke-width:1.0;" width="4" x="551" y="276"/><rect fill="#FEFECE" height="2" style="stroke:#A80036;stroke-width:1.0;" width="4" x="551" y="280"/><text fill="#000000" font-family="sans-serif" font-size="14" lengthAdjust="spacing" textLength="44" x="462" y="301.9951">Elastic</text><text fill="#000000" font-family="sans-serif" font-size="14" lengthAdjust="spacing" textLength="86" x="462" y="318.292">Connector 2</text></g><!--entity pi1--><g id="elem_pi1"><path d="M6,403 C6,393 62,393 62,393 C62,393 118,393 118,403 L118,460.8906 C118,470.8906 62,470.8906 62,470.8906 C62,470.8906 6,470.8906 6,460.8906 L6,403 " fill="#FEFECE" filter="url(#fmi6teugk8c2d)" style="stroke:#A80036;stroke-width:1.0;"/><path d="M6,403 C6,413 62,413 62,413 C62,413 118,413 118,403 " fill="none" style="stroke:#A80036;stroke-width:1.0;"/><text fill="#000000" font-family="sans-serif" font-size="14" lengthAdjust="spacing" textLength="92" x="16" y="429.9951">ElasticSearch</text><text fill="#000000" font-family="sans-serif" font-size="14" lengthAdjust="spacing" textLength="45" x="39.5" y="446.292">Airport</text><text fill="#000000" font-family="sans-serif" font-size="14" lengthAdjust="spacing" textLength="37" x="43.5" y="462.5889">Index</text></g><!--entity pi2--><g id="elem_pi2"><path d="M496,403 C496,393 552,393 552,393 C552,393 608,393 608,403 L608,460.8906 C608,470.8906 552,470.8906 552,470.8906 C552,470.8906 496,470.8906 496,460.8906 L496,403 " fill="#FEFECE" filter="url(#fmi6teugk8c2d)" style="stroke:#A80036;stroke-width:1.0;"/><path d="M496,403 C496,413 552,413 552,413 C552,413 608,413 608,403 " fill="none" style="stroke:#A80036;stroke-width:1.0;"/><text fill="#000000" font-family="sans-serif" font-size="14" lengthAdjust="spacing" textLength="92" x="506" y="429.9951">ElasticSearch</text><text fill="#000000" font-family="sans-serif" font-size="14" lengthAdjust="spacing" textLength="44" x="530" y="446.292">Hotels</text><text fill="#000000" font-family="sans-serif" font-size="14" lengthAdjust="spacing" textLength="37" x="533.5" y="462.5889">Index</text></g><!--entity elasticSearch--><g id="elem_elasticSearch"><rect fill="#FEFECE" filter="url(#fmi6teugk8c2d)" height="46.2969" style="stroke:#A80036;stroke-width:1.0;" width="157" x="227.5" y="532"/><rect fill="#FEFECE" height="10" style="stroke:#A80036;stroke-width:1.0;" width="15" x="364.5" y="537"/><rect fill="#FEFECE" height="2" style="stroke:#A80036;stroke-width:1.0;" width="4" x="362.5" y="539"/><rect fill="#FEFECE" height="2" style="stroke:#A80036;stroke-width:1.0;" width="4" x="362.5" y="543"/><text fill="#000000" font-family="sans-serif" font-size="14" lengthAdjust="spacing" textLength="117" x="242.5" y="564.9951">ElasticSearch API</text></g><!--entity user--><g id="elem_user"><ellipse cx="306" cy="734.5" fill="#FEFECE" filter="url(#fmi6teugk8c2d)" rx="16" ry="16" style="stroke:#A80036;stroke-width:1.5;"/><path d="M306,754.5 C310,754.5 313,754.5 317,750.5 C325,750.5 333,758.5 333,766.5 L333,770.5 C333,774.5 329,778.5 325,778.5 L287,778.5 C283,778.5 279,774.5 279,770.5 L279,766.5 C279,758.5 287,750.5 295,750.5 C299,754.5 302,754.5 306,754.5 " fill="#FEFECE" filter="url(#fmi6teugk8c2d)" style="stroke:#A80036;stroke-width:1.5;"/><text fill="#000000" font-family="sans-serif" font-size="14" lengthAdjust="spacing" textLength="32" x="290" y="792.9951">User</text></g><g id="elem_GMN20"><path d="M16.5,133 L16.5,188.3984 A0,0 0 0 0 16.5,188.3984 L297.5,188.3984 A0,0 0 0 0 297.5,188.3984 L297.5,164.5 L332.05,160.5 L297.5,156.5 L297.5,143 L287.5,133 L16.5,133 A0,0 0 0 0 16.5,133 " fill="#FBFB77" filter="url(#fmi6teugk8c2d)" style="stroke:#A80036;stroke-width:1.0;"/><path d="M287.5,133 L287.5,143 L297.5,143 L287.5,133 " fill="#FBFB77" style="stroke:#A80036;stroke-width:1.0;"/><text fill="#000000" font-family="sans-serif" font-size="13" lengthAdjust="spacing" textLength="260" x="22.5" y="150.0669">You can use an Eventing function to filter</text><text fill="#000000" font-family="sans-serif" font-size="13" lengthAdjust="spacing" textLength="214" x="22.5" y="165.1997">the records and dispatch them to</text><text fill="#000000" font-family="sans-serif" font-size="13" lengthAdjust="spacing" textLength="218" x="22.5" y="180.3325">separately-configured connectors.</text></g><g id="elem_GMN23"><path d="M153.5,396.5 L153.5,467.0313 A0,0 0 0 0 153.5,467.0313 L460.5,467.0313 A0,0 0 0 0 460.5,467.0313 L460.5,406.5 L450.5,396.5 L311,396.5 L307,332.19 L303,396.5 L153.5,396.5 A0,0 0 0 0 153.5,396.5 " fill="#FBFB77" filter="url(#fmi6teugk8c2d)" style="stroke:#A80036;stroke-width:1.0;"/><path d="M450.5,396.5 L450.5,406.5 L460.5,406.5 L450.5,396.5 " fill="#FBFB77" style="stroke:#A80036;stroke-width:1.0;"/><text fill="#000000" font-family="sans-serif" font-size="13" lengthAdjust="spacing" textLength="285" x="159.5" y="413.5669">The connector will keep the index up to date;</text><text fill="#000000" font-family="sans-serif" font-size="13" lengthAdjust="spacing" textLength="286" x="159.5" y="428.6997">adding, updating, or deleting records to/from</text><text fill="#000000" font-family="sans-serif" font-size="13" lengthAdjust="spacing" textLength="273" x="159.5" y="443.8325">the index in response to requests from the</text><text fill="#000000" font-family="sans-serif" font-size="13" lengthAdjust="spacing" textLength="75" x="159.5" y="458.9653">Filter event.</text></g><g id="elem_GMN26"><path d="M420,535 L420,551 L384.87,555 L420,559 L420,575.2656 A0,0 0 0 0 420,575.2656 L734,575.2656 A0,0 0 0 0 734,575.2656 L734,545 L724,535 L420,535 A0,0 0 0 0 420,535 " fill="#FBFB77" filter="url(#fmi6teugk8c2d)" style="stroke:#A80036;stroke-width:1.0;"/><path d="M724,535 L724,545 L734,545 L724,535 " fill="#FBFB77" style="stroke:#A80036;stroke-width:1.0;"/><text fill="#000000" font-family="sans-serif" font-size="13" lengthAdjust="spacing" textLength="293" x="426" y="552.0669">Use the API to carry out ElasticSearch queries</text><text fill="#000000" font-family="sans-serif" font-size="13" lengthAdjust="spacing" textLength="98" x="430" y="567.1997">on the indexes.</text></g><!--link travelSample to vBucketFilter--><g id="link_travelSample_vBucketFilter"><path d="M396,68.35 C396,84.75 396,105.13 396,122.46 " fill="none" id="travelSample-to-vBucketFilter" style="stroke:#A80036;stroke-width:1.0;"/><polygon fill="#A80036" points="396,127.18,400,118.18,396,122.18,392,118.18,396,127.18" style="stroke:#A80036;stroke-width:1.0;"/></g><!--link vBucketFilter to ecs1--><g id="link_vBucketFilter_ecs1"><path d="M375.53,192.2 C369.23,201.72 362.29,212.27 356,222 C347.3,235.45 337.87,250.3 329.63,263.37 " fill="none" id="vBucketFilter-to-ecs1" style="stroke:#A80036;stroke-width:1.0;"/><polygon fill="#A80036" points="326.98,267.58,335.1603,262.0952,329.6441,263.3488,328.3904,257.8327,326.98,267.58" style="stroke:#A80036;stroke-width:1.0;"/><text fill="#000000" font-family="sans-serif" font-size="13" lengthAdjust="spacing" textLength="49" x="357" y="235.0669">airports</text></g><!--link vBucketFilter to ecs2--><g id="link_vBucketFilter_ecs2"><path d="M421.58,192.47 C439.04,213.6 462.21,241.65 480.45,263.73 " fill="none" id="vBucketFilter-to-ecs2" style="stroke:#A80036;stroke-width:1.0;"/><polygon fill="#A80036" points="483.54,267.47,480.8928,257.9836,480.356,263.6149,474.7246,263.078,483.54,267.47" style="stroke:#A80036;stroke-width:1.0;"/><text fill="#000000" font-family="sans-serif" font-size="13" lengthAdjust="spacing" textLength="39" x="460" y="235.0669">hotels</text></g><!--link ecs1 to pi1--><g id="link_ecs1_pi1"><path d="M248.63,332.35 C210.99,352.25 162.11,378.09 123.81,398.33 " fill="none" id="ecs1-to-pi1" style="stroke:#A80036;stroke-width:1.0;"/><polygon fill="#A80036" points="119.58,400.57,129.4075,399.9219,124.0055,398.243,125.6844,392.841,119.58,400.57" style="stroke:#A80036;stroke-width:1.0;"/></g><!--link ecs2 to pi2--><g id="link_ecs2_pi2"><path d="M519.95,332.19 C525.23,348.45 531.8,368.72 537.62,386.66 " fill="none" id="ecs2-to-pi2" style="stroke:#A80036;stroke-width:1.0;"/><polygon fill="#A80036" points="539.09,391.21,540.1183,381.415,537.5475,386.4539,532.5086,383.883,539.09,391.21" style="stroke:#A80036;stroke-width:1.0;"/></g><!--link pi1 to elasticSearch--><g id="link_pi1_elasticSearch"><path d="M118.1,461.96 C124.13,465.03 130.19,468.09 136,471 C175.28,490.67 219.93,512.45 253.6,528.76 " fill="none" id="pi1-to-elasticSearch" style="stroke:#A80036;stroke-width:1.0;"/><polygon fill="#A80036" points="257.97,530.87,251.622,523.3398,253.4725,528.6855,248.1268,530.5359,257.97,530.87" style="stroke:#A80036;stroke-width:1.0;"/></g><!--link pi2 to elasticSearch--><g id="link_pi2_elasticSearch"><path d="M495.51,462.19 C489.61,465.19 483.69,468.17 478,471 C438.3,490.77 393.13,512.54 359.04,528.82 " fill="none" id="pi2-to-elasticSearch" style="stroke:#A80036;stroke-width:1.0;"/><polygon fill="#A80036" points="354.61,530.94,364.4548,530.6566,359.1187,528.7787,360.9967,523.4426,354.61,530.94" style="stroke:#A80036;stroke-width:1.0;"/></g><!--reverse link elasticSearch to user--><g id="link_elasticSearch_user"><path d="M286.21,583.34 C276.22,598.84 265.15,619.08 260,639 C253.11,665.63 264.26,694.39 277.31,716.67 " fill="none" id="elasticSearch-backto-user" style="stroke:#A80036;stroke-width:1.0;"/><polygon fill="#A80036" points="288.72,579.53,280.4331,584.8524,285.973,583.7078,287.1176,589.2476,288.72,579.53" style="stroke:#A80036;stroke-width:1.0;"/><text fill="#000000" font-family="sans-serif" font-size="13" lengthAdjust="spacing" textLength="36" x="261" y="652.0669">query</text></g><!--reverse link user to elasticSearch--><g id="link_user_elasticSearch"><path d="M306,710.24 C306,669.17 306,610.32 306,578.5 " fill="none" id="user-backto-elasticSearch" style="stroke:#A80036;stroke-width:1.0;"/><polygon fill="#A80036" points="306,715.16,310,706.16,306,710.16,302,706.16,306,715.16" style="stroke:#A80036;stroke-width:1.0;"/><text fill="#000000" font-family="sans-serif" font-size="13" lengthAdjust="spacing" textLength="36" x="307" y="652.0669">result</text></g><!--SRC=[XPF1Rjim38RlUWeYvsP3Sko60TtGeRqDI7iOu8iYquaGMV94AftVVgISR76MOITBv4_gqo-Q3Zv2JeI6P3NOR7kmZbFUy1WGx1jIwj4OqrgsMqi8YvTiZnYQkB7z4701be1hQ0eOur8_f8YHOV7L1yOCsn5u7B29U9HmBJb-Bkw0F0bcDO_14dlNn2yfHbGMMDKITBJwZt1z5gulYK_23Thizaryy7b8cPlu75lyMIi6l_gt_Yan1fhBrpT09ZqyV7kUA2wZnbnw1Clbfoi7PhkQr-l2FTY9bcuhrgBOLpvZQe76zJOrDst4Y_gai7Wbp9Mja9ekkgdFZ5GARaIDbaYy3DUfU_XHC8ydnSTbzhizBwyr6Qa4DYOAB0Ji659tPS7tLC3Pg70WdqUT5Hztq9NesAS8dA2RfBn7wUXIRacaBRIU1ijYlYHwqHb2dMNnPLow53k_AnbRSET1eNS6fKnXJaZRn9nwXQfZzY87_5R3cmy13eY3zWUlSm1bK1uP6lnWRDiAw9t4P5zNKjHYmCf_1kNqlikfDtzwwB-796CaDvPc6SL9OWALwL7czDZrj_aBkHfTYMSlzQhDv0YPGstgRCuZfC8m7rDzD8zaG8qz4-65CRy0]--></g></svg>