<?xml version="1.0" encoding="UTF-8" standalone="no"?><svg xmlns="http://www.w3.org/2000/svg" xmlns:xlink="http://www.w3.org/1999/xlink" contentStyleType="text/css" height="809px" preserveAspectRatio="none" style="width:743px;height:809px;background:#FFFFFF;" version="1.1" viewBox="0 0 743 809" width="743px" zoomAndPan="magnify"><defs><filter height="300%" id="f1qe7kyoc9b4vc" width="300%" x="-1" y="-1"><feGaussianBlur result="blurOut" stdDeviation="2.0"/><feColorMatrix in="blurOut" result="blurOut2" type="matrix" values="0 0 0 0 0 0 0 0 0 0 0 0 0 0 0 0 0 0 .4 0"/><feOffset dx="4.0" dy="4.0" in="blurOut2" result="blurOut3"/><feBlend in="SourceGraphic" in2="blurOut3" mode="normal"/></filter></defs><g><!--entity travelSample--><g id="elem_travelSample"><path d="M360.5,16 C360.5,6 396,6 396,6 C396,6 431.5,6 431.5,16 L431.5,57.5938 C431.5,67.5938 396,67.5938 396,67.5938 C396,67.5938 360.5,67.5938 360.5,57.5938 L360.5,16 " fill="#FEFECE" filter="url(#f1qe7kyoc9b4vc)" style="stroke:#A80036;stroke-width:1.0;"/><path d="M360.5,16 C360.5,26 396,26 396,26 C396,26 431.5,26 431.5,16 " fill="none" style="stroke:#A80036;stroke-width:1.0;"/><text fill="#000000" font-family="sans-serif" font-size="14" lengthAdjust="spacing" textLength="41" x="375.5" y="42.9951">Travel</text><text fill="#000000" font-family="sans-serif" font-size="14" lengthAdjust="spacing" textLength="51" x="370.5" y="59.292">Sample</text></g><!--entity vBucketFilter--><g id="elem_vBucketFilter"><rect fill="#FEFECE" filter="url(#f1qe7kyoc9b4vc)" height="62.5938" style="stroke:#A80036;stroke-width:1.0;" width="127" x="332.5" y="133"/><rect fill="#FEFECE" height="10" style="stroke:#A80036;stroke-width:1.0;" width="15" x="439.5" y="138"/><rect fill="#FEFECE" height="2" style="stroke:#A80036;stroke-width:1.0;" width="4" x="437.5" y="140"/><rect fill="#FEFECE" height="2" style="stroke:#A80036;stroke-width:1.0;" width="4" x="437.5" y="144"/><text fill="#000000" font-family="sans-serif" font-size="14" lengthAdjust="spacing" textLength="87" x="347.5" y="165.9951">Filter by type</text><text fill="#000000" font-family="sans-serif" font-size="14" lengthAdjust="spacing" textLength="39" x="347.5" y="182.292">event</text></g><!--entity ecs1--><g id="elem_ecs1"><rect fill="#FEFECE" filter="url(#f1qe7kyoc9b4vc)" height="62.5938" style="stroke:#A80036;stroke-width:1.0;" width="126" x="244" y="277"/><rect fill="#FEFECE" height="10" style="stroke:#A80036;stroke-width:1.0;" width="15" x="350" y="282"/><rect fill="#FEFECE" height="2" style="stroke:#A80036;stroke-width:1.0;" width="4" x="348" y="284"/><rect fill="#FEFECE" height="2" style="stroke:#A80036;stroke-width:1.0;" width="4" x="348" y="288"/><text fill="#000000" font-family="sans-serif" font-size="14" lengthAdjust="spacing" textLength="44" x="259" y="309.9951">Elastic</text><text fill="#000000" font-family="sans-serif" font-size="14" lengthAdjust="spacing" textLength="86" x="259" y="326.292">Connector 1</text></g><!--entity ecs2--><g id="elem_ecs2"><rect fill="#FEFECE" filter="url(#f1qe7kyoc9b4vc)" height="62.5938" style="stroke:#A80036;stroke-width:1.0;" width="126" x="447" y="277"/><rect fill="#FEFECE" height="10" style="stroke:#A80036;stroke-width:1.0;" width="15" x="553" y="282"/><rect fill="#FEFECE" height="2" style="stroke:#A80036;stroke-width:1.0;" width="4" x="551" y="284"/><rect fill="#FEFECE" height="2" style="stroke:#A80036;stroke-width:1.0;" width="4" x="551" y="288"/><text fill="#000000" font-family="sans-serif" font-size="14" lengthAdjust="spacing" textLength="44" x="462" y="309.9951">Elastic</text><text fill="#000000" font-family="sans-serif" font-size="14" lengthAdjust="spacing" textLength="86" x="462" y="326.292">Connector 2</text></g><!--entity pi1--><g id="elem_pi1"><path d="M6,411 C6,401 62,401 62,401 C62,401 118,401 118,411 L118,468.8906 C118,478.8906 62,478.8906 62,478.8906 C62,478.8906 6,478.8906 6,468.8906 L6,411 " fill="#FEFECE" filter="url(#f1qe7kyoc9b4vc)" style="stroke:#A80036;stroke-width:1.0;"/><path d="M6,411 C6,421 62,421 62,421 C62,421 118,421 118,411 " fill="none" style="stroke:#A80036;stroke-width:1.0;"/><text fill="#000000" font-family="sans-serif" font-size="14" lengthAdjust="spacing" textLength="92" x="16" y="437.9951">ElasticSearch</text><text fill="#000000" font-family="sans-serif" font-size="14" lengthAdjust="spacing" textLength="45" x="39.5" y="454.292">Airport</text><text fill="#000000" font-family="sans-serif" font-size="14" lengthAdjust="spacing" textLength="37" x="43.5" y="470.5889">Index</text></g><!--entity pi2--><g id="elem_pi2"><path d="M496,411 C496,401 552,401 552,401 C552,401 608,401 608,411 L608,468.8906 C608,478.8906 552,478.8906 552,478.8906 C552,478.8906 496,478.8906 496,468.8906 L496,411 " fill="#FEFECE" filter="url(#f1qe7kyoc9b4vc)" style="stroke:#A80036;stroke-width:1.0;"/><path d="M496,411 C496,421 552,421 552,421 C552,421 608,421 608,411 " fill="none" style="stroke:#A80036;stroke-width:1.0;"/><text fill="#000000" font-family="sans-serif" font-size="14" lengthAdjust="spacing" textLength="92" x="506" y="437.9951">ElasticSearch</text><text fill="#000000" font-family="sans-serif" font-size="14" lengthAdjust="spacing" textLength="44" x="530" y="454.292">Hotels</text><text fill="#000000" font-family="sans-serif" font-size="14" lengthAdjust="spacing" textLength="37" x="533.5" y="470.5889">Index</text></g><!--entity elasticSearch--><g id="elem_elasticSearch"><rect fill="#FEFECE" filter="url(#f1qe7kyoc9b4vc)" height="46.2969" style="stroke:#A80036;stroke-width:1.0;" width="157" x="227.5" y="540"/><rect fill="#FEFECE" height="10" style="stroke:#A80036;stroke-width:1.0;" width="15" x="364.5" y="545"/><rect fill="#FEFECE" height="2" style="stroke:#A80036;stroke-width:1.0;" width="4" x="362.5" y="547"/><rect fill="#FEFECE" height="2" style="stroke:#A80036;stroke-width:1.0;" width="4" x="362.5" y="551"/><text fill="#000000" font-family="sans-serif" font-size="14" lengthAdjust="spacing" textLength="117" x="242.5" y="572.9951">ElasticSearch API</text></g><!--entity user--><g id="elem_user"><ellipse cx="306" cy="742.5" fill="#FEFECE" filter="url(#f1qe7kyoc9b4vc)" rx="16" ry="16" style="stroke:#A80036;stroke-width:1.5;"/><path d="M306,762.5 C310,762.5 313,762.5 317,758.5 C325,758.5 333,766.5 333,774.5 L333,778.5 C333,782.5 329,786.5 325,786.5 L287,786.5 C283,786.5 279,782.5 279,778.5 L279,774.5 C279,766.5 287,758.5 295,758.5 C299,762.5 302,762.5 306,762.5 " fill="#FEFECE" filter="url(#f1qe7kyoc9b4vc)" style="stroke:#A80036;stroke-width:1.5;"/><text fill="#000000" font-family="sans-serif" font-size="14" lengthAdjust="spacing" textLength="32" x="290" y="800.9951">User</text></g><g id="elem_GMN20"><path d="M16.5,129 L16.5,199.5313 A0,0 0 0 0 16.5,199.5313 L297.5,199.5313 A0,0 0 0 0 297.5,199.5313 L297.5,168.5 L332.05,164.5 L297.5,160.5 L297.5,139 L287.5,129 L16.5,129 A0,0 0 0 0 16.5,129 " fill="#FBFB77" filter="url(#f1qe7kyoc9b4vc)" style="stroke:#A80036;stroke-width:1.0;"/><path d="M287.5,129 L287.5,139 L297.5,139 L287.5,129 " fill="#FBFB77" style="stroke:#A80036;stroke-width:1.0;"/><text fill="#000000" font-family="sans-serif" font-size="13" lengthAdjust="spacing" textLength="260" x="22.5" y="146.0669">You can use an Eventing function to filter</text><text fill="#000000" font-family="sans-serif" font-size="13" lengthAdjust="spacing" textLength="214" x="22.5" y="161.1997">the records and dispatch them to</text><text fill="#000000" font-family="sans-serif" font-size="13" lengthAdjust="spacing" textLength="139" x="26.5" y="176.3325">separately-configured</text><text fill="#000000" font-family="sans-serif" font-size="13" lengthAdjust="spacing" textLength="75" x="22.5" y="191.4653">connectors.</text></g><g id="elem_GMN23"><path d="M153.5,404.5 L153.5,475.0313 A0,0 0 0 0 153.5,475.0313 L460.5,475.0313 A0,0 0 0 0 460.5,475.0313 L460.5,414.5 L450.5,404.5 L311,404.5 L307,340.19 L303,404.5 L153.5,404.5 A0,0 0 0 0 153.5,404.5 " fill="#FBFB77" filter="url(#f1qe7kyoc9b4vc)" style="stroke:#A80036;stroke-width:1.0;"/><path d="M450.5,404.5 L450.5,414.5 L460.5,414.5 L450.5,404.5 " fill="#FBFB77" style="stroke:#A80036;stroke-width:1.0;"/><text fill="#000000" font-family="sans-serif" font-size="13" lengthAdjust="spacing" textLength="285" x="159.5" y="421.5669">The connector will keep the index up to date;</text><text fill="#000000" font-family="sans-serif" font-size="13" lengthAdjust="spacing" textLength="286" x="159.5" y="436.6997">adding, updating, or deleting records to/from</text><text fill="#000000" font-family="sans-serif" font-size="13" lengthAdjust="spacing" textLength="273" x="159.5" y="451.8325">the index in response to requests from the</text><text fill="#000000" font-family="sans-serif" font-size="13" lengthAdjust="spacing" textLength="75" x="159.5" y="466.9653">Filter event.</text></g><g id="elem_GMN26"><path d="M420,543 L420,559 L384.87,563 L420,567 L420,583.2656 A0,0 0 0 0 420,583.2656 L734,583.2656 A0,0 0 0 0 734,583.2656 L734,553 L724,543 L420,543 A0,0 0 0 0 420,543 " fill="#FBFB77" filter="url(#f1qe7kyoc9b4vc)" style="stroke:#A80036;stroke-width:1.0;"/><path d="M724,543 L724,553 L734,553 L724,543 " fill="#FBFB77" style="stroke:#A80036;stroke-width:1.0;"/><text fill="#000000" font-family="sans-serif" font-size="13" lengthAdjust="spacing" textLength="293" x="426" y="560.0669">Use the API to carry out ElasticSearch queries</text><text fill="#000000" font-family="sans-serif" font-size="13" lengthAdjust="spacing" textLength="98" x="430" y="575.1997">on the indexes.</text></g><!--link travelSample to vBucketFilter--><g id="link_travelSample_vBucketFilter"><path d="M396,68.38 C396,85.85 396,107.92 396,126.41 " fill="none" id="travelSample-to-vBucketFilter" style="stroke:#A80036;stroke-width:1.0;"/><polygon fill="#A80036" points="396,131.01,400,122.01,396,126.01,392,122.01,396,131.01" style="stroke:#A80036;stroke-width:1.0;"/></g><!--link vBucketFilter to ecs1--><g id="link_vBucketFilter_ecs1"><path d="M376.69,196.31 C362.87,218.36 344.21,248.12 329.68,271.31 " fill="none" id="vBucketFilter-to-ecs1" style="stroke:#A80036;stroke-width:1.0;"/><polygon fill="#A80036" points="327.08,275.47,335.247,269.9654,329.7338,271.2324,328.4668,265.7193,327.08,275.47" style="stroke:#A80036;stroke-width:1.0;"/><text fill="#000000" font-family="sans-serif" font-size="13" lengthAdjust="spacing" textLength="49" x="356" y="243.0669">airports</text></g><!--link vBucketFilter to ecs2--><g id="link_vBucketFilter_ecs2"><path d="M420.74,196.31 C438.59,218.55 462.74,248.63 481.41,271.89 " fill="none" id="vBucketFilter-to-ecs2" style="stroke:#A80036;stroke-width:1.0;"/><polygon fill="#A80036" points="484.36,275.57,481.8485,266.0468,481.2313,271.6698,475.6082,271.0527,484.36,275.57" style="stroke:#A80036;stroke-width:1.0;"/><text fill="#000000" font-family="sans-serif" font-size="13" lengthAdjust="spacing" textLength="39" x="460" y="243.0669">hotels</text></g><!--link ecs1 to pi1--><g id="link_ecs1_pi1"><path d="M248.63,340.35 C210.99,360.25 162.11,386.09 123.81,406.33 " fill="none" id="ecs1-to-pi1" style="stroke:#A80036;stroke-width:1.0;"/><polygon fill="#A80036" points="119.58,408.57,129.4075,407.9219,124.0055,406.243,125.6844,400.841,119.58,408.57" style="stroke:#A80036;stroke-width:1.0;"/></g><!--link ecs2 to pi2--><g id="link_ecs2_pi2"><path d="M519.95,340.19 C525.23,356.45 531.8,376.72 537.62,394.66 " fill="none" id="ecs2-to-pi2" style="stroke:#A80036;stroke-width:1.0;"/><polygon fill="#A80036" points="539.09,399.21,540.1183,389.415,537.5475,394.4539,532.5086,391.883,539.09,399.21" style="stroke:#A80036;stroke-width:1.0;"/></g><!--link pi1 to elasticSearch--><g id="link_pi1_elasticSearch"><path d="M118.1,469.96 C124.13,473.03 130.19,476.09 136,479 C175.28,498.67 219.93,520.45 253.6,536.76 " fill="none" id="pi1-to-elasticSearch" style="stroke:#A80036;stroke-width:1.0;"/><polygon fill="#A80036" points="257.97,538.87,251.622,531.3398,253.4725,536.6855,248.1268,538.5359,257.97,538.87" style="stroke:#A80036;stroke-width:1.0;"/></g><!--link pi2 to elasticSearch--><g id="link_pi2_elasticSearch"><path d="M495.51,470.19 C489.61,473.19 483.69,476.17 478,479 C438.3,498.77 393.13,520.54 359.04,536.82 " fill="none" id="pi2-to-elasticSearch" style="stroke:#A80036;stroke-width:1.0;"/><polygon fill="#A80036" points="354.61,538.94,364.4548,538.6566,359.1187,536.7787,360.9967,531.4426,354.61,538.94" style="stroke:#A80036;stroke-width:1.0;"/></g><!--reverse link elasticSearch to user--><g id="link_elasticSearch_user"><path d="M286.21,591.34 C276.22,606.84 265.15,627.08 260,647 C253.11,673.63 264.26,702.39 277.31,724.67 " fill="none" id="elasticSearch-backto-user" style="stroke:#A80036;stroke-width:1.0;"/><polygon fill="#A80036" points="288.72,587.53,280.4331,592.8524,285.973,591.7078,287.1176,597.2476,288.72,587.53" style="stroke:#A80036;stroke-width:1.0;"/><text fill="#000000" font-family="sans-serif" font-size="13" lengthAdjust="spacing" textLength="36" x="261" y="660.0669">query</text></g><!--reverse link user to elasticSearch--><g id="link_user_elasticSearch"><path d="M306,718.24 C306,677.17 306,618.32 306,586.5 " fill="none" id="user-backto-elasticSearch" style="stroke:#A80036;stroke-width:1.0;"/><polygon fill="#A80036" points="306,723.16,310,714.16,306,718.16,302,714.16,306,723.16" style="stroke:#A80036;stroke-width:1.0;"/><text fill="#000000" font-family="sans-serif" font-size="13" lengthAdjust="spacing" textLength="36" x="307" y="660.0669">result</text></g><!--SRC=[XPF1Rjim38RlUWeYvtf3Sko60TtGeRqDI7iOu8iYquaGMV94EftVVgJiR76MOITBr4_gqq-QZZv2JeI6PDNRR3kmZbFUyXWGx1jIwj0OqrYsEqi8gvTiJnZgkBLT7t05be1BQ0eOurBNfuYHOVNL1yOCkn5uxB6EU99mIJbz7jmHUH8iSXw39VQkZbzIZAWii2ufw6Zz7-7cBDnS4i_2BThi3dLyyBbFcUlu71lyMJ9wl_wt_Yan1bhADpT09ZqyV7kUA2wZnbnw15NrwSg1nQwSwtFX7kn4IxSL6r4S2fyn9K7Z-ffoDct4Yz9IMBqIvi8sa9ekkgdEWbGIRaIDfaXywA-Fxk77W7cS5H-hxFS7hgur6Ma8R4mKM0ZOCgJsoeBlQG1deyA1V1vrLdpSGpj4npv5u0Jj9EK3IaMNSaCYRQ3nr5iMy-MW4vq1GXrcCMQiN8gjtmyP6sdQF2dqpg3aAStCj4lCgLEgCcSlSiDlDRpv4E28sEi5u7KGOEWLIAO6FnZRD49w9p7PbvKaDHYmFE1CokbzcrDd_jJGdmz9vaYUBCKoYfN412hJgypSxVBV_8LSd2x4YrQzQZ6vGWPHYpgRymXfO5ZEgNRD8nbGPyz4U67CBm00]--></g></svg>