<?xml version="1.0" encoding="UTF-8" standalone="no"?><svg xmlns="http://www.w3.org/2000/svg" xmlns:xlink="http://www.w3.org/1999/xlink" contentScriptType="application/ecmascript" contentStyleType="text/css" height="371px" preserveAspectRatio="none" style="width:1124px;height:371px;background:#FFFFFF;" version="1.1" viewBox="0 0 1124 371" width="1124px" zoomAndPan="magnify"><defs><filter height="300%" id="fhzpqu7g7s7ag" width="300%" x="-1" y="-1"><feGaussianBlur result="blurOut" stdDeviation="2.0"/><feColorMatrix in="blurOut" result="blurOut2" type="matrix" values="0 0 0 0 0 0 0 0 0 0 0 0 0 0 0 0 0 0 .4 0"/><feOffset dx="4.0" dy="4.0" in="blurOut2" result="blurOut3"/><feBlend in="SourceGraphic" in2="blurOut3" mode="normal"/></filter></defs><g><!--MD5=[b0ecd723229114f7ce0b0ff6c303ce95]
cluster Query Service--><rect fill="#FFFFFF" filter="url(#fhzpqu7g7s7ag)" height="189" style="stroke:#000000;stroke-width:1.5;" width="1105" x="7" y="69"/><text fill="#000000" font-family="sans-serif" font-size="14" font-weight="bold" lengthAdjust="spacing" textLength="96" x="511.5" y="84.9999">Query Service</text><!--MD5=[ab014a51b30e088747804f887329f388]
entity Parse--><rect fill="#FEFECE" filter="url(#fhzpqu7g7s7ag)" height="137.5995" style="stroke:#000000;stroke-width:1.5;" width="56" x="23" y="104"/><text fill="#000000" font-family="sans-serif" font-size="14" lengthAdjust="spacing" textLength="36" x="33" y="127.9999">Parse</text><text fill="#000000" font-family="sans-serif" font-size="14" lengthAdjust="spacing" textLength="0" x="53" y="144.7999"/><text fill="#000000" font-family="sans-serif" font-size="14" lengthAdjust="spacing" textLength="0" x="53" y="161.5998"/><text fill="#000000" font-family="sans-serif" font-size="14" lengthAdjust="spacing" textLength="11" x="45.5" y="178.3997">▢</text><text fill="#000000" font-family="sans-serif" font-size="14" lengthAdjust="spacing" textLength="0" x="53" y="195.1996"/><text fill="#000000" font-family="sans-serif" font-size="14" lengthAdjust="spacing" textLength="0" x="53" y="211.9996"/><text fill="#000000" font-family="sans-serif" font-size="14" lengthAdjust="spacing" textLength="0" x="53" y="228.7995"/><!--MD5=[fb328efc308957fb7a58023446b50fc4]
entity Plan--><rect fill="#FEFECE" filter="url(#fhzpqu7g7s7ag)" height="137.5995" style="stroke:#000000;stroke-width:1.5;" width="48" x="114" y="104"/><text fill="#000000" font-family="sans-serif" font-size="14" lengthAdjust="spacing" textLength="28" x="124" y="127.9999">Plan</text><text fill="#000000" font-family="sans-serif" font-size="14" lengthAdjust="spacing" textLength="0" x="140" y="144.7999"/><text fill="#000000" font-family="sans-serif" font-size="14" lengthAdjust="spacing" textLength="0" x="140" y="161.5998"/><text fill="#000000" font-family="sans-serif" font-size="14" lengthAdjust="spacing" textLength="11" x="132.5" y="178.3997">▢</text><text fill="#000000" font-family="sans-serif" font-size="14" lengthAdjust="spacing" textLength="0" x="140" y="195.1996"/><text fill="#000000" font-family="sans-serif" font-size="14" lengthAdjust="spacing" textLength="0" x="140" y="211.9996"/><text fill="#000000" font-family="sans-serif" font-size="14" lengthAdjust="spacing" textLength="0" x="140" y="228.7995"/><!--MD5=[fc618e7c4c94bd88e16d83a99738a103]
entity Scan--><rect fill="#FEFECE" filter="url(#fhzpqu7g7s7ag)" height="137.5995" style="stroke:#000000;stroke-width:1.5;" width="52" x="197" y="104"/><text fill="#000000" font-family="sans-serif" font-size="14" lengthAdjust="spacing" textLength="32" x="207" y="127.9999">Scan</text><text fill="#000000" font-family="sans-serif" font-size="14" lengthAdjust="spacing" textLength="0" x="225" y="144.7999"/><text fill="#000000" font-family="sans-serif" font-size="14" lengthAdjust="spacing" textLength="0" x="225" y="161.5998"/><text fill="#000000" font-family="sans-serif" font-size="14" lengthAdjust="spacing" textLength="11" x="217.5" y="178.3997">▢</text><text fill="#000000" font-family="sans-serif" font-size="14" lengthAdjust="spacing" textLength="0" x="225" y="195.1996"/><text fill="#000000" font-family="sans-serif" font-size="14" lengthAdjust="spacing" textLength="11" x="217.5" y="211.9996">▢</text><text fill="#000000" font-family="sans-serif" font-size="14" lengthAdjust="spacing" textLength="0" x="225" y="228.7995"/><!--MD5=[1bb669a7cce09e263741a8133c219385]
entity Fetch--><rect fill="#FEFECE" filter="url(#fhzpqu7g7s7ag)" height="137.5995" style="stroke:#000000;stroke-width:1.5;" width="54" x="284" y="104"/><text fill="#000000" font-family="sans-serif" font-size="14" lengthAdjust="spacing" textLength="34" x="294" y="127.9999">Fetch</text><text fill="#000000" font-family="sans-serif" font-size="14" lengthAdjust="spacing" textLength="0" x="313" y="144.7999"/><text fill="#000000" font-family="sans-serif" font-size="14" lengthAdjust="spacing" textLength="0" x="313" y="161.5998"/><text fill="#000000" font-family="sans-serif" font-size="14" lengthAdjust="spacing" textLength="11" x="305.5" y="178.3997">▢</text><text fill="#000000" font-family="sans-serif" font-size="14" lengthAdjust="spacing" textLength="11" x="305.5" y="195.1996">▢</text><text fill="#000000" font-family="sans-serif" font-size="14" lengthAdjust="spacing" textLength="11" x="305.5" y="211.9996">▢</text><text fill="#000000" font-family="sans-serif" font-size="14" lengthAdjust="spacing" textLength="11" x="305.5" y="228.7995">▢</text><!--MD5=[1891735a4eb8bb7bb36a01516366915a]
entity Join--><rect fill="#FEFECE" filter="url(#fhzpqu7g7s7ag)" height="137.5995" style="stroke:#000000;stroke-width:1.5;" width="45" x="373.5" y="104"/><text fill="#000000" font-family="sans-serif" font-size="14" lengthAdjust="spacing" textLength="25" x="383.5" y="127.9999">Join</text><text fill="#000000" font-family="sans-serif" font-size="14" lengthAdjust="spacing" textLength="0" x="398" y="144.7999"/><text fill="#000000" font-family="sans-serif" font-size="14" lengthAdjust="spacing" textLength="0" x="398" y="161.5998"/><text fill="#000000" font-family="sans-serif" font-size="14" lengthAdjust="spacing" textLength="11" x="390.5" y="178.3997">▢</text><text fill="#000000" font-family="sans-serif" font-size="14" lengthAdjust="spacing" textLength="11" x="390.5" y="195.1996">▢</text><text fill="#000000" font-family="sans-serif" font-size="14" lengthAdjust="spacing" textLength="11" x="390.5" y="211.9996">▢</text><text fill="#000000" font-family="sans-serif" font-size="14" lengthAdjust="spacing" textLength="11" x="390.5" y="228.7995">▢</text><!--MD5=[d04648e85a9b10e4576b2636e86a7d55]
entity Filter--><rect fill="#FEFECE" filter="url(#fhzpqu7g7s7ag)" height="137.5995" style="stroke:#000000;stroke-width:1.5;" width="50" x="454" y="104"/><text fill="#000000" font-family="sans-serif" font-size="14" lengthAdjust="spacing" textLength="30" x="464" y="127.9999">Filter</text><text fill="#000000" font-family="sans-serif" font-size="14" lengthAdjust="spacing" textLength="0" x="481" y="144.7999"/><text fill="#000000" font-family="sans-serif" font-size="14" lengthAdjust="spacing" textLength="0" x="481" y="161.5998"/><text fill="#000000" font-family="sans-serif" font-size="14" lengthAdjust="spacing" textLength="11" x="473.5" y="178.3997">▢</text><text fill="#000000" font-family="sans-serif" font-size="14" lengthAdjust="spacing" textLength="11" x="473.5" y="195.1996">▢</text><text fill="#000000" font-family="sans-serif" font-size="14" lengthAdjust="spacing" textLength="11" x="473.5" y="211.9996">▢</text><text fill="#000000" font-family="sans-serif" font-size="14" lengthAdjust="spacing" textLength="11" x="473.5" y="228.7995">▢</text><!--MD5=[f1b4171a748e3af05f0fe77e30f614b1]
entity PreAggregate--><rect fill="#FEFECE" filter="url(#fhzpqu7g7s7ag)" height="137.5995" style="stroke:#000000;stroke-width:1.5;" width="84" x="539" y="104"/><text fill="#000000" font-family="sans-serif" font-size="14" lengthAdjust="spacing" textLength="26" x="568" y="127.9999">Pre-</text><text fill="#000000" font-family="sans-serif" font-size="14" lengthAdjust="spacing" textLength="64" x="549" y="144.7999">Aggregate</text><text fill="#000000" font-family="sans-serif" font-size="14" lengthAdjust="spacing" textLength="0" x="583" y="161.5998"/><text fill="#000000" font-family="sans-serif" font-size="14" lengthAdjust="spacing" textLength="11" x="575.5" y="178.3997">▢</text><text fill="#000000" font-family="sans-serif" font-size="14" lengthAdjust="spacing" textLength="11" x="575.5" y="195.1996">▢</text><text fill="#000000" font-family="sans-serif" font-size="14" lengthAdjust="spacing" textLength="11" x="575.5" y="211.9996">▢</text><text fill="#000000" font-family="sans-serif" font-size="14" lengthAdjust="spacing" textLength="11" x="575.5" y="228.7995">▢</text><!--MD5=[67d59814128cc376a22bdd63aeef57b1]
entity Aggregate--><rect fill="#FEFECE" filter="url(#fhzpqu7g7s7ag)" height="137.5995" style="stroke:#000000;stroke-width:1.5;" width="84" x="658" y="104"/><text fill="#000000" font-family="sans-serif" font-size="14" lengthAdjust="spacing" textLength="64" x="668" y="127.9999">Aggregate</text><text fill="#000000" font-family="sans-serif" font-size="14" lengthAdjust="spacing" textLength="0" x="702" y="144.7999"/><text fill="#000000" font-family="sans-serif" font-size="14" lengthAdjust="spacing" textLength="0" x="702" y="161.5998"/><text fill="#000000" font-family="sans-serif" font-size="14" lengthAdjust="spacing" textLength="11" x="694.5" y="178.3997">▢</text><text fill="#000000" font-family="sans-serif" font-size="14" lengthAdjust="spacing" textLength="0" x="702" y="195.1996"/><text fill="#000000" font-family="sans-serif" font-size="14" lengthAdjust="spacing" textLength="0" x="702" y="211.9996"/><text fill="#000000" font-family="sans-serif" font-size="14" lengthAdjust="spacing" textLength="0" x="702" y="228.7995"/><!--MD5=[54e8544498e9d0fe61c308d76c98e28d]
entity Sort--><rect fill="#FEFECE" filter="url(#fhzpqu7g7s7ag)" height="137.5995" style="stroke:#000000;stroke-width:1.5;" width="45" x="777.5" y="104"/><text fill="#000000" font-family="sans-serif" font-size="14" lengthAdjust="spacing" textLength="25" x="787.5" y="127.9999">Sort</text><text fill="#000000" font-family="sans-serif" font-size="14" lengthAdjust="spacing" textLength="0" x="802" y="144.7999"/><text fill="#000000" font-family="sans-serif" font-size="14" lengthAdjust="spacing" textLength="0" x="802" y="161.5998"/><text fill="#000000" font-family="sans-serif" font-size="14" lengthAdjust="spacing" textLength="11" x="794.5" y="178.3997">▢</text><text fill="#000000" font-family="sans-serif" font-size="14" lengthAdjust="spacing" textLength="11" x="794.5" y="195.1996">▢</text><text fill="#000000" font-family="sans-serif" font-size="14" lengthAdjust="spacing" textLength="11" x="794.5" y="211.9996">▢</text><text fill="#000000" font-family="sans-serif" font-size="14" lengthAdjust="spacing" textLength="11" x="794.5" y="228.7995">▢</text><!--MD5=[ba3e2b2dca857ef37695f5c4c4439b77]
entity Offset--><rect fill="#FEFECE" filter="url(#fhzpqu7g7s7ag)" height="137.5995" style="stroke:#000000;stroke-width:1.5;" width="57" x="857.5" y="104"/><text fill="#000000" font-family="sans-serif" font-size="14" lengthAdjust="spacing" textLength="37" x="867.5" y="127.9999">Offset</text><text fill="#000000" font-family="sans-serif" font-size="14" lengthAdjust="spacing" textLength="0" x="888" y="144.7999"/><text fill="#000000" font-family="sans-serif" font-size="14" lengthAdjust="spacing" textLength="0" x="888" y="161.5998"/><text fill="#000000" font-family="sans-serif" font-size="14" lengthAdjust="spacing" textLength="11" x="880.5" y="178.3997">▢</text><text fill="#000000" font-family="sans-serif" font-size="14" lengthAdjust="spacing" textLength="0" x="888" y="195.1996"/><text fill="#000000" font-family="sans-serif" font-size="14" lengthAdjust="spacing" textLength="0" x="888" y="211.9996"/><text fill="#000000" font-family="sans-serif" font-size="14" lengthAdjust="spacing" textLength="0" x="888" y="228.7995"/><!--MD5=[7c91c379e791bbc64b0e5662b11be0d0]
entity Limit--><rect fill="#FEFECE" filter="url(#fhzpqu7g7s7ag)" height="137.5995" style="stroke:#000000;stroke-width:1.5;" width="49" x="949.5" y="104"/><text fill="#000000" font-family="sans-serif" font-size="14" lengthAdjust="spacing" textLength="29" x="959.5" y="127.9999">Limit</text><text fill="#000000" font-family="sans-serif" font-size="14" lengthAdjust="spacing" textLength="0" x="976" y="144.7999"/><text fill="#000000" font-family="sans-serif" font-size="14" lengthAdjust="spacing" textLength="0" x="976" y="161.5998"/><text fill="#000000" font-family="sans-serif" font-size="14" lengthAdjust="spacing" textLength="11" x="968.5" y="178.3997">▢</text><text fill="#000000" font-family="sans-serif" font-size="14" lengthAdjust="spacing" textLength="0" x="976" y="195.1996"/><text fill="#000000" font-family="sans-serif" font-size="14" lengthAdjust="spacing" textLength="0" x="976" y="211.9996"/><text fill="#000000" font-family="sans-serif" font-size="14" lengthAdjust="spacing" textLength="0" x="976" y="228.7995"/><!--MD5=[34cc0eb5aecfe0c894d9c7cc8648c52a]
entity Project--><rect fill="#FEFECE" filter="url(#fhzpqu7g7s7ag)" height="137.5995" style="stroke:#000000;stroke-width:1.5;" width="62" x="1034" y="104"/><text fill="#000000" font-family="sans-serif" font-size="14" lengthAdjust="spacing" textLength="42" x="1044" y="127.9999">Project</text><text fill="#000000" font-family="sans-serif" font-size="14" lengthAdjust="spacing" textLength="0" x="1067" y="144.7999"/><text fill="#000000" font-family="sans-serif" font-size="14" lengthAdjust="spacing" textLength="0" x="1067" y="161.5998"/><text fill="#000000" font-family="sans-serif" font-size="14" lengthAdjust="spacing" textLength="11" x="1059.5" y="178.3997">▢</text><text fill="#000000" font-family="sans-serif" font-size="14" lengthAdjust="spacing" textLength="11" x="1059.5" y="195.1996">▢</text><text fill="#000000" font-family="sans-serif" font-size="14" lengthAdjust="spacing" textLength="11" x="1059.5" y="211.9996">▢</text><text fill="#000000" font-family="sans-serif" font-size="14" lengthAdjust="spacing" textLength="11" x="1059.5" y="228.7995">▢</text><!--MD5=[0ba5ee7700168656dc1b457c6fe9fdac]
entity Client--><rect fill="#FEFECE" filter="url(#fhzpqu7g7s7ag)" height="36.7999" style="stroke:#000000;stroke-width:1.5;" width="55" x="23.5" y="7"/><text fill="#000000" font-family="sans-serif" font-size="14" lengthAdjust="spacing" textLength="35" x="33.5" y="30.9999">Client</text><!--MD5=[0ecd579b94b5f51ba0c6012111a3b28f]
entity Data--><path d="M344.5,312 C344.5,302 377,302 377,302 C377,302 409.5,302 409.5,312 L409.5,354.5999 C409.5,364.5999 377,364.5999 377,364.5999 C377,364.5999 344.5,364.5999 344.5,354.5999 L344.5,312 " fill="#FEFECE" filter="url(#fhzpqu7g7s7ag)" style="stroke:#000000;stroke-width:1.5;"/><path d="M344.5,312 C344.5,322 377,322 377,322 C377,322 409.5,322 409.5,312 " fill="none" style="stroke:#000000;stroke-width:1.5;"/><text fill="#000000" font-family="sans-serif" font-size="14" lengthAdjust="spacing" textLength="30" x="362" y="339.9999">Data</text><text fill="#000000" font-family="sans-serif" font-size="14" lengthAdjust="spacing" textLength="45" x="354.5" y="356.7999">Service</text><!--MD5=[2b768cf920ecee2eebe6cef60f157368]
entity Index--><path d="M208.5,312 C208.5,302 241,302 241,302 C241,302 273.5,302 273.5,312 L273.5,354.5999 C273.5,364.5999 241,364.5999 241,364.5999 C241,364.5999 208.5,364.5999 208.5,354.5999 L208.5,312 " fill="#FEFECE" filter="url(#fhzpqu7g7s7ag)" style="stroke:#000000;stroke-width:1.5;"/><path d="M208.5,312 C208.5,322 241,322 241,322 C241,322 273.5,322 273.5,312 " fill="none" style="stroke:#000000;stroke-width:1.5;"/><text fill="#000000" font-family="sans-serif" font-size="14" lengthAdjust="spacing" textLength="34" x="224" y="339.9999">Index</text><text fill="#000000" font-family="sans-serif" font-size="14" lengthAdjust="spacing" textLength="45" x="218.5" y="356.7999">Service</text><!--MD5=[f08d99a5d954cab98c847de775e5956b]
entity Search--><path d="M108.5,312 C108.5,302 141,302 141,302 C141,302 173.5,302 173.5,312 L173.5,354.5999 C173.5,364.5999 141,364.5999 141,364.5999 C141,364.5999 108.5,364.5999 108.5,354.5999 L108.5,312 " fill="#FEFECE" filter="url(#fhzpqu7g7s7ag)" style="stroke:#000000;stroke-width:1.5;"/><path d="M108.5,312 C108.5,322 141,322 141,322 C141,322 173.5,322 173.5,312 " fill="none" style="stroke:#000000;stroke-width:1.5;"/><text fill="#000000" font-family="sans-serif" font-size="14" lengthAdjust="spacing" textLength="44" x="119" y="339.9999">Search</text><text fill="#000000" font-family="sans-serif" font-size="14" lengthAdjust="spacing" textLength="45" x="118.5" y="356.7999">Service</text><!--MD5=[d5e17f2ddae227662bdc51911f589d9d]
entity End--><ellipse cx="1065" cy="25.5" fill="#FEFECE" filter="url(#fhzpqu7g7s7ag)" rx="8" ry="8" style="stroke:#A80036;stroke-width:1.5;"/><!--MD5=[42eb35e2edb912e5f5217804fff9976a]
link Client to Parse--><path d="M51,44.05 C51,57.92 51,78.27 51,98.69 " fill="none" id="Client-to-Parse" style="stroke:#A80036;stroke-width:1.0;stroke-dasharray:7.0,7.0;"/><polygon fill="#A80036" points="51,103.88,55,94.88,51,98.88,47,94.88,51,103.88" style="stroke:#A80036;stroke-width:1.0;"/><!--MD5=[5325b197ae4d561a643599dd280c5ac7]
link Parse to Plan--><path d="M79.21,173 C88.99,173 98.76,173 108.54,173 " fill="none" id="Parse-to-Plan" style="stroke:#A80036;stroke-width:1.0;"/><polygon fill="#A80036" points="113.66,173,104.66,169,108.66,173,104.66,177,113.66,173" style="stroke:#A80036;stroke-width:1.0;"/><!--MD5=[76101d9b77fafa56837ca454405c10ad]
link Plan to Scan--><path d="M162.24,173 C172.07,173 181.91,173 191.75,173 " fill="none" id="Plan-to-Scan" style="stroke:#A80036;stroke-width:1.0;"/><polygon fill="#A80036" points="196.89,173,187.89,169,191.89,173,187.89,177,196.89,173" style="stroke:#A80036;stroke-width:1.0;"/><!--MD5=[915c488fdf8193c60344f6d92f899bad]
link Scan to Fetch--><path d="M249.12,173 C259,173 268.88,173 278.76,173 " fill="none" id="Scan-to-Fetch" style="stroke:#A80036;stroke-width:1.0;"/><polygon fill="#A80036" points="283.93,173,274.93,169,278.93,173,274.93,177,283.93,173" style="stroke:#A80036;stroke-width:1.0;"/><!--MD5=[a5becf88206640121b676446bda3c2b0]
link Fetch to Join--><path d="M338.23,173 C348.22,173 358.21,173 368.21,173 " fill="none" id="Fetch-to-Join" style="stroke:#A80036;stroke-width:1.0;"/><polygon fill="#A80036" points="373.43,173,364.43,169,368.43,173,364.43,177,373.43,173" style="stroke:#A80036;stroke-width:1.0;"/><!--MD5=[96913b72fbb7b96a3fda838db621a0cf]
link Join to Filter--><path d="M418.7,173 C428.59,173 438.49,173 448.38,173 " fill="none" id="Join-to-Filter" style="stroke:#A80036;stroke-width:1.0;"/><polygon fill="#A80036" points="453.56,173,444.56,169,448.56,173,444.56,177,453.56,173" style="stroke:#A80036;stroke-width:1.0;"/><!--MD5=[307eaa6af32d0c0d6f32c155c50b6877]
link Filter to PreAggregate--><path d="M504.1,173 C513.99,173 523.88,173 533.77,173 " fill="none" id="Filter-to-PreAggregate" style="stroke:#A80036;stroke-width:1.0;"/><polygon fill="#A80036" points="538.95,173,529.95,169,533.95,173,529.95,177,538.95,173" style="stroke:#A80036;stroke-width:1.0;"/><!--MD5=[4d4fa5fc02e10bd6a9c50d07410ed866]
link PreAggregate to Aggregate--><path d="M623.3,173 C633.08,173 642.86,173 652.64,173 " fill="none" id="PreAggregate-to-Aggregate" style="stroke:#A80036;stroke-width:1.0;"/><polygon fill="#A80036" points="657.76,173,648.76,169,652.76,173,648.76,177,657.76,173" style="stroke:#A80036;stroke-width:1.0;"/><!--MD5=[0ed30e13a755be82620b1024630672ad]
link Aggregate to Sort--><path d="M742.19,173 C752.19,173 762.19,173 772.19,173 " fill="none" id="Aggregate-to-Sort" style="stroke:#A80036;stroke-width:1.0;"/><polygon fill="#A80036" points="777.42,173,768.42,169,772.42,173,768.42,177,777.42,173" style="stroke:#A80036;stroke-width:1.0;"/><!--MD5=[6ff1baa9c23c7c3acdec90f5374b9910]
link Sort to Offset--><path d="M822.51,173 C832.36,173 842.22,173 852.08,173 " fill="none" id="Sort-to-Offset" style="stroke:#A80036;stroke-width:1.0;"/><polygon fill="#A80036" points="857.23,173,848.23,169,852.23,173,848.23,177,857.23,173" style="stroke:#A80036;stroke-width:1.0;"/><!--MD5=[56c14ee24531f019d403311447c155c8]
link Offset to Limit--><path d="M914.53,173 C924.42,173 934.31,173 944.2,173 " fill="none" id="Offset-to-Limit" style="stroke:#A80036;stroke-width:1.0;"/><polygon fill="#A80036" points="949.38,173,940.38,169,944.38,173,940.38,177,949.38,173" style="stroke:#A80036;stroke-width:1.0;"/><!--MD5=[af5b13104a174ed2a4cb95a92236fa26]
link Limit to Project--><path d="M998.53,173 C1008.55,173 1018.58,173 1028.6,173 " fill="none" id="Limit-to-Project" style="stroke:#A80036;stroke-width:1.0;"/><polygon fill="#A80036" points="1033.84,173,1024.84,169,1028.84,173,1024.84,177,1033.84,173" style="stroke:#A80036;stroke-width:1.0;"/><!--MD5=[e4885972e990809fce50db31a480f265]
reverse link End to Project--><path d="M1065,40.07 C1065,54.85 1065,79.61 1065,103.72 " fill="none" id="End-backto-Project" style="stroke:#A80036;stroke-width:1.0;stroke-dasharray:7.0,7.0;"/><polygon fill="#A80036" points="1065,34.74,1061,43.74,1065,39.74,1069,43.74,1065,34.74" style="stroke:#A80036;stroke-width:1.0;"/><!--MD5=[6ba80f9c7f33666dddaa8671848be997]
link Scan to Index--><path d="M230.74,242.14 C233.1,262.95 235.58,284.8 237.51,301.8 " fill="none" id="Scan-Index" style="stroke:#A80036;stroke-width:1.0;stroke-dasharray:7.0,7.0;"/><!--MD5=[5beca6c756315c37708c55892719918d]
link Scan to Search--><path d="M196.98,231.82 C191.56,243.25 185.74,255.07 180,266 C173.77,277.85 166.46,290.59 159.86,301.71 " fill="none" id="Scan-Search" style="stroke:#A80036;stroke-width:1.0;stroke-dasharray:7.0,7.0;"/><!--MD5=[99fdd6a768fdd86becbfbf4f6634f0a8]
link Fetch to Data--><path d="M338.04,238.93 C347.08,260.64 356.74,283.84 364.18,301.71 " fill="none" id="Fetch-Data" style="stroke:#A80036;stroke-width:1.0;stroke-dasharray:7.0,7.0;"/><!--MD5=[3b3f8e75ea95cf864a624021347e689c]
link Join to Data--><path d="M387.83,242.14 C385.34,262.95 382.72,284.8 380.68,301.8 " fill="none" id="Join-Data" style="stroke:#A80036;stroke-width:1.0;stroke-dasharray:7.0,7.0;"/><!--MD5=[11d17e2752cfe1b53ede08c743dc521b]
@startuml
skinparam defaultTextAlignment center

rectangle Client

rectangle "Query Service"{
  rectangle Parse [
    Parse


    ▢



  ]
  rectangle Plan [
    Plan


    ▢



  ]
  rectangle Scan [
    Scan


    ▢

    ▢

  ]
  rectangle Fetch [
    Fetch


    ▢
    ▢
    ▢
    ▢
  ]
  rectangle Join [
    Join


    ▢
    ▢
    ▢
    ▢
  ]
  rectangle Filter [
    Filter


    ▢
    ▢
    ▢
    ▢
  ]
  rectangle PreAggregate [
    Pre-
    Aggregate

    ▢
    ▢
    ▢
    ▢
  ]
  rectangle Aggregate [
    Aggregate


    ▢



  ]
  rectangle Sort [
    Sort


    ▢
    ▢
    ▢
    ▢
  ]
  rectangle Offset [
    Offset


    ▢
    
    

  ]
  rectangle Limit [
    Limit


    ▢
    
    
    
  ]
  rectangle Project [
    Project


    ▢
    ▢
    ▢
    ▢
  ]
}

database "Data\nService" as Data
database "Index\nService" as Index
database "Search\nService" as Search

() " " as End

Client .d.> Parse
Parse -> Plan
Plan -> Scan
Scan -> Fetch
Fetch -> Join
Join -> Filter
Filter -> PreAggregate
PreAggregate -> Aggregate
Aggregate -> Sort
Sort -> Offset
Offset -> Limit
Limit -> Project
Project .u.> End

Scan .. Index
Scan .. Search
Fetch .. Data
Join .. Data
@enduml

PlantUML version 1.2021.16(Wed Dec 08 17:25:22 GMT 2021)
(GPL source distribution)
Java Runtime: OpenJDK Runtime Environment
JVM: OpenJDK 64-Bit Server VM
Default Encoding: UTF-8
Language: en
Country: US
--></g></svg>