<?xml version="1.0" encoding="UTF-8" standalone="no"?><svg xmlns="http://www.w3.org/2000/svg" xmlns:xlink="http://www.w3.org/1999/xlink" contentScriptType="application/ecmascript" contentStyleType="text/css" height="405px" preserveAspectRatio="none" style="width:960px;height:405px;background:#FFFFFF;" version="1.1" viewBox="0 0 960 405" width="960px" zoomAndPan="magnify"><defs><filter height="300%" id="f1docykqvfrz1n" width="300%" x="-1" y="-1"><feGaussianBlur result="blurOut" stdDeviation="2.0"/><feColorMatrix in="blurOut" result="blurOut2" type="matrix" values="0 0 0 0 0 0 0 0 0 0 0 0 0 0 0 0 0 0 .4 0"/><feOffset dx="4.0" dy="4.0" in="blurOut2" result="blurOut3"/><feBlend in="SourceGraphic" in2="blurOut3" mode="normal"/></filter></defs><g><!--MD5=[85c29abb6924ba539b01a2368cd4e5a6]
cluster Cluster--><rect fill="#FFFFFF" filter="url(#f1docykqvfrz1n)" height="386" style="stroke:#000000;stroke-width:1.5;" width="941" x="7" y="7"/><path d="M66,7 L66,16.7999 L56,26.7999 L7,26.7999 " fill="none" style="stroke:#000000;stroke-width:1.5;"/><text fill="#000000" font-family="sans-serif" font-size="14" font-weight="bold" lengthAdjust="spacing" textLength="49" x="10" y="21.9999">Cluster</text><!--MD5=[857fe04585c5762257f6bc76a63b9500]
cluster globalLibrary--><rect fill="#FFFFFF" filter="url(#f1docykqvfrz1n)" height="165" style="stroke:#000000;stroke-width:1.5;" width="583" x="341" y="156"/><path d="M441,156 L441,165.7999 L431,175.7999 L341,175.7999 " fill="none" style="stroke:#000000;stroke-width:1.5;"/><text fill="#000000" font-family="sans-serif" font-size="14" font-weight="bold" lengthAdjust="spacing" textLength="90" x="344" y="170.9999">global library</text><!--MD5=[3391d9f1a19c634d68793c5dffd64995]
cluster Bucket--><path d="M31,60 C31,50 174,50 174,50 C174,50 317,50 317,60 L317,359 C317,369 174,369 174,369 C174,369 31,369 31,359 L31,60 " fill="#FFFFFF" filter="url(#f1docykqvfrz1n)" style="stroke:#000000;stroke-width:1.5;"/><path d="M31,60 C31,70 174,70 174,70 C174,70 317,70 317,60 " fill="none" style="stroke:#000000;stroke-width:1.5;"/><text fill="#000000" font-family="sans-serif" font-size="14" font-weight="bold" lengthAdjust="spacing" textLength="48" x="150" y="85.9999">Bucket</text><!--MD5=[ff950ce3b0faff0072a320bae03ca30a]
cluster Scope--><polygon fill="#FFFFFF" filter="url(#f1docykqvfrz1n)" points="55,118,65,108,293,108,293,335,283,345,55,345,55,118" style="stroke:#000000;stroke-width:1.5;"/><line style="stroke:#000000;stroke-width:1.5;" x1="283" x2="293" y1="118" y2="108"/><line style="stroke:#000000;stroke-width:1.5;" x1="55" x2="283" y1="118" y2="118"/><line style="stroke:#000000;stroke-width:1.5;" x1="283" x2="283" y1="118" y2="345"/><text fill="#000000" font-family="sans-serif" font-size="14" font-weight="bold" lengthAdjust="spacing" textLength="44" x="148" y="134.9999">Scope</text><!--MD5=[0e81e07669dd045938252300784af9f1]
cluster my-library--><rect fill="#FFFFFF" filter="url(#f1docykqvfrz1n)" height="165" style="stroke:#000000;stroke-width:1.5;" width="190" x="79" y="156"/><path d="M158,156 L158,165.7999 L148,175.7999 L79,175.7999 " fill="none" style="stroke:#000000;stroke-width:1.5;"/><text fill="#000000" font-family="sans-serif" font-size="14" font-weight="bold" lengthAdjust="spacing" textLength="69" x="82" y="170.9999">my-library</text><!--MD5=[1dc377d3161fb6600bd48aab5f1bef29]
entity function3--><rect fill="#FFFFF0" filter="url(#f1docykqvfrz1n)" height="113.9996" style="stroke:#A80036;stroke-width:1.5;" width="258" x="650" y="191"/><rect fill="#FFFFF0" height="10" style="stroke:#A80036;stroke-width:1.5;" width="15" x="888" y="196"/><rect fill="#FFFFF0" height="2" style="stroke:#A80036;stroke-width:1.5;" width="4" x="886" y="198"/><rect fill="#FFFFF0" height="2" style="stroke:#A80036;stroke-width:1.5;" width="4" x="886" y="202"/><text fill="#000000" font-family="sans-serif" font-size="14" lengthAdjust="spacing" textLength="0" x="669" y="224.9999"/><text fill="#000000" font-family="sans-serif" font-size="14" lengthAdjust="spacing" textLength="218" x="665" y="241.7999">function globalUKHoliday(... args) {</text><text fill="#000000" font-family="sans-serif" font-size="14" lengthAdjust="spacing" textLength="12" x="665" y="258.5998">...</text><text fill="#000000" font-family="sans-serif" font-size="14" lengthAdjust="spacing" textLength="5" x="665" y="275.3997">}</text><text fill="#000000" font-family="sans-serif" font-size="14" lengthAdjust="spacing" textLength="0" x="669" y="292.1996"/><!--MD5=[7103fed7bd2172f155f5b2e4f63aed18]
entity function4--><rect fill="#FFFFF0" filter="url(#f1docykqvfrz1n)" height="113.9996" style="stroke:#A80036;stroke-width:1.5;" width="258" x="357" y="191"/><rect fill="#FFFFF0" height="10" style="stroke:#A80036;stroke-width:1.5;" width="15" x="595" y="196"/><rect fill="#FFFFF0" height="2" style="stroke:#A80036;stroke-width:1.5;" width="4" x="593" y="198"/><rect fill="#FFFFF0" height="2" style="stroke:#A80036;stroke-width:1.5;" width="4" x="593" y="202"/><text fill="#000000" font-family="sans-serif" font-size="14" lengthAdjust="spacing" textLength="0" x="376" y="224.9999"/><text fill="#000000" font-family="sans-serif" font-size="14" lengthAdjust="spacing" textLength="218" x="372" y="241.7999">function globalUSHoliday(... args) {</text><text fill="#000000" font-family="sans-serif" font-size="14" lengthAdjust="spacing" textLength="12" x="372" y="258.5998">...</text><text fill="#000000" font-family="sans-serif" font-size="14" lengthAdjust="spacing" textLength="5" x="372" y="275.3997">}</text><text fill="#000000" font-family="sans-serif" font-size="14" lengthAdjust="spacing" textLength="0" x="376" y="292.1996"/><!--MD5=[08c4886f0cdbbfe5a8548b418b6bf7c5]
entity function1--><rect fill="#FFFFF0" filter="url(#f1docykqvfrz1n)" height="113.9996" style="stroke:#A80036;stroke-width:1.5;" width="158" x="95" y="191"/><rect fill="#FFFFF0" height="10" style="stroke:#A80036;stroke-width:1.5;" width="15" x="233" y="196"/><rect fill="#FFFFF0" height="2" style="stroke:#A80036;stroke-width:1.5;" width="4" x="231" y="198"/><rect fill="#FFFFF0" height="2" style="stroke:#A80036;stroke-width:1.5;" width="4" x="231" y="202"/><text fill="#000000" font-family="sans-serif" font-size="14" lengthAdjust="spacing" textLength="0" x="114" y="224.9999"/><text fill="#000000" font-family="sans-serif" font-size="14" lengthAdjust="spacing" textLength="118" x="110" y="241.7999">function add(x, y) {</text><text fill="#000000" font-family="sans-serif" font-size="14" lengthAdjust="spacing" textLength="12" x="110" y="258.5998">...</text><text fill="#000000" font-family="sans-serif" font-size="14" lengthAdjust="spacing" textLength="5" x="110" y="275.3997">}</text><text fill="#000000" font-family="sans-serif" font-size="14" lengthAdjust="spacing" textLength="0" x="114" y="292.1996"/><!--MD5=[aa7b46256e966d6b5b450861b8562e7b]
@startuml
frame Cluster {

    frame "global library" as globalLibrary #white {
    
        component function3 #Ivory [
                        
function globalUKHoliday(... args) {
    ...       
}
        
        ]
    
        component function4 #Ivory [
                        
function globalUSHoliday(... args) {
    ...       
}
        
        ]
    }

    database "Bucket" {
        
        node "Scope" #White {
          
            frame "my-library" #White {
                    
             component function1 #Ivory [
                            
function add(x, y) {
    ...       
}
            
            ]
                   
        }     
    }
}
@enduml

PlantUML version 1.2021.16(Wed Dec 08 17:25:22 GMT 2021)
(GPL source distribution)
Java Runtime: OpenJDK Runtime Environment
JVM: OpenJDK 64-Bit Server VM
Default Encoding: UTF-8
Language: en
Country: US
--></g></svg>