<?xml version="1.0" encoding="us-ascii" standalone="no"?><svg xmlns="http://www.w3.org/2000/svg" xmlns:xlink="http://www.w3.org/1999/xlink" contentStyleType="text/css" height="365px" preserveAspectRatio="none" style="width:989px;height:365px;background:#FFFFFF;" version="1.1" viewBox="0 0 989 365" width="989px" zoomAndPan="magnify"><defs/><g><!--cluster MyLibrary--><g id="cluster_MyLibrary"><rect fill="none" height="139" rx="2.5" ry="2.5" style="stroke:#181818;stroke-width:1.0;" width="266" x="717" y="65.7"/><path d="M806,65.7 L806,74.9969 L796,84.9969 L717,84.9969 " fill="none" style="stroke:#181818;stroke-width:1.0;"/><text fill="#000000" font-family="sans-serif" font-size="14" font-weight="bold" lengthAdjust="spacing" textLength="79" x="720" y="79.6951">my-library</text></g><!--cluster bucket--><g id="cluster_bucket"><path d="M790,246.7 C790,236.7 850,236.7 850,236.7 C850,236.7 910,236.7 910,246.7 L910,338.7 C910,348.7 850,348.7 850,348.7 C850,348.7 790,348.7 790,338.7 L790,246.7 " fill="none" style="stroke:#181818;stroke-width:1.0;"/><path d="M790,246.7 C790,256.7 850,256.7 850,256.7 C850,256.7 910,256.7 910,246.7 " fill="none" style="stroke:#181818;stroke-width:1.0;"/><text fill="#000000" font-family="sans-serif" font-size="14" font-weight="bold" lengthAdjust="spacing" textLength="54" x="823" y="271.6951">bucket</text></g><!--entity getBusinessDays--><g id="elem_getBusinessDays"><path d="M741,110.9 L741,158.4937 A2.5,2.5 0 0 0 743.5,160.9937 L956.5,160.9937 A2.5,2.5 0 0 0 959,158.4937 L959,118.4 L949,108.4 L743.5,108.4 A2.5,2.5 0 0 0 741,110.9 " fill="#F1F1F1" style="stroke:#181818;stroke-width:0.5;"/><path d="M949,108.4 L949,115.9 A2.5,2.5 0 0 0 951.5,118.4 L959,118.4 " fill="#F1F1F1" style="stroke:#181818;stroke-width:0.5;"/><text fill="#000000" font-family="sans-serif" font-size="14" lengthAdjust="spacing" textLength="194" x="751" y="131.3951">getBusinessDays(startDate,</text><text fill="#000000" font-family="sans-serif" font-size="14" lengthAdjust="spacing" textLength="65" x="751" y="147.692">endDate)</text></g><!--entity scope--><g id="elem_scope"><polygon fill="#F1F1F1" points="806,296.55,816,286.55,894,286.55,894,322.8469,884,332.8469,806,332.8469,806,296.55" style="stroke:#181818;stroke-width:0.5;"/><line style="stroke:#181818;stroke-width:0.5;" x1="884" x2="894" y1="296.55" y2="286.55"/><line style="stroke:#181818;stroke-width:0.5;" x1="806" x2="884" y1="296.55" y2="296.55"/><line style="stroke:#181818;stroke-width:0.5;" x1="884" x2="884" y1="296.55" y2="332.8469"/><text fill="#000000" font-family="sans-serif" font-size="14" font-weight="bold" lengthAdjust="spacing" textLength="48" x="821" y="319.5451">scope</text></g><!--entity n1qlUDFunction--><g id="elem_n1qlUDFunction"><rect fill="#F1F1F1" height="62.5938" rx="2.5" ry="2.5" style="stroke:#181818;stroke-width:0.5;" width="268" x="352" y="103.4"/><rect fill="#F1F1F1" height="10" style="stroke:#181818;stroke-width:0.5;" width="15" x="600" y="108.4"/><rect fill="#F1F1F1" height="2" style="stroke:#181818;stroke-width:0.5;" width="4" x="598" y="110.4"/><rect fill="#F1F1F1" height="2" style="stroke:#181818;stroke-width:0.5;" width="4" x="598" y="114.4"/><text fill="#000000" font-family="sans-serif" font-size="14" font-style="italic" lengthAdjust="spacing" textLength="228" x="367" y="136.3951">&#171;SQL++ User-Defined Function&#187;</text><text fill="#000000" font-family="sans-serif" font-size="14" lengthAdjust="spacing" textLength="143" x="409.5" y="152.692">getBusinessDays(...)</text></g><!--entity user--><g id="elem_user"><ellipse cx="149" cy="112.55" fill="#F1F1F1" rx="16" ry="16" style="stroke:#181818;stroke-width:0.5;"/><path d="M149,132.55 C153,132.55 156,132.55 160,128.55 C168,128.55 176,136.55 176,144.55 L176,148.55 C176,152.55 172,156.55 168,156.55 L130,156.55 C126,156.55 122,152.55 122,148.55 L122,144.55 C122,136.55 130,128.55 138,128.55 C142,132.55 145,132.55 149,132.55 " fill="#F1F1F1" style="stroke:#181818;stroke-width:0.5;"/><text fill="#000000" font-family="sans-serif" font-size="14" lengthAdjust="spacing" textLength="31" x="133.5" y="170.0451">user</text></g><g id="elem_GMN11"><path d="M6,6 L6,61.3984 A0,0 0 0 0 6,61.3984 L146,61.3984 L150,95.77 L154,61.3984 L292,61.3984 A0,0 0 0 0 292,61.3984 L292,16 L282,6 L6,6 A0,0 0 0 0 6,6 " fill="#FFFFF0" style="stroke:#181818;stroke-width:0.5;"/><path d="M282,6 L282,16 L292,16 L282,6 " fill="#FFFFF0" style="stroke:#181818;stroke-width:0.5;"/><text fill="#000000" font-family="sans-serif" font-size="13" lengthAdjust="spacing" textLength="265" x="12" y="23.0669">can access the getBusinessDays function</text><text fill="#000000" font-family="sans-serif" font-size="13" lengthAdjust="spacing" textLength="162" x="12" y="38.1997">as long as s/he is working</text><text fill="#000000" font-family="sans-serif" font-size="13" lengthAdjust="spacing" textLength="71" x="12" y="53.3325">inside the "</text><text fill="#000000" font-family="sans-serif" font-size="13" font-weight="bold" lengthAdjust="spacing" textLength="100" x="83" y="53.3325">bucket.scope</text><text fill="#000000" font-family="sans-serif" font-size="13" lengthAdjust="spacing" textLength="57" x="183" y="53.3325">" context</text></g><!--link n1qlUDFunction to getBusinessDays--><g id="link_n1qlUDFunction_getBusinessDays"><path codeLine="18" d="M620.25,134.7 C659.86,134.7 696.72,134.7 734.57,134.7 " fill="none" id="n1qlUDFunction-to-getBusinessDays" style="stroke:#181818;stroke-width:1.0;"/><polygon fill="#181818" points="740.57,134.7,731.57,130.7,735.57,134.7,731.57,138.7,740.57,134.7" style="stroke:#181818;stroke-width:1.0;"/></g><!--reverse link scope to MyLibrary--><g id="link_scope_MyLibrary"><path codeLine="28" d="M850,280.29 C850,264.775 850,250.12 850,232.5525 C850,223.7688 850,215.7569 850,209.5453 C850,207.9924 850,206.5521 850,205.2403 C850,205.0763 850,204.9143 850,204.7544 " fill="none" id="scope-backto-MyLibrary" style="stroke:#181818;stroke-width:1.0;stroke-dasharray:7.0,7.0;"/><polygon fill="#181818" points="850,286.29,854,277.29,850,281.29,846,277.29,850,286.29" style="stroke:#181818;stroke-width:1.0;"/></g><!--link user to n1qlUDFunction--><g id="link_user_n1qlUDFunction"><path codeLine="32" d="M176.86,134.7 C215.26,134.7 281.06,134.7 345.8,134.7 " fill="none" id="user-to-n1qlUDFunction" style="stroke:#181818;stroke-width:1.0;"/><polygon fill="#181818" points="351.8,134.7,342.8,130.7,346.8,134.7,342.8,138.7,351.8,134.7" style="stroke:#181818;stroke-width:1.0;"/></g><!--SRC=[RP5DQyCm38Rl_XKYkwpjah5xAMo4mQ0xZDBROBY9afewLcOhQyFOVv_iigzs8G4vhomzhwIjfVrBPmx6jKfPR1YOm9jsor0RZnKRSYhiZEkrrnteYiclUBG8jtiCrE4lqHg7FFO8FTan7lxJoFEMbAgewycXOyXQvBiXY1v2gSTmMHJ598FvVFMqdCrW7T3d9JQYrt0_k4IqM80Eu6vUxRhy-gSKG2Ej4B9kpAtPUEt7BEOzZilZ2TubHrveZ1WuQnnOUourunKy2reTmqcgS98PMtqeUVuIG9xdYzDSK6bca0rY91MBGRnSQzOR7GHaCrGxv2GUmmJgg1PjEWqLzJYT9Zd5AlPE4SnbM5w-uiTaB1rRG8Gv7P4ZHjbm3zGa3hXuU2Ev0r1f9zkjX1fuYsSkcgyI434ikJRXN4kg2R0dBvjkusoD2qQuOmrXFzeflYrKv1WFh6Iw45a-0G00]--></g></svg>