<?xml version="1.0" encoding="UTF-8" standalone="no"?><svg xmlns="http://www.w3.org/2000/svg" xmlns:xlink="http://www.w3.org/1999/xlink" contentStyleType="text/css" height="268px" preserveAspectRatio="none" style="width:525px;height:268px;background:#FFFFFF;" version="1.1" viewBox="0 0 525 268" width="525px" zoomAndPan="magnify"><defs/><g><!--entity My Organization--><g id="elem_My Organization"><polygon fill="#F1F1F1" points="426,19,371,6,261,6,206,19,261,32,371,32,426,19" style="stroke:#181818;stroke-width:0.5;"/><text fill="#000000" font-family="sans-serif" font-size="14" lengthAdjust="spacing" textLength="110" x="261" y="23.9951">My Organization</text></g><!--entity My Development Project--><g id="elem_My Development Project"><path d="M107.5,92 L148.5,92 A3.75,3.75 0 0 1 151,94.5 L158,113 L300.5,113 A2.5,2.5 0 0 1 303,115.5 L303,143.7969 A2.5,2.5 0 0 1 300.5,146.2969 L107.5,146.2969 A2.5,2.5 0 0 1 105,143.7969 L105,94.5 A2.5,2.5 0 0 1 107.5,92 " fill="#F1F1F1" style="stroke:#181818;stroke-width:0.5;"/><line style="stroke:#181818;stroke-width:0.5;" x1="105" x2="158" y1="113" y2="113"/><text fill="#000000" font-family="sans-serif" font-size="14" lengthAdjust="spacing" textLength="168" x="115" y="132.9951">My Development Project</text></g><!--entity My Production Project--><g id="elem_My Production Project"><path d="M340.5,92 L381.5,92 A3.75,3.75 0 0 1 384,94.5 L391,113 L515.5,113 A2.5,2.5 0 0 1 518,115.5 L518,143.7969 A2.5,2.5 0 0 1 515.5,146.2969 L340.5,146.2969 A2.5,2.5 0 0 1 338,143.7969 L338,94.5 A2.5,2.5 0 0 1 340.5,92 " fill="#F1F1F1" style="stroke:#181818;stroke-width:0.5;"/><line style="stroke:#181818;stroke-width:0.5;" x1="338" x2="391" y1="113" y2="113"/><text fill="#000000" font-family="sans-serif" font-size="14" lengthAdjust="spacing" textLength="150" x="348" y="132.9951">My Production Project</text></g><!--entity Dev Database 1--><g id="elem_Dev Database 1"><path d="M6,216 C6,206 71,206 71,206 C71,206 136,206 136,216 L136,241.2969 C136,251.2969 71,251.2969 71,251.2969 C71,251.2969 6,251.2969 6,241.2969 L6,216 " fill="#F1F1F1" style="stroke:#181818;stroke-width:0.5;"/><path d="M6,216 C6,226 71,226 71,226 C71,226 136,226 136,216 " fill="none" style="stroke:#181818;stroke-width:0.5;"/><text fill="#000000" font-family="sans-serif" font-size="14" lengthAdjust="spacing" textLength="110" x="16" y="242.9951">Dev Database 1</text></g><!--entity Dev Database 2--><g id="elem_Dev Database 2"><path d="M171,216 C171,206 236,206 236,206 C236,206 301,206 301,216 L301,241.2969 C301,251.2969 236,251.2969 236,251.2969 C236,251.2969 171,251.2969 171,241.2969 L171,216 " fill="#F1F1F1" style="stroke:#181818;stroke-width:0.5;"/><path d="M171,216 C171,226 236,226 236,226 C236,226 301,226 301,216 " fill="none" style="stroke:#181818;stroke-width:0.5;"/><text fill="#000000" font-family="sans-serif" font-size="14" lengthAdjust="spacing" textLength="110" x="181" y="242.9951">Dev Database 2</text></g><!--entity Prod Database--><g id="elem_Prod Database"><path d="M367,216 C367,206 428,206 428,206 C428,206 489,206 489,216 L489,241.2969 C489,251.2969 428,251.2969 428,251.2969 C428,251.2969 367,251.2969 367,241.2969 L367,216 " fill="#F1F1F1" style="stroke:#181818;stroke-width:0.5;"/><path d="M367,216 C367,226 428,226 428,226 C428,226 489,226 489,216 " fill="none" style="stroke:#181818;stroke-width:0.5;"/><text fill="#000000" font-family="sans-serif" font-size="14" lengthAdjust="spacing" textLength="102" x="377" y="242.9951">Prod Database</text></g><!--link My Organization to My Development Project--><g id="link_My Organization_My Development Project"><path d="M301.82,32.41 C286.05,46.2 260.03,68.98 238.78,87.57 " fill="none" id="My Organization-to-My Development Project" style="stroke:#181818;stroke-width:1.0;"/><polygon fill="#181818" points="235.19,90.71,244.5917,87.7761,238.9467,87.4104,239.3124,81.7654,235.19,90.71" style="stroke:#181818;stroke-width:1.0;"/></g><!--link My Organization to My Production Project--><g id="link_My Organization_My Production Project"><path d="M330.18,32.41 C345.95,46.2 371.97,68.98 393.22,87.57 " fill="none" id="My Organization-to-My Production Project" style="stroke:#181818;stroke-width:1.0;"/><polygon fill="#181818" points="396.81,90.71,392.6876,81.7654,393.0533,87.4104,387.4083,87.7761,396.81,90.71" style="stroke:#181818;stroke-width:1.0;"/></g><!--link My Development Project to Dev Database 1--><g id="link_My Development Project_Dev Database 1"><path d="M171.46,146.3 C150.53,163.22 123.46,185.09 102.7,201.88 " fill="none" id="My Development Project-to-Dev Database 1" style="stroke:#181818;stroke-width:1.0;"/><polygon fill="#181818" points="99.01,204.86,108.5231,202.3102,102.8976,201.7157,103.4921,196.0901,99.01,204.86" style="stroke:#181818;stroke-width:1.0;"/></g><!--link My Development Project to Dev Database 2--><g id="link_My Development Project_Dev Database 2"><path d="M211.83,146.3 C216.67,162.57 222.88,183.44 227.8,199.94 " fill="none" id="My Development Project-to-Dev Database 2" style="stroke:#181818;stroke-width:1.0;"/><polygon fill="#181818" points="229.11,204.36,230.3686,194.5919,227.6798,199.5689,222.7028,196.8802,229.11,204.36" style="stroke:#181818;stroke-width:1.0;"/></g><!--link My Production Project to Prod Database--><g id="link_My Production Project_Prod Database"><path d="M428,146.3 C428,162.43 428,183.07 428,199.51 " fill="none" id="My Production Project-to-Prod Database" style="stroke:#181818;stroke-width:1.0;"/><polygon fill="#181818" points="428,204.3,432,195.3,428,199.3,424,195.3,428,204.3" style="stroke:#181818;stroke-width:1.0;"/></g><!--SRC=[oqYjI4pFprDGygrKy2zAJypBh4eioSpFK-9Aoyz9IIq2IxYabgNcv1VafkQLA0GKvMUb9fUWo0F5KagJGTeGqYc99Ob9YSMf2af0tGekC9uXJXaZP1cGYN0f9Iuk3ESfwEhQuNORRkNOd8hB68WcTEUJeDe8eXgBdH35gBu40000]--></g></svg>